<?xml version="1.0" encoding="utf-8"?>
<!-- Generator: Adobe Illustrator 24.0.2, SVG Export Plug-In . SVG Version: 6.00 Build 0)  -->
<svg version="1.1" id="Layer_1" xmlns="http://www.w3.org/2000/svg" xmlns:xlink="http://www.w3.org/1999/xlink" x="0px" y="0px"
	 viewBox="0 0 415.1 88.1" enable-background="new 0 0 415.1 88.1" xml:space="preserve">
<g>
	<radialGradient id="SVGID_1_" cx="24.9224" cy="75.1351" r="65.5907" gradientUnits="userSpaceOnUse">
		<stop  offset="0.3548" style="stop-color:#FFC200"/>
		<stop  offset="0.5084" style="stop-color:#FFBD07"/>
		<stop  offset="0.7249" style="stop-color:#FFAF19"/>
		<stop  offset="0.9777" style="stop-color:#FF9737"/>
		<stop  offset="1" style="stop-color:#FF953A"/>
	</radialGradient>
	<path fill="url(#SVGID_1_)" d="M65.4,72.2c0.3,1.9-0.9,2.7-2.6,1.9l-14.2-7.1c-1.7-0.9-4.5-0.9-6.2,0l-14.2,7
		c-1.7,0.8-2.9,0-2.6-1.9L28,56.3c0.3-1.9-0.6-4.5-1.9-5.9L15.1,39.1c-1.3-1.4-0.9-2.7,1-3l15.7-2.6c1.9-0.3,4.1-1.9,5-3.6l7.4-14
		c0.9-1.7,2.3-1.7,3.2,0l7.3,14.1c0.9,1.7,3.1,3.4,5,3.7l15.6,2.7c1.9,0.3,2.3,1.7,1,3.1L65.1,50.6c-1.3,1.4-2.2,4-1.9,5.9
		L65.4,72.2z"/>
	<radialGradient id="SVGID_2_" cx="19.9346" cy="91.3917" r="94.8365" gradientUnits="userSpaceOnUse">
		<stop  offset="0.3548" style="stop-color:#FFC200"/>
		<stop  offset="0.5084" style="stop-color:#FFBD07"/>
		<stop  offset="0.7249" style="stop-color:#FFAF19"/>
		<stop  offset="0.9777" style="stop-color:#FF9737"/>
		<stop  offset="1" style="stop-color:#FF953A"/>
	</radialGradient>
	<path opacity="0.5" fill="url(#SVGID_2_)" d="M45.7,15.3c0.3,0,0.6,0.3,0.9,0.9l7.3,14.1c1,1.9,3.4,3.7,5.6,4.1L75.1,37
		c0.6,0.1,1,0.3,1.1,0.6c0.1,0.3-0.1,0.7-0.5,1.1L64.5,50.1c-1.5,1.5-2.5,4.4-2.2,6.6l2.3,15.7c0.1,0.5,0,0.9-0.2,1.2
		c0,0-0.1,0.2-0.4,0.2c-0.2,0-0.6-0.1-0.9-0.3L49,66.2c-0.9-0.5-2.2-0.7-3.5-0.7c-1.3,0-2.5,0.2-3.4,0.7l-14.2,7
		c-0.3,0.2-0.6,0.2-0.9,0.2c-0.3,0-0.4-0.1-0.4-0.2c-0.2-0.2-0.2-0.6-0.2-1.2l2.4-15.7c0.3-2.1-0.6-5-2.1-6.6L15.6,38.5
		c-0.4-0.4-0.6-0.9-0.5-1.1c0.1-0.3,0.5-0.5,1.1-0.6l15.7-2.5c2.1-0.4,4.6-2.1,5.6-4l7.4-14C45.1,15.6,45.4,15.3,45.7,15.3
		 M45.7,14.5c-0.6,0-1.2,0.4-1.6,1.3l-7.4,14c-0.9,1.7-3.2,3.3-5,3.6L16.1,36c-1.9,0.3-2.3,1.7-1,3l11.1,11.4c1.3,1.4,2.2,4,1.9,5.9
		L25.6,72c-0.2,1.4,0.4,2.2,1.4,2.2c0.4,0,0.8-0.1,1.2-0.3l14.2-7c0.8-0.4,2-0.6,3.1-0.6c1.1,0,2.3,0.2,3.1,0.7l14.2,7.1
		c0.5,0.2,0.9,0.3,1.2,0.3c1,0,1.6-0.8,1.4-2.2l-2.3-15.7c-0.3-1.9,0.6-4.5,1.9-5.9l11.2-11.3c1.3-1.4,0.9-2.7-1-3.1l-15.6-2.7
		c-1.9-0.3-4.1-2-5-3.7l-7.3-14.1C46.9,15,46.3,14.5,45.7,14.5L45.7,14.5z"/>
</g>
<g>
	<radialGradient id="SVGID_3_" cx="106.8635" cy="75.1351" r="65.5888" gradientUnits="userSpaceOnUse">
		<stop  offset="0.3548" style="stop-color:#FFC200"/>
		<stop  offset="0.5084" style="stop-color:#FFBD07"/>
		<stop  offset="0.7249" style="stop-color:#FFAF19"/>
		<stop  offset="0.9777" style="stop-color:#FF9737"/>
		<stop  offset="1" style="stop-color:#FF953A"/>
	</radialGradient>
	<path fill="url(#SVGID_3_)" d="M147.3,72.2c0.3,1.9-0.9,2.7-2.6,1.9l-14.2-7.1c-1.7-0.9-4.5-0.9-6.2,0l-14.2,7
		c-1.7,0.8-2.9,0-2.6-1.9l2.4-15.7c0.3-1.9-0.6-4.5-1.9-5.9L97,39.1c-1.3-1.4-0.9-2.7,1-3l15.7-2.6c1.9-0.3,4.1-1.9,5-3.6l7.4-14
		c0.9-1.7,2.3-1.7,3.2,0l7.3,14.1c0.9,1.7,3.1,3.4,5,3.7l15.6,2.7c1.9,0.3,2.3,1.7,1,3.1L147,50.6c-1.3,1.4-2.2,4-1.9,5.9
		L147.3,72.2z"/>
	<radialGradient id="SVGID_4_" cx="101.8758" cy="91.3917" r="94.8339" gradientUnits="userSpaceOnUse">
		<stop  offset="0.3548" style="stop-color:#FFC200"/>
		<stop  offset="0.5084" style="stop-color:#FFBD07"/>
		<stop  offset="0.7249" style="stop-color:#FFAF19"/>
		<stop  offset="0.9777" style="stop-color:#FF9737"/>
		<stop  offset="1" style="stop-color:#FF953A"/>
	</radialGradient>
	<path opacity="0.5" fill="url(#SVGID_4_)" d="M127.7,15.3c0.3,0,0.6,0.3,0.9,0.9l7.3,14.1c1,1.9,3.4,3.7,5.6,4.1l15.6,2.7
		c0.6,0.1,1,0.3,1.1,0.6c0.1,0.3-0.1,0.7-0.5,1.1l-11.2,11.3c-1.5,1.5-2.5,4.4-2.2,6.6l2.3,15.7c0.1,0.5,0,0.9-0.2,1.2
		c0,0-0.1,0.2-0.4,0.2c-0.2,0-0.5-0.1-0.9-0.3l-14.2-7.1c-0.9-0.5-2.2-0.7-3.5-0.7c-1.3,0-2.5,0.2-3.4,0.7l-14.2,7
		c-0.3,0.2-0.6,0.2-0.9,0.2c-0.3,0-0.4-0.1-0.4-0.2c-0.2-0.2-0.2-0.6-0.2-1.2l2.4-15.7c0.3-2.1-0.6-5-2.1-6.6L97.5,38.5
		c-0.4-0.4-0.6-0.9-0.5-1.1c0.1-0.3,0.5-0.5,1.1-0.6l15.7-2.5c2.1-0.4,4.6-2.1,5.6-4l7.4-14C127,15.6,127.4,15.3,127.7,15.3
		 M127.7,14.5c-0.6,0-1.2,0.4-1.6,1.3l-7.4,14c-0.9,1.7-3.2,3.3-5,3.6L98,36c-1.9,0.3-2.3,1.7-1,3l11.1,11.4c1.3,1.4,2.2,4,1.9,5.9
		L107.5,72c-0.2,1.4,0.4,2.2,1.4,2.2c0.4,0,0.8-0.1,1.2-0.3l14.2-7c0.8-0.4,2-0.6,3.1-0.6c1.1,0,2.3,0.2,3.1,0.7l14.2,7.1
		c0.5,0.2,0.9,0.3,1.2,0.3c1,0,1.6-0.8,1.4-2.2l-2.3-15.7c-0.3-1.9,0.6-4.5,1.9-5.9l11.2-11.3c1.3-1.4,0.9-2.7-1-3.1l-15.6-2.7
		c-1.9-0.3-4.1-2-5-3.7l-7.3-14.1C128.8,15,128.3,14.5,127.7,14.5L127.7,14.5z"/>
</g>
<g>
	<radialGradient id="SVGID_5_" cx="188.8032" cy="75.1351" r="65.5887" gradientUnits="userSpaceOnUse">
		<stop  offset="0.3548" style="stop-color:#FFC200"/>
		<stop  offset="0.5084" style="stop-color:#FFBD07"/>
		<stop  offset="0.7249" style="stop-color:#FFAF19"/>
		<stop  offset="0.9777" style="stop-color:#FF9737"/>
		<stop  offset="1" style="stop-color:#FF953A"/>
	</radialGradient>
	<path fill="url(#SVGID_5_)" d="M229.3,72.2c0.3,1.9-0.9,2.7-2.6,1.9l-14.2-7.1c-1.7-0.9-4.5-0.9-6.2,0l-14.2,7
		c-1.7,0.8-2.9,0-2.6-1.9l2.4-15.7c0.3-1.9-0.6-4.5-1.9-5.9l-11.1-11.4c-1.3-1.4-0.9-2.7,1-3l15.7-2.6c1.9-0.3,4.1-1.9,5-3.6l7.4-14
		c0.9-1.7,2.3-1.7,3.2,0l7.3,14.1c0.9,1.7,3.1,3.4,5,3.7l15.6,2.7c1.9,0.3,2.3,1.7,1,3.1l-11.2,11.3c-1.3,1.4-2.2,4-1.9,5.9
		L229.3,72.2z"/>
	<radialGradient id="SVGID_6_" cx="183.8156" cy="91.3917" r="94.8338" gradientUnits="userSpaceOnUse">
		<stop  offset="0.3548" style="stop-color:#FFC200"/>
		<stop  offset="0.5084" style="stop-color:#FFBD07"/>
		<stop  offset="0.7249" style="stop-color:#FFAF19"/>
		<stop  offset="0.9777" style="stop-color:#FF9737"/>
		<stop  offset="1" style="stop-color:#FF953A"/>
	</radialGradient>
	<path opacity="0.5" fill="url(#SVGID_6_)" d="M209.6,15.3c0.3,0,0.6,0.3,0.9,0.9l7.3,14.1c1,1.9,3.4,3.7,5.6,4.1L239,37
		c0.6,0.1,1,0.3,1.1,0.6c0.1,0.3-0.1,0.7-0.5,1.1l-11.2,11.3c-1.5,1.5-2.5,4.4-2.2,6.6l2.3,15.7c0.1,0.5,0,0.9-0.2,1.2
		c0,0-0.1,0.2-0.4,0.2c-0.2,0-0.5-0.1-0.9-0.3l-14.2-7.1c-0.9-0.5-2.2-0.7-3.5-0.7c-1.3,0-2.5,0.2-3.4,0.7l-14.2,7
		c-0.3,0.2-0.6,0.2-0.9,0.2c-0.3,0-0.4-0.1-0.4-0.2c-0.2-0.2-0.2-0.6-0.2-1.2l2.4-15.7c0.3-2.1-0.6-5-2.1-6.6l-11.1-11.4
		c-0.4-0.4-0.6-0.9-0.5-1.1c0.1-0.3,0.5-0.5,1.1-0.6l15.7-2.5c2.1-0.4,4.6-2.1,5.6-4l7.4-14C209,15.6,209.3,15.3,209.6,15.3
		 M209.6,14.5c-0.6,0-1.2,0.4-1.6,1.3l-7.4,14c-0.9,1.7-3.2,3.3-5,3.6L179.9,36c-1.9,0.3-2.3,1.7-1,3L190,50.4
		c1.3,1.4,2.2,4,1.9,5.9L189.5,72c-0.2,1.4,0.4,2.2,1.4,2.2c0.4,0,0.8-0.1,1.2-0.3l14.2-7c0.8-0.4,2-0.6,3.1-0.6
		c1.1,0,2.3,0.2,3.1,0.7l14.2,7.1c0.5,0.2,0.9,0.3,1.2,0.3c1,0,1.6-0.8,1.4-2.2L227,56.5c-0.3-1.9,0.6-4.5,1.9-5.9l11.2-11.3
		c1.3-1.4,0.9-2.7-1-3.1l-15.6-2.7c-1.9-0.3-4.1-2-5-3.7l-7.3-14.1C210.8,15,210.2,14.5,209.6,14.5L209.6,14.5z"/>
</g>
<g>
	<radialGradient id="SVGID_7_" cx="270.7424" cy="75.1351" r="65.5896" gradientUnits="userSpaceOnUse">
		<stop  offset="0.3548" style="stop-color:#FFC200"/>
		<stop  offset="0.5084" style="stop-color:#FFBD07"/>
		<stop  offset="0.7249" style="stop-color:#FFAF19"/>
		<stop  offset="0.9777" style="stop-color:#FF9737"/>
		<stop  offset="1" style="stop-color:#FF953A"/>
	</radialGradient>
	<path fill="url(#SVGID_7_)" d="M311.2,72.2c0.3,1.9-0.9,2.7-2.6,1.9l-14.2-7.1c-1.7-0.9-4.5-0.9-6.2,0l-14.2,7
		c-1.7,0.8-2.9,0-2.6-1.9l2.4-15.7c0.3-1.9-0.6-4.5-1.9-5.9l-11.1-11.4c-1.3-1.4-0.9-2.7,1-3l15.7-2.6c1.9-0.3,4.2-1.9,5-3.6l7.4-14
		c0.9-1.7,2.3-1.7,3.2,0l7.3,14.1c0.9,1.7,3.1,3.4,5,3.7l15.6,2.7c1.9,0.3,2.3,1.7,1,3.1l-11.2,11.3c-1.3,1.4-2.2,4-1.9,5.9
		L311.2,72.2z"/>
	<radialGradient id="SVGID_8_" cx="265.7546" cy="91.3917" r="94.8351" gradientUnits="userSpaceOnUse">
		<stop  offset="0.3548" style="stop-color:#FFC200"/>
		<stop  offset="0.5084" style="stop-color:#FFBD07"/>
		<stop  offset="0.7249" style="stop-color:#FFAF19"/>
		<stop  offset="0.9777" style="stop-color:#FF9737"/>
		<stop  offset="1" style="stop-color:#FF953A"/>
	</radialGradient>
	<path opacity="0.5" fill="url(#SVGID_8_)" d="M291.6,15.3c0.3,0,0.6,0.3,0.9,0.9l7.3,14.1c1,1.9,3.4,3.7,5.6,4.1l15.6,2.7
		c0.6,0.1,1,0.3,1.1,0.6c0.1,0.3-0.1,0.7-0.5,1.1l-11.2,11.3c-1.5,1.5-2.5,4.4-2.2,6.6l2.3,15.7c0.1,0.5,0,0.9-0.2,1.2
		c0,0-0.1,0.2-0.4,0.2c-0.2,0-0.5-0.1-0.9-0.3l-14.2-7.1c-0.9-0.5-2.2-0.7-3.5-0.7c-1.3,0-2.5,0.2-3.4,0.7l-14.2,7
		c-0.3,0.2-0.6,0.2-0.9,0.2c-0.3,0-0.4-0.1-0.4-0.2c-0.2-0.2-0.2-0.6-0.2-1.2l2.4-15.7c0.3-2.1-0.6-5-2.1-6.6l-11.1-11.4
		c-0.4-0.4-0.6-0.9-0.5-1.1c0.1-0.3,0.5-0.5,1.1-0.6l15.7-2.5c2.1-0.4,4.6-2.1,5.6-4l7.4-14C290.9,15.6,291.3,15.3,291.6,15.3
		 M291.6,14.5c-0.6,0-1.2,0.4-1.6,1.3l-7.4,14c-0.9,1.7-3.2,3.3-5,3.6L261.9,36c-1.9,0.3-2.3,1.7-1,3l11.1,11.4
		c1.3,1.4,2.2,4,1.9,5.9L271.4,72c-0.2,1.4,0.4,2.2,1.4,2.2c0.4,0,0.8-0.1,1.2-0.3l14.2-7c0.8-0.4,2-0.6,3.1-0.6
		c1.1,0,2.3,0.2,3.1,0.7l14.2,7.1c0.5,0.2,0.9,0.3,1.2,0.3c1,0,1.6-0.8,1.4-2.2l-2.3-15.7c-0.3-1.9,0.6-4.5,1.9-5.9L322,39.3
		c1.3-1.4,0.9-2.7-1-3.1l-15.6-2.7c-1.9-0.3-4.1-2-5-3.7l-7.3-14.1C292.7,15,292.1,14.5,291.6,14.5L291.6,14.5z"/>
</g>
<g>
	<radialGradient id="SVGID_9_" cx="352.6815" cy="75.1351" r="65.5899" gradientUnits="userSpaceOnUse">
		<stop  offset="0.3548" style="stop-color:#FFC200"/>
		<stop  offset="0.5084" style="stop-color:#FFBD07"/>
		<stop  offset="0.7249" style="stop-color:#FFAF19"/>
		<stop  offset="0.9777" style="stop-color:#FF9737"/>
		<stop  offset="1" style="stop-color:#FF953A"/>
	</radialGradient>
	<path fill="url(#SVGID_9_)" d="M393.2,72.2c0.3,1.9-0.9,2.7-2.6,1.9l-14.2-7.1c-1.7-0.9-4.5-0.9-6.2,0l-14.2,7
		c-1.7,0.8-2.9,0-2.6-1.9l2.4-15.7c0.3-1.9-0.6-4.5-1.9-5.9l-11.1-11.4c-1.3-1.4-0.9-2.7,1-3l15.7-2.6c1.9-0.3,4.2-1.9,5-3.6l7.4-14
		c0.9-1.7,2.3-1.7,3.2,0l7.3,14.1c0.9,1.7,3.1,3.4,5,3.7l15.6,2.7c1.9,0.3,2.3,1.7,1,3.1l-11.2,11.3c-1.3,1.4-2.2,4-1.9,5.9
		L393.2,72.2z"/>
	<radialGradient id="SVGID_10_" cx="347.6938" cy="91.3917" r="94.8355" gradientUnits="userSpaceOnUse">
		<stop  offset="0.3548" style="stop-color:#FFC200"/>
		<stop  offset="0.5084" style="stop-color:#FFBD07"/>
		<stop  offset="0.7249" style="stop-color:#FFAF19"/>
		<stop  offset="0.9777" style="stop-color:#FF9737"/>
		<stop  offset="1" style="stop-color:#FF953A"/>
	</radialGradient>
	<path opacity="0.5" fill="url(#SVGID_10_)" d="M373.5,15.3c0.3,0,0.6,0.3,0.9,0.9l7.3,14.1c1,1.9,3.4,3.7,5.6,4.1l15.6,2.7
		c0.6,0.1,1,0.3,1.1,0.6c0.1,0.3-0.1,0.7-0.5,1.1l-11.2,11.3c-1.5,1.5-2.5,4.4-2.2,6.6l2.3,15.7c0.1,0.5,0,0.9-0.2,1.2
		c0,0-0.1,0.2-0.4,0.2c-0.2,0-0.6-0.1-0.9-0.3l-14.2-7.1c-0.9-0.5-2.2-0.7-3.5-0.7c-1.3,0-2.5,0.2-3.4,0.7l-14.2,7
		c-0.3,0.2-0.6,0.2-0.9,0.2c-0.3,0-0.4-0.1-0.4-0.2c-0.2-0.2-0.2-0.6-0.2-1.2l2.4-15.7c0.3-2.1-0.6-5-2.1-6.6l-11.1-11.4
		c-0.4-0.4-0.6-0.9-0.5-1.1c0.1-0.3,0.5-0.5,1.1-0.6l15.7-2.5c2.1-0.4,4.6-2.1,5.6-4l7.4-14C372.9,15.6,373.2,15.3,373.5,15.3
		 M373.5,14.5c-0.6,0-1.2,0.4-1.6,1.3l-7.4,14c-0.9,1.7-3.2,3.3-5,3.6L343.8,36c-1.9,0.3-2.3,1.7-1,3l11.1,11.4
		c1.3,1.4,2.2,4,1.9,5.9L353.4,72c-0.2,1.4,0.4,2.2,1.4,2.2c0.4,0,0.8-0.1,1.2-0.3l14.2-7c0.8-0.4,2-0.6,3.1-0.6
		c1.1,0,2.3,0.2,3.1,0.7l14.2,7.1c0.5,0.2,0.9,0.3,1.2,0.3c1,0,1.6-0.8,1.4-2.2l-2.3-15.7c-0.3-1.9,0.6-4.5,1.9-5.9L404,39.3
		c1.3-1.4,0.9-2.7-1-3.1l-15.6-2.7c-1.9-0.3-4.1-2-5-3.7l-7.3-14.1C374.7,15,374.1,14.5,373.5,14.5L373.5,14.5z"/>
</g>
</svg>
