<?xml version="1.0" encoding="utf-8"?>
<!-- Generator: Adobe Illustrator 24.0.2, SVG Export Plug-In . SVG Version: 6.00 Build 0)  -->
<svg version="1.1" id="Layer_1" xmlns="http://www.w3.org/2000/svg" xmlns:xlink="http://www.w3.org/1999/xlink" x="0px" y="0px"
	 viewBox="0 0 415.1 88.1" enable-background="new 0 0 415.1 88.1" xml:space="preserve">
<g>
	<radialGradient id="SVGID_1_" cx="22.541" cy="74.7131" r="65.5907" gradientUnits="userSpaceOnUse">
		<stop  offset="0.3548" style="stop-color:#FFC200"/>
		<stop  offset="0.5084" style="stop-color:#FFBD07"/>
		<stop  offset="0.7249" style="stop-color:#FFAF19"/>
		<stop  offset="0.9777" style="stop-color:#FF9737"/>
		<stop  offset="1" style="stop-color:#FF953A"/>
	</radialGradient>
	<path fill="url(#SVGID_1_)" d="M63,71.8c0.3,1.9-0.9,2.7-2.6,1.9l-14.2-7.1c-1.7-0.9-4.5-0.9-6.2,0l-14.2,7c-1.7,0.8-2.9,0-2.6-1.9
		l2.4-15.7c0.3-1.9-0.6-4.5-1.9-5.9L12.7,38.6c-1.3-1.4-0.9-2.7,1-3L29.3,33c1.9-0.3,4.1-1.9,5-3.6l7.4-14c0.9-1.7,2.3-1.7,3.2,0
		l7.3,14.1c0.9,1.7,3.1,3.3,5,3.7l15.6,2.7c1.9,0.3,2.3,1.7,1,3.1L62.7,50.2c-1.3,1.3-2.2,4-1.9,5.9L63,71.8z"/>
	<radialGradient id="SVGID_2_" cx="17.5532" cy="90.9678" r="94.8365" gradientUnits="userSpaceOnUse">
		<stop  offset="0.3548" style="stop-color:#FFC200"/>
		<stop  offset="0.5084" style="stop-color:#FFBD07"/>
		<stop  offset="0.7249" style="stop-color:#FFAF19"/>
		<stop  offset="0.9777" style="stop-color:#FF9737"/>
		<stop  offset="1" style="stop-color:#FF953A"/>
	</radialGradient>
	<path opacity="0.5" fill="url(#SVGID_2_)" d="M43.4,14.9c0.3,0,0.6,0.3,0.9,0.9l7.3,14.1c1,1.9,3.4,3.7,5.6,4.1l15.6,2.7
		c0.6,0.1,1,0.3,1.1,0.6c0.1,0.3-0.1,0.7-0.5,1.1L62.1,49.6c-1.5,1.5-2.5,4.4-2.2,6.6l2.3,15.7c0.1,0.5,0,0.9-0.2,1.2
		c0,0-0.1,0.2-0.4,0.2c-0.2,0-0.6-0.1-0.9-0.3l-14.2-7.1c-0.9-0.5-2.2-0.7-3.5-0.7c-1.3,0-2.5,0.3-3.4,0.7l-14.2,7
		C25.1,73,24.8,73,24.6,73c-0.3,0-0.4-0.1-0.4-0.2c-0.2-0.2-0.2-0.6-0.2-1.2L26.4,56c0.3-2.1-0.6-5-2.1-6.6L13.2,38.1
		c-0.4-0.4-0.6-0.9-0.5-1.1c0.1-0.3,0.5-0.5,1.1-0.6l15.7-2.6c2.1-0.3,4.6-2.1,5.6-4l7.4-14C42.7,15.2,43.1,14.9,43.4,14.9
		 M43.4,14.1c-0.6,0-1.2,0.4-1.6,1.3l-7.4,14c-0.9,1.7-3.2,3.3-5,3.6l-15.7,2.6c-1.9,0.3-2.3,1.7-1,3L23.7,50c1.3,1.4,2.2,4,1.9,5.9
		l-2.4,15.7c-0.2,1.4,0.4,2.2,1.4,2.2c0.4,0,0.8-0.1,1.2-0.3l14.2-7c0.8-0.4,2-0.6,3.1-0.6c1.1,0,2.3,0.2,3.1,0.7l14.2,7.1
		c0.5,0.2,0.9,0.3,1.2,0.3c1,0,1.6-0.8,1.4-2.2l-2.3-15.7c-0.3-1.9,0.6-4.5,1.9-5.9l11.2-11.3c1.3-1.4,0.9-2.7-1-3.1l-15.6-2.7
		c-1.9-0.3-4.1-2-5-3.7L45,15.4C44.5,14.5,43.9,14.1,43.4,14.1L43.4,14.1z"/>
</g>
<g>
	<radialGradient id="SVGID_3_" cx="104.4821" cy="74.7131" r="65.5888" gradientUnits="userSpaceOnUse">
		<stop  offset="0.3548" style="stop-color:#FFC200"/>
		<stop  offset="0.5084" style="stop-color:#FFBD07"/>
		<stop  offset="0.7249" style="stop-color:#FFAF19"/>
		<stop  offset="0.9777" style="stop-color:#FF9737"/>
		<stop  offset="1" style="stop-color:#FF953A"/>
	</radialGradient>
	<path fill="url(#SVGID_3_)" d="M145,71.8c0.3,1.9-0.9,2.7-2.6,1.9l-14.2-7.1c-1.7-0.9-4.5-0.9-6.2,0l-14.2,7
		c-1.7,0.8-2.9,0-2.6-1.9l2.4-15.7c0.3-1.9-0.6-4.5-1.9-5.9L94.6,38.6c-1.3-1.4-0.9-2.7,1-3l15.7-2.6c1.9-0.3,4.1-1.9,5-3.6l7.4-14
		c0.9-1.7,2.3-1.7,3.2,0l7.3,14.1c0.9,1.7,3.1,3.3,5,3.7l15.6,2.7c1.9,0.3,2.3,1.7,1,3.1l-11.2,11.3c-1.3,1.3-2.2,4-1.9,5.9
		L145,71.8z"/>
	<radialGradient id="SVGID_4_" cx="99.4944" cy="90.9678" r="94.8339" gradientUnits="userSpaceOnUse">
		<stop  offset="0.3548" style="stop-color:#FFC200"/>
		<stop  offset="0.5084" style="stop-color:#FFBD07"/>
		<stop  offset="0.7249" style="stop-color:#FFAF19"/>
		<stop  offset="0.9777" style="stop-color:#FF9737"/>
		<stop  offset="1" style="stop-color:#FF953A"/>
	</radialGradient>
	<path opacity="0.5" fill="url(#SVGID_4_)" d="M125.3,14.9c0.3,0,0.6,0.3,0.9,0.9l7.3,14.1c1,1.9,3.4,3.7,5.6,4.1l15.6,2.7
		c0.6,0.1,1,0.3,1.1,0.6c0.1,0.3-0.1,0.7-0.5,1.1l-11.2,11.3c-1.5,1.5-2.5,4.4-2.2,6.6l2.3,15.7c0.1,0.5,0,0.9-0.2,1.2
		c0,0-0.1,0.2-0.4,0.2c-0.2,0-0.5-0.1-0.9-0.3l-14.2-7.1c-0.9-0.5-2.2-0.7-3.5-0.7c-1.3,0-2.5,0.3-3.4,0.7l-14.2,7
		c-0.3,0.2-0.6,0.2-0.9,0.2c-0.3,0-0.4-0.1-0.4-0.2c-0.2-0.2-0.2-0.6-0.2-1.2l2.4-15.7c0.3-2.1-0.6-5-2.1-6.6L95.2,38.1
		c-0.4-0.4-0.6-0.9-0.5-1.1c0.1-0.3,0.5-0.5,1.1-0.6l15.7-2.6c2.1-0.3,4.6-2.1,5.6-4l7.4-14C124.7,15.2,125,14.9,125.3,14.9
		 M125.3,14.1c-0.6,0-1.2,0.4-1.6,1.3l-7.4,14c-0.9,1.7-3.2,3.3-5,3.6l-15.7,2.6c-1.9,0.3-2.3,1.7-1,3L105.7,50
		c1.3,1.4,2.2,4,1.9,5.9l-2.4,15.7c-0.2,1.4,0.4,2.2,1.4,2.2c0.4,0,0.8-0.1,1.2-0.3l14.2-7c0.8-0.4,2-0.6,3.1-0.6
		c1.1,0,2.3,0.2,3.1,0.7l14.2,7.1c0.5,0.2,0.9,0.3,1.2,0.3c1,0,1.6-0.8,1.4-2.2l-2.3-15.7c-0.3-1.9,0.6-4.5,1.9-5.9l11.2-11.3
		c1.3-1.4,0.9-2.7-1-3.1l-15.6-2.7c-1.9-0.3-4.1-2-5-3.7l-7.3-14.1C126.5,14.5,125.9,14.1,125.3,14.1L125.3,14.1z"/>
</g>
<g>
	<radialGradient id="SVGID_5_" cx="186.4218" cy="74.7131" r="65.5887" gradientUnits="userSpaceOnUse">
		<stop  offset="0.3548" style="stop-color:#FFC200"/>
		<stop  offset="0.5084" style="stop-color:#FFBD07"/>
		<stop  offset="0.7249" style="stop-color:#FFAF19"/>
		<stop  offset="0.9777" style="stop-color:#FF9737"/>
		<stop  offset="1" style="stop-color:#FF953A"/>
	</radialGradient>
	<path fill="url(#SVGID_5_)" d="M226.9,71.8c0.3,1.9-0.9,2.7-2.6,1.9l-14.2-7.1c-1.7-0.9-4.5-0.9-6.2,0l-14.2,7
		c-1.7,0.8-2.9,0-2.6-1.9l2.4-15.7c0.3-1.9-0.6-4.5-1.9-5.9l-11.1-11.4c-1.3-1.4-0.9-2.7,1-3l15.7-2.6c1.9-0.3,4.1-1.9,5-3.6l7.4-14
		c0.9-1.7,2.3-1.7,3.2,0l7.3,14.1c0.9,1.7,3.1,3.3,5,3.7l15.6,2.7c1.9,0.3,2.3,1.7,1,3.1l-11.2,11.3c-1.3,1.3-2.2,4-1.9,5.9
		L226.9,71.8z"/>
	<radialGradient id="SVGID_6_" cx="181.4342" cy="90.9678" r="94.8338" gradientUnits="userSpaceOnUse">
		<stop  offset="0.3548" style="stop-color:#FFC200"/>
		<stop  offset="0.5084" style="stop-color:#FFBD07"/>
		<stop  offset="0.7249" style="stop-color:#FFAF19"/>
		<stop  offset="0.9777" style="stop-color:#FF9737"/>
		<stop  offset="1" style="stop-color:#FF953A"/>
	</radialGradient>
	<path opacity="0.5" fill="url(#SVGID_6_)" d="M207.2,14.9c0.3,0,0.6,0.3,0.9,0.9l7.3,14.1c1,1.9,3.4,3.7,5.6,4.1l15.6,2.7
		c0.6,0.1,1,0.3,1.1,0.6c0.1,0.3-0.1,0.7-0.5,1.1L226,49.6c-1.5,1.5-2.5,4.4-2.2,6.6l2.3,15.7c0.1,0.5,0,0.9-0.2,1.2
		c0,0-0.1,0.2-0.4,0.2c-0.2,0-0.5-0.1-0.9-0.3l-14.2-7.1c-0.9-0.5-2.2-0.7-3.5-0.7c-1.3,0-2.5,0.3-3.4,0.7l-14.2,7
		c-0.3,0.2-0.6,0.2-0.9,0.2c-0.3,0-0.4-0.1-0.4-0.2c-0.2-0.2-0.2-0.6-0.2-1.2l2.4-15.7c0.3-2.1-0.6-5-2.1-6.6l-11.1-11.4
		c-0.4-0.4-0.6-0.9-0.5-1.1c0.1-0.3,0.5-0.5,1.1-0.6l15.7-2.6c2.1-0.3,4.6-2.1,5.6-4l7.4-14C206.6,15.2,206.9,14.9,207.2,14.9
		 M207.2,14.1c-0.6,0-1.2,0.4-1.6,1.3l-7.4,14c-0.9,1.7-3.2,3.3-5,3.6l-15.7,2.6c-1.9,0.3-2.3,1.7-1,3L187.6,50
		c1.3,1.4,2.2,4,1.9,5.9l-2.4,15.7c-0.2,1.4,0.4,2.2,1.4,2.2c0.4,0,0.8-0.1,1.2-0.3l14.2-7c0.8-0.4,2-0.6,3.1-0.6
		c1.1,0,2.3,0.2,3.1,0.7l14.2,7.1c0.5,0.2,0.9,0.3,1.2,0.3c1,0,1.6-0.8,1.4-2.2l-2.3-15.7c-0.3-1.9,0.6-4.5,1.9-5.9l11.2-11.3
		c1.3-1.4,0.9-2.7-1-3.1l-15.6-2.7c-1.9-0.3-4.1-2-5-3.7l-7.3-14.1C208.4,14.5,207.8,14.1,207.2,14.1L207.2,14.1z"/>
</g>
<g>
	<radialGradient id="SVGID_7_" cx="268.361" cy="74.7131" r="65.5896" gradientUnits="userSpaceOnUse">
		<stop  offset="0.3548" style="stop-color:#FFC200"/>
		<stop  offset="0.5084" style="stop-color:#FFBD07"/>
		<stop  offset="0.7249" style="stop-color:#FFAF19"/>
		<stop  offset="0.9777" style="stop-color:#FF9737"/>
		<stop  offset="1" style="stop-color:#FF953A"/>
	</radialGradient>
	<path fill="url(#SVGID_7_)" d="M308.8,71.8c0.3,1.9-0.9,2.7-2.6,1.9l-14.2-7.1c-1.7-0.9-4.5-0.9-6.2,0l-14.2,7
		c-1.7,0.8-2.9,0-2.6-1.9l2.4-15.7c0.3-1.9-0.6-4.5-1.9-5.9l-11.1-11.4c-1.3-1.4-0.9-2.7,1-3l15.7-2.6c1.9-0.3,4.2-1.9,5-3.6l7.4-14
		c0.9-1.7,2.3-1.7,3.2,0l7.3,14.1c0.9,1.7,3.1,3.3,5,3.7l15.6,2.7c1.9,0.3,2.3,1.7,1,3.1l-11.2,11.3c-1.3,1.3-2.2,4-1.9,5.9
		L308.8,71.8z"/>
	<radialGradient id="SVGID_8_" cx="263.3732" cy="90.9678" r="94.8351" gradientUnits="userSpaceOnUse">
		<stop  offset="0.3548" style="stop-color:#FFC200"/>
		<stop  offset="0.5084" style="stop-color:#FFBD07"/>
		<stop  offset="0.7249" style="stop-color:#FFAF19"/>
		<stop  offset="0.9777" style="stop-color:#FF9737"/>
		<stop  offset="1" style="stop-color:#FF953A"/>
	</radialGradient>
	<path opacity="0.5" fill="url(#SVGID_8_)" d="M289.2,14.9c0.3,0,0.6,0.3,0.9,0.9l7.3,14.1c1,1.9,3.4,3.7,5.6,4.1l15.6,2.7
		c0.6,0.1,1,0.3,1.1,0.6c0.1,0.3-0.1,0.7-0.5,1.1l-11.2,11.3c-1.5,1.5-2.5,4.4-2.2,6.6l2.3,15.7c0.1,0.5,0,0.9-0.2,1.2
		c0,0-0.1,0.2-0.4,0.2c-0.2,0-0.5-0.1-0.9-0.3l-14.2-7.1c-0.9-0.5-2.2-0.7-3.5-0.7c-1.3,0-2.5,0.3-3.4,0.7l-14.2,7
		c-0.3,0.2-0.6,0.2-0.9,0.2c-0.3,0-0.4-0.1-0.4-0.2c-0.2-0.2-0.2-0.6-0.2-1.2l2.4-15.7c0.3-2.1-0.6-5-2.1-6.6L259,38.1
		c-0.4-0.4-0.6-0.9-0.5-1.1c0.1-0.3,0.5-0.5,1.1-0.6l15.7-2.6c2.1-0.3,4.6-2.1,5.6-4l7.4-14C288.5,15.2,288.9,14.9,289.2,14.9
		 M289.2,14.1c-0.6,0-1.2,0.4-1.6,1.3l-7.4,14c-0.9,1.7-3.2,3.3-5,3.6l-15.7,2.6c-1.9,0.3-2.3,1.7-1,3L269.6,50
		c1.3,1.4,2.2,4,1.9,5.9L269,71.6c-0.2,1.4,0.4,2.2,1.4,2.2c0.4,0,0.8-0.1,1.2-0.3l14.2-7c0.8-0.4,2-0.6,3.1-0.6
		c1.1,0,2.3,0.2,3.1,0.7l14.2,7.1c0.5,0.2,0.9,0.3,1.2,0.3c1,0,1.6-0.8,1.4-2.2l-2.3-15.7c-0.3-1.9,0.6-4.5,1.9-5.9l11.2-11.3
		c1.3-1.4,0.9-2.7-1-3.1l-15.6-2.7c-1.9-0.3-4.1-2-5-3.7l-7.3-14.1C290.3,14.5,289.8,14.1,289.2,14.1L289.2,14.1z"/>
</g>
<g>
	<g>
		<radialGradient id="SVGID_9_" cx="350.299" cy="74.7131" r="65.5913" gradientUnits="userSpaceOnUse">
			<stop  offset="0.3548" style="stop-color:#FFC200"/>
			<stop  offset="0.5084" style="stop-color:#FFBD07"/>
			<stop  offset="0.7249" style="stop-color:#FFAF19"/>
			<stop  offset="0.9777" style="stop-color:#FF9737"/>
			<stop  offset="1" style="stop-color:#FF953A"/>
		</radialGradient>
		<path fill="url(#SVGID_9_)" d="M390.8,71.8c0.3,1.9-0.9,2.7-2.6,1.9L374,66.5c-1.7-0.9-4.5-0.9-6.2,0l-14.2,7
			c-1.7,0.8-2.9,0-2.6-1.9l2.4-15.7c0.3-1.9-0.6-4.5-1.9-5.9l-11.1-11.4c-1.3-1.4-0.9-2.7,1-3l15.7-2.6c1.9-0.3,4.2-1.9,5-3.6
			l7.4-14c0.9-1.7,2.3-1.7,3.2,0l7.3,14.1c0.9,1.7,3.1,3.3,5,3.7l15.6,2.7c1.9,0.3,2.3,1.7,1,3.1l-11.2,11.3c-1.3,1.3-2.2,4-1.9,5.9
			L390.8,71.8z"/>
		<radialGradient id="SVGID_10_" cx="345.3111" cy="90.9678" r="94.8373" gradientUnits="userSpaceOnUse">
			<stop  offset="0.3548" style="stop-color:#FFC200"/>
			<stop  offset="0.5084" style="stop-color:#FFBD07"/>
			<stop  offset="0.7249" style="stop-color:#FFAF19"/>
			<stop  offset="0.9777" style="stop-color:#FF9737"/>
			<stop  offset="1" style="stop-color:#FF953A"/>
		</radialGradient>
		<path opacity="0.5" fill="url(#SVGID_10_)" d="M371.1,14.9c0.3,0,0.6,0.3,0.9,0.9l7.3,14.1c1,1.9,3.4,3.7,5.6,4.1l15.6,2.7
			c0.6,0.1,1,0.3,1.1,0.6c0.1,0.3-0.1,0.7-0.5,1.1l-11.2,11.3c-1.5,1.5-2.5,4.4-2.2,6.6l2.3,15.7c0.1,0.5,0,0.9-0.2,1.2
			c0,0-0.1,0.2-0.4,0.2c-0.2,0-0.6-0.1-0.9-0.3l-14.2-7.1c-0.9-0.5-2.2-0.7-3.5-0.7c-1.3,0-2.5,0.3-3.4,0.7l-14.2,7
			c-0.3,0.2-0.6,0.2-0.9,0.2c-0.3,0-0.4-0.1-0.4-0.2c-0.2-0.2-0.2-0.6-0.2-1.2l2.4-15.7c0.3-2.1-0.6-5-2.1-6.6L341,38.1
			c-0.4-0.4-0.6-0.9-0.5-1.1c0.1-0.3,0.5-0.5,1.1-0.6l15.7-2.6c2.1-0.3,4.6-2.1,5.6-4l7.4-14C370.5,15.2,370.8,14.9,371.1,14.9
			 M371.1,14.1c-0.6,0-1.2,0.4-1.6,1.3l-7.4,14c-0.9,1.7-3.2,3.3-5,3.6l-15.7,2.6c-1.9,0.3-2.3,1.7-1,3L351.5,50
			c1.3,1.4,2.2,4,1.9,5.9L351,71.6c-0.2,1.4,0.4,2.2,1.4,2.2c0.4,0,0.8-0.1,1.2-0.3l14.2-7c0.8-0.4,2-0.6,3.1-0.6
			c1.1,0,2.3,0.2,3.1,0.7l14.2,7.1c0.5,0.2,0.9,0.3,1.2,0.3c1,0,1.6-0.8,1.4-2.2l-2.3-15.7c-0.3-1.9,0.6-4.5,1.9-5.9l11.2-11.3
			c1.3-1.4,0.9-2.7-1-3.1L385,33.2c-1.9-0.3-4.1-2-5-3.7l-7.3-14.1C372.3,14.5,371.7,14.1,371.1,14.1L371.1,14.1z"/>
	</g>
	<g>
		<radialGradient id="SVGID_11_" cx="350.2988" cy="74.7137" r="65.5916" gradientUnits="userSpaceOnUse">
			<stop  offset="0.1882" style="stop-color:#4D4D4D"/>
			<stop  offset="0.6364" style="stop-color:#464646"/>
			<stop  offset="0.9946" style="stop-color:#3D3D3D"/>
		</radialGradient>
		<path fill="url(#SVGID_11_)" d="M401.6,38.9c1.3-1.4,0.9-2.7-1-3.1L385,33.2c-1.9-0.3-4.1-2-5-3.7l-7.3-14.1
			c-0.4-0.8-1-1.1-1.5-1.1v51.6c1,0,2,0.2,2.8,0.6l14.2,7.1c1.7,0.9,2.9,0,2.6-1.9l-2.3-15.7c-0.3-1.9,0.6-4.5,1.9-5.9L401.6,38.9z"
			/>
		<radialGradient id="SVGID_12_" cx="345.3122" cy="90.9718" r="94.8376" gradientUnits="userSpaceOnUse">
			<stop  offset="0.1882" style="stop-color:#4D4D4D"/>
			<stop  offset="0.6364" style="stop-color:#464646"/>
			<stop  offset="0.9946" style="stop-color:#3D3D3D"/>
		</radialGradient>
		<path opacity="0.5" fill="url(#SVGID_12_)" d="M401.6,38.9c1.3-1.4,0.9-2.7-1-3.1L385,33.2c-1.9-0.3-4.1-2-5-3.7l-7.3-14.1
			c-0.4-0.8-1-1.2-1.5-1.3v0.8c0.3,0,0.6,0.3,0.9,0.8l7.3,14.1c1,1.9,3.4,3.7,5.6,4.1l15.6,2.7c0.6,0.1,1,0.3,1.1,0.6
			c0.1,0.3-0.1,0.7-0.5,1.1l-11.2,11.3c-1.5,1.5-2.5,4.4-2.2,6.6l2.3,15.7c0.1,0.5,0,0.9-0.2,1.2c0,0-0.1,0.2-0.4,0.2
			c-0.2,0-0.6-0.1-0.9-0.3l-14.2-7.1c-0.9-0.4-2-0.7-3.2-0.7v0.8c1,0,2,0.2,2.8,0.6l14.2,7.1c0.5,0.2,0.9,0.3,1.2,0.3
			c1,0,1.6-0.8,1.4-2.2l-2.3-15.7c-0.3-1.9,0.6-4.5,1.9-5.9L401.6,38.9z"/>
	</g>
</g>
</svg>
