<?xml version="1.0" encoding="utf-8"?>
<!-- Generator: Adobe Illustrator 24.0.2, SVG Export Plug-In . SVG Version: 6.00 Build 0)  -->
<svg version="1.1" id="Layer_1" xmlns="http://www.w3.org/2000/svg" xmlns:xlink="http://www.w3.org/1999/xlink" x="0px" y="0px"
	 viewBox="0 0 210 514.7" enable-background="new 0 0 210 514.7" xml:space="preserve">
<g>
	<g>
		<path fill="#235667" d="M156.8,368.1l29.4-85.1c1.6-4.6-0.8-6.8-5.3-5.1c0,0-52.5,43.7-52.5,17.7c0-4.2-17-4.2-17,0
			c0,13.8-17,17.1-24.4,19.4c-4.6,1.4-7.5,7.1-6.7,11.8l5.5,32.6c0.8,4.8-0.5,12-2.9,16.2L17.3,489.4c-2.4,4.2-0.8,4.9,4,5
			c48.4,1.6,114-13.6,153.5-46.6c3.7-3.1,6.8-6.1,5-10.6l-22.4-52.8C155.5,380,155.2,372.7,156.8,368.1z"/>
		<path fill="#235667" d="M28.4,490.6c-2.4,0-4.7,0-7-0.1c-0.1,0-0.1,0-0.2,0l65.2-112.8c2.9-5,4.4-13.1,3.4-18.8l-5.5-32.6
			c-0.5-3,1.4-6.6,3.9-7.4c0.7-0.2,1.6-0.5,2.5-0.7c8.4-2.4,23.8-6.8,24.7-21.1c0.8-0.3,2.4-0.6,4.6-0.6c2.2,0,3.7,0.3,4.6,0.6
			c0.2,3.2,1.2,5.8,2.9,7.7c1.3,1.4,3.8,3.2,8,3.2h0c14.2,0,40.7-20.9,47-26l-29.4,85c-1.9,5.5-1.6,13.8,0.7,19.2l22.4,52.8
			c0.5,1.3,0.6,2.3-3.8,6C134.3,476.4,72.7,490.6,28.4,490.6C28.4,490.6,28.4,490.6,28.4,490.6z"/>
		<g>
			<path fill="#35343A" d="M55.3,468.4c0.6-10.5,20.8-50.8,35.4-88L29.6,486.9c0.1,0,0.1,0,0.2,0c21.3,1.3,70.6-5.9,102.3-18.3
				C132,468.5,54.6,479.6,55.3,468.4z"/>
		</g>
		<path fill="#FFFDDA" d="M156.2,358.5c8.8-24.2,26.2-76.7,26.2-76.7c-6.3,5.1-32.7,26-47,26h0c-4.2,0-6.7-1.7-8-3.2
			c-1.7-1.9-2.7-4.5-2.9-7.7c-0.8-0.3-2.4-0.6-4.6-0.6c-2.2,0-3.7,0.3-4.6,0.6c-0.9,14.3-16.3,18.7-24.7,21.1
			c-0.9,0.3-1.8,0.4-2.5,0.7C65.7,328.1,151.1,372.5,156.2,358.5z"/>
		<g>
			<g>
				<polygon fill="#35343A" points="112.3,95.9 110.7,316.8 130.9,316.8 129.3,95.9 				"/>
				<polygon fill="#CAC4CE" points="130.1,209.1 130,207.7 111.5,207.7 111.5,209.1 				"/>
				<polygon fill="#CAC4CE" points="130,198.5 130,197 111.6,197 111.6,198.5 				"/>
				<polygon fill="#CAC4CE" points="130.3,238.3 130.2,236.9 111.3,236.9 111.3,238.3 				"/>
				<polygon fill="#CAC4CE" points="130.1,219.6 130.1,218.1 111.4,218.1 111.4,219.6 				"/>
				<polygon fill="#CAC4CE" points="130.3,247.1 130.3,245.7 111.3,245.7 111.2,247.1 				"/>
				<polygon fill="#CAC4CE" points="130.2,229 130.2,227.6 111.4,227.6 111.4,229 				"/>
				<polygon fill="#CAC4CE" points="129.5,133.1 129.5,131.6 112.1,131.6 112,133.1 				"/>
				<polygon fill="#CAC4CE" points="129.9,187.2 129.9,185.7 111.7,185.7 111.7,187.2 				"/>
				<polygon fill="#CAC4CE" points="129.6,147.9 129.6,146.4 111.9,146.4 111.9,147.9 				"/>
				<polygon fill="#CAC4CE" points="129.4,118 129.4,116.5 112.2,116.5 112.1,118 				"/>
				<polygon fill="#CAC4CE" points="129.7,161.5 129.7,160 111.9,160 111.8,161.5 				"/>
				<polygon fill="#CAC4CE" points="129.8,174.6 129.8,173.1 111.8,173.1 111.8,174.6 				"/>
				<polygon fill="#CAC4CE" points="130.6,290.3 130.6,288.8 111,288.8 110.9,290.3 				"/>
				<polygon fill="#CAC4CE" points="130.8,311.4 130.8,309.9 110.8,309.9 110.8,311.4 				"/>
				<polygon fill="#CAC4CE" points="130.7,301.6 130.7,300.1 110.9,300.1 110.9,301.6 				"/>
				<polygon fill="#CAC4CE" points="130.7,306.8 130.7,305.3 110.8,305.3 110.8,306.8 				"/>
				<polygon fill="#CAC4CE" points="130.8,316.1 130.8,314.6 110.8,314.6 110.8,316.1 				"/>
				<polygon fill="#CAC4CE" points="129.3,100 129.3,98.6 112.3,98.6 112.3,100 				"/>
				<polygon fill="#CAC4CE" points="130.4,255.3 130.4,253.8 111.2,253.8 111.2,255.3 				"/>
				<polygon fill="#CAC4CE" points="130.4,262.9 130.4,261.5 111.1,261.5 111.1,262.9 				"/>
				<polygon fill="#CAC4CE" points="130.5,270.7 130.5,269.3 111.1,269.3 111.1,270.7 				"/>
				<polygon fill="#CAC4CE" points="130.7,296.3 130.7,294.8 110.9,294.8 110.9,296.3 				"/>
				<polygon fill="#CAC4CE" points="130.5,277.2 130.5,275.7 111,275.7 111,277.2 				"/>
				<polygon fill="#CAC4CE" points="130.6,284.7 130.6,283.2 111,283.2 111,284.7 				"/>
				<polygon fill="#FFFDDA" points="124.5,144.3 116.8,144.3 114.4,137.1 126.9,137.1 				"/>
				<polygon fill="#FFFDDA" points="124.5,171 116.8,171 114.4,165.1 126.9,165.1 				"/>
				<polygon fill="#FFFDDA" points="124.7,195.7 126.9,190.3 114.4,190.3 116.6,195.7 				"/>
				<polygon fill="#FFFDDA" points="124.9,216.9 126.9,212.1 114.4,212.1 116.3,216.9 				"/>
				<polygon fill="#FFFDDA" points="125.4,244.2 126.9,240.6 114.4,240.6 115.8,244.2 				"/>
				<polygon fill="#FFFDDA" points="125.8,267.3 126.9,264.7 114.4,264.7 115.4,267.3 				"/>
				<polygon fill="#FFFDDA" points="125.8,281.7 126.9,279.1 114.4,279.1 115.4,281.7 				"/>
				<polygon fill="#FFFDDA" points="125.8,294.1 126.9,291.6 114.4,291.6 115.4,294.1 				"/>
				<polygon fill="#FFFDDA" points="125.8,304.8 126.9,302.2 114.4,302.2 115.4,304.8 				"/>
			</g>
			<g>
				<path fill="#35343A" d="M143.2,398.8c0,1.6-1.3,2.9-2.9,2.9h-38c-1.6,0-2.9-1.3-2.9-2.9l0,0c0-1.6,1.3-2.9,2.9-2.9h38
					C141.9,396,143.2,397.3,143.2,398.8L143.2,398.8z"/>
				<g>
					<g>
						<path fill="#CAC4CE" d="M114,401.4c0,0.2-0.2,0.4-0.3,0.4h-1.9c-0.2,0-0.3-0.2-0.3-0.4v-5.1c0-0.2,0.2-0.4,0.3-0.4h1.9
							c0.2,0,0.3,0.2,0.3,0.4V401.4z"/>
						<rect x="112.1" y="395.9" fill="#898989" width="1.3" height="5.9"/>
					</g>
					<g>
						<path fill="#CAC4CE" d="M117.3,401.4c0,0.2-0.2,0.4-0.3,0.4H115c-0.2,0-0.3-0.2-0.3-0.4v-5.1c0-0.2,0.2-0.4,0.3-0.4h1.9
							c0.2,0,0.3,0.2,0.3,0.4V401.4z"/>
						<rect x="115.4" y="395.9" fill="#898989" width="1.3" height="5.9"/>
					</g>
					<g>
						<path fill="#CAC4CE" d="M120.6,401.4c0,0.2-0.2,0.4-0.3,0.4h-1.9c-0.2,0-0.3-0.2-0.3-0.4v-5.1c0-0.2,0.2-0.4,0.3-0.4h1.9
							c0.2,0,0.3,0.2,0.3,0.4V401.4z"/>
						<rect x="118.7" y="395.9" fill="#898989" width="1.3" height="5.9"/>
					</g>
					<g>
						<path fill="#CAC4CE" d="M123.9,401.4c0,0.2-0.2,0.4-0.3,0.4h-1.9c-0.2,0-0.3-0.2-0.3-0.4v-5.1c0-0.2,0.2-0.4,0.3-0.4h1.9
							c0.2,0,0.3,0.2,0.3,0.4V401.4z"/>
						<rect x="122" y="395.9" fill="#898989" width="1.3" height="5.9"/>
					</g>
					<g>
						<path fill="#CAC4CE" d="M127.3,401.4c0,0.2-0.2,0.4-0.3,0.4H125c-0.2,0-0.3-0.2-0.3-0.4v-5.1c0-0.2,0.2-0.4,0.3-0.4h1.9
							c0.2,0,0.3,0.2,0.3,0.4V401.4z"/>
						<rect x="125.3" y="395.9" fill="#898989" width="1.3" height="5.9"/>
					</g>
					<g>
						<path fill="#CAC4CE" d="M130.6,401.4c0,0.2-0.2,0.4-0.3,0.4h-1.9c-0.2,0-0.3-0.2-0.3-0.4v-5.1c0-0.2,0.2-0.4,0.3-0.4h1.9
							c0.2,0,0.3,0.2,0.3,0.4V401.4z"/>
						<rect x="128.6" y="395.9" fill="#898989" width="1.3" height="5.9"/>
					</g>
				</g>
			</g>
			<path fill="#35343A" d="M146.7,414.9c0,2.5-2.1,4.6-4.6,4.6h-42c-2.5,0-4.6-2.1-4.6-4.6v0c0-2.5,2.1-4.6,4.6-4.6h42
				C144.6,410.3,146.7,412.3,146.7,414.9L146.7,414.9z"/>
			<path fill="#CAC4CE" d="M143.8,412.1c0,0.6-0.5,1.2-1.2,1.2H99.5c-0.6,0-1.2-0.5-1.2-1.2l0,0c0-0.6,0.5-1.2,1.2-1.2h43.1
				C143.3,411,143.8,411.5,143.8,412.1L143.8,412.1z"/>
			<g>
				<path fill="#EEECDD" d="M143.2,337.1c0,0.8-0.7,1.5-1.5,1.5h-40.7c-0.8,0-1.5-0.7-1.5-1.5v-18.9c0-0.8,0.7-1.5,1.5-1.5h40.7
					c0.8,0,1.5,0.7,1.5,1.5V337.1z"/>
				<path fill="#35343A" d="M138.4,336.3c0,0.8-0.5,1.4-1.2,1.4h-31.8c-0.6,0-1.2-0.6-1.2-1.4V319c0-0.8,0.5-1.4,1.2-1.4h31.8
					c0.6,0,1.2,0.6,1.2,1.4V336.3z"/>
				<g>
					<path fill="#FFFDDA" d="M114,323c0-0.7-0.5-1.2-1.2-1.2c-0.7,0-1.2,0.5-1.2,1.2c0,0.7,0.5,1.2,1.2,1.2
						C113.5,324.2,114,323.7,114,323z"/>
					<path fill="#FFFDDA" d="M117.3,323c0-0.7-0.5-1.2-1.2-1.2c-0.7,0-1.2,0.5-1.2,1.2c0,0.7,0.5,1.2,1.2,1.2
						C116.8,324.2,117.3,323.7,117.3,323z"/>
					<circle fill="#FFFDDA" cx="119.4" cy="323" r="1.2"/>
					<path fill="#FFFDDA" d="M123.8,323c0-0.7-0.5-1.2-1.2-1.2c-0.7,0-1.2,0.5-1.2,1.2c0,0.7,0.5,1.2,1.2,1.2
						C123.3,324.2,123.8,323.7,123.8,323z"/>
					<path fill="#FFFDDA" d="M127.1,323c0-0.7-0.5-1.2-1.2-1.2c-0.7,0-1.2,0.5-1.2,1.2c0,0.7,0.5,1.2,1.2,1.2
						C126.6,324.2,127.1,323.7,127.1,323z"/>
					<path fill="#FFFDDA" d="M130.3,323c0-0.7-0.5-1.2-1.2-1.2c-0.7,0-1.2,0.5-1.2,1.2c0,0.7,0.5,1.2,1.2,1.2
						C129.8,324.2,130.3,323.7,130.3,323z"/>
				</g>
				<g>
					<path fill="#FFFDDA" d="M114,332.4c0-0.7-0.5-1.2-1.2-1.2c-0.7,0-1.2,0.5-1.2,1.2s0.5,1.2,1.2,1.2
						C113.5,333.6,114,333.1,114,332.4z"/>
					<path fill="#FFFDDA" d="M117.3,332.4c0-0.7-0.5-1.2-1.2-1.2c-0.7,0-1.2,0.5-1.2,1.2s0.5,1.2,1.2,1.2
						C116.8,333.6,117.3,333.1,117.3,332.4z"/>
					<path fill="#FFFDDA" d="M120.6,332.4c0-0.7-0.5-1.2-1.2-1.2s-1.2,0.5-1.2,1.2s0.5,1.2,1.2,1.2S120.6,333.1,120.6,332.4z"/>
					<path fill="#FFFDDA" d="M123.8,332.4c0-0.7-0.5-1.2-1.2-1.2c-0.7,0-1.2,0.5-1.2,1.2s0.5,1.2,1.2,1.2
						C123.3,333.6,123.8,333.1,123.8,332.4z"/>
					<path fill="#FFFDDA" d="M127.1,332.4c0-0.7-0.5-1.2-1.2-1.2c-0.7,0-1.2,0.5-1.2,1.2s0.5,1.2,1.2,1.2
						C126.6,333.6,127.1,333.1,127.1,332.4z"/>
					<path fill="#FFFDDA" d="M130.3,332.4c0-0.7-0.5-1.2-1.2-1.2c-0.7,0-1.2,0.5-1.2,1.2s0.5,1.2,1.2,1.2
						C129.8,333.6,130.3,333.1,130.3,332.4z"/>
				</g>
				<g>
					<circle fill="#35343A" cx="101.9" cy="319.1" r="1.1"/>
					<circle fill="#35343A" cx="101.9" cy="327.7" r="1.1"/>
					<circle fill="#35343A" cx="101.9" cy="336.2" r="1.1"/>
				</g>
				<g>
					<circle fill="#35343A" cx="140.8" cy="319.1" r="1.1"/>
					<circle fill="#35343A" cx="140.8" cy="327.7" r="1.1"/>
					<circle fill="#35343A" cx="140.8" cy="336.2" r="1.1"/>
				</g>
			</g>
			<g>
				<path fill="#EEECDD" d="M143.2,393.1c0,0.8-0.7,1.5-1.5,1.5h-40.7c-0.8,0-1.5-0.7-1.5-1.5v-18.9c0-0.8,0.7-1.5,1.5-1.5h40.7
					c0.8,0,1.5,0.7,1.5,1.5V393.1z"/>
				<path fill="#35343A" d="M138.4,392.3c0,0.8-0.5,1.4-1.2,1.4h-31.8c-0.6,0-1.2-0.6-1.2-1.4V375c0-0.8,0.5-1.4,1.2-1.4h31.8
					c0.6,0,1.2,0.6,1.2,1.4V392.3z"/>
				<g>
					<path fill="#FFFDDA" d="M114,379c0-0.7-0.5-1.2-1.2-1.2c-0.7,0-1.2,0.5-1.2,1.2c0,0.7,0.5,1.2,1.2,1.2
						C113.5,380.2,114,379.6,114,379z"/>
					<path fill="#FFFDDA" d="M117.3,379c0-0.7-0.5-1.2-1.2-1.2c-0.7,0-1.2,0.5-1.2,1.2c0,0.7,0.5,1.2,1.2,1.2
						C116.8,380.2,117.3,379.6,117.3,379z"/>
					<circle fill="#FFFDDA" cx="119.4" cy="379" r="1.2"/>
					<path fill="#FFFDDA" d="M123.8,379c0-0.7-0.5-1.2-1.2-1.2c-0.7,0-1.2,0.5-1.2,1.2c0,0.7,0.5,1.2,1.2,1.2
						C123.3,380.2,123.8,379.6,123.8,379z"/>
					<path fill="#FFFDDA" d="M127.1,379c0-0.7-0.5-1.2-1.2-1.2c-0.7,0-1.2,0.5-1.2,1.2c0,0.7,0.5,1.2,1.2,1.2
						C126.6,380.2,127.1,379.6,127.1,379z"/>
					<path fill="#FFFDDA" d="M130.3,379c0-0.7-0.5-1.2-1.2-1.2c-0.7,0-1.2,0.5-1.2,1.2c0,0.7,0.5,1.2,1.2,1.2
						C129.8,380.2,130.3,379.6,130.3,379z"/>
				</g>
				<g>
					<path fill="#FFFDDA" d="M114,388.4c0-0.7-0.5-1.2-1.2-1.2c-0.7,0-1.2,0.5-1.2,1.2s0.5,1.2,1.2,1.2
						C113.5,389.5,114,389,114,388.4z"/>
					<path fill="#FFFDDA" d="M117.3,388.4c0-0.7-0.5-1.2-1.2-1.2c-0.7,0-1.2,0.5-1.2,1.2s0.5,1.2,1.2,1.2
						C116.8,389.5,117.3,389,117.3,388.4z"/>
					<path fill="#FFFDDA" d="M120.6,388.4c0-0.7-0.5-1.2-1.2-1.2s-1.2,0.5-1.2,1.2s0.5,1.2,1.2,1.2S120.6,389,120.6,388.4z"/>
					<path fill="#FFFDDA" d="M123.8,388.4c0-0.7-0.5-1.2-1.2-1.2c-0.7,0-1.2,0.5-1.2,1.2s0.5,1.2,1.2,1.2
						C123.3,389.5,123.8,389,123.8,388.4z"/>
					<path fill="#FFFDDA" d="M127.1,388.4c0-0.7-0.5-1.2-1.2-1.2c-0.7,0-1.2,0.5-1.2,1.2s0.5,1.2,1.2,1.2
						C126.6,389.5,127.1,389,127.1,388.4z"/>
					<path fill="#FFFDDA" d="M130.3,388.4c0-0.7-0.5-1.2-1.2-1.2c-0.7,0-1.2,0.5-1.2,1.2s0.5,1.2,1.2,1.2
						C129.8,389.5,130.3,389,130.3,388.4z"/>
				</g>
				<g>
					<circle fill="#35343A" cx="101.9" cy="375.1" r="1.1"/>
					<circle fill="#35343A" cx="101.9" cy="383.6" r="1.1"/>
					<circle fill="#35343A" cx="101.9" cy="392.1" r="1.1"/>
				</g>
				<g>
					<circle fill="#35343A" cx="140.8" cy="375.1" r="1.1"/>
					<circle fill="#35343A" cx="140.8" cy="383.6" r="1.1"/>
					<circle fill="#35343A" cx="140.8" cy="392.1" r="1.1"/>
				</g>
			</g>
			<rect x="112" y="93.1" fill="#5B5B5B" width="17.5" height="5.2"/>
			<g>
				<path fill="#FFFDDA" d="M162.8,311.6c-3.4,0-6.2-2.8-6.2-6.2s2.8-6.2,6.2-6.2c3.4,0,6.2,2.8,6.2,6.2S166.2,311.6,162.8,311.6z"
					/>
				<path fill="#CAC4CE" d="M167.9,305.4c0,2.8-2.3,5.1-5.1,5.1c-2.8,0-5.1-2.3-5.1-5.1c0-2.8,2.3-5.1,5.1-5.1
					C165.6,300.3,167.9,302.6,167.9,305.4z"/>
				<path fill="#E8E8E8" d="M165.4,305.4c0,1.5-1.2,2.7-2.7,2.7c-1.5,0-2.7-1.2-2.7-2.7c0-1.5,1.2-2.7,2.7-2.7
					C164.3,302.7,165.4,303.9,165.4,305.4z"/>
				<g>
					<path fill="#FFFFFF" d="M162.7,300.8c-2.4,0-4.3,1.9-4.3,4.3c0,2.4,1.9,4.3,4.3,4.3c2.4,0,4.3-1.9,4.3-4.3
						C167,302.7,165.1,300.8,162.7,300.8z M162.8,309.3c-2,0-3.7-1.7-3.7-3.7c0-2,1.7-3.7,3.7-3.7c2,0,3.7,1.7,3.7,3.7
						C166.5,307.6,164.9,309.3,162.8,309.3z"/>
				</g>
			</g>
			<g>
				<g>
					<path fill="#CAC4CE" d="M140.8,452.5c0.3,2.8-1.8,5.3-4.6,5.5c-2.8,0.3-5.3-1.8-5.5-4.6c-0.3-2.8,1.8-5.3,4.6-5.5
						C138.1,447.6,140.6,449.7,140.8,452.5z"/>
					<path fill="#5C0000" d="M138.4,452.7c0.1,1.5-0.9,2.8-2.4,2.9c-1.5,0.1-2.8-0.9-2.9-2.4c-0.1-1.5,0.9-2.8,2.4-2.9
						C137,450.2,138.3,451.2,138.4,452.7z"/>
					<g>
						<path fill="#FFFFFF" d="M135.2,448.4c-2.4,0.2-4.1,2.3-3.9,4.7c0.2,2.4,2.3,4.1,4.7,3.9c2.4-0.2,4.1-2.3,3.9-4.7
							C139.7,449.9,137.6,448.2,135.2,448.4z M136.2,456.8c-2,0.2-3.8-1.3-4-3.3c-0.2-2,1.3-3.8,3.3-4c2-0.2,3.8,1.3,4,3.3
							C139.7,454.8,138.2,456.6,136.2,456.8z"/>
					</g>
				</g>
				<g>
					<path fill="#CAC4CE" d="M151,433.3c0.3,2.8-1.8,5.3-4.6,5.5c-2.8,0.3-5.3-1.8-5.5-4.6c-0.3-2.8,1.8-5.3,4.6-5.5
						C148.2,428.5,150.7,430.5,151,433.3z"/>
					<path fill="#5C0000" d="M148.6,433.5c0.1,1.5-0.9,2.8-2.4,2.9c-1.5,0.1-2.8-0.9-2.9-2.4c-0.1-1.5,0.9-2.8,2.4-2.9
						C147.1,431,148.4,432.1,148.6,433.5z"/>
					<g>
						<path fill="#FFFFFF" d="M145.4,429.2c-2.4,0.2-4.1,2.3-3.9,4.7c0.2,2.4,2.3,4.1,4.7,3.9c2.4-0.2,4.1-2.3,3.9-4.7
							C149.9,430.8,147.8,429,145.4,429.2z M146.3,437.7c-2,0.2-3.8-1.3-4-3.3c-0.2-2,1.3-3.8,3.3-4c2-0.2,3.8,1.3,4,3.3
							C149.8,435.7,148.3,437.5,146.3,437.7z"/>
					</g>
				</g>
				<g>
					<path fill="#CAC4CE" d="M161.1,414.1c0.3,2.8-1.8,5.3-4.6,5.5s-5.3-1.8-5.5-4.6c-0.3-2.8,1.8-5.3,4.6-5.5
						C158.4,409.3,160.9,411.4,161.1,414.1z"/>
					<path fill="#5C0000" d="M158.7,414.4c0.1,1.5-0.9,2.8-2.4,2.9c-1.5,0.1-2.8-0.9-2.9-2.4c-0.1-1.5,0.9-2.8,2.4-2.9
						C157.3,411.8,158.6,412.9,158.7,414.4z"/>
					<g>
						<path fill="#FFFFFF" d="M155.6,410.1c-2.4,0.2-4.1,2.3-3.9,4.7c0.2,2.4,2.3,4.1,4.7,3.9c2.4-0.2,4.1-2.3,3.9-4.7
							C160,411.6,157.9,409.8,155.6,410.1z M156.5,418.5c-2,0.2-3.8-1.3-4-3.3c-0.2-2,1.3-3.8,3.3-4c2-0.2,3.8,1.3,4,3.3
							C160,416.5,158.5,418.3,156.5,418.5z"/>
					</g>
				</g>
			</g>
			<path fill="#CAC4CE" d="M142.9,418.7c0,0.2-0.1,0.3-0.3,0.3H99.4c-0.2,0-0.3-0.1-0.3-0.3l0,0c0-0.2,0.1-0.3,0.3-0.3h43.1
				C142.7,418.4,142.9,418.6,142.9,418.7L142.9,418.7z"/>
			<circle fill="#CAC4CE" cx="102" cy="398.7" r="1.1"/>
			<circle fill="#CAC4CE" cx="140.7" cy="398.7" r="1.1"/>
		</g>
		<path fill="#FFFFFF" d="M164.2,305.3c0,0.8-0.7,1.5-1.5,1.5l0,0c-0.8,0-1.5-0.7-1.5-1.5v-5.4c0-0.8,0.7-1.5,1.5-1.5l0,0
			c0.8,0,1.5,0.7,1.5,1.5V305.3z"/>
	</g>
	<g>
		<g>
			
				<rect x="105" y="70.9" transform="matrix(0.5043 -0.8635 0.8635 0.5043 -10.2462 127.3118)" fill="#AFA7B4" width="1.6" height="3.3"/>
			<path fill="#8D8791" d="M106.1,73.7c0,0,0.1-0.1,0.1-0.1c0.3-0.5,0.4-1,0.4-1.5l-1.8-1l-0.8,1.4L106.1,73.7z"/>
			<path fill="#CAC4CE" d="M106.5,71.3c0,1.6-1.2,2.9-2.8,2.9c-1.6,0-2.9-1.2-2.9-2.8c0-1.6,1.2-2.9,2.8-2.9
				C105.2,68.5,106.5,69.7,106.5,71.3z"/>
			<path fill="#DCD7E0" d="M105.8,70.3c0,0.9-1,1.2-2.2,1.2c-1.2,0-2.2-0.2-2.2-1.2c0-0.9,1-1.7,2.2-1.7
				C104.8,68.6,105.8,69.4,105.8,70.3z"/>
		</g>
		<g>
			
				<rect x="108.8" y="64.5" transform="matrix(0.5043 -0.8635 0.8635 0.5043 -2.8059 127.4459)" fill="#AFA7B4" width="1.6" height="3.3"/>
			<path fill="#8D8791" d="M109.9,67.3c0,0,0.1-0.1,0.1-0.1c0.3-0.5,0.4-1,0.4-1.5l-1.8-1l-0.8,1.4L109.9,67.3z"/>
			<path fill="#CAC4CE" d="M110.4,64.9c0,1.6-1.2,2.9-2.8,2.9c-1.6,0-2.9-1.2-2.9-2.8c0-1.6,1.2-2.9,2.8-2.9
				C109,62.1,110.3,63.3,110.4,64.9z"/>
			<path fill="#DCD7E0" d="M109.7,63.9c0,0.9-1,1.2-2.2,1.2c-1.2,0-2.2-0.2-2.2-1.2c0-0.9,1-1.7,2.2-1.7
				C108.7,62.2,109.7,63,109.7,63.9z"/>
		</g>
		<g>
			
				<rect x="112.6" y="58.1" transform="matrix(0.5043 -0.8635 0.8635 0.5043 4.6342 127.5799)" fill="#AFA7B4" width="1.6" height="3.3"/>
			<path fill="#8D8791" d="M113.8,60.9c0,0,0.1-0.1,0.1-0.1c0.3-0.5,0.4-1,0.4-1.5l-1.8-1l-0.8,1.4L113.8,60.9z"/>
			<path fill="#CAC4CE" d="M114.2,58.5c0,1.6-1.2,2.9-2.8,2.9c-1.6,0-2.9-1.2-2.9-2.8c0-1,0.5-2.8,2.8-2.9
				C112.9,55.7,114.2,56.9,114.2,58.5z"/>
			<path fill="#DCD7E0" d="M113.5,57.5c0,0.9-1,1.2-2.2,1.2c-1.2,0-2.2-0.2-2.2-1.2c0-0.9,1-1.7,2.2-1.7
				C112.5,55.8,113.5,56.5,113.5,57.5z"/>
		</g>
		<g>
			
				<rect x="116.5" y="51.7" transform="matrix(0.5044 -0.8635 0.8635 0.5044 12.069 127.7064)" fill="#AFA7B4" width="1.6" height="3.3"/>
			<path fill="#8D8791" d="M117.6,54.5c0,0,0.1-0.1,0.1-0.1c0.3-0.5,0.4-1,0.4-1.5l-1.8-1l-0.8,1.4L117.6,54.5z"/>
			<path fill="#CAC4CE" d="M118,52.1c0,1.6-1.2,2.9-2.8,2.9c-1.6,0-2.9-1.2-2.9-2.8c0-1.6,1.2-2.9,2.8-2.9
				C116.7,49.3,118,50.5,118,52.1z"/>
			<path fill="#DCD7E0" d="M117.3,51.1c0,0.9-1,1.2-2.2,1.2c-1.2,0-2.2-0.2-2.2-1.2c0-0.9,1-1.7,2.2-1.7
				C116.3,49.4,117.3,50.1,117.3,51.1z"/>
		</g>
		<g>
			
				<rect x="120.3" y="45.3" transform="matrix(0.5043 -0.8635 0.8635 0.5043 19.5146 127.8482)" fill="#AFA7B4" width="1.6" height="3.3"/>
			<path fill="#8D8791" d="M121.4,48c0,0,0.1-0.1,0.1-0.1c0.3-0.5,0.4-1,0.4-1.5l-1.8-1l-0.8,1.4L121.4,48z"/>
			<path fill="#CAC4CE" d="M121.9,45.6c0,1.6-1.2,2.9-2.8,2.9c-1.6,0-2.9-1.2-2.9-2.8c0-1.6,1.2-2.9,2.8-2.9
				C120.6,42.8,121.8,44.1,121.9,45.6z"/>
			<path fill="#DCD7E0" d="M121.2,44.6c0,0.9-1,1.2-2.2,1.2c-1.2,0-2.2-0.2-2.2-1.2c0-0.9,1-1.7,2.2-1.7
				C120.2,43,121.2,43.7,121.2,44.6z"/>
		</g>
		<g>
			
				<rect x="124.2" y="38.9" transform="matrix(0.5045 -0.8634 0.8634 0.5045 26.9439 127.97)" fill="#AFA7B4" width="1.6" height="3.3"/>
			<path fill="#8D8791" d="M125.3,41.6c0,0,0.1-0.1,0.1-0.1c0.3-0.5,0.4-1,0.4-1.5l-1.8-1l-0.8,1.4L125.3,41.6z"/>
			<path fill="#CAC4CE" d="M125.7,39.2c0,1.6-1.2,2.9-2.8,2.9c-1.6,0-2.9-1.2-2.9-2.8c0-1.6,1.2-2.9,2.8-2.9
				C124.4,36.4,125.7,37.7,125.7,39.2z"/>
			<path fill="#DCD7E0" d="M125,38.2c0,0.9-1,1.2-2.2,1.2c-1.2,0-2.2-0.2-2.2-1.2c0-0.9,1-1.7,2.2-1.7C124,36.6,125,37.3,125,38.2z"
				/>
		</g>
		<path fill="#235667" d="M136.5,23.4c-9.2,15.1-19,30.5-36.4,60.8c-1.9,3.3,12.1,4.8,12.1,9.1h17c0-11.2,4.9-30.4,7.7-46.7
			C139.8,30.1,139.3,18.9,136.5,23.4z"/>
		<polygon fill="#FFFFFF" points="113.8,75.1 113.1,412.2 112.1,412.2 112.9,75.2 		"/>
		<polygon fill="#FFFFFF" points="116,68.3 115.5,412.2 116.4,412.2 116.8,68.3 		"/>
		<polygon fill="#FFFFFF" points="119,62.4 118.8,412.2 119.6,412.2 119.7,62.4 		"/>
		<polygon fill="#FFFFFF" points="122.1,54.2 122.3,412.2 122.9,412.2 122.7,54.2 		"/>
		<polygon fill="#FFFFFF" points="125.1,50.4 125.6,412.2 126.2,412.2 125.6,50.4 		"/>
		<polygon fill="#FFFFFF" points="128.3,43.6 129,412.2 129.5,412.2 128.6,43.6 		"/>
		<path fill="#CAC4CE" d="M113.8,75.1c0,1.6-1.2,2.9-2.8,2.9c-1.6,0-2.9-1.2-2.9-2.8c0-1.6,1.2-2.9,2.8-2.9
			C112.5,72.3,113.8,73.5,113.8,75.1z"/>
		<path fill="#CAC4CE" d="M117.7,68.7c0,1.6-1.2,2.9-2.8,2.9c-1.6,0-2.9-1.2-2.9-2.8c0-1.6,1.2-2.9,2.8-2.9
			C116.3,65.9,117.6,67.1,117.7,68.7z"/>
		<path fill="#CAC4CE" d="M121.5,62.3c0,1.6-1.2,2.9-2.8,2.9c-1.6,0-2.9-1.2-2.9-2.8c0-1.6,1.2-2.9,2.8-2.9
			C120.2,59.5,121.5,60.7,121.5,62.3z"/>
		<path fill="#CAC4CE" d="M125.3,55.8c0,1.6-1.2,2.9-2.8,2.9s-2.9-1.2-2.9-2.8c0-1.6,1.2-2.9,2.8-2.9C124,53,125.3,54.3,125.3,55.8z
			"/>
		<path fill="#CAC4CE" d="M129.2,49.4c0,1.6-1.2,2.9-2.8,2.9c-1.6,0-2.9-1.2-2.9-2.8c0-1.6,1.2-2.9,2.8-2.9
			C127.9,46.6,129.1,47.9,129.2,49.4z"/>
		<path fill="#CAC4CE" d="M133,43c0,1.6-1.2,2.9-2.8,2.9c-1.6,0-2.9-1.2-2.9-2.8c0-1.6,1.2-2.9,2.8-2.9C131.7,40.2,133,41.5,133,43z
			"/>
	</g>
	<g>
		<rect x="111.9" y="411.5" fill="#5C0000" width="1.6" height="3.1"/>
		<path fill="#801414" d="M111.4,413.7v3c0,0.7,0.6,1.3,1.3,1.3s1.3-0.6,1.3-1.3v-3H111.4z"/>
	</g>
	<g>
		<rect x="115.2" y="411.5" fill="#5C0000" width="1.6" height="3.1"/>
		<path fill="#801414" d="M114.7,413.7v3c0,0.7,0.6,1.3,1.3,1.3s1.3-0.6,1.3-1.3v-3H114.7z"/>
	</g>
	<g>
		<rect x="118.5" y="411.5" fill="#5C0000" width="1.6" height="3.1"/>
		<path fill="#801414" d="M118,413.7v3c0,0.7,0.6,1.3,1.3,1.3s1.3-0.6,1.3-1.3v-3H118z"/>
	</g>
	<g>
		<rect x="121.9" y="411.5" fill="#5C0000" width="1.6" height="3.1"/>
		<path fill="#801414" d="M121.3,413.7v3c0,0.7,0.6,1.3,1.3,1.3s1.3-0.6,1.3-1.3v-3H121.3z"/>
	</g>
	<g>
		<rect x="125.2" y="411.5" fill="#5C0000" width="1.6" height="3.1"/>
		<path fill="#801414" d="M124.7,413.7v3c0,0.7,0.6,1.3,1.3,1.3c0.7,0,1.3-0.6,1.3-1.3v-3H124.7z"/>
	</g>
	<g>
		<rect x="128.5" y="411.5" fill="#5C0000" width="1.6" height="3.1"/>
		<path fill="#801414" d="M128,413.7v3c0,0.7,0.6,1.3,1.3,1.3s1.3-0.6,1.3-1.3v-3H128z"/>
	</g>
	<path fill="#AD3131" d="M111.9,413.7v2.7c0,0.7,0.3,1.2,0.6,1.2c0.3,0,0.6-0.5,0.6-1.2v-2.7H111.9z"/>
	<path fill="#AD3131" d="M115.2,413.7v2.7c0,0.7,0.3,1.2,0.6,1.2c0.3,0,0.6-0.5,0.6-1.2v-2.7H115.2z"/>
	<path fill="#AD3131" d="M118.5,413.7v2.7c0,0.7,0.3,1.2,0.6,1.2s0.6-0.5,0.6-1.2v-2.7H118.5z"/>
	<path fill="#AD3131" d="M121.8,413.7v2.7c0,0.7,0.3,1.2,0.6,1.2c0.3,0,0.6-0.5,0.6-1.2v-2.7H121.8z"/>
	<path fill="#AD3131" d="M125.1,413.7v2.7c0,0.7,0.3,1.2,0.6,1.2c0.3,0,0.6-0.5,0.6-1.2v-2.7H125.1z"/>
	<path fill="#AD3131" d="M128.5,413.7v2.7c0,0.7,0.3,1.2,0.6,1.2s0.6-0.5,0.6-1.2v-2.7H128.5z"/>
</g>
</svg>
