<?xml version="1.0" encoding="utf-8"?>
<!-- Generator: Adobe Illustrator 24.0.2, SVG Export Plug-In . SVG Version: 6.00 Build 0)  -->
<svg version="1.1" id="Layer_1" xmlns="http://www.w3.org/2000/svg" xmlns:xlink="http://www.w3.org/1999/xlink" x="0px" y="0px"
	 viewBox="0 0 210 550" enable-background="new 0 0 210 550" xml:space="preserve">
<g>
	<path fill="#41290D" d="M111.1,532.7c0-2.2-1.8-4-4-4c-2.2,0-4,1.8-4,4c0,2.2,1.8,4,4,4C109.3,536.7,111.1,534.9,111.1,532.7z"/>
	<g>
		<g>
			<g>
				<path fill="#41290D" d="M105.8,533c-50.2,0-91-30.9-91-64.4c0-54.8,43.4-87.7,34.5-114.8c-5.7-17.4-13.5-31.1-13.5-38.4
					c0-21.6,23-39.2,54.2-39.2c6.7,0,26.6,0.2,32.7,1.2c0,26.2,19.6,29.8,33.8,24c17.3-7.1,22.5,11.7,17.8,29.2
					c-5.4,20.2-11.8,26.2-11,40.2c2.1,34.3,33.5,40.5,33.5,97.9C196.8,506.4,156,533,105.8,533z"/>
				<path fill="#B41A36" d="M105.8,531.7c-47.8,0-89.7-29.5-89.7-63.1c0-28.6,12.2-51.7,22-70.2c9-17,16.8-31.7,12.4-45.1
					c-2.4-7.3-5.1-13.9-7.5-19.7c-3.3-8-5.9-14.2-5.9-18.2c0-21.3,23.2-37.9,52.9-37.9c8.3,0,24.8,0.2,31.4,1
					c0.4,16.6,9,26.5,23.3,26.5c4.1,0,8.3-0.9,12.3-2.5c2.3-1,4.5-1.4,6.4-1.4c3.1,0,5.6,1.2,7.5,3.7c4,5.2,4.8,15.1,2,25.4
					c-2.1,7.8-4.3,13.4-6.2,18.3c-3.1,7.8-5.3,13.4-4.8,22.3c0.9,14.9,7.3,24.7,14,35.1c9.1,14.1,19.4,30,19.4,62.7
					C195.4,504.6,156.9,531.7,105.8,531.7z"/>
				<path fill="#610C21" d="M106.7,390.7c-17.8,0-32.3-14.5-32.3-32.3c0-17.8,14.5-32.3,32.3-32.3c17.8,0,32.3,14.5,32.3,32.3
					C139,376.2,124.5,390.7,106.7,390.7z"/>
				<path fill="#FFB74E" d="M106.7,328c-16.8,0-30.4,13.6-30.4,30.4c0,16.8,13.6,30.4,30.4,30.4c16.8,0,30.4-13.6,30.4-30.4
					C137.1,341.6,123.5,328,106.7,328z M106.7,381.7c-12.6,0-22.8-10.2-22.8-22.8c0-12.6,10.2-22.8,22.8-22.8
					c12.6,0,22.8,10.2,22.8,22.8C129.5,371.5,119.3,381.7,106.7,381.7z"/>
				
					<ellipse transform="matrix(0.7071 -0.7071 0.7071 0.7071 -222.54 180.5573)" fill="#41290D" cx="106.7" cy="358.9" rx="20.9" ry="20.9"/>
				<path fill="#41290D" d="M139.9,424.9c0,0.9-0.7,1.6-1.6,1.6H73.7c-0.9,0-1.6-0.7-1.6-1.6v-13.4c0-0.9,0.7-1.6,1.6-1.6h64.7
					c0.9,0,1.6,0.7,1.6,1.6V424.9z"/>
			</g>
			<path fill="#835A24" d="M106.6,336.7c6.4,0,12.2,2.5,16.5,6.6l-4-263.9H92.4l-4.1,265.9C92.7,340.1,99.3,336.7,106.6,336.7z"/>
			<path fill="#CAC4CE" d="M137.9,413.3c0,0.6-0.5,1.1-1.1,1.1H75.7c-0.6,0-1.1-0.5-1.1-1.1l0,0c0-0.6,0.5-1.1,1.1-1.1h61.1
				C137.4,412.2,137.9,412.7,137.9,413.3L137.9,413.3z"/>
			<g>
				<path fill="#CAC4CE" d="M121.9,248.9l0,2.7H89.5l0-2.7H121.9z M88.9,289.4l0,2.7h33.7l0-2.7H88.9z M89.2,274.1l0,2.7h33.2l0-2.7
					H89.2z M89,282.8l0,2.7h33.5l0-2.7H89z M89.3,266.6l0,2.7h32.9l0-2.7H89.3z M88.8,296.4l0,2.7h33.9l0-2.7H88.8z M89.4,257.6
					l0,2.7h32.7l0-2.7H89.4z M88.5,319.8l0,2.8H123l0-2.8H88.5z M88.3,332.4h34.9l0-1.8H88.3L88.3,332.4z M88.5,314.3l0,2.8h34.5
					l0-2.8H88.5z M88.7,302.7l0,2.7h34.1l0-2.7H88.7z M88.6,308.8l0,2.8h34.3l0-2.8H88.6z M88.4,325.2l0,2.8h34.8l0-2.8H88.4z
					 M91.4,131.3l0,2.4h28.7l0-2.4H91.4z M91.2,145.7l0,2.5h29.1l0-2.5H91.2z M91.7,115.8l0,2.4h28.2l0-2.4H91.7z M89.7,239.7l0,2.6
					h32.1l0-2.6H89.7z M91.9,100.2l0,2.4h27.7l0-2.4H91.9z M91,159.7l0,2.5h29.6l0-2.5H91z M92.2,81.9l0,2.4h27.1l0-2.4H92.2z
					 M90.8,173.3l0,2.5h30l0-2.5H90.8z M90.2,208.8l0,2.6h31.1l0-2.6H90.2z M89.9,229.7l0,2.6h31.8l0-2.6H89.9z M90,219.3l0,2.6
					h31.5l0-2.6H90z M90.6,185.5l0,2.5h30.4l0-2.5H90.6z M90.4,197.2l0,2.6h30.8l0-2.6H90.4z"/>
			</g>
		</g>
		<path fill="#41290D" d="M135.9,344.7c2,4.2,3.1,8.8,3.1,13.7c0,12.7-7.6,23.2-17.9,28.9c-10.8,6-1.9,27,22.9,20.2
			C163.6,402.2,168,367.9,135.9,344.7z"/>
		<g>
			<polygon fill="#281705" points="86.6,33.6 83.7,33.6 83.7,31.9 86.6,31.9 			"/>
			<path fill="#41290D" d="M84.4,32.7c0,0.5-2.8,3.4-6.2,3.4c-1.4,0-1.4-6.8,0.2-6.8C81.7,29.3,84.4,32.3,84.4,32.7z"/>
			<path fill="#835A24" d="M83.1,31.9c0,0.3-2.2,2.4-4.8,2.4c-1.1,0-1.1-4.7,0.1-4.7C81,29.5,83.1,31.6,83.1,31.9z"/>
		</g>
		<g>
			<polygon fill="#281705" points="88.5,48.1 85.5,48.1 85.6,46.4 88.5,46.4 			"/>
			<path fill="#41290D" d="M86.2,47.3c0,0.5-2.8,3.5-6.2,3.5c-1.4,0-1.4-7,0.2-7C83.5,43.8,86.2,46.8,86.2,47.3z"/>
			<path fill="#835A24" d="M84.9,46.4c0,0.3-2.2,2.4-4.9,2.4c-1.1,0-1.1-4.8,0.1-4.8C82.8,44,84.9,46.1,84.9,46.4z"/>
		</g>
		<g>
			<polygon fill="#281705" points="89.3,63.1 86.3,63.1 86.3,61.3 89.3,61.3 			"/>
			<path fill="#41290D" d="M87,62.2c0,0.5-2.9,3.6-6.3,3.6c-1.4,0-1.4-7.2,0.2-7.2C84.2,58.6,87,61.7,87,62.2z"/>
			<path fill="#835A24" d="M85.7,61.3c0,0.4-2.2,2.5-4.9,2.5c-1.1,0-1.1-4.9,0.1-4.9C83.5,58.8,85.7,61,85.7,61.3z"/>
			<polygon fill="#281705" points="125.2,33.6 128.1,33.6 128,31.9 125.1,31.9 			"/>
			<path fill="#41290D" d="M127.4,32.7c0,0.5,2.8,3.4,6.2,3.4c1.4,0,1.4-6.8-0.2-6.8C130,29.3,127.4,32.3,127.4,32.7z"/>
			<path fill="#835A24" d="M128.7,31.9c0,0.3,2.2,2.4,4.8,2.4c1.1,0,1.1-4.7-0.1-4.7C130.7,29.5,128.7,31.6,128.7,31.9z"/>
			<polygon fill="#281705" points="123.3,48.1 126.2,48.1 126.2,46.4 123.2,46.4 			"/>
			<path fill="#41290D" d="M125.5,47.3c0,0.5,2.8,3.5,6.2,3.5c1.4,0,1.4-7-0.2-7C128.2,43.8,125.5,46.8,125.5,47.3z"/>
			<path fill="#835A24" d="M126.8,46.4c0,0.3,2.2,2.4,4.9,2.4c1.1,0,1.1-4.8-0.1-4.8C128.9,44,126.8,46.1,126.8,46.4z"/>
			<polygon fill="#281705" points="122.5,63.1 125.5,63.1 125.4,61.3 122.5,61.3 			"/>
			<path fill="#41290D" d="M124.8,62.2c0,0.5,2.9,3.6,6.3,3.6c1.4,0,1.4-7.2-0.2-7.2C127.5,58.6,124.8,61.7,124.8,62.2z"/>
			<path fill="#835A24" d="M126.1,61.3c0,0.4,2.2,2.5,4.9,2.5c1.1,0,1.1-4.9-0.1-4.9C128.2,58.8,126.1,61,126.1,61.3z"/>
		</g>
		<path fill="#35343A" d="M92.4,81.2h26.9c-0.2-13.4,5.3-14.7,5.3-16.7c-0.5-28.2,6-38.5-1.2-38.5c-5.6,0-10.7-9.6-17.6-5.1
			C98.9,16.4,93.3,26,88.2,26c-7.5,0,0,10.1-0.5,39C87.7,67.4,93.1,67.7,92.4,81.2z"/>
		<polygon fill="#FFFFFF" points="98.6,47.1 95.7,414.8 96.8,414.8 99.4,47.1 		"/>
		<polygon fill="#FFFFFF" points="103.4,32.6 102.4,414.7 103.3,414.7 104,32.6 		"/>
		<polygon fill="#FFFFFF" points="108,32.8 109,414.8 109.8,414.8 108.5,32.8 		"/>
		<path fill="#FFFFFF" d="M113.1,47.1c-0.1,0-0.2,0-0.2,0l2.8,367.5h0.7l-3-367.5C113.2,47.1,113.2,47.1,113.1,47.1z"/>
		<path fill="#FFFFFF" d="M117.7,62.8l4.6,352.1h0.5l-4.7-352.1C117.9,62.8,117.8,62.8,117.7,62.8z"/>
		<g>
			<path fill="#FFFFFF" d="M119.7,64.7c-1.1,0-2-0.9-2-1.9c0-0.5,0.2-1,0.5-1.4c0.4-0.4,0.9-0.6,1.4-0.6l0,0c1.1,0,2,0.9,2.1,1.9
				c0,0.5-0.2,1-0.5,1.4C120.8,64.5,120.3,64.7,119.7,64.7L119.7,64.7z"/>
			<path fill="#E89C3E" d="M121.4,62.7c0,0.9-0.7,1.7-1.6,1.7c-0.9,0-1.7-0.7-1.8-1.6c0-0.9,0.7-1.7,1.6-1.7
				C120.6,61,121.4,61.8,121.4,62.7z"/>
			<path fill="#FFFFFF" d="M110.2,34.8c-1.2,0-2.2-0.9-2.3-2.1c0-0.6,0.2-1.1,0.6-1.5c0.4-0.4,1-0.6,1.6-0.7c0,0,0,0,0,0
				c1.3,0,2.3,0.9,2.3,2.1c0,0.6-0.2,1.1-0.6,1.5C111.4,34.6,110.9,34.8,110.2,34.8L110.2,34.8z"/>
			<path fill="#E89C3E" d="M111.9,32.6c0,0.9-0.7,1.6-1.6,1.6c-0.9,0-1.7-0.7-1.7-1.5c0-0.9,0.7-1.6,1.6-1.6
				C111.1,31.1,111.9,31.7,111.9,32.6z"/>
		</g>
		<path fill="#FFFFFF" d="M117.1,47.2c0,1.1-0.9,2.1-2.1,2.1c-1.2,0-2.2-0.9-2.2-2c0-1.1,0.9-2.1,2.1-2.1
			C116.1,45.2,117.1,46.1,117.1,47.2z"/>
		<path fill="#E89C3E" d="M116.7,47.2c0,0.9-0.7,1.6-1.6,1.7c-0.9,0-1.7-0.7-1.7-1.6c0-0.9,0.7-1.6,1.6-1.6
			C115.9,45.6,116.6,46.3,116.7,47.2z"/>
		<g>
			<polygon fill="#FFFFFF" points="94.6,62.8 90.3,414.9 89.1,414.9 93.8,61.8 			"/>
			<path fill="#FFFFFF" d="M94.6,62.7c0,1.3-1.1,2.4-2.4,2.5c-1.4,0-2.5-1-2.5-2.4c0-1.3,1.1-2.4,2.4-2.5
				C93.5,60.3,94.6,61.3,94.6,62.7z"/>
			<path fill="#E89C3E" d="M93.9,62.7c0,0.9-0.7,1.7-1.7,1.7s-1.7-0.7-1.7-1.6c0-0.9,0.8-1.7,1.7-1.7C93.1,61,93.8,61.8,93.9,62.7z"
				/>
		</g>
		<path fill="#FFFFFF" d="M99.4,47.2c0,1.3-1.1,2.4-2.5,2.5c-1.4,0-2.5-1-2.5-2.4c0-1.3,1.1-2.4,2.5-2.4
			C98.3,44.8,99.4,45.9,99.4,47.2z"/>
		<path fill="#E89C3E" d="M98.6,47.2c0,0.9-0.7,1.6-1.7,1.7c-0.9,0-1.7-0.7-1.7-1.6c0-0.9,0.7-1.6,1.7-1.6
			C97.9,45.6,98.6,46.3,98.6,47.2z"/>
		<path fill="#FFFFFF" d="M104,32.6c0,1.2-1,2.2-2.2,2.2c-1.3,0-2.3-0.9-2.3-2.1c0-1.2,1-2.2,2.2-2.2C103,30.5,104,31.4,104,32.6z"
			/>
		<path fill="#E89C3E" d="M103.4,32.6c0,0.9-0.7,1.6-1.6,1.6c-0.9,0-1.7-0.7-1.7-1.5c0-0.9,0.7-1.6,1.6-1.6S103.4,31.7,103.4,32.6z"
			/>
		<g>
			<polygon fill="#8E6346" points="91.2,419.5 88.1,419.5 88.2,414.5 91.2,414.5 			"/>
			<path fill="#A07D65" d="M87.1,418.1l0,4.8c0,1.2,1.2,2.1,2.7,2.1c1.5,0,2.7-1,2.7-2.1l0-4.8H87.1z"/>
		</g>
		<path fill="#D3AA8D" d="M88.2,418.1l0,4.2c0,1,0.5,1.9,1.2,1.9c0.7,0,1.2-0.9,1.2-1.9l0-4.2H88.2z"/>
		<g>
			<polygon fill="#8E6346" points="97.8,419.5 94.7,419.5 94.7,414.5 97.8,414.5 			"/>
			<path fill="#A07D65" d="M93.7,418.1l0,4.8c0,1.2,1.2,2.1,2.7,2.1c1.5,0,2.7-1,2.7-2.1l0-4.8H93.7z"/>
		</g>
		<path fill="#D3AA8D" d="M94.6,418.1l0,4.2c0,1,0.5,1.9,1.2,1.9c0.7,0,1.2-0.9,1.2-1.9l0-4.2H94.6z"/>
		<g>
			<rect x="101.3" y="414.5" fill="#8E6346" width="3.1" height="4.9"/>
			<path fill="#A07D65" d="M100.2,418.1l0,4.8c0,1.2,1.2,2.1,2.7,2.1c1.5,0,2.7-1,2.7-2.1l0-4.8H100.2z"/>
		</g>
		<path fill="#D3AA8D" d="M101.2,418.1l0,4.2c0,1,0.5,1.9,1.2,1.9c0.7,0,1.2-0.9,1.2-1.9l0-4.2H101.2z"/>
		<g>
			<rect x="107.8" y="414.5" fill="#8E6346" width="3.1" height="4.9"/>
			<path fill="#A07D65" d="M106.8,418.1l0,4.8c0,1.2,1.2,2.1,2.7,2.1c1.5,0,2.7-1,2.7-2.1l0-4.8H106.8z"/>
		</g>
		<path fill="#D3AA8D" d="M107.8,418.1l0,4.2c0,1,0.5,1.9,1.2,1.9c0.7,0,1.2-0.9,1.2-1.9l0-4.2H107.8z"/>
		<g>
			<polygon fill="#8E6346" points="117.5,419.5 114.4,419.5 114.4,414.5 117.4,414.5 			"/>
			<path fill="#A07D65" d="M113.4,418.1l0,4.8c0,1.2,1.2,2.1,2.7,2.1c1.5,0,2.7-1,2.7-2.1l0-4.8H113.4z"/>
		</g>
		<path fill="#D3AA8D" d="M114.3,418.1l0,4.2c0,1,0.5,1.9,1.2,1.9c0.7,0,1.2-0.9,1.2-1.9l0-4.2H114.3z"/>
		<g>
			<polygon fill="#8E6346" points="124,419.5 121,419.5 120.9,414.5 124,414.5 			"/>
			<path fill="#A07D65" d="M119.9,418.1l0,4.8c0,1.2,1.2,2.1,2.7,2.1c1.5,0,2.7-1,2.7-2.1l0-4.8H119.9z"/>
		</g>
		<path fill="#D3AA8D" d="M120.9,418.1l0,4.2c0,1,0.6,1.9,1.2,1.9c0.7,0,1.2-0.9,1.2-1.9l0-4.2H120.9z"/>
	</g>
</g>
</svg>
