<?xml version="1.0" encoding="utf-8"?>
<!-- Generator: Adobe Illustrator 24.0.2, SVG Export Plug-In . SVG Version: 6.00 Build 0)  -->
<svg version="1.1" id="Layer_1" xmlns="http://www.w3.org/2000/svg" xmlns:xlink="http://www.w3.org/1999/xlink" x="0px" y="0px"
	 viewBox="0 0 415.1 88.1" enable-background="new 0 0 415.1 88.1" xml:space="preserve">
<g>
	<radialGradient id="SVGID_1_" cx="23.4657" cy="75.0857" r="66.3906" gradientUnits="userSpaceOnUse">
		<stop  offset="0.3548" style="stop-color:#FFC200"/>
		<stop  offset="0.5084" style="stop-color:#FFBD07"/>
		<stop  offset="0.7249" style="stop-color:#FFAF19"/>
		<stop  offset="0.9777" style="stop-color:#FF9737"/>
		<stop  offset="1" style="stop-color:#FF953A"/>
	</radialGradient>
	<path fill="url(#SVGID_1_)" d="M64.4,72.1c0.3,1.9-0.9,2.8-2.6,1.9l-14.3-7.2c-1.7-0.9-4.6-0.9-6.3,0l-14.4,7.1
		c-1.7,0.9-2.9,0-2.6-1.9l2.4-15.9c0.3-1.9-0.6-4.6-1.9-6L13.5,38.6c-1.3-1.4-0.9-2.8,1-3.1l15.8-2.6c1.9-0.3,4.2-2,5.1-3.7L42.9,15
		c0.9-1.7,2.4-1.7,3.2,0l7.4,14.3c0.9,1.7,3.2,3.4,5.1,3.7l15.8,2.7c1.9,0.3,2.3,1.7,1,3.1L64.1,50.2c-1.4,1.4-2.2,4.1-2,6
		L64.4,72.1z"/>
	<radialGradient id="SVGID_2_" cx="18.4171" cy="91.5451" r="95.9937" gradientUnits="userSpaceOnUse">
		<stop  offset="0.3548" style="stop-color:#FFC200"/>
		<stop  offset="0.5084" style="stop-color:#FFBD07"/>
		<stop  offset="0.7249" style="stop-color:#FFAF19"/>
		<stop  offset="0.9777" style="stop-color:#FF9737"/>
		<stop  offset="1" style="stop-color:#FF953A"/>
	</radialGradient>
	<path opacity="0.5" fill="url(#SVGID_2_)" d="M44.5,14.5c0.3,0,0.6,0.3,0.9,0.9l7.4,14.3c1,1.9,3.5,3.8,5.6,4.1l15.8,2.7
		c0.6,0.1,1,0.3,1.1,0.6c0.1,0.3-0.1,0.7-0.5,1.1L63.5,49.7c-1.5,1.6-2.5,4.5-2.2,6.6l2.3,15.9c0.1,0.5,0,1-0.2,1.2
		c0,0-0.1,0.2-0.4,0.2c-0.3,0-0.6-0.1-0.9-0.3l-14.3-7.2c-1-0.5-2.2-0.7-3.5-0.7c-1.3,0-2.5,0.3-3.5,0.7l-14.4,7.1
		c-0.3,0.2-0.6,0.3-0.9,0.3c-0.3,0-0.4-0.1-0.4-0.2c-0.2-0.2-0.2-0.6-0.2-1.2l2.4-15.9c0.3-2.2-0.6-5.1-2.1-6.7L14,38
		c-0.4-0.4-0.6-0.9-0.5-1.1c0.1-0.3,0.5-0.5,1.1-0.6l15.8-2.6c2.2-0.3,4.6-2.1,5.7-4.1l7.5-14.2C43.9,14.9,44.2,14.5,44.5,14.5
		 M44.5,13.8c-0.6,0-1.2,0.4-1.6,1.3l-7.5,14.2c-0.9,1.7-3.2,3.4-5.1,3.7l-15.8,2.6c-1.9,0.3-2.4,1.7-1,3.1l11.2,11.5
		c1.3,1.4,2.2,4.1,1.9,6l-2.4,15.9c-0.2,1.4,0.4,2.3,1.4,2.3c0.4,0,0.8-0.1,1.2-0.3l14.4-7.1c0.9-0.4,2-0.6,3.1-0.6
		c1.2,0,2.3,0.2,3.2,0.7L61.8,74c0.5,0.2,0.9,0.3,1.2,0.3c1,0,1.6-0.8,1.4-2.2l-2.3-15.9c-0.3-1.9,0.6-4.6,2-6l11.3-11.4
		c1.4-1.4,0.9-2.8-1-3.1L58.6,33c-1.9-0.3-4.2-2-5.1-3.7L46.2,15C45.7,14.2,45.1,13.8,44.5,13.8L44.5,13.8z"/>
</g>
<g>
	<radialGradient id="SVGID_3_" cx="106.4061" cy="75.0857" r="66.3886" gradientUnits="userSpaceOnUse">
		<stop  offset="0.3548" style="stop-color:#FFC200"/>
		<stop  offset="0.5084" style="stop-color:#FFBD07"/>
		<stop  offset="0.7249" style="stop-color:#FFAF19"/>
		<stop  offset="0.9777" style="stop-color:#FF9737"/>
		<stop  offset="1" style="stop-color:#FF953A"/>
	</radialGradient>
	<path fill="url(#SVGID_3_)" d="M147.4,72.1c0.3,1.9-0.9,2.8-2.6,1.9l-14.3-7.2c-1.7-0.9-4.6-0.9-6.3,0l-14.4,7.1
		c-1.7,0.9-2.9,0-2.6-1.9l2.4-15.9c0.3-1.9-0.6-4.6-1.9-6L96.4,38.6c-1.3-1.4-0.9-2.8,1-3.1l15.8-2.6c1.9-0.3,4.2-2,5.1-3.7
		l7.5-14.2c0.9-1.7,2.4-1.7,3.2,0l7.4,14.3c0.9,1.7,3.2,3.4,5.1,3.7l15.8,2.7c1.9,0.3,2.3,1.7,1,3.1L147,50.2c-1.4,1.4-2.2,4.1-2,6
		L147.4,72.1z"/>
	<radialGradient id="SVGID_4_" cx="101.3576" cy="91.5451" r="95.9911" gradientUnits="userSpaceOnUse">
		<stop  offset="0.3548" style="stop-color:#FFC200"/>
		<stop  offset="0.5084" style="stop-color:#FFBD07"/>
		<stop  offset="0.7249" style="stop-color:#FFAF19"/>
		<stop  offset="0.9777" style="stop-color:#FF9737"/>
		<stop  offset="1" style="stop-color:#FF953A"/>
	</radialGradient>
	<path opacity="0.5" fill="url(#SVGID_4_)" d="M127.5,14.5c0.3,0,0.6,0.3,0.9,0.9l7.3,14.3c1,1.9,3.5,3.8,5.6,4.1l15.8,2.7
		c0.6,0.1,1,0.3,1.1,0.6c0.1,0.3-0.1,0.7-0.5,1.1l-11.3,11.4c-1.5,1.6-2.5,4.5-2.2,6.6l2.3,15.9c0.1,0.5,0,1-0.2,1.2
		c0,0-0.1,0.2-0.4,0.2c-0.2,0-0.6-0.1-0.9-0.3l-14.3-7.2c-1-0.5-2.2-0.7-3.5-0.7c-1.3,0-2.5,0.3-3.5,0.7l-14.4,7.1
		c-0.3,0.2-0.6,0.3-0.9,0.3c-0.3,0-0.4-0.1-0.4-0.2c-0.2-0.2-0.2-0.6-0.2-1.2l2.4-15.9c0.3-2.2-0.6-5.1-2.1-6.7L97,38
		c-0.4-0.4-0.6-0.9-0.5-1.1c0.1-0.3,0.5-0.5,1.1-0.6l15.8-2.6c2.2-0.3,4.6-2.1,5.7-4.1l7.5-14.2C126.8,14.9,127.2,14.5,127.5,14.5
		 M127.5,13.8c-0.6,0-1.2,0.4-1.6,1.3l-7.5,14.2c-0.9,1.7-3.2,3.4-5.1,3.7l-15.8,2.6c-1.9,0.3-2.4,1.7-1,3.1l11.2,11.5
		c1.3,1.4,2.2,4.1,1.9,6l-2.4,15.9c-0.2,1.4,0.4,2.3,1.4,2.3c0.4,0,0.8-0.1,1.2-0.3l14.4-7.1c0.9-0.4,2-0.6,3.1-0.6
		c1.2,0,2.3,0.2,3.2,0.7l14.3,7.2c0.5,0.2,0.9,0.3,1.2,0.3c1,0,1.6-0.8,1.4-2.2l-2.3-15.9c-0.3-1.9,0.6-4.6,2-6l11.3-11.4
		c1.4-1.4,0.9-2.8-1-3.1L141.5,33c-1.9-0.3-4.2-2-5.1-3.7L129.1,15C128.7,14.2,128.1,13.8,127.5,13.8L127.5,13.8z"/>
</g>
<g>
	<radialGradient id="SVGID_5_" cx="189.3451" cy="75.0857" r="66.3885" gradientUnits="userSpaceOnUse">
		<stop  offset="0.3548" style="stop-color:#FFC200"/>
		<stop  offset="0.5084" style="stop-color:#FFBD07"/>
		<stop  offset="0.7249" style="stop-color:#FFAF19"/>
		<stop  offset="0.9777" style="stop-color:#FF9737"/>
		<stop  offset="1" style="stop-color:#FF953A"/>
	</radialGradient>
	<path fill="url(#SVGID_5_)" d="M230.3,72.1c0.3,1.9-0.9,2.8-2.6,1.9l-14.3-7.2c-1.7-0.9-4.6-0.9-6.3,0l-14.4,7.1
		c-1.7,0.9-2.9,0-2.6-1.9l2.4-15.9c0.3-1.9-0.6-4.6-1.9-6l-11.2-11.5c-1.3-1.4-0.9-2.8,1-3.1l15.8-2.6c1.9-0.3,4.2-2,5.1-3.7
		l7.5-14.2c0.9-1.7,2.4-1.7,3.2,0l7.4,14.3c0.9,1.7,3.2,3.4,5.1,3.7l15.8,2.7c1.9,0.3,2.3,1.7,1,3.1L230,50.2c-1.4,1.4-2.2,4.1-2,6
		L230.3,72.1z"/>
	<radialGradient id="SVGID_6_" cx="184.2967" cy="91.5451" r="95.9909" gradientUnits="userSpaceOnUse">
		<stop  offset="0.3548" style="stop-color:#FFC200"/>
		<stop  offset="0.5084" style="stop-color:#FFBD07"/>
		<stop  offset="0.7249" style="stop-color:#FFAF19"/>
		<stop  offset="0.9777" style="stop-color:#FF9737"/>
		<stop  offset="1" style="stop-color:#FF953A"/>
	</radialGradient>
	<path opacity="0.5" fill="url(#SVGID_6_)" d="M210.4,14.5c0.3,0,0.6,0.3,0.9,0.9l7.4,14.3c1,1.9,3.5,3.8,5.6,4.1l15.8,2.7
		c0.6,0.1,1,0.3,1.1,0.6c0.1,0.3-0.1,0.7-0.5,1.1l-11.3,11.4c-1.5,1.6-2.5,4.5-2.2,6.6l2.3,15.9c0.1,0.5,0,1-0.2,1.2
		c0,0-0.1,0.2-0.4,0.2c-0.2,0-0.6-0.1-0.9-0.3l-14.3-7.2c-1-0.5-2.2-0.7-3.5-0.7c-1.3,0-2.5,0.3-3.5,0.7l-14.4,7.1
		c-0.3,0.2-0.6,0.3-0.9,0.3c-0.3,0-0.4-0.1-0.4-0.2c-0.2-0.2-0.2-0.6-0.2-1.2l2.4-15.9c0.3-2.2-0.6-5.1-2.1-6.7L179.9,38
		c-0.4-0.4-0.6-0.9-0.5-1.1c0.1-0.3,0.5-0.5,1.1-0.6l15.8-2.6c2.2-0.3,4.7-2.1,5.7-4.1l7.5-14.2C209.8,14.9,210.1,14.5,210.4,14.5
		 M210.4,13.8c-0.6,0-1.2,0.4-1.6,1.3l-7.5,14.2c-0.9,1.7-3.2,3.4-5.1,3.7l-15.8,2.6c-1.9,0.3-2.4,1.7-1,3.1l11.2,11.5
		c1.3,1.4,2.2,4.1,1.9,6L190,71.9c-0.2,1.4,0.4,2.3,1.4,2.3c0.4,0,0.8-0.1,1.2-0.3l14.4-7.1c0.9-0.4,2-0.6,3.1-0.6
		c1.2,0,2.3,0.2,3.2,0.7l14.3,7.2c0.5,0.2,0.9,0.3,1.2,0.3c1,0,1.6-0.8,1.4-2.2L228,56.2c-0.3-1.9,0.6-4.6,2-6l11.3-11.4
		c1.4-1.4,0.9-2.8-1-3.1L224.5,33c-1.9-0.3-4.2-2-5.1-3.7L212,15C211.6,14.2,211,13.8,210.4,13.8L210.4,13.8z"/>
</g>
<g>
	<radialGradient id="SVGID_7_" cx="272.2835" cy="75.0857" r="66.3895" gradientUnits="userSpaceOnUse">
		<stop  offset="0.3548" style="stop-color:#FFC200"/>
		<stop  offset="0.5084" style="stop-color:#FFBD07"/>
		<stop  offset="0.7249" style="stop-color:#FFAF19"/>
		<stop  offset="0.9777" style="stop-color:#FF9737"/>
		<stop  offset="1" style="stop-color:#FF953A"/>
	</radialGradient>
	<path fill="url(#SVGID_7_)" d="M313.2,72.1c0.3,1.9-0.9,2.8-2.6,1.9l-14.3-7.2c-1.7-0.9-4.6-0.9-6.3,0l-14.4,7.1
		c-1.7,0.9-2.9,0-2.6-1.9l2.4-15.9c0.3-1.9-0.6-4.6-1.9-6l-11.2-11.5c-1.3-1.4-0.9-2.8,1-3.1l15.8-2.6c1.9-0.3,4.2-2,5.1-3.7
		l7.5-14.2c0.9-1.7,2.4-1.7,3.2,0l7.4,14.3c0.9,1.7,3.2,3.4,5.1,3.7l15.8,2.7c1.9,0.3,2.3,1.7,1,3.1l-11.3,11.4
		c-1.4,1.4-2.2,4.1-2,6L313.2,72.1z"/>
	<radialGradient id="SVGID_8_" cx="267.235" cy="91.5451" r="95.9923" gradientUnits="userSpaceOnUse">
		<stop  offset="0.3548" style="stop-color:#FFC200"/>
		<stop  offset="0.5084" style="stop-color:#FFBD07"/>
		<stop  offset="0.7249" style="stop-color:#FFAF19"/>
		<stop  offset="0.9777" style="stop-color:#FF9737"/>
		<stop  offset="1" style="stop-color:#FF953A"/>
	</radialGradient>
	<path opacity="0.5" fill="url(#SVGID_8_)" d="M293.4,14.5c0.3,0,0.6,0.3,0.9,0.9l7.4,14.3c1,1.9,3.5,3.8,5.6,4.1l15.8,2.7
		c0.6,0.1,1,0.3,1.1,0.6c0.1,0.3-0.1,0.7-0.5,1.1l-11.3,11.4c-1.5,1.6-2.5,4.5-2.2,6.6l2.3,15.9c0.1,0.5,0,1-0.2,1.2
		c0,0-0.1,0.2-0.4,0.2c-0.2,0-0.6-0.1-0.9-0.3l-14.3-7.2c-1-0.5-2.2-0.7-3.5-0.7c-1.3,0-2.5,0.3-3.5,0.7l-14.4,7.1
		c-0.3,0.2-0.6,0.3-0.9,0.3c-0.3,0-0.4-0.1-0.4-0.2c-0.2-0.2-0.2-0.6-0.2-1.2l2.4-15.9c0.3-2.2-0.6-5.1-2.1-6.7L262.9,38
		c-0.4-0.4-0.6-0.9-0.5-1.1c0.1-0.3,0.5-0.5,1.1-0.6l15.8-2.6c2.2-0.3,4.6-2.1,5.7-4.1l7.5-14.2C292.7,14.9,293.1,14.5,293.4,14.5
		 M293.4,13.8c-0.6,0-1.2,0.4-1.6,1.3l-7.5,14.2c-0.9,1.7-3.2,3.4-5.1,3.7l-15.8,2.6c-1.9,0.3-2.4,1.7-1,3.1l11.2,11.5
		c1.3,1.4,2.2,4.1,1.9,6L273,71.9c-0.2,1.4,0.4,2.3,1.4,2.3c0.4,0,0.8-0.1,1.2-0.3l14.4-7.1c0.9-0.4,2-0.6,3.1-0.6
		c1.2,0,2.3,0.2,3.2,0.7l14.3,7.2c0.5,0.2,0.9,0.3,1.2,0.3c1,0,1.6-0.8,1.4-2.2l-2.3-15.9c-0.3-1.9,0.6-4.6,2-6l11.3-11.4
		c1.4-1.4,0.9-2.8-1-3.1L307.4,33c-1.9-0.3-4.2-2-5.1-3.7L295,15C294.5,14.2,293.9,13.8,293.4,13.8L293.4,13.8z"/>
</g>
<g>
	<radialGradient id="SVGID_9_" cx="355.2219" cy="75.0857" r="66.3898" gradientUnits="userSpaceOnUse">
		<stop  offset="0.1882" style="stop-color:#4D4D4D"/>
		<stop  offset="0.6364" style="stop-color:#464646"/>
		<stop  offset="0.9946" style="stop-color:#3D3D3D"/>
	</radialGradient>
	<path fill="url(#SVGID_9_)" d="M396.2,72.1c0.3,1.9-0.9,2.8-2.6,1.9l-14.3-7.2c-1.7-0.9-4.6-0.9-6.3,0l-14.4,7.1
		c-1.7,0.9-2.9,0-2.6-1.9l2.4-15.9c0.3-1.9-0.6-4.6-1.9-6l-11.2-11.5c-1.3-1.4-0.9-2.8,1-3.1l15.8-2.6c1.9-0.3,4.2-2,5.1-3.7
		l7.5-14.2c0.9-1.7,2.4-1.7,3.2,0l7.4,14.3c0.9,1.7,3.2,3.4,5.1,3.7l15.8,2.7c1.9,0.3,2.4,1.7,1,3.1l-11.3,11.4
		c-1.4,1.4-2.2,4.1-2,6L396.2,72.1z"/>
	<radialGradient id="SVGID_10_" cx="350.1733" cy="91.5451" r="95.9927" gradientUnits="userSpaceOnUse">
		<stop  offset="0.1882" style="stop-color:#4D4D4D"/>
		<stop  offset="0.6364" style="stop-color:#464646"/>
		<stop  offset="0.9946" style="stop-color:#3D3D3D"/>
	</radialGradient>
	<path opacity="0.5" fill="url(#SVGID_10_)" d="M376.3,14.5c0.3,0,0.6,0.3,0.9,0.9l7.4,14.3c1,1.9,3.5,3.8,5.6,4.1l15.8,2.7
		c0.6,0.1,1,0.3,1.1,0.6c0.1,0.3-0.1,0.7-0.5,1.1l-11.3,11.4c-1.5,1.6-2.5,4.5-2.2,6.6l2.3,15.9c0.1,0.5,0,1-0.2,1.2
		c0,0-0.1,0.2-0.4,0.2c-0.2,0-0.6-0.1-0.9-0.3l-14.3-7.2c-1-0.5-2.2-0.7-3.5-0.7c-1.3,0-2.5,0.3-3.5,0.7l-14.4,7.1
		c-0.3,0.2-0.6,0.3-0.9,0.3c-0.3,0-0.4-0.1-0.4-0.2c-0.2-0.2-0.2-0.6-0.2-1.2l2.4-15.9c0.3-2.2-0.6-5.1-2.1-6.7L345.8,38
		c-0.4-0.4-0.6-0.9-0.5-1.1c0.1-0.3,0.5-0.5,1.1-0.6l15.8-2.6c2.2-0.3,4.6-2.1,5.7-4.1l7.5-14.2C375.6,14.9,376,14.5,376.3,14.5
		 M376.3,13.8c-0.6,0-1.2,0.4-1.6,1.3l-7.5,14.2c-0.9,1.7-3.2,3.4-5.1,3.7l-15.8,2.6c-1.9,0.3-2.4,1.7-1,3.1l11.2,11.5
		c1.3,1.4,2.2,4.1,1.9,6l-2.4,15.9c-0.2,1.4,0.4,2.3,1.4,2.3c0.4,0,0.8-0.1,1.2-0.3l14.4-7.1c0.9-0.4,2-0.6,3.1-0.6
		c1.2,0,2.3,0.2,3.2,0.7l14.3,7.2c0.5,0.2,0.9,0.3,1.2,0.3c1,0,1.6-0.8,1.4-2.2l-2.3-15.9c-0.3-1.9,0.6-4.6,2-6l11.3-11.4
		c1.4-1.4,0.9-2.8-1-3.1L390.3,33c-1.9-0.3-4.2-2-5.1-3.7L377.9,15C377.5,14.2,376.9,13.8,376.3,13.8L376.3,13.8z"/>
</g>
</svg>
