<?xml version="1.0" encoding="utf-8"?>
<!-- Generator: Adobe Illustrator 24.0.2, SVG Export Plug-In . SVG Version: 6.00 Build 0)  -->
<svg version="1.1" id="Layer_1" xmlns="http://www.w3.org/2000/svg" xmlns:xlink="http://www.w3.org/1999/xlink" x="0px" y="0px"
	 viewBox="0 0 300 300" enable-background="new 0 0 300 300" xml:space="preserve">
<g>
	<radialGradient id="SVGID_1_" cx="274.5935" cy="309.5755" r="206.5156" gradientUnits="userSpaceOnUse">
		<stop  offset="0" style="stop-color:#FFFFFF"/>
		<stop  offset="1" style="stop-color:#000000"/>
	</radialGradient>
	<path fill-rule="evenodd" clip-rule="evenodd" fill="url(#SVGID_1_)" d="M249.3,56.3c-41.7-43.8-154.7-40.8-199.8,0
		C12.9,98.4,99.3,229,128.1,260.5c17.2,18.8,28.9,18.9,44.7,0C203.4,224,282.4,104.8,249.3,56.3z"/>
	<linearGradient id="SVGID_2_" gradientUnits="userSpaceOnUse" x1="142.4996" y1="204.8539" x2="142.4996" y2="-85.6909">
		<stop  offset="0" style="stop-color:#000000"/>
		<stop  offset="1" style="stop-color:#BBBDBF"/>
	</linearGradient>
	<path fill-rule="evenodd" clip-rule="evenodd" fill="url(#SVGID_2_)" d="M244.3,51.5C199.2,12.8,93,17,49.5,56.3
		C17.2,93.5,81,199.9,116.1,245.8c-2.2-10.5-3.3-21.3-3.3-32.3C112.8,136.4,168.4,71.5,244.3,51.5z"/>
	<path d="M247.8,57.5c-20.1-21-57.2-31-95.1-31c-1.3,0-2.5,0-3.8,0v-3.9c1.3,0,2.5,0,3.8,0c38.9,0,77.1,10.4,98,32.4l0.2,0.2
		c13.4,19.6,9.1,50.1-2.9,82.1c-18.4,49.1-55,102.1-73.7,124.4c-8.3,9.9-15.7,14.8-23.3,14.8c-0.7,0-1.4,0-2.1-0.1v-3.9
		c0.7,0.1,1.4,0.2,2.1,0.2c6.4,0,12.8-4.5,20.4-13.4c18.5-22,54.8-74.6,73.1-123.2C256,105.1,260.2,75.9,247.8,57.5z M148.9,26.5
		c-38,0.7-76.2,11.4-98,31.1c-13.6,15.8-9.2,44.8,2.9,76.3C73.2,184.1,112,240,129.5,259.2c7.3,8,13.5,12.5,19.4,13.3v3.9
		c-7-0.8-14.1-5.7-22.2-14.6c-17.7-19.3-57-75.8-76.5-126.4C37.6,102.6,33.2,72.1,48,55l0.2-0.2C70.8,34.4,110,23.3,148.9,22.6V26.5
		z"/>
	
		<path fill-rule="evenodd" clip-rule="evenodd" fill="none" stroke="#D1AA67" stroke-width="0.7155" stroke-linecap="round" stroke-linejoin="round" stroke-miterlimit="2.6131" stroke-dasharray="1.4309,1.4309" d="
		M242.5,62.6c-38.9-40.8-144.2-38.1-186.3,0c-34.1,39.3,46.4,161,73.3,190.4c16,17.5,26.9,17.6,41.7,0
		C199.8,219,273.4,107.8,242.5,62.6z"/>
	
		<path fill-rule="evenodd" clip-rule="evenodd" fill="none" stroke="#D1AA67" stroke-width="0.7724" stroke-linecap="round" stroke-linejoin="round" stroke-miterlimit="2.6131" stroke-dasharray="1.5449,1.5449" d="
		M238.8,66.1c-37.3-39.2-138.5-36.6-178.9,0c-32.8,37.7,44.6,154.6,70.4,182.8c15.4,16.8,25.9,16.9,40,0
		C197.7,216.2,268.4,109.5,238.8,66.1z"/>
	<linearGradient id="SVGID_3_" gradientUnits="userSpaceOnUse" x1="156.7971" y1="187.5761" x2="154.7231" y2="157.9166">
		<stop  offset="0" style="stop-color:#D1AA67"/>
		<stop  offset="0.34" style="stop-color:#CE8630"/>
		<stop  offset="0.58" style="stop-color:#FDD776"/>
		<stop  offset="0.84" style="stop-color:#A86232"/>
		<stop  offset="1" style="stop-color:#D1AA67"/>
	</linearGradient>
	<path fill-rule="evenodd" clip-rule="evenodd" fill="url(#SVGID_3_)" d="M218.5,149.4v-4c1.6-1.7,2.7-3.5,3.6-4.2
		C221.9,143.9,220.4,146.8,218.5,149.4L218.5,149.4z M218.5,141.6c5.4-4.8,9.2-11,9.2-21.8c-0.5,0.4-2.3,5.4-3.2,6.7
		c-1.6,2.4-2.5,3.5-4.4,5.4c-0.4,0.4-0.9,1-1.6,1.8V141.6L218.5,141.6z M218.5,129.4v-5.8c1-3.5,2.4-9,3.2-10.7
		c1.9-4.2,3.9-7.9,3.9-14.1c0.9,1.1,1.7,4.8,1.7,6.8v2.6c0,4.9-1.8,11.9-3.8,14.6C222.8,123.8,220.5,126.9,218.5,129.4L218.5,129.4z
		 M218.5,113c0.2,0.6,0.5,1,0.6,1.2c0-6.5,4.3-10.3,4.3-18v-4.7c0-4.2-2.9-8.8-4.9-11.9v2c0.2,0.7,0.2,1.4,0.2,2.6
		c0,2.2,0.1,4.3-0.2,6.3V104h0.2v2.1h-0.2V113z M218.5,79.7v2c0-0.2-0.1-0.3-0.1-0.5c-0.2-0.7-0.2-0.7-0.5-1.3
		c-0.1-0.2-0.3-0.3-0.3-0.6c0-0.1-0.2-0.2-0.2-0.3l0.4-0.4L218.5,79.7L218.5,79.7z M218.5,90.6V104h-0.2v2.1h0.2v6.9
		c-0.7-1.7-1.7-4.5-2.5-5.9c-0.6-1.1-1.4-2.2-2.2-3.3v-8c3.5,3.6,2,4.2,4.5,8.2c0-3.4-0.4-10.2,0.2-13.1L218.5,90.6L218.5,90.6z
		 M218.5,123.6c-0.5,1.6-0.9,2.8-1.1,3l0.4-3.9v-4.3c0-1.1-2-5.5-4.1-9.6v12.9c0.9,3.2,1.5,6.7,1.5,11.2c0.4-0.3,1.8-1.9,3.2-3.7
		V123.6L218.5,123.6z M218.5,133.7v7.9c-1.5,1.3-3.1,2.5-4.7,3.7v-5.9C215.2,137.5,217.1,135.3,218.5,133.7L218.5,133.7z
		 M218.5,145.4v4c-1.4,2-3.1,3.8-4.7,5.3V149c1-0.6,1.9-1.3,3-2.1C217.4,146.5,217.9,145.9,218.5,145.4L218.5,145.4z M213.7,93
		c0.8,0.9,1.7,1.9,2.8,3.3c-1.2-5.2,0.9-13.8-1.1-18.6c-0.4-1-1-2.1-1.7-3.1v13.6l0.7,0.9l-0.5,0.4l-0.2-0.5V93z M213.7,74.6v13.6
		l-0.7-0.9l0.7,1.6V93c-1.1-1.3-2-2.3-3.2-3.4v-4.8c0.8,0.9,1.6,1.8,2.6,2.5c-0.1-1.6-1.8-7.9-2.6-10.4v-6
		C211.8,71.9,212.8,73.2,213.7,74.6L213.7,74.6z M213.7,95.8c-0.3-0.4-0.7-0.7-1.1-1.1c-0.4-0.4-1.2-1.2-2.1-2v6.9
		c0.4,0.6,0.8,1.1,1.2,1.6c0.6,0.8,1.3,1.8,2,2.7V95.8L213.7,95.8z M213.7,108.9v12.9c-1-3.9-2.4-7.4-3.2-11.7v-7.4
		C211.3,104.3,212.5,106.5,213.7,108.9L213.7,108.9z M213.7,139.3c-1.4,1.7-2.6,3.1-2.8,3.2c0.4-1.5,2-5.9,1.8-7.7l-1.8-16.3
		c-0.1,0.2-0.3,0.4-0.4,0.7v24.5l0.6-1.1l-0.6,1.1v3.7c1.1-0.7,2.2-1.4,3.2-2.1V139.3L213.7,139.3z M213.7,149v5.6
		c-1.1,1-2.2,1.9-3.1,2.5l-0.1,0.1v-6.4C211.7,150.2,212.7,149.7,213.7,149L213.7,149z M210.5,160.2v-1l0,0l0.5,0.4
		C210.9,159.8,210.7,160,210.5,160.2z M210.5,70.8v6l-0.2-0.5c-1.5-4.4-2-4.7-3.2-6v-1.7C208.4,69.1,209.5,69.9,210.5,70.8
		L210.5,70.8z M210.5,84.8v4.8c-0.9-0.8-1.9-1.7-3.4-2.8v-5.4C208.5,82.6,209.6,83.7,210.5,84.8L210.5,84.8z M210.5,92.6
		c-1.1-1.1-2.3-2.3-3.4-3.3v4.8c1,2,2.2,3.8,3.4,5.4V92.6L210.5,92.6z M210.5,102.8v7.4c-0.5-2.6-0.8-5.4-0.8-8.8
		C209.8,101.6,210.1,102.1,210.5,102.8L210.5,102.8z M210.5,119.2v24.5l-0.6,1.1l0.6-1.1v3.7c-1.1,0.7-2.2,1.4-3.4,2.1v-9.1
		c0.2-1.6,0.4-3.4,0.4-5.6C207.5,130.9,208.9,122.2,210.5,119.2L210.5,119.2z M210.5,150.9v6.4c-1.3,0.8-2.3,1.5-3.4,2v-6.7
		c0.8-0.4,1.7-0.9,2.7-1.3L210.5,150.9L210.5,150.9z M210.5,159.2c-0.1-0.1-0.3,0.4-0.3,0.5c-0.1,0.2-0.4,0.5-0.6,0.7
		c-0.5,0.5-0.6,0.6-1.2,1c-0.4,0.3-0.8,0.5-1.3,0.8v2.4c1.2-1.3,1.9-2.7,3.4-4.4V159.2L210.5,159.2z M207.2,79
		c0.6,0.5,1.2,1,1.7,1.4l0.4-0.4c0.4-0.4-0.7-2.9-2.1-5.5V79z M207.2,68.6v1.7c-0.5-0.5-1-1.2-1.8-2.3
		C206,68.1,206.6,68.3,207.2,68.6L207.2,68.6z M207.2,74.5c-1.2-2.3-2.6-4.7-3.4-6V76c1.2,1,2.3,2,3.4,3V74.5L207.2,74.5z
		 M207.2,81.4v5.4c-0.4-0.3-0.8-0.6-1.3-0.9c-0.7-0.5-1.5-1.2-2.2-1.8V79c0.5,0.4,1.1,0.8,1.8,1.3C206.2,80.6,206.7,81,207.2,81.4
		L207.2,81.4z M207.2,89.3v4.8c-1.1-2.2-2-4.5-2.2-6.9C205.3,87.5,206.1,88.3,207.2,89.3L207.2,89.3z M207.2,140.4v9.1
		c-1,0.6-2,1.3-3,2C205.1,147.4,206.5,144.8,207.2,140.4L207.2,140.4z M207.2,152.5v6.7c-1.1,0.5-2.1,1-3.4,1.4v-6.2
		C204.9,153.7,206,153.1,207.2,152.5L207.2,152.5z M207.2,162.2v2.4c-0.8,0.9-1.8,1.8-3.4,2.7v-3.6c0.5-0.2,1.1-0.4,1.7-0.7
		C206,162.8,206.6,162.5,207.2,162.2L207.2,162.2z M203.7,141.3c0.4-2.7,0.9-5.2,2.2-7.1l-0.5-0.4c0,0-1,1.4-1.7,2.5V141.3z
		 M203.7,68.5V76c-1.8-1.6-3.4-3.2-4.6-4.8c-1.3-1.7-2.4-3.4-3.6-5v-3.4c3.1,1.4,6.3,3.3,7.6,4.8C203.3,67.8,203.5,68.1,203.7,68.5
		L203.7,68.5z M203.7,79c-2.6-1.9-3-2.8-5.6-5.8c0.4,4.4,2.8,8.2,5.6,10.9V79L203.7,79z M203.7,136.4v5c-0.3,2.5-0.5,5.1-1.1,7.4
		c-1.3,5.8-4.2,7.2-6.7,10.9c1.4-0.4,4.7-3.5,6.6-4.6c0.4-0.2,0.8-0.5,1.2-0.7v6.2c-0.8,0.3-1.6,0.5-2.5,0.8
		c-1.1,0.3-4.4,0.9-5.6,1.2v-3c0.8-0.8-0.8,0.8,0,0v-5.9c0.7-1.8,1.2-3.6,1.8-5.2c1-3.1,1.9-5.3,3.5-8.1c0.8-1.4,1.4-2,2.3-3.2
		C203.2,137.1,203.5,136.8,203.7,136.4L203.7,136.4z M203.7,163.7v3.6l-0.3,0.2c-2.3,1.4-4.8,2.7-7.9,3.4v-5.6
		c1-0.1,1.8-0.3,2.3-0.3C200.4,164.5,202,164.3,203.7,163.7L203.7,163.7z M195.6,174.9v-1.3c1-0.5,1.9-1,2.6-1.5l0.4,0.4
		C198.7,172.6,197.2,173.8,195.6,174.9z M195.6,62.9v3.4l-0.3-0.4c-1.4-1.8-3.2-2.8-4.4-4.6C192.1,61.4,193.8,62.1,195.6,62.9
		L195.6,62.9z M195.6,153.7v5.9c0.8-0.8-0.8,0.8,0,0v3l0,0c-1.3,0.3-1.5,0.3-2.9,0.5c-0.8,0.1-0.8,0.1-1.4,0.3
		c-0.2,0.1-0.5,0.2-0.6,0.2c-0.1,0.1-0.4,0.5-0.5,0.3l-0.4-0.4C192.2,161.7,194.1,157.7,195.6,153.7L195.6,153.7z M195.6,165.3
		c-4.5,0.6-12.8,1.6-14.6,1.6c3.3-2.9,5.2-0.9,8.7-6.7c0.7-1.2,5.2-9.7,5.4-10.4c-4.3,2.9-7.6,6.5-11.2,10.2
		c-1.9,1.9-3.6,3.5-5.9,4.8c-2.2,1.3-6.2,2-7.7,3c3.6,0.8,13.5,3.4,16.7,3.4h5.1c1.2,0,2.4-0.1,3.4-0.3V165.3L195.6,165.3z
		 M195.6,173.6v1.3c-1.5,1.1-3.1,2.1-3.4,2.3c-2.2,1.1-5.3,2.6-8.6,2.6h-1.7c-4.4,0-10.4-3-13.2-4.8c-3-2-4-3.3-6-4.2v-3
		c8.8,0,16.5,7.3,24.3,7.3h2.1C191.2,175,193.6,174.4,195.6,173.6L195.6,173.6z M162.7,178.3c2.6,2.2,4.9,4.5,6.3,6.6l3.1-2.9
		c-1.7-2.5-5.8-5.2-9.4-7.4V178.3L162.7,178.3z M162.7,165.9L162.7,165.9L162.7,165.9L162.7,165.9L162.7,165.9z M162.7,163.8v-0.5
		c0.1-0.7,0.7-1.2,1.4-1.3l0,0c0.8-0.1,1.6,0.6,1.7,1.4c0.1,0.8-0.6,1.6-1.4,1.7C163.5,165.1,162.8,164.5,162.7,163.8L162.7,163.8z
		 M162.7,158.9v-3c0.4,0,0.8,0.3,1.1,0.7c0.5,0.7,0.3,1.6-0.4,2.1C163.2,158.8,162.9,158.9,162.7,158.9z M162.7,155.8v3
		c-0.3,0-0.7,0-0.9-0.2v-2.6C162,155.9,162.4,155.8,162.7,155.8L162.7,155.8z M162.7,163.3v0.5l0-0.1
		C162.7,163.5,162.7,163.4,162.7,163.3L162.7,163.3z M162.7,165.9L162.7,165.9c-0.3,0-0.6-0.1-0.9-0.1v-1.4
		C162.2,164.7,162.5,165.3,162.7,165.9L162.7,165.9z M162.7,167.8v3c-0.3-0.1-0.6-0.2-0.9-0.3v-2.7H162.7L162.7,167.8L162.7,167.8z
		 M162.7,174.5v3.7c-0.3-0.3-0.6-0.5-0.9-0.8V174L162.7,174.5L162.7,174.5z M161.7,163v-1.5c0.3,0,0.5,0,0.8,0
		C162.6,162.1,162.2,162.6,161.7,163L161.7,163z M161.7,160.4v-0.8c0.3,0.2,0.5,0.3,0.7,0.5C162.2,160.3,162,160.4,161.7,160.4z
		 M161.7,156.1v2.6c-0.2-0.1-0.3-0.3-0.4-0.4C160.8,157.5,161,156.6,161.7,156.1L161.7,156.1L161.7,156.1L161.7,156.1z M161.7,159.6
		c-0.6-0.3-1.2-0.5-2.1-0.4c0.6-0.7,1-2.1,0.5-2.8c-0.7,0.4-1.5,1-2.2,1.6v3.4c1.3-0.3,2.5-0.6,3.8-1.1V159.6L161.7,159.6z
		 M161.7,161.6v1.5c-0.3,0.3-0.7,0.5-1,0.7c0.4,0.1,0.8,0.3,1,0.6v1.4c-1.3-0.3-2.6-0.6-3.8-1v-2.4
		C159.2,161.9,160.5,161.6,161.7,161.6L161.7,161.6z M161.7,167.8v2.7c-1-0.3-2.1-0.4-3.8-0.5v-2.2H161.7L161.7,167.8z M161.7,174
		v3.5c-1.2-1-2.5-2-3.8-2.8v-3C159,172.3,160.3,173.1,161.7,174L161.7,174z M157.9,157v-1.7c0.5-0.1,1,0,1.4,0.1
		C158.9,155.9,158.4,156.5,157.9,157L157.9,157z M157.9,154.4v-3.1c0.3,0,0.5,0,0.7,0.1c0.8,0.4,1.1,1.3,0.7,2
		C159.1,154.1,158.5,154.4,157.9,154.4z M157.9,151.3v3.1c-0.2,0-0.4-0.1-0.6-0.1c-0.8-0.4-1.1-1.3-0.7-2l0,0
		C156.9,151.7,157.4,151.4,157.9,151.3L157.9,151.3z M157.9,155.3c-0.5,0.1-1,0.3-1.5,0.7c0.1-0.9-0.2-2.3-1-2.7
		c-0.1,0.1-0.1,0.2-0.2,0.3v5.8c0.9-0.7,1.8-1.6,2.6-2.5V155.3L157.9,155.3z M157.9,158.1v3.4c-0.9,0.2-1.8,0.3-2.6,0.4v1.6
		c0.8-0.4,1.7-0.8,2.6-1.1v2.4c-0.9-0.3-1.8-0.7-2.6-1.1v0l0.6,0.3c0-0.1,0-0.3,0-0.4c0-0.8-0.2-1.5-0.6-2.1V161
		C156,160,157,159,157.9,158.1L157.9,158.1z M157.9,167.8v2.2c-0.7,0-1.4,0-2.2,0c0.3,0.4,1.1,1,2.2,1.7v3c-0.9-0.6-1.8-1.2-2.6-1.7
		v-4.8c0.7-0.2,1.4-0.4,2.1-0.4H157.9z M155.3,153.6v5.8c-0.5,0.4-0.9,0.7-1.4,1v1.2c0.4,0.4,0.7,1,0.7,1.6c0.2,0.1,0.5,0.2,0.7,0.3
		v0l-0.2-0.1l0.2-0.1v-1.6c-0.2,0-0.4,0-0.6,0c0.2-0.3,0.4-0.6,0.6-0.9v0.4c-0.3-0.6-0.8-1-1.4-1.3v-2.4
		C154.2,156.2,154.7,154.8,155.3,153.6L155.3,153.6z M155.3,168.1v4.8c-0.5-0.3-0.9-0.6-1.4-0.8v-3.5
		C154.4,168.5,154.8,168.3,155.3,168.1L155.3,168.1z M153.9,154.6c0.1-0.6,0.3-1.2,0.4-1.9c-0.1,0-0.3,0.1-0.4,0.1V154.6z
		 M153.9,152.8v1.7c-0.5,2-1.1,4-2,5.7l0-0.1v0.6l0,0c0.8,0,1.5,0.3,2,0.9v-1.2l-0.4,0.3c0-1,0.2-2,0.4-3.1v2.4
		c-0.6-0.3-1.3-0.5-2-0.5h0v-5.3c0.1,0.1,0.2,0.3,0.2,0.4C152.5,153.6,153.1,153.2,153.9,152.8L153.9,152.8z M153.9,168.6v3.5
		c-0.6-0.3-1.1-0.6-1.6-0.9c-0.1,0-0.3,0.1-0.4,0.1V169C152.4,169.1,153.1,168.9,153.9,168.6L153.9,168.6z M151.9,152.7v-3.1
		c0.8,0,1.5,0.6,1.5,1.4c0.1,0.8-0.6,1.6-1.4,1.6L151.9,152.7z M151.9,149.7v3.1c-0.8,0-1.5-0.6-1.5-1.4l0,0
		c-0.1-0.8,0.6-1.6,1.4-1.7L151.9,149.7L151.9,149.7z M151.9,154.3v5.3c-0.6,0-1.2,0.2-1.8,0.4v-1.2c0.1,0.7,0.2,1.3,0.2,2l-0.2-0.1
		v1c0.5-0.4,1.1-0.7,1.8-0.7v-0.6c-0.8-1.5-1.5-3.4-1.8-5.2v-2.1C150.8,153,151.5,153.6,151.9,154.3L151.9,154.3z M151.9,169v2.3
		c-0.6,0.2-1.2,0.4-1.8,0.7v-3.3L151.9,169L151.9,169z M148.7,163.5l-0.4,0.2v0L148.7,163.5c0.2-0.1,0.4-0.2,0.6-0.3
		c0.1-0.6,0.4-1.2,0.8-1.6v-1c-0.6-0.4-1.2-0.8-1.8-1.3v-6c0.1-0.1,0.2-0.2,0.3-0.3c0.7,1.9,1.3,3.9,1.5,5.8v1.2
		c-0.8,0.4-1.4,1.1-1.8,1.9v1.4L148.7,163.5L148.7,163.5z M150.1,152.9c-0.1,0-0.1,0-0.2,0c0,0.7,0.1,1.4,0.2,2.1V152.9L150.1,152.9
		z M150.1,168.7v3.3c-0.6,0.3-1.2,0.6-1.8,1v-2.9c0.1-0.1,0.1-0.1,0.2-0.2l-0.2,0v-1.5L150.1,168.7L150.1,168.7z M148.3,161.8
		c0.3,0,0.5,0,0.8,0c-0.3-0.4-0.5-0.8-0.8-1.1V161.8z M148.3,163.6c-0.9,0.5-2,0.9-3.1,1.2v-2.8c1.1,0.3,2.1,0.7,3.1,1.2v-1.4
		c-0.2,0.5-0.4,1.1-0.4,1.6c0,0.1,0,0.2,0,0.3L148.3,163.6L148.3,163.6L148.3,163.6z M148.3,153.3v6c-1.2-1-2.3-2.2-3.1-3.4v-0.7
		c0.8-0.2,1.9,0.1,2.5,0.6C147.4,154.7,147.8,153.9,148.3,153.3L148.3,153.3z M148.3,160.7c-0.9-1.2-2-2.3-3.1-3.4v4
		c1.1,0.3,2.1,0.5,3.1,0.5V160.7L148.3,160.7z M148.3,168.4v1.5c-1.1,0-2.2,0.1-3.1,0.3v-2.3L148.3,168.4L148.3,168.4z M148.3,170.1
		c-0.5,0.6-1.7,1.4-3.1,2.3v2.8c1.1-0.8,2.1-1.5,3.1-2.1V170.1L148.3,170.1z M145.2,154.3c0.5,0.2,1,0.1,1.4-0.2
		c0.7-0.5,0.9-1.4,0.4-2.1c-0.4-0.6-1.2-0.8-1.8-0.5V154.3z M145.2,164.9c-1,0.3-2,0.5-2.9,0.6v-1.6c0.3-0.2,0.6-0.4,0.8-0.5
		c-0.3-0.1-0.6-0.3-0.8-0.4v-1.5c1,0.2,2,0.5,2.9,0.8V164.9L145.2,164.9z M145.2,151.4v2.8c-0.3-0.1-0.5-0.3-0.7-0.5l0,0
		c-0.5-0.7-0.3-1.6,0.4-2.1C145,151.5,145.1,151.5,145.2,151.4L145.2,151.4z M145.2,155.1v0.7c-0.1-0.2-0.2-0.3-0.3-0.5
		C144.9,155.2,145,155.2,145.2,155.1L145.2,155.1z M145.2,157.3v4c-1-0.3-2.1-0.6-2.9-1.1v-0.9c0.6-0.4,1.5-0.5,2.1-0.4
		c-0.9-1-0.8-1.9-0.6-2.9C144.2,156.4,144.7,156.9,145.2,157.3L145.2,157.3z M145.2,167.8v2.3c-1.1,0.2-2,0.5-2.9,0.8v-3.5
		c0.4,0,0.8,0,1.1,0.1L145.2,167.8L145.2,167.8z M145.2,172.3v2.8c-1,0.7-2,1.5-2.9,2.4v-3.3C143.3,173.5,144.3,172.9,145.2,172.3
		L145.2,172.3z M142.2,158.5c0.2-0.1,0.3-0.3,0.4-0.5c0.3-0.6,0.1-1.4-0.4-1.8V158.5z M142.2,165.4c-0.3,0-0.7,0-1,0
		c0-0.6,0.4-1.2,1-1.7V165.4L142.2,165.4z M142.2,162.9c-0.6-0.4-0.9-1.1-1.1-1.7v-0.1c0.4,0.1,0.8,0.1,1.1,0.2V162.9L142.2,162.9z
		 M142.2,156.2v2.3c-0.3,0.3-0.7,0.4-1.1,0.4v-3c0.3,0,0.5,0,0.8,0.1C142,156,142.1,156.1,142.2,156.2L142.2,156.2z M142.2,159.3
		v0.9c-0.2-0.1-0.4-0.2-0.5-0.3C141.8,159.7,142,159.5,142.2,159.3L142.2,159.3z M142.2,167.5v3.5c-0.4,0.1-0.8,0.3-1.1,0.5v-3.9
		C141.5,167.5,141.9,167.5,142.2,167.5L142.2,167.5z M142.2,174.1v3.3c-0.4,0.3-0.8,0.7-1.1,1v-3.6L142.2,174.1L142.2,174.1z
		 M141.1,163.7v-0.5l0,0.1C141.1,163.5,141.1,163.6,141.1,163.7z M141.1,161.2L141.1,161.2L141.1,161.2L141.1,161.2L141.1,161.2z
		 M141.1,155.8v3c-0.2,0-0.3-0.1-0.5-0.1l0,0c-0.8-0.4-1.1-1.3-0.7-2C140.1,156.2,140.6,155.9,141.1,155.8L141.1,155.8z
		 M141.1,163.3v0.5c-0.1,0.7-0.7,1.2-1.4,1.3l0,0c-0.8,0.1-1.6-0.6-1.7-1.4c-0.1-0.8,0.6-1.6,1.4-1.7
		C140.3,161.9,141,162.5,141.1,163.3L141.1,163.3z M141.1,167.5v3.9c-6.3,2.9-9.7,8.7-18.8,8.7h-2.1c-3.5,0-8.7-2.4-12-4.8v-1.6
		c2.1,0.8,3.8,1.7,8.1,1.7h1.3C123.4,175.5,134,168.4,141.1,167.5L141.1,167.5z M141.1,174.8c-4,2.5-8.2,5.4-8.9,7.9l3,2.2
		c1.1-1.7,3.4-4.1,6-6.5V174.8L141.1,174.8z M108.2,171.3c1.6,0.4,3.2,0.7,4.7,0.7c8.3,0,14.4-3.9,21-3.9c-1.4-0.9-5.8-2-7.7-3
		c-2.7-1.4-3.8-2.7-5.9-4.8c-1.7-1.7-9.8-9.2-11.7-9.7c2.1,3.2,3.6,7.3,5.7,10.5c3.4,5,9.2,5.3,10.1,6.6c-2.6-0.1-4.8-1-8.1-1.3
		c-2.1-0.2-5.7-0.6-8.2-0.8V171.3L108.2,171.3z M108.2,163.3v-2.8c0.8-0.8-0.8,0.8,0,0v-6c0.5,1.2,1,2.4,1.4,3.3
		c1.8,3.5,3.4,4.1,5,6.6C114.1,164.3,111.1,163.8,108.2,163.3L108.2,163.3z M108.2,65.6v-2.5c1.3-0.6,2.5-1.2,2.6-1.1l0.5,0.4
		C110.6,62.8,109.5,64.1,108.2,65.6z M108.2,63.1v2.5c-2,2.4-4.2,5.5-5,6.8c-1.1,1.9-2.5,2.9-4,4.4v-7.7c0.1-0.1,0.2-0.2,0.3-0.3
		c1.9-1.9,2.5-2.6,5.1-3.9C105,64.7,106.7,63.8,108.2,63.1L108.2,63.1z M108.2,154.5v6c0.8-0.8-0.8,0.8,0,0v2.8
		c-2.4-0.4-4.7-0.9-5.5-1.1c-1.3-0.3-2.4-0.6-3.4-1v-6.4c4,2.5,8.3,5.5,9,5.7c-2.9-4.3-5.1-3.9-7.1-10.9c-0.8-2.7-0.7-4.8-1.3-7.7
		c-0.2-1-0.4-1.8-0.6-2.6V136c2.8,3.2,6,9.7,7.2,13.4C106.9,150.8,107.5,152.7,108.2,154.5L108.2,154.5z M108.2,165.7v5.7
		c-2.8-0.8-5.6-2-7.4-3c-0.4-0.2-1-0.6-1.6-1.1V164c2.6,1,5.5,1.5,8.1,1.6C107.6,165.6,107.9,165.6,108.2,165.7L108.2,165.7z
		 M108.2,173.7v1.6c-1.2-0.9-2.1-1.7-2.6-2.5C106.7,173.1,107.5,173.4,108.2,173.7L108.2,173.7z M99.2,152c0.3,0.2,0.6,0.3,0.9,0.3
		c-0.3-0.6-0.6-1.1-0.9-1.7V152L99.2,152z M99.2,84.9c2.8-2.9,5.1-6.2,5.6-11.3c-2.6,3-2.6,4.3-5.6,6.4V84.9z M99.2,69.1v7.7
		l-0.3,0.3c-1.1,1.1-1.4,1.2-2.6,2.1c-0.3,0.2-0.4,0.3-0.5,0.5V75C96.3,73.2,97.2,71.2,99.2,69.1L99.2,69.1z M99.2,79.9v5
		c-0.5,0.6-1.1,1.1-1.6,1.6c-0.6,0.6-1.2,1.1-1.8,1.5v-5.9c0.5-0.4,1-0.7,1.6-1.1C98.1,80.7,98.7,80.3,99.2,79.9L99.2,79.9z
		 M99.2,136v3.3c-0.5-1.6-0.9-3-1.3-4.5C98.3,135.1,98.8,135.5,99.2,136L99.2,136z M99.2,150.6c-1.8-3.9-3-8.6-3-14.1
		c0-1.2-0.2-3.1-0.4-5.2V150c1.4,0.9,2.6,1.6,3.4,2V150.6L99.2,150.6z M99.2,154.8v6.4c-1.2-0.5-2.3-1-3.4-1.7v-6.8
		C96.8,153.4,98,154.1,99.2,154.8L99.2,154.8z M99.2,164v3.2c-1.1-0.9-2.3-1.9-2.9-2.6c-0.2-0.2-0.4-0.4-0.5-0.5v-1.7
		C96.8,163,98,163.5,99.2,164L99.2,164z M95.8,95.6v-5.1c0.7-0.7,1.4-1.5,2.1-2.4C97.9,90.7,97,93.2,95.8,95.6L95.8,95.6z
		 M95.8,70.4c0.3-0.3,0.6-0.5,0.9-0.8l-0.5-0.4c-0.1-0.1-0.3-0.1-0.4-0.1V70.4z M95.8,69.1v1.3c-1.3,1.2-2,2.9-2.6,4.7v-4.3
		C94.3,69.8,95.2,69.2,95.8,69.1L95.8,69.1z M95.8,75c-0.6,2.1-0.9,4.1-2.1,5.9l0.4,0.4c0.1,0.1,0.3-0.4,0.4-0.5
		c0.5-0.5,0.2-0.1,0.7-0.6c0.3-0.2,0.5-0.4,0.6-0.5V75L95.8,75z M95.8,82.2V88c-0.9,0.6-1.8,1.2-2.6,1.8v-5.1
		C93.9,83.8,94.8,83,95.8,82.2L95.8,82.2z M95.8,90.5v5.1c-0.7,1.5-1.6,2.9-2.6,4.3v-6.8C94.1,92.2,94.9,91.4,95.8,90.5L95.8,90.5z
		 M95.8,131.3V150c-0.8-0.5-1.7-1.1-2.6-1.7v-4.1c0.8-0.8-0.8,0.8,0,0v-24.2C94.2,121.7,95.2,126.9,95.8,131.3L95.8,131.3z
		 M95.8,152.8v6.8c-0.8-0.5-1.7-1-2.6-1.6v-6.4l0.6,0.2C94.4,152,95,152.4,95.8,152.8L95.8,152.8z M95.8,162.4v1.7
		c-0.5-0.5-0.6-0.7-1.2-1.6c-0.3-0.4-0.7-0.9-0.9-1.2c-0.1-0.1-0.3-0.4-0.4-0.5c0,0,0,0,0,0v-0.7C93.8,160.9,94.7,161.7,95.8,162.4
		L95.8,162.4z M93.2,109v-5.6c0.2-0.3,0.3-0.5,0.4-0.7C93.7,105,93.5,107,93.2,109z M93.2,70.8v4.3c-0.3,1-0.6,2-0.9,3.1
		c-0.2,0.8-2.5,10.1-2.5,10.3c1.2-0.9,2.1-2.3,3.4-3.9v5.1c-0.5,0.4-1,0.8-1.4,1.2c-1,1-4.3,5-4.6,5.3l-0.4-14.1v-0.3
		C86.9,78.5,90.5,73.4,93.2,70.8L93.2,70.8z M93.2,93.1c-0.7,0.7-1.5,1.5-2.5,2.4c-2.2,2.2-3.2,4.4-4,6.3v7.7c1.6-3,4.2-6.2,6.4-9.6
		V93.1L93.2,93.1z M93.2,103.4v5.6c-1.2,9-4.7,15-4.7,25.4c-0.4-0.3-1-1-1.7-1.8v-16.5c0.7-2,1.6-3.8,2.1-4.5
		C90.2,109.4,92,105.4,93.2,103.4L93.2,103.4z M93.2,120.1c0-0.1-0.1-0.2-0.1-0.2l-2.2,15.3c-0.3,3.3,1.8,6.8,2.4,9
		c-0.6-0.5-3.9-4.8-6.4-7.9v7.3c1.8,1.4,4.2,3.2,6.4,4.7v-4.1c-0.8,0.8,0.8-0.8,0,0V120.1L93.2,120.1z M93.2,151.5v6.4l-0.3-0.2
		c-1.8-1.2-4.1-3.2-6.2-5.7v-4.3C88.2,149,90,150.1,93.2,151.5L93.2,151.5z M93.2,160.1v0.7c-0.2-0.1-0.6-0.2-0.4-0.3l0.4-0.5
		L93.2,160.1L93.2,160.1z M89.4,89 M86.8,81.8v0.3C86.8,82,86.8,81.9,86.8,81.8L86.8,81.8z M86.8,101.8c-0.5,1.2-0.9,2.3-1.5,3
		l-1.1-19.7c-0.1-2.1,0.7-4.4,1.8-5.6l-0.5-0.4c-0.1-0.1-3.2,5.1-3.6,5.8c-1.1,2.3-2,4.6-2,7.9v6c0,1.1,4.8,15.8,5.1,16.3
		c0-1.8,0.7-3.7,1.7-5.6V101.8L86.8,101.8z M86.8,116.1v16.5c-2.2-2.6-5.3-7.1-6.5-8.8c-2.1-2.7-4.2-9.6-4.2-14.2v-0.9
		c0-3.2,0.7-8.2,2.1-9.8c0,8.1,1.1,9.6,3.7,15.1c1.4,3,3.5,12.9,4.4,14l-0.9-5.5C85.2,121,85.9,118.4,86.8,116.1L86.8,116.1z
		 M86.8,136.3c-1-1.2-1.9-2.3-2.5-2.9c-1.9-1.9-2.9-3.1-4.7-5.1c-2-2.3-2.3-5.4-3.5-6.7c0,9.9,2.8,14.6,7.8,19.6
		c0.5,0.5,1.6,1.4,2.9,2.4V136.3L86.8,136.3z M86.8,147.8v4.3c-2.8-3.3-5.3-7.3-5.6-10.9C83.9,144.3,85,146.2,86.8,147.8z"/>
	<linearGradient id="SVGID_4_" gradientUnits="userSpaceOnUse" x1="111.0123" y1="130.134" x2="109.5517" y2="102.2644">
		<stop  offset="0" style="stop-color:#D1AA67"/>
		<stop  offset="0.34" style="stop-color:#CE8630"/>
		<stop  offset="0.58" style="stop-color:#FDD776"/>
		<stop  offset="0.84" style="stop-color:#A86232"/>
		<stop  offset="1" style="stop-color:#D1AA67"/>
	</linearGradient>
	<path fill="url(#SVGID_4_)" d="M109.9,100h0.5c2.9,0,5,0.3,6.4,0.9c1.3,0.6,2.4,1.6,3.2,3.1c0.8,1.5,1.2,3.2,1.2,5.1
		c0,2.4-0.6,4.4-1.8,6c-1.2,1.6-3,2.6-5.4,3c1.2,0.8,2.2,1.7,3,2.7c0.8,1,1.8,2.7,3.1,5.3l3.3,6.3h-6.6l-4-7.1
		c-1.4-2.5-2.4-4.1-2.9-4.7v-6.9c1.8,0,2.9-0.2,3.5-0.4c0.7-0.3,1.2-0.7,1.5-1.4c0.4-0.6,0.6-1.5,0.6-2.4c0-1.1-0.2-2-0.7-2.6
		c-0.5-0.7-1.2-1.1-2.1-1.3c-0.4-0.1-1.3-0.1-2.8-0.1V100z M98.8,132.4V100h11.1v5.5l-1.3,0h-4.3v8.2h4.1c0.5,0,1,0,1.5,0v6.9l0,0
		c-0.5-0.7-1.1-1.1-1.7-1.4c-0.6-0.2-1.5-0.4-2.8-0.4h-1.1v13.5H98.8z"/>
	<linearGradient id="SVGID_5_" gradientUnits="userSpaceOnUse" x1="139.2964" y1="130.5945" x2="137.7829" y2="101.7154">
		<stop  offset="0" style="stop-color:#D1AA67"/>
		<stop  offset="0.34" style="stop-color:#CE8630"/>
		<stop  offset="0.58" style="stop-color:#FDD776"/>
		<stop  offset="0.84" style="stop-color:#A86232"/>
		<stop  offset="1" style="stop-color:#D1AA67"/>
	</linearGradient>
	<path fill="url(#SVGID_5_)" d="M138.5,99.4c4,0,7.2,1.5,9.6,4.4c2.4,3,3.6,7.1,3.6,12.3c0,5.2-1.2,9.3-3.6,12.3
		c-2.4,2.9-5.6,4.4-9.6,4.4h-0.1v-5.6h0c2.2,0,4-0.9,5.4-2.8c1.4-1.9,2.1-4.7,2.1-8.4c0-3.7-0.7-6.5-2.1-8.3
		c-1.4-1.8-3.2-2.7-5.5-2.7h0V99.4z M125.3,116.4c0-3.3,0.4-6.1,1.2-8.3c0.6-1.6,1.5-3.1,2.5-4.4c1.1-1.3,2.3-2.3,3.5-2.9
		c1.7-0.9,3.7-1.3,5.9-1.3h0v5.6c-2.3,0-4.1,0.9-5.5,2.8c-1.4,1.8-2.1,4.6-2.1,8.4c0,3.7,0.7,6.4,2.1,8.3c1.4,1.9,3.2,2.8,5.4,2.8
		v5.6c-4,0-7.3-1.5-9.7-4.4C126.5,125.6,125.3,121.5,125.3,116.4z"/>
	<linearGradient id="SVGID_6_" gradientUnits="userSpaceOnUse" x1="168.0454" y1="132.8222" x2="166.2168" y2="97.9296">
		<stop  offset="0" style="stop-color:#D1AA67"/>
		<stop  offset="0.34" style="stop-color:#CE8630"/>
		<stop  offset="0.58" style="stop-color:#FDD776"/>
		<stop  offset="0.84" style="stop-color:#A86232"/>
		<stop  offset="1" style="stop-color:#D1AA67"/>
	</linearGradient>
	<path fill="url(#SVGID_6_)" d="M173.6,120.4l5.3,2c-0.8,3.5-2.2,6.2-4.1,7.9c-1.9,1.7-4.3,2.6-7.3,2.6c-3.6,0-6.6-1.5-8.9-4.4
		c-2.3-2.9-3.5-7-3.5-12.1c0-5.4,1.2-9.6,3.5-12.6c2.3-3,5.4-4.5,9.3-4.5c3.3,0,6.1,1.2,8.1,3.5c1.2,1.4,2.2,3.4,2.8,6l-5.5,1.5
		c-0.3-1.7-1-3-2-4c-1-1-2.3-1.5-3.7-1.5c-2,0-3.7,0.9-4.9,2.6c-1.3,1.7-1.9,4.5-1.9,8.4c0,4.1,0.6,7,1.9,8.8
		c1.2,1.7,2.9,2.6,4.8,2.6c1.5,0,2.7-0.6,3.8-1.7C172.4,124.6,173.1,122.8,173.6,120.4z"/>
	<linearGradient id="SVGID_7_" gradientUnits="userSpaceOnUse" x1="196.6083" y1="131.3251" x2="194.7797" y2="96.4325">
		<stop  offset="0" style="stop-color:#D1AA67"/>
		<stop  offset="0.34" style="stop-color:#CE8630"/>
		<stop  offset="0.58" style="stop-color:#FDD776"/>
		<stop  offset="0.84" style="stop-color:#A86232"/>
		<stop  offset="1" style="stop-color:#D1AA67"/>
	</linearGradient>
	<polygon fill="url(#SVGID_7_)" points="183.8,132.4 183.8,100 189.3,100 189.3,114.3 200.4,100 207.9,100 197.6,112.6 208.4,132.4 
		201.3,132.4 193.8,117.1 189.3,122.6 189.3,132.4 	"/>
</g>
</svg>
