<?xml version="1.0" encoding="utf-8"?>
<!-- Generator: Adobe Illustrator 24.0.2, SVG Export Plug-In . SVG Version: 6.00 Build 0)  -->
<svg version="1.1" id="Layer_1" xmlns="http://www.w3.org/2000/svg" xmlns:xlink="http://www.w3.org/1999/xlink" x="0px" y="0px"
	 viewBox="0 0 210 499" enable-background="new 0 0 210 499" xml:space="preserve">
<g>
	<g>
		<g>
			<rect x="99" y="32" transform="matrix(0.1667 -0.986 0.986 0.1667 50.054 127.0786)" fill="#AFA7B4" width="2.4" height="3.8"/>
			<path fill="#CAC4CE" d="M99.2,33.8c0.1-0.7-2.8-5.3-7.1-6c-1.8-0.3-3.6,9-1.6,9.4C94.8,37.9,99.1,34.3,99.2,33.8z"/>
			<path fill="#DCD7E0" d="M97.3,34.7c0.1-0.5-2.2-3.7-5.7-4.3c-1.4-0.2-2.7,6.2-1.1,6.4C94,37.4,97.2,35.1,97.3,34.7z"/>
		</g>
		<g>
			
				<rect x="96.2" y="50.2" transform="matrix(0.1667 -0.986 0.986 0.1667 29.7626 139.537)" fill="#AFA7B4" width="2.4" height="3.8"/>
			<path fill="#CAC4CE" d="M96.4,52c0.1-0.7-2.8-5.3-7.1-6c-1.8-0.3-3.6,9-1.6,9.4C92.1,56.1,96.3,52.6,96.4,52z"/>
			<path fill="#DCD7E0" d="M94.5,52.9c0.1-0.5-2.2-3.7-5.7-4.3c-1.4-0.2-2.7,6.2-1.1,6.4C91.2,55.7,94.4,53.3,94.5,52.9z"/>
		</g>
		<g>
			
				<rect x="93.3" y="67.7" transform="matrix(0.1666 -0.986 0.986 0.1666 10.0943 151.1462)" fill="#AFA7B4" width="2.4" height="3.8"/>
			<path fill="#CAC4CE" d="M93.4,69.4c0.1-0.7-2.8-5.3-7.1-6c-1.8-0.3-3.6,9-1.6,9.4C89.1,73.5,93.3,70,93.4,69.4z"/>
			<path fill="#DCD7E0" d="M91.5,70.3c0.1-0.5-2.2-3.7-5.7-4.3c-1.4-0.2-2.7,6.2-1.1,6.4C88.2,73.1,91.5,70.7,91.5,70.3z"/>
		</g>
	</g>
	<g>
		<g>
			
				<rect x="115.9" y="32.7" transform="matrix(0.986 -0.1667 0.1667 0.986 -4.0064 20.1202)" fill="#AFA7B4" width="3.8" height="2.4"/>
			<path fill="#CAC4CE" d="M118.9,33.8c-0.1-0.7,2.8-5.3,7.1-6c1.8-0.3,3.6,9,1.6,9.4C123.2,37.9,119,34.3,118.9,33.8z"/>
			<path fill="#DCD7E0" d="M120.8,34.7c-0.1-0.5,2.2-3.7,5.7-4.3c1.4-0.2,2.7,6.2,1.1,6.4C124.1,37.4,120.8,35.1,120.8,34.7z"/>
		</g>
		<g>
			
				<rect x="118.7" y="51" transform="matrix(0.986 -0.1667 0.1667 0.986 -7.0072 20.8378)" fill="#AFA7B4" width="3.8" height="2.4"/>
			<path fill="#CAC4CE" d="M121.7,52c-0.1-0.7,2.8-5.3,7.1-6c1.8-0.3,3.6,9,1.6,9.4C126,56.1,121.8,52.6,121.7,52z"/>
			<path fill="#DCD7E0" d="M123.6,52.9c-0.1-0.5,2.2-3.7,5.7-4.3c1.4-0.2,2.7,6.2,1.1,6.4C126.9,55.7,123.6,53.3,123.6,52.9z"/>
		</g>
		<g>
			
				<rect x="121.7" y="68.4" transform="matrix(0.986 -0.1666 0.1666 0.986 -9.8698 21.5684)" fill="#AFA7B4" width="3.8" height="2.4"/>
			<path fill="#CAC4CE" d="M124.6,69.4c-0.1-0.7,2.8-5.3,7.1-6c1.8-0.3,3.6,9,1.6,9.4C129,73.5,124.7,70,124.6,69.4z"/>
			<path fill="#DCD7E0" d="M126.5,70.3c-0.1-0.5,2.2-3.7,5.7-4.3c1.4-0.2,2.7,6.2,1.1,6.4C129.8,73.1,126.6,70.7,126.5,70.3z"/>
		</g>
	</g>
	<path fill="#610C21" d="M99.4,89.3c0,4.8,19.3,4.8,19.3,0c0-15.9,6.8-10.7,5-23.4c-1.9-13.4-5.6-34.3-5.6-34.3
		c-2.5-7.8-15.7-7.2-18,0c0,0-3.5,22.1-5.6,34.3C92.1,78.5,99.4,73.5,99.4,89.3z"/>
	<path fill="#610C21" d="M193.5,464.2c0,0-53.7-130.7-67.2-162.3c-0.6-1.4-6.2,0.3-6.2-7.8c0-5.7-22.6-5.7-22.6,0c0,8-5.4,6-6.1,7.7
		c-17.5,40.9-68.8,162.4-68.8,162.4c-6.2,14.6-1.2,18.4,11.2,8.5L90.3,428c12.4-9.9,22.1-10.1,34.5-0.2l57.5,45
		C194.7,482.6,199.7,478.8,193.5,464.2z"/>
	<g>
		<path fill="#EEECDD" d="M127.5,340.2c0,0.9-0.8,1.7-1.7,1.7h-34c-0.9,0-1.7-0.8-1.7-1.7v-21.6c0-0.9,0.8-1.7,1.7-1.7h34
			c0.9,0,1.7,0.8,1.7,1.7V340.2z"/>
		<path fill="#35343A" d="M122.1,339.3c0,0.9-0.6,1.6-1.3,1.6H97c-0.7,0-1.3-0.7-1.3-1.6v-19.8c0-0.9,0.6-1.6,1.3-1.6h23.8
			c0.7,0,1.3,0.7,1.3,1.6V339.3z"/>
		<path fill="#FFFDDA" d="M101,324c0-0.7-0.6-1.4-1.4-1.4s-1.4,0.6-1.4,1.4c0,0.7,0.6,1.4,1.4,1.4S101,324.8,101,324z"/>
		<path fill="#FFFDDA" d="M104.7,324c0-0.7-0.6-1.4-1.4-1.4c-0.7,0-1.4,0.6-1.4,1.4c0,0.7,0.6,1.4,1.4,1.4
			C104.1,325.4,104.7,324.8,104.7,324z"/>
		<path fill="#FFFDDA" d="M108.4,324c0-0.7-0.6-1.4-1.4-1.4c-0.7,0-1.4,0.6-1.4,1.4c0,0.7,0.6,1.4,1.4,1.4
			C107.8,325.4,108.4,324.8,108.4,324z"/>
		<path fill="#FFFDDA" d="M112.1,324c0-0.7-0.6-1.4-1.4-1.4c-0.7,0-1.4,0.6-1.4,1.4c0,0.7,0.6,1.4,1.4,1.4
			C111.5,325.4,112.1,324.8,112.1,324z"/>
		<path fill="#FFFDDA" d="M115.8,324c0-0.7-0.6-1.4-1.4-1.4c-0.7,0-1.4,0.6-1.4,1.4c0,0.7,0.6,1.4,1.4,1.4
			C115.2,325.4,115.8,324.8,115.8,324z"/>
		<path fill="#FFFDDA" d="M119.6,324c0-0.7-0.6-1.4-1.4-1.4s-1.4,0.6-1.4,1.4c0,0.7,0.6,1.4,1.4,1.4S119.6,324.8,119.6,324z"/>
		<path fill="#FFFDDA" d="M101,334.8c0-0.7-0.6-1.4-1.4-1.4s-1.4,0.6-1.4,1.4c0,0.7,0.6,1.4,1.4,1.4S101,335.5,101,334.8z"/>
		<path fill="#FFFDDA" d="M104.7,334.8c0-0.7-0.6-1.4-1.4-1.4c-0.7,0-1.4,0.6-1.4,1.4c0,0.7,0.6,1.4,1.4,1.4
			C104.1,336.1,104.7,335.5,104.7,334.8z"/>
		<path fill="#FFFDDA" d="M108.4,334.8c0-0.7-0.6-1.4-1.4-1.4c-0.7,0-1.4,0.6-1.4,1.4c0,0.7,0.6,1.4,1.4,1.4
			C107.8,336.1,108.4,335.5,108.4,334.8z"/>
		<path fill="#FFFDDA" d="M112.1,334.8c0-0.7-0.6-1.4-1.4-1.4c-0.7,0-1.4,0.6-1.4,1.4c0,0.7,0.6,1.4,1.4,1.4
			C111.5,336.1,112.1,335.5,112.1,334.8z"/>
		<path fill="#FFFDDA" d="M115.8,334.8c0-0.7-0.6-1.4-1.4-1.4c-0.7,0-1.4,0.6-1.4,1.4c0,0.7,0.6,1.4,1.4,1.4
			C115.2,336.1,115.8,335.5,115.8,334.8z"/>
		<path fill="#FFFDDA" d="M119.6,334.8c0-0.7-0.6-1.4-1.4-1.4s-1.4,0.6-1.4,1.4c0,0.7,0.6,1.4,1.4,1.4S119.6,335.5,119.6,334.8z"/>
		<g>
			<circle fill="#35343A" cx="93" cy="319.6" r="1.3"/>
			<circle fill="#35343A" cx="93" cy="329.3" r="1.3"/>
			<circle fill="#35343A" cx="93" cy="339.1" r="1.3"/>
		</g>
		<g>
			<circle fill="#35343A" cx="124.8" cy="319.6" r="1.3"/>
			<circle fill="#35343A" cx="124.8" cy="329.3" r="1.3"/>
			<circle fill="#35343A" cx="124.8" cy="339.1" r="1.3"/>
		</g>
	</g>
	<g>
		<path fill="#EEECDD" d="M127.5,380.4c0,0.9-0.8,1.7-1.7,1.7h-34c-0.9,0-1.7-0.8-1.7-1.7v-21.6c0-0.9,0.8-1.7,1.7-1.7h34
			c0.9,0,1.7,0.8,1.7,1.7V380.4z"/>
		<path fill="#35343A" d="M122.1,379.5c0,0.9-0.6,1.6-1.3,1.6H97c-0.7,0-1.3-0.7-1.3-1.6v-19.8c0-0.9,0.6-1.6,1.3-1.6h23.8
			c0.7,0,1.3,0.7,1.3,1.6V379.5z"/>
		<path fill="#FFFDDA" d="M101,364.3c0-0.7-0.6-1.4-1.4-1.4s-1.4,0.6-1.4,1.4c0,0.7,0.6,1.4,1.4,1.4S101,365.1,101,364.3z"/>
		<path fill="#FFFDDA" d="M104.7,364.3c0-0.7-0.6-1.4-1.4-1.4c-0.7,0-1.4,0.6-1.4,1.4c0,0.7,0.6,1.4,1.4,1.4
			C104.1,365.7,104.7,365.1,104.7,364.3z"/>
		<path fill="#FFFDDA" d="M108.4,364.3c0-0.7-0.6-1.4-1.4-1.4c-0.7,0-1.4,0.6-1.4,1.4c0,0.7,0.6,1.4,1.4,1.4
			C107.8,365.7,108.4,365.1,108.4,364.3z"/>
		<path fill="#FFFDDA" d="M112.1,364.3c0-0.7-0.6-1.4-1.4-1.4c-0.7,0-1.4,0.6-1.4,1.4c0,0.7,0.6,1.4,1.4,1.4
			C111.5,365.7,112.1,365.1,112.1,364.3z"/>
		<path fill="#FFFDDA" d="M115.8,364.3c0-0.7-0.6-1.4-1.4-1.4c-0.7,0-1.4,0.6-1.4,1.4c0,0.7,0.6,1.4,1.4,1.4
			C115.2,365.7,115.8,365.1,115.8,364.3z"/>
		<path fill="#FFFDDA" d="M119.6,364.3c0-0.7-0.6-1.4-1.4-1.4s-1.4,0.6-1.4,1.4c0,0.7,0.6,1.4,1.4,1.4S119.6,365.1,119.6,364.3z"/>
		<path fill="#FFFDDA" d="M101,375c0-0.7-0.6-1.4-1.4-1.4s-1.4,0.6-1.4,1.4c0,0.7,0.6,1.4,1.4,1.4S101,375.8,101,375z"/>
		<path fill="#FFFDDA" d="M104.7,375c0-0.7-0.6-1.4-1.4-1.4c-0.7,0-1.4,0.6-1.4,1.4c0,0.7,0.6,1.4,1.4,1.4
			C104.1,376.4,104.7,375.8,104.7,375z"/>
		<path fill="#FFFDDA" d="M108.4,375c0-0.7-0.6-1.4-1.4-1.4c-0.7,0-1.4,0.6-1.4,1.4c0,0.7,0.6,1.4,1.4,1.4
			C107.8,376.4,108.4,375.8,108.4,375z"/>
		<path fill="#FFFDDA" d="M112.1,375c0-0.7-0.6-1.4-1.4-1.4c-0.7,0-1.4,0.6-1.4,1.4c0,0.7,0.6,1.4,1.4,1.4
			C111.5,376.4,112.1,375.8,112.1,375z"/>
		<path fill="#FFFDDA" d="M115.8,375c0-0.7-0.6-1.4-1.4-1.4c-0.7,0-1.4,0.6-1.4,1.4c0,0.7,0.6,1.4,1.4,1.4
			C115.2,376.4,115.8,375.8,115.8,375z"/>
		<path fill="#FFFDDA" d="M119.6,375c0-0.7-0.6-1.4-1.4-1.4s-1.4,0.6-1.4,1.4c0,0.7,0.6,1.4,1.4,1.4S119.6,375.8,119.6,375z"/>
		<g>
			<circle fill="#35343A" cx="93" cy="359.9" r="1.3"/>
			<circle fill="#35343A" cx="93" cy="369.6" r="1.3"/>
			<circle fill="#35343A" cx="93" cy="379.3" r="1.3"/>
		</g>
		<g>
			<circle fill="#35343A" cx="124.8" cy="359.9" r="1.3"/>
			<circle fill="#35343A" cx="124.8" cy="369.6" r="1.3"/>
			<circle fill="#35343A" cx="124.8" cy="379.3" r="1.3"/>
		</g>
	</g>
	<g>
		<polygon fill="#B41A36" points="99.1,93.1 97.3,316.1 120.3,316.1 118.4,93.1 		"/>
		<g>
			<path fill="#CAC4CE" d="M119.7,246.8l0,2.3H97.8l0-2.3H119.7z M97.5,280.8l0,2.3H120l0-2.3H97.5z M97.6,268.1l0,2.3h22.3l0-2.3
				H97.6z M97.6,275.4l0,2.3h22.4l0-2.3H97.6z M97.7,261.8l0,2.3h22.2l0-2.3H97.7z M97.5,286.7l0,2.3H120l0-2.3H97.5z M97.8,254.2
				l0,2.3h22l0-2.3H97.8z M97.3,305.9l0,2.3h22.9l0-2.3H97.3z M97.3,316.1h23l0-1.5h-23L97.3,316.1z M97.4,301.3l0,2.3h22.8l0-2.3
				H97.4z M97.5,291.8l0,2.3h22.6l0-2.3H97.5z M97.4,296.8l0,2.3h22.7l0-2.3H97.4z M97.3,310.2l0,2.3h23l0-2.3H97.3z M98.7,142.3
				l0,2.3h20.2l0-2.3H98.7z M98.6,155.6l0,2.3H119l0-2.3H98.6z M98.8,128l0,2.3h20l0-2.3H98.8z M97.9,238.9l0,2.3h21.8l0-2.3H97.9z
				 M98.9,113.3l0,2.3h19.7l0-2.3H98.9z M98.5,168.3l0,2.3h20.6l0-2.3H98.5z M99.1,95.8l0,2.3h19.4l0-2.3H99.1z M98.4,180.6l0,2.3
				h20.8l0-2.3H98.4z M98.1,212.1l0,2.3h21.3l0-2.3H98.1z M98,230.3l0,2.3h21.6l0-2.3H98z M98,221.3l0,2.3h21.5l0-2.3H98z
				 M98.3,191.6l0,2.3h21l0-2.3H98.3z M98.2,201.9l0,2.3h21.2l0-2.3H98.2z"/>
		</g>
	</g>
	<path fill="#9B102E" d="M131,398c0,0.9-0.7,1.6-1.6,1.6H88.6c-0.9,0-1.6-0.7-1.6-1.6v-11.1c0-0.9,0.7-1.6,1.6-1.6h40.8
		c0.9,0,1.6,0.7,1.6,1.6V398z"/>
	<rect x="95.5" y="388" fill="#801414" width="26.5" height="4.5"/>
	<rect x="98.9" y="89.9" fill="#5B5B5B" width="20" height="5.9"/>
	<polygon fill="#FFFFFF" points="100.9,70.2 100.1,396.1 98.9,396.1 99.9,70.4 	"/>
	<polygon fill="#FFFFFF" points="103.3,52.4 102.8,396.1 103.9,396.1 104.3,52.4 	"/>
	<polygon fill="#FFFFFF" points="106.8,35.2 106.6,396.1 107.5,396.1 107.6,35.2 	"/>
	<polygon fill="#FFFFFF" points="110.3,34.6 110.5,396.1 111.3,396.1 111,34.6 	"/>
	<path fill="#FFFFFF" d="M113.8,53l0.6,343.1h0.7l-0.6-343.1C114.2,53.1,114,53,113.8,53z"/>
	<path fill="#FFFFFF" d="M117.9,70.9h-0.1c-0.1,0-0.2,0-0.3,0l0.8,325.3h0.5L117.9,70.9C117.9,70.9,117.9,70.9,117.9,70.9z"/>
	<g>
		<rect x="98.6" y="389.9" fill="#5C0000" width="1.8" height="3.5"/>
		<path fill="#801414" d="M98,392.4v3.4c0,0.8,0.7,1.5,1.5,1.5c0.8,0,1.5-0.7,1.5-1.5v-3.4H98z"/>
	</g>
	<g>
		<rect x="102.4" y="389.9" fill="#5C0000" width="1.8" height="3.5"/>
		<path fill="#801414" d="M101.8,392.4v3.4c0,0.8,0.7,1.5,1.5,1.5c0.8,0,1.5-0.7,1.5-1.5v-3.4H101.8z"/>
	</g>
	<g>
		<rect x="106.2" y="389.9" fill="#5C0000" width="1.8" height="3.5"/>
		<path fill="#801414" d="M105.6,392.4v3.4c0,0.8,0.7,1.5,1.5,1.5c0.8,0,1.5-0.7,1.5-1.5v-3.4H105.6z"/>
	</g>
	<g>
		<rect x="110" y="389.9" fill="#5C0000" width="1.8" height="3.5"/>
		<path fill="#801414" d="M109.4,392.4v3.4c0,0.8,0.7,1.5,1.5,1.5c0.8,0,1.5-0.7,1.5-1.5v-3.4H109.4z"/>
	</g>
	<g>
		<rect x="113.8" y="389.9" fill="#5C0000" width="1.8" height="3.5"/>
		<path fill="#801414" d="M113.2,392.4v3.4c0,0.8,0.7,1.5,1.5,1.5c0.8,0,1.5-0.7,1.5-1.5v-3.4H113.2z"/>
	</g>
	<g>
		<rect x="117.6" y="389.9" fill="#5C0000" width="1.8" height="3.5"/>
		<path fill="#801414" d="M117,392.4v3.4c0,0.8,0.7,1.5,1.5,1.5c0.8,0,1.5-0.7,1.5-1.5v-3.4H117z"/>
	</g>
	<path fill="#AD3131" d="M98.7,392.4v3c0,0.8,0.3,1.4,0.7,1.4c0.4,0,0.7-0.6,0.7-1.4v-3H98.7z"/>
	<path fill="#AD3131" d="M102.4,392.4v3c0,0.8,0.3,1.4,0.7,1.4c0.4,0,0.7-0.6,0.7-1.4v-3H102.4z"/>
	<path fill="#AD3131" d="M106.2,392.4v3c0,0.8,0.3,1.4,0.7,1.4c0.4,0,0.7-0.6,0.7-1.4v-3H106.2z"/>
	<path fill="#AD3131" d="M109.9,392.4v3c0,0.8,0.3,1.4,0.7,1.4c0.4,0,0.7-0.6,0.7-1.4v-3H109.9z"/>
	<path fill="#AD3131" d="M113.7,392.4v3c0,0.8,0.3,1.4,0.7,1.4c0.4,0,0.7-0.6,0.7-1.4v-3H113.7z"/>
	<path fill="#AD3131" d="M117.5,392.4v3c0,0.8,0.3,1.4,0.7,1.4c0.4,0,0.7-0.6,0.7-1.4v-3H117.5z"/>
	<g>
		<circle fill="#CAC4CE" cx="147" cy="398.9" r="3.3"/>
		<path fill="#5C0000" d="M148.7,398.9c0,1-0.8,1.8-1.8,1.8c-1,0-1.8-0.8-1.8-1.8c0-1,0.8-1.8,1.8-1.8
			C147.9,397.2,148.7,398,148.7,398.9z"/>
		<g>
			<path fill="#FFFFFF" d="M146.9,395.9c-1.6,0-2.9,1.3-2.9,2.9s1.3,2.9,2.9,2.9s2.9-1.3,2.9-2.9S148.5,395.9,146.9,395.9z
				 M147,401.5c-1.3,0-2.4-1.1-2.4-2.4c0-1.3,1.1-2.4,2.4-2.4c1.3,0,2.4,1.1,2.4,2.4C149.4,400.4,148.3,401.5,147,401.5z"/>
		</g>
	</g>
	<g>
		<path fill="#CAC4CE" d="M166.1,424.6c0,1.8-1.5,3.3-3.3,3.3c-1.8,0-3.3-1.5-3.3-3.3c0-1.8,1.5-3.3,3.3-3.3
			C164.6,421.2,166.1,422.7,166.1,424.6z"/>
		<path fill="#5C0000" d="M164.5,424.6c0,1-0.8,1.8-1.8,1.8c-1,0-1.8-0.8-1.8-1.8c0-1,0.8-1.8,1.8-1.8
			C163.7,422.8,164.5,423.6,164.5,424.6z"/>
		<g>
			<path fill="#FFFFFF" d="M162.6,421.5c-1.6,0-2.9,1.3-2.9,2.9c0,1.6,1.3,2.9,2.9,2.9c1.6,0,2.9-1.3,2.9-2.9
				C165.5,422.8,164.2,421.5,162.6,421.5z M162.7,427.1c-1.3,0-2.4-1.1-2.4-2.4c0-1.3,1.1-2.4,2.4-2.4c1.3,0,2.4,1.1,2.4,2.4
				C165.2,426,164.1,427.1,162.7,427.1z"/>
		</g>
	</g>
	<g>
		<path fill="#CAC4CE" d="M158.2,412.1c0,1.8-1.5,3.3-3.3,3.3c-1.8,0-3.3-1.5-3.3-3.3c0-1.8,1.5-3.3,3.3-3.3
			C156.7,408.7,158.2,410.2,158.2,412.1z"/>
		<path fill="#5C0000" d="M156.6,412.1c0,1-0.8,1.8-1.8,1.8c-1,0-1.8-0.8-1.8-1.8c0-1,0.8-1.8,1.8-1.8
			C155.8,410.3,156.6,411.1,156.6,412.1z"/>
		<g>
			<path fill="#FFFFFF" d="M154.8,409.1c-1.6,0-2.9,1.3-2.9,2.9c0,1.6,1.3,2.9,2.9,2.9c1.6,0,2.9-1.3,2.9-2.9
				C157.6,410.3,156.4,409.1,154.8,409.1z M154.9,414.6c-1.3,0-2.4-1.1-2.4-2.4s1.1-2.4,2.4-2.4c1.3,0,2.4,1.1,2.4,2.4
				S156.2,414.6,154.9,414.6z"/>
		</g>
	</g>
	<g>
		<g>
			<path fill="#CAC4CE" d="M129.5,389.4c0,1.8-1.5,3.3-3.3,3.3c-1.8,0-3.3-1.5-3.3-3.3c0-1.8,1.5-3.3,3.3-3.3
				C128,386.1,129.5,387.6,129.5,389.4z"/>
			<path fill="#5C0000" d="M128,389.4c0,1-0.8,1.8-1.8,1.8c-1,0-1.8-0.8-1.8-1.8c0-1,0.8-1.8,1.8-1.8S128,388.5,128,389.4z"/>
			<g>
				<path fill="#FFFFFF" d="M126.1,386.4c-1.6,0-2.9,1.3-2.9,2.9c0,1.6,1.3,2.9,2.9,2.9c1.6,0,2.9-1.3,2.9-2.9
					C129,387.7,127.7,386.4,126.1,386.4z M126.2,392c-1.3,0-2.4-1.1-2.4-2.4c0-1.3,1.1-2.4,2.4-2.4c1.3,0,2.4,1.1,2.4,2.4
					C128.7,390.9,127.6,392,126.2,392z"/>
			</g>
		</g>
		<g>
			<path fill="#CAC4CE" d="M126.1,390.8c-0.3,0-0.6-0.1-0.8-0.3c-0.6-0.5-0.7-1.3-0.2-1.8l11.7-14.9l4.4-30.8
				c0.1-0.7,0.8-1.2,1.5-1.1c0.7,0.1,1.2,0.8,1.1,1.5l-4.5,31.6l-12.2,15.4C126.9,390.6,126.5,390.8,126.1,390.8z"/>
		</g>
		<path fill="#FFFFFF" d="M137.4,373.5c0,0.3,0.2,0.6,0.5,0.7l0,0c0.3,0,0.6-0.2,0.7-0.5l4.3-30.8c0-0.3-0.2-0.6-0.5-0.7l0,0
			c-0.3,0-0.6,0.2-0.7,0.5L137.4,373.5z"/>
	</g>
	<path fill="#CAC4CE" d="M101,70.7c0,1-0.8,1.8-1.8,1.8c-1,0-1.8-0.8-1.8-1.8c0-1,0.8-1.8,1.8-1.8C100.2,68.9,101,69.7,101,70.7z"/>
	<path fill="#CAC4CE" d="M104.5,52.7c0,1-0.8,1.8-1.8,1.8c-1,0-1.8-0.8-1.8-1.8c0-1,0.8-1.8,1.8-1.8
		C103.7,50.9,104.5,51.7,104.5,52.7z"/>
	<path fill="#CAC4CE" d="M107.7,34.7c0,1-0.8,1.8-1.8,1.8c-1,0-1.8-0.8-1.8-1.8c0-1,0.8-1.8,1.8-1.8C106.8,33,107.7,33.7,107.7,34.7
		z"/>
	<path fill="#CAC4CE" d="M117.4,70.7c0,1,0.8,1.8,1.8,1.8c1,0,1.8-0.8,1.8-1.8c0-1-0.8-1.8-1.8-1.8
		C118.2,68.9,117.4,69.7,117.4,70.7z"/>
	<path fill="#CAC4CE" d="M113.6,52.7c0,1,0.8,1.8,1.8,1.8c1,0,1.8-0.8,1.8-1.8c0-1-0.8-1.8-1.8-1.8
		C114.4,50.9,113.6,51.7,113.6,52.7z"/>
	<path fill="#CAC4CE" d="M110.2,34.7c0,1,0.8,1.8,1.8,1.8c1,0,1.8-0.8,1.8-1.8c0-1-0.8-1.8-1.8-1.8C111,33,110.2,33.7,110.2,34.7z"
		/>
</g>
</svg>
