<?xml version="1.0" encoding="utf-8"?>
<!-- Generator: Adobe Illustrator 24.0.2, SVG Export Plug-In . SVG Version: 6.00 Build 0)  -->
<svg version="1.1" id="Layer_1" xmlns="http://www.w3.org/2000/svg" xmlns:xlink="http://www.w3.org/1999/xlink" x="0px" y="0px"
	 viewBox="0 0 210 527.6" enable-background="new 0 0 210 527.6" xml:space="preserve">
<g id="Bass_Guitar">
	<g>
		<path fill="#4A73BD" d="M170.3,432.7c-7.9-16.6-22.8-25.9-11.7-49.5c9.9-21.1,8.6-29.8,7.8-33.6c-4.3-20.3-12.7-19.4-15.8-16.3
			c-3,3.1-3.5,9.1-5.6,16.2c-2.7,9.1-13.5,14.3-21.5,6.3c-7.1-7.1-4.1-31-15.9-31s-17.9,11.1-27.5,8.6c-9.7-2.5-14.2-19-13.9-26.4
			c0.3-7.4,0.3-13.2-2.7-16.3c-3-3.1-14.5-0.6-19.1,19.6c-4.5,20.3,8.5,41.1,13.9,66.6c5.4,25.5-5.4,37.1-13.3,53.7
			s-12.4,31.6-4.5,49.1c7.9,17.5,20.9,26.4,67.2,26.4s59.3-8.9,67.2-26.4C182.7,462.2,178.2,449.3,170.3,432.7z"/>
	</g>
	<g>
		<path fill="#353D7D" d="M44.3,478c-6.9-15.4-3.4-28.9,4.5-45.6c1.5-3.1,3.1-6.1,4.6-9c6.7-12.5,13.7-25.3,9-47.4
			c-1.9-9-4.7-17.3-7.4-25.3c-5-14.7-9.2-27.4-6.5-39.5c3.2-14.3,9.7-17.5,11.9-17.5c0.1,0,0.2,0,0.3,0c1.8,2.2,1.6,8.4,1.4,13
			c-0.3,7.7,4.2,27.3,17.1,30.6c1.3,0.3,2.6,0.5,3.8,0.5c4.9,0,8.9-2.3,12.8-4.6c3.8-2.2,7.4-4.3,11.9-4.3l0-4.2
			c-11.8,0-17.9,11.1-27.5,8.6c-9.7-2.5-14.2-19-13.9-26.4c0.3-7.4,0.3-13.2-2.7-16.3c-3-3.1-14.5-0.6-19.1,19.6
			c-4.5,20.3,8.5,41.1,13.9,66.6c5.4,25.5-5.4,37.1-13.3,53.7c-7.9,16.6-12.4,31.6-4.5,49.1c7.9,17.5,20.9,26.4,67.2,26.4l0-4.2
			C63.2,502,51.4,493.9,44.3,478z"/>
	</g>
	<g>
		<path fill="#353D7D" d="M166.6,434.5c-1.8-3.9-4.2-7.5-6.4-10.9c-7.2-11-14.6-22.4-5.3-42.2c9.7-20.8,8.1-28.4,7.5-30.9
			c-2.5-11.6-6.1-14.7-7.7-14.7c-0.6,0-0.9,0.3-1,0.4c-1.3,1.3-2.1,4.6-3,8.3c-0.4,1.8-0.9,3.9-1.6,6.1c-2.3,7.8-9.2,13.2-16.7,13.2
			c-4.3,0-8.4-1.8-11.8-5.2c-3.7-3.7-5.1-10.2-6.4-16.4c-1.7-7.9-3.1-13.5-6.5-13.5V502c44.5,0,56.3-8.1,63.4-23.9
			C178.4,461.8,173.8,449.7,166.6,434.5z"/>
	</g>
	<g>
		<path fill="#AEB7D4" d="M164.7,435.4c-1.8-3.8-4.1-7.3-6.3-10.7c-7.1-10.9-15.2-23.3-5.4-44.2c6.2-13.4,8.7-23.3,7.4-29.6
			c-2.1-9.7-4.7-12.3-5.5-12.9c-0.8,1.3-1.5,4.3-2.2,7c-0.5,1.9-1,4-1.6,6.2c-2.6,8.7-10.2,14.7-18.7,14.7
			c-6.2,0-16.3-5.6-24.9-11.3v88.5c8.2,0.1,16.8,0.2,21.4,0.2c9.2,0,14,3.4,17.5,11.3c5,11.3,3.3,19.8-2.6,25
			c-11.2,10-5.7,15.8,0.3,15.6c6-0.2,16.8-5.6,23.1-18C170.8,469.8,172.9,452.8,164.7,435.4z"/>
	</g>
	<g>
		<path fill="#D6D7E9" d="M92.2,343c-5.3-4.7-10.9-4.9-9.4,3.9c1.4,8.8,3.3,34.1-1.2,47.6c-4.5,13.6-13.3,32-7.4,40
			c6,8,7.8,8.2,14.4,8.2c4,0,15.9,0.2,19,0.2v-88.5C100.6,349.9,94.5,345.2,92.2,343z"/>
	</g>
	<g>
		<path fill="#C26152" d="M117.7,374.7h-20c-2.3,0-4-2.6-4-5.8l4.2-257.8h19.7l4.2,257.8C121.7,372.1,119.9,374.7,117.7,374.7z"/>
	</g>
	<g>
		<g>
			<path fill="#6F7C9F" d="M109.7,421.8H89.4c-0.6,0-1-0.5-1-1v-9.7c0-0.6,0.5-1,1-1h20.3c0.6,0,1,0.5,1,1v9.7
				C110.7,421.3,110.2,421.8,109.7,421.8z"/>
		</g>
		<g>
			<path fill="#D6D7E9" d="M106.6,415.9c0,1.1-0.9,2-2,2c-1.1,0-2-0.9-2-2c0-1.1,0.9-2,2-2C105.7,414,106.6,414.8,106.6,415.9z"/>
		</g>
		<g>
			<circle fill="#D6D7E9" cx="99.5" cy="415.9" r="2"/>
		</g>
		<g>
			<circle fill="#D6D7E9" cx="94.4" cy="415.9" r="2"/>
		</g>
	</g>
	<g>
		<g>
			<path fill="#6F7C9F" d="M125.9,433.5h-20.3c-0.6,0-1-0.5-1-1v-9.7c0-0.6,0.5-1,1-1h20.3c0.6,0,1,0.5,1,1v9.7
				C127,433.1,126.5,433.5,125.9,433.5z"/>
		</g>
		<g>
			<circle fill="#D6D7E9" cx="120.9" cy="427.7" r="2"/>
		</g>
		<g>
			<circle fill="#D6D7E9" cx="115.8" cy="427.7" r="2"/>
		</g>
		<g>
			<circle fill="#D6D7E9" cx="110.7" cy="427.7" r="2"/>
		</g>
	</g>
	<g>
		<path fill="#6F7C9F" d="M151.2,486.2c0,2-1.6,3.6-3.6,3.6c-2,0-3.6-1.6-3.6-3.6s1.6-3.6,3.6-3.6
			C149.6,482.5,151.2,484.1,151.2,486.2z"/>
	</g>
	<g>
		<path fill="#6F7C9F" d="M160.8,474.4c0,2-1.6,3.6-3.6,3.6c-2,0-3.6-1.6-3.6-3.6s1.6-3.6,3.6-3.6
			C159.2,470.8,160.8,472.4,160.8,474.4z"/>
	</g>
	<g>
		<path fill="#6F7C9F" d="M163.6,458.2c0,2-1.6,3.6-3.6,3.6c-2,0-3.6-1.6-3.6-3.6c0-2,1.6-3.6,3.6-3.6
			C162,454.6,163.6,456.2,163.6,458.2z"/>
	</g>
	<g>
		<path fill="#6F7C9F" d="M158.7,443c0,2-1.6,3.6-3.6,3.6s-3.6-1.6-3.6-3.6c0-2,1.6-3.6,3.6-3.6S158.7,441,158.7,443z"/>
	</g>
	<g>
		<path fill="#FCEDE9" d="M120.9,329.4l0,1.4H94.1l0-1.4H120.9z M94,338.3l0,1.4h27l0-1.4H94z M94.3,320.7l0,1.4h26.5l0-1.4H94.3z
			 M94.5,310.6l0,1.4h26.1l0-1.4H94.5z M94.6,300.4l0,1.4h25.8l0-1.4H94.6z M93.7,355l0,1.4h27.6l0-1.4H93.7z M93.6,361.9l0,1.4
			h27.8l0-1.4H93.6z M121.5,368.9l0-0.6h-28l0,0.6c0,0.3,0,0.5,0,0.7h27.9C121.5,369.4,121.5,369.2,121.5,368.9z M93.9,347.3l0,1.4
			h27.3l0-1.4H93.9z M94.8,289.1l0,1.4h25.4l0-1.4H94.8z M95.2,265.3l0,1.4h24.7l0-1.4H95.2z M96.7,174.8l0,1.4h21.8l0-1.4H96.7z
			 M96.4,192.1l0,1.4h22.3l0-1.4H96.4z M97.3,136.8l0,1.4h20.5l0-1.4H97.3z M96.1,208.6l0,1.4h22.8l0-1.4H96.1z M96.9,156.8l0,1.4
			h21.2l0-1.4H96.9z M95.9,223.7l0,1.4h23.3l0-1.4H95.9z M97.6,113.8l-0.1,3.4h19.8l-0.1-3.4H97.6z M95.4,252.7l0,1.4h24.3l0-1.4
			H95.4z M95,278.1l0,1.4h25.1l0-1.4H95z M95.6,239l0,1.4h23.8l0-1.4H95.6z"/>
	</g>
	<g>
		<g>
			<path fill="#D9B28D" d="M87.9,86.3l0.1-0.4c0.5-2.1-0.9-4.1-2.9-4.6c-2.1-0.5-4.1,0.9-4.6,2.9l-0.1,0.4L80,84.6
				c-2.1-0.5-4.1,0.9-4.6,2.9c-0.5,2.1,0.9,4.1,2.9,4.6l0.4,0.1l-0.1,0.4c-0.5,2.1,0.9,4.1,2.9,4.6c2.1,0.5,4.1-0.9,4.6-2.9l0.1-0.4
				c0.5-2.2,3.1-2.1,7.4-1.2l0.2-1.1l0.2-1.1C89.9,89.5,87.4,88.5,87.9,86.3z"/>
		</g>
		<g>
			<path fill="#D9B28D" d="M92.4,66.7l0.1-0.4c0.5-2.1-0.9-4.1-2.9-4.6c-2.1-0.5-4.1,0.9-4.6,2.9l-0.1,0.4L84.5,65
				c-2.1-0.5-4.1,0.9-4.6,2.9c-0.5,2.1,0.9,4.1,2.9,4.6l0.4,0.1L83.2,73c-0.5,2.1,0.9,4.1,2.9,4.6c2.1,0.5,4.1-0.9,4.6-2.9l0.1-0.4
				c0.5-2.2,3.1-2.1,7.4-1.2l0.2-1.1l0.2-1.1C94.4,69.9,91.9,68.9,92.4,66.7z"/>
		</g>
		<g>
			<path fill="#D9B28D" d="M96.9,47.1l0.1-0.4c0.5-2.1-0.9-4.1-2.9-4.6C92,41.7,90,43,89.5,45l-0.1,0.4L89,45.4
				c-2.1-0.5-4.1,0.9-4.6,2.9c-0.5,2.1,0.9,4.1,2.9,4.6l0.4,0.1l-0.1,0.4c-0.5,2.1,0.9,4.1,2.9,4.6c2.1,0.5,4.1-0.9,4.6-2.9l0.1-0.4
				c0.5-2.2,3.1-2.1,7.4-1.2l0.2-1.1l0.2-1.1C98.8,50.3,96.4,49.3,96.9,47.1z"/>
		</g>
		<g>
			<path fill="#D9B28D" d="M101.4,27.5l0.1-0.4c0.5-2.1-0.9-4.1-2.9-4.6c-2.1-0.5-4.1,0.9-4.6,2.9l-0.1,0.4l-0.4-0.1
				c-2.1-0.5-4.1,0.9-4.6,2.9c-0.5,2.1,0.9,4.1,2.9,4.6l0.4,0.1l-0.1,0.4c-0.5,2.1,0.9,4.1,2.9,4.6c2.1,0.5,4.1-0.9,4.6-2.9l0.1-0.4
				c0.5-2.2,3.1-2.1,7.4-1.2l0.2-1.1l0.2-1.1C103.3,30.7,100.9,29.7,101.4,27.5z"/>
		</g>
	</g>
	<g>
		<path fill="#FAB74F" d="M135.5,29c-1.4-7.2-6.6-11.2-15.7-10.5c-9.1,0.6-12.1,6.8-17.5,30C97,71.7,90.6,99.3,90.1,102.4
			c-0.5,3.1,7.8,1.4,7.8,8.7h19.7c0-10,3.2-15.5,14.4-19c1.7-0.5-2.5-9.4-6.9-26.9s-2.1-27.5,8.2-27.5C135.1,37.8,137,36.2,135.5,29
			z"/>
	</g>
	<g>
		<path fill="#DB8F30" d="M125,65.3c-1.9-7.6-2.6-13.8-1.8-18.3l-15.7,64.2h10c0-10,3.2-15.5,14.4-19
			C133.6,91.6,129.5,82.7,125,65.3z"/>
	</g>
	<g>
		<g>
			<g>
				<path fill="#FCEDE9" d="M106.2,90.4c1,2.7-0.4,5.6-3.1,6.6c-2.7,1-5.6-0.4-6.6-3.1c-1-2.7,0.4-5.6,3.1-6.6
					C102.3,86.3,105.2,87.7,106.2,90.4z"/>
			</g>
			<g>
				<path fill="#783128" d="M103.3,91.3c0.4,1.1-0.2,2.3-1.3,2.7c-1.1,0.4-2.3-0.2-2.7-1.3c-0.4-1.1,0.2-2.3,1.3-2.7
					C101.7,89.7,102.9,90.3,103.3,91.3z"/>
			</g>
		</g>
		<g>
			<g>
				<path fill="#FCEDE9" d="M110.7,70.3c1,2.7-0.4,5.6-3.1,6.6c-2.7,1-5.6-0.4-6.6-3.1c-1-2.7,0.4-5.6,3.1-6.6
					C106.8,66.3,109.8,67.7,110.7,70.3z"/>
			</g>
			<g>
				<path fill="#FCEDE9" d="M117.7,86.2c0.8,2.1-0.3,4.5-2.4,5.2c-2.1,0.8-4.5-0.3-5.2-2.4c-0.8-2.1,0.3-4.5,2.4-5.2
					C114.6,83,116.9,84.1,117.7,86.2z"/>
			</g>
			<g>
				<path fill="#783128" d="M107.9,71.3c0.4,1.1-0.2,2.3-1.3,2.7c-1.1,0.4-2.3-0.2-2.7-1.3c-0.4-1.1,0.2-2.3,1.3-2.7
					C106.3,69.7,107.5,70.2,107.9,71.3z"/>
			</g>
		</g>
		<g>
			<g>
				<path fill="#FCEDE9" d="M115.3,50.3c1,2.7-0.4,5.6-3.1,6.6c-2.7,1-5.6-0.4-6.6-3.1c-1-2.7,0.4-5.6,3.1-6.6
					C111.3,46.3,114.3,47.7,115.3,50.3z"/>
			</g>
			<g>
				<path fill="#783128" d="M112.4,51.3c0.4,1.1-0.2,2.3-1.3,2.7s-2.3-0.2-2.7-1.3c-0.4-1.1,0.2-2.3,1.3-2.7
					C110.8,49.7,112,50.2,112.4,51.3z"/>
			</g>
		</g>
		<g>
			<g>
				<path fill="#FCEDE9" d="M119.8,30.3c1,2.7-0.4,5.6-3.1,6.6c-2.7,1-5.6-0.4-6.6-3.1c-1-2.7,0.4-5.6,3.1-6.6
					C115.9,26.3,118.8,27.6,119.8,30.3z"/>
			</g>
			<g>
				<path fill="#783128" d="M116.9,31.3c0.4,1.1-0.2,2.3-1.3,2.7c-1.1,0.4-2.3-0.2-2.7-1.3c-0.4-1.1,0.2-2.3,1.3-2.7
					C115.3,29.6,116.5,30.2,116.9,31.3z"/>
			</g>
		</g>
	</g>
	<g>
		<path fill="#AEB7D4" d="M125.9,496.4H89.5c-0.6,0-1-0.5-1-1v-20.4c0-0.6,0.5-1,1-1h36.4c0.6,0,1,0.5,1,1v20.4
			C126.9,495.9,126.5,496.4,125.9,496.4z"/>
	</g>
	<g>
		<path fill="#6F7C9F" d="M124.8,473.9h-17.1v22.5h17.1c1.2,0,2.2-1,2.2-2.2v-18.2C126.9,474.9,126,473.9,124.8,473.9z"/>
	</g>
	<g>
		<path fill="#D6D7E9" d="M98.1,494.7h-4.3c-0.5,0-0.9-0.4-0.9-0.9V487c0-0.5,0.4-0.9,0.9-0.9h4.3c0.5,0,0.9,0.4,0.9,0.9v6.9
			C98.9,494.4,98.5,494.7,98.1,494.7z"/>
	</g>
	<g>
		<path fill="#D6D7E9" d="M105.9,494.7h-4.3c-0.5,0-0.9-0.4-0.9-0.9V487c0-0.5,0.4-0.9,0.9-0.9h4.3c0.5,0,0.9,0.4,0.9,0.9v6.9
			C106.8,494.4,106.4,494.7,105.9,494.7z"/>
	</g>
	<g>
		<path fill="#AEB7D4" d="M113.8,494.7h-4.3c-0.5,0-0.9-0.4-0.9-0.9V487c0-0.5,0.4-0.9,0.9-0.9h4.3c0.5,0,0.9,0.4,0.9,0.9v6.9
			C114.6,494.4,114.3,494.7,113.8,494.7z"/>
	</g>
	<g>
		<path fill="#AEB7D4" d="M121.6,494.7h-4.3c-0.5,0-0.9-0.4-0.9-0.9V487c0-0.5,0.4-0.9,0.9-0.9h4.3c0.5,0,0.9,0.4,0.9,0.9v6.9
			C122.5,494.4,122.1,494.7,121.6,494.7z"/>
	</g>
	<g>
		<g>
			<polygon fill="#FCEDE9" points="96.9,494.4 95.4,494.4 95.4,486 99.7,114 103.5,93.7 105.1,94 101.2,114.2 96.9,486 			"/>
		</g>
		<g>
			<polygon fill="#FCEDE9" points="104.6,494.4 103,494.4 103,486 104.4,114.1 107.5,73.8 109,73.9 105.9,114.1 104.6,486 			"/>
		</g>
		<g>
			<polygon fill="#FCEDE9" points="120.3,494.4 118.7,494.4 118.7,486 113.7,114.1 117.2,32 118.7,32.1 115.3,114.1 120.3,486 			
				"/>
		</g>
		<g>
			<polygon fill="#FCEDE9" points="112.4,494.4 110.8,494.4 110.8,486 109.2,114.1 112.3,54.1 113.8,54.2 110.8,114.1 112.4,486 			
				"/>
		</g>
	</g>
</g>
</svg>
