<?xml version="1.0" encoding="utf-8"?>
<!-- Generator: Adobe Illustrator 24.0.2, SVG Export Plug-In . SVG Version: 6.00 Build 0)  -->
<svg version="1.1" id="Layer_1" xmlns="http://www.w3.org/2000/svg" xmlns:xlink="http://www.w3.org/1999/xlink" x="0px" y="0px"
	 viewBox="0 0 210 505.1" enable-background="new 0 0 210 505.1" xml:space="preserve">
<g>
	<g>
		<g>
			
				<rect x="114.3" y="27.7" transform="matrix(0.5137 -0.858 0.858 0.5137 30.7609 113.4375)" fill="#AFA7B4" width="2.3" height="3.7"/>
		</g>
		<g>
			<path fill="#CAC4CE" d="M114.6,29.1c0.3-0.6-0.6-5.8-4.4-8c-1.6-0.9-6.5,7-4.8,8C109.1,31.3,114.3,29.6,114.6,29.1z"/>
			<path fill="#DCD7E0" d="M112.5,29.2c0.2-0.4-0.7-4.2-3.6-5.9c-1.2-0.7-4.6,4.7-3.3,5.5C108.5,30.5,112.3,29.6,112.5,29.2z"/>
			<g>
				
					<rect x="109.2" y="36" transform="matrix(0.5137 -0.858 0.858 0.5137 21.2334 113.1336)" fill="#AFA7B4" width="2.3" height="3.7"/>
				<path fill="#CAC4CE" d="M109.5,37.3c0.3-0.6-0.6-5.8-4.4-8c-1.6-0.9-6.5,7-4.8,8C104.1,39.5,109.2,37.8,109.5,37.3z"/>
				<path fill="#DCD7E0" d="M107.5,37.5c0.2-0.4-0.7-4.2-3.6-5.9c-1.2-0.7-4.6,4.7-3.3,5.5C103.5,38.8,107.3,37.8,107.5,37.5z"/>
			</g>
			<g>
				
					<rect x="104.2" y="44.2" transform="matrix(0.5137 -0.858 0.858 0.5137 11.7031 112.8266)" fill="#AFA7B4" width="2.3" height="3.7"/>
				<path fill="#CAC4CE" d="M104.5,45.6c0.3-0.6-0.6-5.8-4.4-8c-1.6-0.9-6.5,7-4.8,8C99.1,47.8,104.2,46.1,104.5,45.6z"/>
				<path fill="#DCD7E0" d="M102.4,45.7c0.2-0.4-0.7-4.2-3.6-5.9c-1.2-0.7-4.6,4.7-3.3,5.5C98.4,47,102.2,46.1,102.4,45.7z"/>
			</g>
			<g>
				
					<rect x="99.2" y="52.5" transform="matrix(0.5137 -0.858 0.858 0.5137 2.173 112.5199)" fill="#AFA7B4" width="2.3" height="3.7"/>
				<path fill="#CAC4CE" d="M99.5,53.8c0.3-0.6-0.6-5.8-4.4-8c-1.6-0.9-6.5,7-4.8,8C94,56,99.2,54.3,99.5,53.8z"/>
				<path fill="#DCD7E0" d="M97.4,54c0.2-0.4-0.7-4.2-3.6-5.9c-1.2-0.7-4.6,4.7-3.3,5.5C93.4,55.3,97.2,54.3,97.4,54z"/>
			</g>
			<g>
				
					<rect x="94.1" y="60.7" transform="matrix(0.5137 -0.858 0.858 0.5137 -7.3574 112.2129)" fill="#AFA7B4" width="2.3" height="3.7"/>
				<path fill="#CAC4CE" d="M94.4,62.1c0.3-0.6-0.6-5.8-4.4-8c-1.6-0.9-6.5,7-4.8,8C89,64.3,94.1,62.6,94.4,62.1z"/>
				<path fill="#DCD7E0" d="M92.4,62.2c0.2-0.4-0.7-4.2-3.6-5.9c-1.2-0.7-4.6,4.7-3.3,5.5C88.4,63.6,92.2,62.6,92.4,62.2z"/>
			</g>
			<g>
				
					<rect x="89.1" y="69" transform="matrix(0.5137 -0.858 0.858 0.5137 -16.8877 111.9059)" fill="#AFA7B4" width="2.3" height="3.7"/>
				<path fill="#CAC4CE" d="M89.4,70.3c0.3-0.6-0.6-5.8-4.4-8c-1.6-0.9-6.5,7-4.8,8C84,72.5,89.1,70.8,89.4,70.3z"/>
				<path fill="#DCD7E0" d="M87.3,70.5c0.2-0.4-0.7-4.2-3.6-5.9c-1.2-0.7-4.6,4.7-3.3,5.5C83.3,71.8,87.1,70.8,87.3,70.5z"/>
			</g>
		</g>
	</g>
	<path fill="#25523B" d="M160.1,359.1c-7.5-16.6,14.6-16.7,12.1-51.5c-0.7-9.3-8-7.5-12.6,0.5c-10.7,18.8-36.3,9.7-42.4-7.9H95.6
		c-15.1,10.4-34.5,0.3-33-23.1c1.6-24.5-24.8,2.5-21.9,22.4c2.9,20,17.5,42.9,10,59.5c-7.5,16.6-36.6,36.2-29.6,82
		c7.1,45.8,69.9,51.2,80.8,51.2h7c10.8,0,73.7-5.4,80.8-51.2C196.7,395.4,167.6,375.8,160.1,359.1z"/>
	<path fill="#FFB74E" d="M60.1,363c7.1-14.2-7-39.2-9.4-55.3c-1.7-11.3,4.5-18.7,5.8-8.4c1.9,15.7,38.7,33,38.7,13.1h22.5
		c0,10.3,12,16.1,24.6,16.1c0,0,0,0,0,0c7.1,0,21.1-6.4,12.4,7.1c-4,6.2-9.8,14.5-4,27.4c2.4,5.3,6.1,10.5,10.3,15.8
		C235.9,475.2,22.1,439.1,60.1,363z"/>
	<g>
		<path fill="#9B102E" d="M131.4,330.1c0,1.8-1.4,3.2-3.2,3.2H85.7c-1.8,0-3.2-1.4-3.2-3.2l0,0c0-1.8,1.4-3.2,3.2-3.2h42.4
			C129.9,326.9,131.4,328.3,131.4,330.1L131.4,330.1z"/>
	</g>
	<g>
		<path fill="#FFFFFF" d="M97.6,330c0-0.8-0.7-1.5-1.5-1.5c-0.8,0-1.5,0.7-1.5,1.5c0,0.8,0.7,1.5,1.5,1.5
			C97,331.5,97.6,330.8,97.6,330z"/>
		<path fill="#FFFFFF" d="M101.9,330c0-0.8-0.7-1.5-1.5-1.5c-0.8,0-1.5,0.7-1.5,1.5c0,0.8,0.7,1.5,1.5,1.5
			C101.2,331.5,101.9,330.8,101.9,330z"/>
		<path fill="#FFFFFF" d="M106.1,330c0-0.8-0.7-1.5-1.5-1.5s-1.5,0.7-1.5,1.5c0,0.8,0.7,1.5,1.5,1.5
			C105.4,331.5,106.1,330.8,106.1,330z"/>
		<path fill="#FFFFFF" d="M110.3,330c0-0.8-0.7-1.5-1.5-1.5s-1.5,0.7-1.5,1.5c0,0.8,0.7,1.5,1.5,1.5S110.3,330.8,110.3,330z"/>
		<path fill="#FFFFFF" d="M114.5,330c0-0.8-0.7-1.5-1.5-1.5c-0.8,0-1.5,0.7-1.5,1.5c0,0.8,0.7,1.5,1.5,1.5S114.5,330.8,114.5,330z"
			/>
		<path fill="#FFFFFF" d="M118.7,330c0-0.8-0.7-1.5-1.5-1.5c-0.8,0-1.5,0.7-1.5,1.5c0,0.8,0.7,1.5,1.5,1.5
			C118,331.5,118.7,330.8,118.7,330z"/>
	</g>
	<circle fill="#642513" cx="85.4" cy="330" r="1.3"/>
	<circle fill="#642513" cx="128.6" cy="330" r="1.3"/>
	<g>
		<path fill="#9B102E" d="M131.4,350.7c0,1.8-1.4,3.2-3.2,3.2H85.7c-1.8,0-3.2-1.4-3.2-3.2l0,0c0-1.8,1.4-3.2,3.2-3.2h42.4
			C129.9,347.5,131.4,348.9,131.4,350.7L131.4,350.7z"/>
	</g>
	<g>
		<path fill="#FFFFFF" d="M97.6,350.6c0-0.8-0.7-1.5-1.5-1.5c-0.8,0-1.5,0.7-1.5,1.5c0,0.8,0.7,1.5,1.5,1.5
			C97,352.1,97.6,351.4,97.6,350.6z"/>
		<path fill="#FFFFFF" d="M101.9,350.6c0-0.8-0.7-1.5-1.5-1.5c-0.8,0-1.5,0.7-1.5,1.5c0,0.8,0.7,1.5,1.5,1.5
			C101.2,352.1,101.9,351.4,101.9,350.6z"/>
		<path fill="#FFFFFF" d="M106.1,350.6c0-0.8-0.7-1.5-1.5-1.5s-1.5,0.7-1.5,1.5c0,0.8,0.7,1.5,1.5,1.5
			C105.4,352.1,106.1,351.4,106.1,350.6z"/>
		<path fill="#FFFFFF" d="M110.3,350.6c0-0.8-0.7-1.5-1.5-1.5s-1.5,0.7-1.5,1.5c0,0.8,0.7,1.5,1.5,1.5S110.3,351.4,110.3,350.6z"/>
		<path fill="#FFFFFF" d="M114.5,350.6c0-0.8-0.7-1.5-1.5-1.5c-0.8,0-1.5,0.7-1.5,1.5c0,0.8,0.7,1.5,1.5,1.5
			S114.5,351.4,114.5,350.6z"/>
		<path fill="#FFFFFF" d="M118.7,350.6c0-0.8-0.7-1.5-1.5-1.5c-0.8,0-1.5,0.7-1.5,1.5c0,0.8,0.7,1.5,1.5,1.5
			C118,352.1,118.7,351.4,118.7,350.6z"/>
	</g>
	<circle fill="#642513" cx="85.4" cy="350.5" r="1.3"/>
	<circle fill="#642513" cx="128.6" cy="350.5" r="1.3"/>
	<g>
		<path fill="#9B102E" d="M131.4,371.2c0,1.8-1.4,3.2-3.2,3.2H85.7c-1.8,0-3.2-1.4-3.2-3.2l0,0c0-1.8,1.4-3.2,3.2-3.2h42.4
			C129.9,368,131.4,369.5,131.4,371.2L131.4,371.2z"/>
	</g>
	<g>
		<path fill="#FFFFFF" d="M97.6,371.1c0-0.8-0.7-1.5-1.5-1.5c-0.8,0-1.5,0.7-1.5,1.5c0,0.8,0.7,1.5,1.5,1.5
			C97,372.7,97.6,372,97.6,371.1z"/>
		<path fill="#FFFFFF" d="M101.9,371.1c0-0.8-0.7-1.5-1.5-1.5c-0.8,0-1.5,0.7-1.5,1.5c0,0.8,0.7,1.5,1.5,1.5
			C101.2,372.7,101.9,372,101.9,371.1z"/>
		<path fill="#FFFFFF" d="M106.1,371.1c0-0.8-0.7-1.5-1.5-1.5s-1.5,0.7-1.5,1.5c0,0.8,0.7,1.5,1.5,1.5
			C105.4,372.7,106.1,372,106.1,371.1z"/>
		<path fill="#FFFFFF" d="M110.3,371.1c0-0.8-0.7-1.5-1.5-1.5s-1.5,0.7-1.5,1.5c0,0.8,0.7,1.5,1.5,1.5S110.3,372,110.3,371.1z"/>
		<path fill="#FFFFFF" d="M114.5,371.1c0-0.8-0.7-1.5-1.5-1.5c-0.8,0-1.5,0.7-1.5,1.5c0,0.8,0.7,1.5,1.5,1.5S114.5,372,114.5,371.1z
			"/>
		<path fill="#FFFFFF" d="M118.7,371.1c0-0.8-0.7-1.5-1.5-1.5c-0.8,0-1.5,0.7-1.5,1.5c0,0.8,0.7,1.5,1.5,1.5
			C118,372.7,118.7,372,118.7,371.1z"/>
	</g>
	<circle fill="#642513" cx="85.4" cy="371.1" r="1.3"/>
	<circle fill="#642513" cx="128.6" cy="371.1" r="1.3"/>
	<g>
		<g>
			<g>
				<path fill="#25523B" d="M95.9,94.4c0-14.6-16.4-7.1-9-18.1c6.2-9.3,23-37.5,32.8-54.7c3.4-6,10.4-5.3,9.7,1.9
					c-0.9,9.6-7.3,25.7-4.5,31.6c8.6,18.2-7.8,15.2-7.8,39.3C117,99.1,95.9,99.1,95.9,94.4z"/>
			</g>
		</g>
		<g>
			<polygon fill="#710119" points="95.9,94.4 93.9,312.4 119,312.4 117,94.4 			"/>
			<g>
				<path fill="#CAC4CE" d="M118.4,244.7l0,2.2H94.5l0-2.2H118.4z M94.2,278l0,2.2h24.5l0-2.2H94.2z M94.3,265.5l0,2.2h24.3l0-2.2
					H94.3z M94.2,272.6l0,2.2h24.4l0-2.2H94.2z M94.4,259.3l0,2.2h24.2l0-2.2H94.4z M94.1,283.7l0,2.2h24.6l0-2.2H94.1z M94.4,251.9
					l0,2.2h24l0-2.2H94.4z M94,302.5l0,2.2h25l0-2.2H94z M93.9,312.4H119l0-1.4H93.9L93.9,312.4z M94,298l0,2.2h24.9l0-2.2H94z
					 M94.1,288.7l0,2.2h24.7l0-2.2H94.1z M94.1,293.6l0,2.2h24.8l0-2.2H94.1z M93.9,306.7l0,2.2h25l0-2.2H93.9z M95.4,142.5l0,2.2
					h22l0-2.2H95.4z M95.3,155.4l0,2.2h22.3l0-2.2H95.3z M95.6,128.4l0,2.2h21.8l0-2.2H95.6z M94.6,236.9l0,2.2h23.8l0-2.2H94.6z
					 M95.7,114.1l0,2.2h21.5l0-2.2H95.7z M95.2,167.9l0,2.2h22.5l0-2.2H95.2z M95.8,97l0,2.2H117l0-2.2H95.8z M95.1,179.9l0,2.2
					h22.7l0-2.2H95.1z M94.8,210.7l0,2.2h23.3l0-2.2H94.8z M94.6,228.6l0,2.2h23.6l0-2.2H94.6z M94.7,219.7l0,2.2h23.5l0-2.2H94.7z
					 M95,190.7l0,2.2h22.9l0-2.2H95z M94.9,200.8l0,2.2H118l0-2.2H94.9z"/>
			</g>
		</g>
		<path fill="#801414" d="M128.9,395.9c0,1.6-1.3,2.9-2.9,2.9H86.8c-1.6,0-2.9-1.3-2.9-2.9v-14.3c0-1.6,1.3-2.9,2.9-2.9h39.3
			c1.6,0,2.9,1.3,2.9,2.9V395.9z"/>
		<path fill="#9B102E" d="M86.8,396.2c-0.2,0-0.3-0.1-0.3-0.3v-14.3c0-0.2,0.1-0.3,0.3-0.3h39.3c0.2,0,0.3,0.1,0.3,0.3v14.3
			c0,0.2-0.1,0.3-0.3,0.3H86.8z"/>
		<path fill="#9B102E" d="M121.1,423.5c0,1-0.8,1.9-1.9,1.9H93.6c-1,0-1.9-0.8-1.9-1.9v-12.9c0-1,0.8-1.9,1.9-1.9h25.6
			c1,0,1.9,0.8,1.9,1.9V423.5z"/>
		<rect x="91.1" y="411.8" fill="#801414" width="30.7" height="5.2"/>
		<rect x="95.4" y="91.2" fill="#5B5B5B" width="22" height="5.8"/>
		<polygon fill="#FFFFFF" points="98.8,71.9 96.4,421.3 95,421.3 97.7,72.1 		"/>
		<polygon fill="#FFFFFF" points="101.1,64.3 99.5,421.3 100.8,421.3 102.1,64.3 		"/>
		<polygon fill="#FFFFFF" points="104.5,57.7 103.9,421.3 105,421.3 105.3,57.7 		"/>
		<polygon fill="#FFFFFF" points="108,48.6 108.5,421.3 109.4,421.3 108.7,48.6 		"/>
		<polygon fill="#FFFFFF" points="111.3,44.4 112.9,421.3 113.7,421.3 111.9,44.4 		"/>
		<polygon fill="#FFFFFF" points="114.9,36.7 117.4,421.3 118,421.3 115.3,36.7 		"/>
		<path fill="#CAC4CE" d="M98.8,71.9c0,1.7-1.4,3.2-3.1,3.2c-1.7,0-3.2-1.4-3.2-3.1c0-1.7,1.4-3.2,3.1-3.2
			C97.3,68.8,98.7,70.2,98.8,71.9z"/>
		<path fill="#CAC4CE" d="M103,64.8c0,1.7-1.4,3.2-3.1,3.2c-1.7,0-3.2-1.4-3.2-3.1c0-1.7,1.4-3.2,3.1-3.2
			C101.6,61.6,103,63,103,64.8z"/>
		<path fill="#CAC4CE" d="M107.3,57.6c0,1.7-1.4,3.2-3.1,3.2c-1.7,0-3.2-1.4-3.2-3.1c0-1.7,1.4-3.2,3.1-3.2
			C105.8,54.5,107.3,55.8,107.3,57.6z"/>
		<path fill="#CAC4CE" d="M111.6,50.4c0,1.7-1.4,3.2-3.1,3.2c-1.7,0-3.2-1.4-3.2-3.1c0-1.7,1.4-3.2,3.1-3.2
			C110.1,47.3,111.6,48.7,111.6,50.4z"/>
		<path fill="#CAC4CE" d="M115.9,43.3c0,1.7-1.4,3.2-3.1,3.2c-1.7,0-3.2-1.4-3.2-3.1c0-1.7,1.4-3.2,3.1-3.2
			C114.4,40.1,115.9,41.5,115.9,43.3z"/>
		<path fill="#CAC4CE" d="M120.2,36.1c0,1.7-1.4,3.2-3.1,3.2c-1.7,0-3.2-1.4-3.2-3.1c0-1.7,1.4-3.2,3.1-3.2
			C118.7,33,120.1,34.4,120.2,36.1z"/>
		<g>
			<rect x="94.7" y="414" fill="#5C0000" width="2.1" height="4.1"/>
			<path fill="#801414" d="M94,417v4c0,1,0.8,1.8,1.8,1.8c1,0,1.8-0.8,1.8-1.8v-4H94z"/>
		</g>
		<g>
			<rect x="99.1" y="414" fill="#5C0000" width="2.1" height="4.1"/>
			<path fill="#801414" d="M98.4,417v4c0,1,0.8,1.8,1.8,1.8c1,0,1.8-0.8,1.8-1.8v-4H98.4z"/>
		</g>
		<g>
			<rect x="103.5" y="414" fill="#5C0000" width="2.1" height="4.1"/>
			<path fill="#801414" d="M102.8,417v4c0,1,0.8,1.8,1.8,1.8c1,0,1.8-0.8,1.8-1.8v-4H102.8z"/>
		</g>
		<g>
			<rect x="107.9" y="414" fill="#5C0000" width="2.1" height="4.1"/>
			<path fill="#801414" d="M107.2,417v4c0,1,0.8,1.8,1.8,1.8c1,0,1.8-0.8,1.8-1.8v-4H107.2z"/>
		</g>
		<g>
			<rect x="112.2" y="414" fill="#5C0000" width="2.1" height="4.1"/>
			<path fill="#801414" d="M111.6,417v4c0,1,0.8,1.8,1.8,1.8c1,0,1.8-0.8,1.8-1.8v-4H111.6z"/>
		</g>
		<g>
			<rect x="116.6" y="414" fill="#5C0000" width="2.1" height="4.1"/>
			<path fill="#801414" d="M116,417v4c0,1,0.8,1.8,1.8,1.8c1,0,1.8-0.8,1.8-1.8v-4H116z"/>
		</g>
		<path fill="#AD3131" d="M94.7,417v3.5c0,0.9,0.4,1.6,0.8,1.6c0.4,0,0.8-0.7,0.8-1.6V417H94.7z"/>
		<path fill="#AD3131" d="M99,417v3.5c0,0.9,0.4,1.6,0.8,1.6c0.4,0,0.8-0.7,0.8-1.6V417H99z"/>
		<path fill="#AD3131" d="M103.4,417v3.5c0,0.9,0.4,1.6,0.8,1.6c0.4,0,0.8-0.7,0.8-1.6V417H103.4z"/>
		<path fill="#AD3131" d="M107.8,417v3.5c0,0.9,0.4,1.6,0.8,1.6c0.4,0,0.8-0.7,0.8-1.6V417H107.8z"/>
		<path fill="#AD3131" d="M112.2,417v3.5c0,0.9,0.4,1.6,0.8,1.6c0.4,0,0.8-0.7,0.8-1.6V417H112.2z"/>
		<path fill="#AD3131" d="M116.6,417v3.5c0,0.9,0.4,1.6,0.8,1.6c0.4,0,0.8-0.7,0.8-1.6V417H116.6z"/>
		<g>
			<path fill="#CAC4CE" d="M132.1,418.2c2.3,1.7,2.8,5,1.1,7.3c-1.7,2.3-5,2.8-7.3,1.1c-2.3-1.7-2.8-5-1.1-7.3
				C126.5,417,129.8,416.5,132.1,418.2z"/>
			<path fill="#5C0000" d="M130.6,420.2c1.2,0.9,1.5,2.6,0.6,3.8s-2.6,1.5-3.8,0.6c-1.2-0.9-1.5-2.6-0.6-3.8
				C127.7,419.6,129.4,419.3,130.6,420.2z"/>
			<g>
				<path fill="#FFFFFF" d="M125.2,419.7c-1.5,2-1,4.7,0.9,6.2c2,1.5,4.7,1,6.2-0.9c1.5-2,1-4.7-0.9-6.2
					C129.4,417.3,126.6,417.7,125.2,419.7z M132.2,424.7c-1.2,1.7-3.6,2-5.3,0.8c-1.7-1.2-2-3.6-0.8-5.3c1.2-1.7,3.6-2,5.3-0.8
					C133.1,420.7,133.4,423,132.2,424.7z"/>
			</g>
		</g>
		<g>
			<path fill="#CAC4CE" d="M124.1,388.3c0,1.8-1.5,3.3-3.3,3.3c-1.8,0-3.3-1.5-3.3-3.3c0-1.8,1.5-3.3,3.3-3.3
				C122.6,385,124.1,386.5,124.1,388.3z"/>
			<path fill="#5C0000" d="M122.5,388.3c0,0.9-0.8,1.7-1.7,1.7c-0.9,0-1.7-0.8-1.7-1.7c0-0.9,0.8-1.7,1.7-1.7
				S122.5,387.4,122.5,388.3z"/>
			<g>
				<path fill="#FFFFFF" d="M120.8,385.4c-1.5,0-2.8,1.2-2.8,2.8c0,1.5,1.2,2.8,2.8,2.8c1.5,0,2.8-1.2,2.8-2.8
					C123.5,386.6,122.3,385.4,120.8,385.4z M120.8,390.8c-1.3,0-2.4-1.1-2.4-2.4s1.1-2.4,2.4-2.4c1.3,0,2.4,1.1,2.4,2.4
					S122.2,390.8,120.8,390.8z"/>
			</g>
		</g>
		<g>
			<path fill="#CAC4CE" d="M146.4,421.9c2.3,1.7,2.8,5,1.1,7.3c-1.7,2.3-5,2.8-7.3,1.1c-2.3-1.7-2.8-5-1.1-7.3
				C140.8,420.7,144.1,420.2,146.4,421.9z"/>
			<path fill="#5C0000" d="M144.9,423.9c1.2,0.9,1.5,2.6,0.6,3.8c-0.9,1.2-2.6,1.5-3.8,0.6c-1.2-0.9-1.5-2.6-0.6-3.8
				S143.7,423,144.9,423.9z"/>
			<g>
				<path fill="#FFFFFF" d="M139.5,423.4c-1.5,2-1,4.7,0.9,6.2c2,1.5,4.7,1,6.2-0.9c1.5-2,1-4.7-0.9-6.2
					C143.7,421,140.9,421.4,139.5,423.4z M146.5,428.4c-1.2,1.7-3.6,2-5.3,0.8c-1.7-1.2-2-3.6-0.8-5.3c1.2-1.7,3.6-2,5.3-0.8
					C147.4,424.4,147.7,426.7,146.5,428.4z"/>
			</g>
		</g>
		<g>
			<path fill="#CAC4CE" d="M143.7,409.1c2.3,1.7,2.8,5,1.1,7.3c-1.7,2.3-5,2.8-7.3,1.1c-2.3-1.7-2.8-5-1.1-7.3
				C138.2,407.8,141.4,407.3,143.7,409.1z"/>
			<path fill="#5C0000" d="M142.2,411c1.2,0.9,1.5,2.6,0.6,3.8c-0.9,1.2-2.6,1.5-3.8,0.6c-1.2-0.9-1.5-2.6-0.6-3.8
				C139.3,410.4,141,410.1,142.2,411z"/>
			<g>
				<path fill="#FFFFFF" d="M136.8,410.5c-1.5,2-1,4.7,0.9,6.2c2,1.5,4.7,1,6.2-0.9c1.5-2,1-4.7-0.9-6.2
					C141,408.1,138.3,408.5,136.8,410.5z M143.8,415.6c-1.2,1.7-3.6,2-5.3,0.8c-1.7-1.2-2-3.6-0.8-5.3c1.2-1.7,3.6-2,5.3-0.8
					C144.7,411.5,145.1,413.9,143.8,415.6z"/>
			</g>
		</g>
		<g>
			<path fill="#CAC4CE" d="M158,412.7c2.3,1.7,2.8,5,1.1,7.3c-1.7,2.3-5,2.8-7.3,1.1c-2.3-1.7-2.8-5-1.1-7.3
				C152.5,411.5,155.7,411,158,412.7z"/>
			<path fill="#5C0000" d="M156.5,414.7c1.2,0.9,1.5,2.6,0.6,3.8c-0.9,1.2-2.6,1.5-3.8,0.6c-1.2-0.9-1.5-2.6-0.6-3.8
				C153.6,414.1,155.3,413.8,156.5,414.7z"/>
			<g>
				<path fill="#FFFFFF" d="M151.1,414.2c-1.5,2-1,4.7,0.9,6.2c2,1.5,4.7,1,6.2-0.9c1.5-2,1-4.7-0.9-6.2
					C155.3,411.8,152.6,412.2,151.1,414.2z M158.1,419.2c-1.2,1.7-3.6,2-5.3,0.8c-1.7-1.2-2-3.6-0.8-5.3c1.2-1.7,3.6-2,5.3-0.8
					C159,415.2,159.4,417.6,158.1,419.2z"/>
			</g>
		</g>
		<g>
			<path fill="#CAC4CE" d="M155.3,399.9c2.3,1.7,2.8,5,1.1,7.3c-1.7,2.3-5,2.8-7.3,1.1c-2.3-1.7-2.8-5-1.1-7.3
				C149.8,398.6,153,398.2,155.3,399.9z"/>
			<path fill="#5C0000" d="M153.9,401.9c1.2,0.9,1.5,2.6,0.6,3.8c-0.9,1.2-2.6,1.5-3.8,0.6c-1.2-0.9-1.5-2.6-0.6-3.8
				C151,401.2,152.7,401,153.9,401.9z"/>
			<g>
				<path fill="#FFFFFF" d="M148.4,401.3c-1.5,2-1,4.7,0.9,6.2c2,1.5,4.7,1,6.2-0.9c1.5-2,1-4.7-0.9-6.2
					C152.7,399,149.9,399.4,148.4,401.3z M155.4,406.4c-1.2,1.7-3.6,2-5.3,0.8c-1.7-1.2-2-3.6-0.8-5.3c1.2-1.7,3.6-2,5.3-0.8
					C156.3,402.3,156.7,404.7,155.4,406.4z"/>
			</g>
		</g>
		<g>
			<path fill="#CAC4CE" d="M169.6,403.6c2.3,1.7,2.8,5,1.1,7.3c-1.7,2.3-5,2.8-7.3,1.1c-2.3-1.7-2.8-5-1.1-7.3
				C164.1,402.3,167.3,401.9,169.6,403.6z"/>
			<path fill="#5C0000" d="M168.2,405.5c1.2,0.9,1.5,2.6,0.6,3.8c-0.9,1.2-2.6,1.5-3.8,0.6c-1.2-0.9-1.5-2.6-0.6-3.8
				C165.3,404.9,167,404.6,168.2,405.5z"/>
			<g>
				<path fill="#FFFFFF" d="M162.7,405c-1.5,2-1,4.7,0.9,6.2c2,1.5,4.7,1,6.2-0.9c1.5-2,1-4.7-0.9-6.2
					C167,402.6,164.2,403.1,162.7,405z M169.7,410.1c-1.2,1.7-3.6,2-5.3,0.8c-1.7-1.2-2-3.6-0.8-5.3s3.6-2,5.3-0.8
					C170.6,406,171,408.4,169.7,410.1z"/>
			</g>
		</g>
		<g>
			<path fill="#CAC4CE" d="M120.8,389.6c-0.3,0-0.6-0.1-0.8-0.3c-0.6-0.4-0.7-1.3-0.2-1.8l11.5-14.6l4.3-30.2
				c0.1-0.7,0.8-1.2,1.5-1.1c0.7,0.1,1.2,0.8,1.1,1.5l-4.4,30.9l-11.9,15.1C121.5,389.4,121.1,389.6,120.8,389.6z"/>
		</g>
		<path fill="#FFFFFF" d="M131.8,372.7c0,0.3,0.2,0.6,0.5,0.6l0,0c0.3,0,0.6-0.2,0.6-0.5l4.3-30.2c0-0.3-0.2-0.6-0.5-0.6l0,0
			c-0.3,0-0.6,0.2-0.6,0.5L131.8,372.7z"/>
	</g>
</g>
</svg>
