<?xml version="1.0" encoding="utf-8"?>
<!-- Generator: Adobe Illustrator 24.0.2, SVG Export Plug-In . SVG Version: 6.00 Build 0)  -->
<svg version="1.1" id="Layer_1" xmlns="http://www.w3.org/2000/svg" xmlns:xlink="http://www.w3.org/1999/xlink" x="0px" y="0px"
	 viewBox="0 0 210 504.5" enable-background="new 0 0 210 504.5" xml:space="preserve">
<g>
	<path fill="#35343A" d="M106.2,495.9c-37.9,0-66.4-15.3-78.2-42c-11.1-25.2-5.2-56.6,14.6-78.3c15.1-16.5,15.1-16.5,7.6-34.6
		c-1.2-3-2.6-6.4-4.2-10.5c-5.5-14.2-4.8-26.9,1.9-36.7c9-13.3,28.7-20.5,56.8-20.7l0.8,0l0,0.8c-0.8,13.5,3.9,21.6,8.1,25.9
		c5,5.3,11.8,8.3,18.8,8.3c5.4,0,10.2-1.9,13.1-5.2c1.9-2.2,3.8-3.3,5.5-3.3c1.5,0,2.8,0.8,3.8,2.4c3.2,4.9,3.2,17.5-2.9,31
		c-9.1,24.3-5.7,28.2,10.4,46.9l2.5,2.9c12.8,14.9,23.2,52.1,10.9,78.8C168.5,477.3,150.6,495.9,106.2,495.9z"/>
	<path fill="#4F5D82" d="M164.2,383.2c-18.4-21.4-22.8-24.6-13.1-50.6c9.5-20.9,4.1-40-5.2-29.3c-10.7,12.2-43.3,4.6-41.2-29.5
		c-55.5,0.5-69.2,27.5-58,56.5c11.2,29,14.3,26.3-3.6,45.8c-38.2,41.7-23.9,119.1,63.1,119.1C203.4,495.2,184.4,406.7,164.2,383.2z"
		/>
	<path fill="#FFFFFF" d="M114.7,313.2c0,9.3,0,91.8,0,97.3c0,5.4,33.9,0.3,33.9-7.5C148.6,351.9,114.7,296.2,114.7,313.2z"/>
	<g>
		<rect x="81" y="32.4" fill="#AFA7B4" width="3.4" height="2.1"/>
		<path fill="#CAC4CE" d="M81.8,33.5c0,0.6-3.2,4.3-7.2,4.3c-1.7,0-1.8-8.5,0-8.5C78.5,29.2,81.8,33,81.8,33.5z"/>
		<path fill="#DCD7E0" d="M80.2,32.4c0,0.4-2.5,2.9-5.7,2.9c-1.3,0-1.4-5.9,0-5.9C77.7,29.5,80.2,32.1,80.2,32.4z"/>
	</g>
	<g>
		<rect x="83.7" y="50.3" fill="#AFA7B4" width="3.4" height="2.1"/>
		<path fill="#CAC4CE" d="M84.4,51.3c0,0.6-3.2,4.3-7.2,4.3c-1.7,0-1.8-8.5,0-8.5C81.2,47.1,84.4,50.8,84.4,51.3z"/>
		<path fill="#DCD7E0" d="M82.9,50.3c0,0.4-2.5,2.9-5.7,2.9c-1.3,0-1.4-5.9,0-5.9C80.4,47.3,82.9,49.9,82.9,50.3z"/>
	</g>
	<g>
		<rect x="84.4" y="68.2" fill="#AFA7B4" width="3.4" height="2.1"/>
		<path fill="#CAC4CE" d="M85.2,69.2c0,0.6-3.2,4.3-7.2,4.3c-1.7,0-1.8-8.5,0-8.5C81.9,65,85.2,68.7,85.2,69.2z"/>
		<path fill="#DCD7E0" d="M83.6,68.2c0,0.4-2.5,2.9-5.7,2.9c-1.3,0-1.4-5.9,0-5.9C81.1,65.2,83.6,67.8,83.6,68.2z"/>
	</g>
	<g>
		<rect x="119.7" y="32.4" fill="#AFA7B4" width="3.4" height="2.1"/>
		<path fill="#CAC4CE" d="M122.4,33.5c0,0.6,3.2,4.3,7.2,4.3c1.7,0,1.8-8.5,0-8.5C125.6,29.2,122.4,33,122.4,33.5z"/>
		<path fill="#DCD7E0" d="M123.9,32.4c0,0.4,2.5,2.9,5.7,2.9c1.3,0,1.4-5.9,0-5.9C126.4,29.5,123.9,32.1,123.9,32.4z"/>
	</g>
	<g>
		<rect x="117" y="50.3" fill="#AFA7B4" width="3.4" height="2.1"/>
		<path fill="#CAC4CE" d="M119.7,51.3c0,0.6,3.2,4.3,7.2,4.3c1.7,0,1.8-8.5,0-8.5C122.9,47.1,119.7,50.8,119.7,51.3z"/>
		<path fill="#DCD7E0" d="M121.2,50.3c0,0.4,2.5,2.9,5.7,2.9c1.3,0,1.4-5.9,0-5.9C123.8,47.3,121.2,49.9,121.2,50.3z"/>
	</g>
	<g>
		<rect x="116.3" y="68.2" fill="#AFA7B4" width="3.4" height="2.1"/>
		<path fill="#CAC4CE" d="M119,69.2c0,0.6,3.2,4.3,7.2,4.3c1.7,0,1.8-8.5,0-8.5C122.2,65,119,68.7,119,69.2z"/>
		<path fill="#DCD7E0" d="M120.5,68.2c0,0.4,2.5,2.9,5.7,2.9c1.3,0,1.4-5.9,0-5.9C123,65.2,120.5,67.8,120.5,68.2z"/>
	</g>
	<path fill="#35343A" d="M93,91.4h17.8c0-15.6,7.5-17.1,7.5-19.4c0-46.1,8.8-47,1.5-47c-5.7,0-12.2-12.2-17.9-6.4
		C96.2,12.8,89.2,25,84,25c-7.6,0,2.1,1.7,2.1,47.5C86.1,75.4,93.4,75.8,93,91.4z"/>
	<g>
		<polygon fill="#35343A" points="93.2,92.9 91.5,319.3 112.2,319.3 110.6,92.9 		"/>
		<polygon fill="#CAC4CE" points="111.4,209 111.4,207.5 92.4,207.5 92.4,209 		"/>
		<polygon fill="#CAC4CE" points="111.3,198.1 111.3,196.6 92.5,196.6 92.4,198.1 		"/>
		<polygon fill="#CAC4CE" points="111.6,238.9 111.6,237.4 92.2,237.4 92.2,238.9 		"/>
		<polygon fill="#CAC4CE" points="111.5,219.7 111.4,218.2 92.3,218.2 92.3,219.7 		"/>
		<polygon fill="#CAC4CE" points="111.7,248 111.6,246.4 92.1,246.4 92.1,248 		"/>
		<polygon fill="#CAC4CE" points="111.5,229.4 111.5,227.9 92.2,227.9 92.2,229.4 		"/>
		<polygon fill="#CAC4CE" points="110.8,131 110.8,129.5 92.9,129.5 92.9,131 		"/>
		<polygon fill="#CAC4CE" points="111.2,186.5 111.2,185 92.5,185 92.5,186.5 		"/>
		<polygon fill="#CAC4CE" points="110.9,146.2 110.9,144.7 92.8,144.7 92.8,146.2 		"/>
		<polygon fill="#CAC4CE" points="110.7,115.5 110.7,114 93,114 93,115.5 		"/>
		<polygon fill="#CAC4CE" points="111,160.1 111,158.6 92.7,158.6 92.7,160.1 		"/>
		<polygon fill="#CAC4CE" points="111.1,173.6 111.1,172.1 92.6,172.1 92.6,173.6 		"/>
		<polygon fill="#CAC4CE" points="112,292.2 112,290.7 91.8,290.7 91.8,292.2 		"/>
		<polygon fill="#CAC4CE" points="112.1,313.8 112.1,312.3 91.7,312.3 91.6,313.8 		"/>
		<polygon fill="#CAC4CE" points="112,303.8 112,302.3 91.7,302.3 91.7,303.8 		"/>
		<polygon fill="#CAC4CE" points="112.1,309.1 112.1,307.5 91.7,307.5 91.7,309.1 		"/>
		<polygon fill="#CAC4CE" points="112.1,318.6 112.1,317.1 91.6,317.1 91.6,318.6 		"/>
		<polygon fill="#CAC4CE" points="110.6,97.2 110.6,95.6 93.2,95.6 93.2,97.2 		"/>
		<polygon fill="#CAC4CE" points="111.7,256.3 111.7,254.8 92.1,254.8 92,256.3 		"/>
		<polygon fill="#CAC4CE" points="111.8,264.1 111.8,262.6 92,262.6 92,264.1 		"/>
		<polygon fill="#CAC4CE" points="111.8,272.1 111.8,270.6 91.9,270.6 91.9,272.1 		"/>
		<polygon fill="#CAC4CE" points="112,298.3 112,296.8 91.8,296.8 91.8,298.3 		"/>
		<polygon fill="#CAC4CE" points="111.9,278.8 111.9,277.3 91.9,277.3 91.9,278.8 		"/>
		<polygon fill="#CAC4CE" points="111.9,286.4 111.9,284.9 91.8,284.9 91.8,286.4 		"/>
		<polygon fill="#FFFDDA" points="105.7,142.5 97.8,142.5 95.4,135.1 108.1,135.1 		"/>
		<polygon fill="#FFFDDA" points="105.7,169.9 97.8,169.9 95.4,163.8 108.1,163.8 		"/>
		<polygon fill="#FFFDDA" points="105.9,195.2 108.1,189.6 95.4,189.6 97.6,195.2 		"/>
		<polygon fill="#FFFDDA" points="106.1,217 108.1,212 95.4,212 97.3,217 		"/>
		<polygon fill="#FFFDDA" points="106.6,245 108.1,241.3 95.4,241.3 96.8,245 		"/>
		<polygon fill="#FFFDDA" points="107.1,268.6 108.1,266 95.4,266 96.4,268.6 		"/>
		<polygon fill="#FFFDDA" points="107.1,283.4 108.1,280.7 95.4,280.7 96.4,283.4 		"/>
		<polygon fill="#FFFDDA" points="107.1,296.1 108.1,293.5 95.4,293.5 96.4,296.1 		"/>
		<polygon fill="#FFFDDA" points="107.1,307 108.1,304.4 95.4,304.4 96.4,307 		"/>
	</g>
	<g>
		<path fill="#35343A" d="M124.8,403.4c0,1.6-1.3,2.9-2.9,2.9h-39c-1.6,0-2.9-1.3-2.9-2.9l0,0c0-1.6,1.3-2.9,2.9-2.9h39
			C123.5,400.5,124.8,401.8,124.8,403.4L124.8,403.4z"/>
	</g>
	<path fill="#35343A" d="M128.5,419.9c0,2.6-2.1,4.7-4.7,4.7h-43c-2.6,0-4.7-2.1-4.7-4.7v0c0-2.6,2.1-4.7,4.7-4.7h43
		C126.3,415.2,128.5,417.3,128.5,419.9L128.5,419.9z"/>
	<path fill="#CAC4CE" d="M125.5,417.1c0,0.7-0.5,1.2-1.2,1.2H80.1c-0.7,0-1.2-0.5-1.2-1.2l0,0c0-0.7,0.5-1.2,1.2-1.2h44.2
		C124.9,415.9,125.5,416.4,125.5,417.1L125.5,417.1z"/>
	<g>
		<path fill="#EEECDD" d="M124.8,340.2c0,0.8-0.7,1.5-1.5,1.5H81.5c-0.8,0-1.5-0.7-1.5-1.5v-19.4c0-0.8,0.7-1.5,1.5-1.5h41.8
			c0.8,0,1.5,0.7,1.5,1.5V340.2z"/>
		<path fill="#35343A" d="M119.9,339.4c0,0.8-0.5,1.4-1.2,1.4H86.1c-0.7,0-1.2-0.6-1.2-1.4v-17.8c0-0.8,0.5-1.4,1.2-1.4h32.6
			c0.7,0,1.2,0.6,1.2,1.4V339.4z"/>
		<g>
			<path fill="#FFFDDA" d="M95,325.7c0-0.7-0.5-1.2-1.2-1.2c-0.7,0-1.2,0.5-1.2,1.2c0,0.7,0.5,1.2,1.2,1.2
				C94.4,326.9,95,326.4,95,325.7z"/>
			<path fill="#FFFDDA" d="M98.3,325.7c0-0.7-0.5-1.2-1.2-1.2c-0.7,0-1.2,0.5-1.2,1.2c0,0.7,0.5,1.2,1.2,1.2
				C97.8,326.9,98.3,326.4,98.3,325.7z"/>
			<path fill="#FFFDDA" d="M101.7,325.7c0-0.7-0.5-1.2-1.2-1.2s-1.2,0.5-1.2,1.2c0,0.7,0.5,1.2,1.2,1.2S101.7,326.4,101.7,325.7z"/>
			<path fill="#FFFDDA" d="M105,325.7c0-0.7-0.5-1.2-1.2-1.2c-0.7,0-1.2,0.5-1.2,1.2c0,0.7,0.5,1.2,1.2,1.2
				C104.5,326.9,105,326.4,105,325.7z"/>
			<path fill="#FFFDDA" d="M108.3,325.7c0-0.7-0.5-1.2-1.2-1.2c-0.7,0-1.2,0.5-1.2,1.2c0,0.7,0.5,1.2,1.2,1.2
				C107.8,326.9,108.3,326.4,108.3,325.7z"/>
			<path fill="#FFFDDA" d="M111.7,325.7c0-0.7-0.5-1.2-1.2-1.2c-0.7,0-1.2,0.5-1.2,1.2c0,0.7,0.5,1.2,1.2,1.2
				C111.1,326.9,111.7,326.4,111.7,325.7z"/>
		</g>
		<g>
			<path fill="#FFFDDA" d="M95,335.3c0-0.7-0.5-1.2-1.2-1.2c-0.7,0-1.2,0.5-1.2,1.2c0,0.7,0.5,1.2,1.2,1.2
				C94.4,336.6,95,336,95,335.3z"/>
			<path fill="#FFFDDA" d="M98.3,335.3c0-0.7-0.5-1.2-1.2-1.2c-0.7,0-1.2,0.5-1.2,1.2c0,0.7,0.5,1.2,1.2,1.2
				C97.8,336.6,98.3,336,98.3,335.3z"/>
			<path fill="#FFFDDA" d="M101.7,335.3c0-0.7-0.5-1.2-1.2-1.2s-1.2,0.5-1.2,1.2c0,0.7,0.5,1.2,1.2,1.2S101.7,336,101.7,335.3z"/>
			<path fill="#FFFDDA" d="M105,335.3c0-0.7-0.5-1.2-1.2-1.2c-0.7,0-1.2,0.5-1.2,1.2c0,0.7,0.5,1.2,1.2,1.2
				C104.5,336.6,105,336,105,335.3z"/>
			<path fill="#FFFDDA" d="M108.3,335.3c0-0.7-0.5-1.2-1.2-1.2c-0.7,0-1.2,0.5-1.2,1.2c0,0.7,0.5,1.2,1.2,1.2
				C107.8,336.6,108.3,336,108.3,335.3z"/>
			<path fill="#FFFDDA" d="M111.7,335.3c0-0.7-0.5-1.2-1.2-1.2c-0.7,0-1.2,0.5-1.2,1.2c0,0.7,0.5,1.2,1.2,1.2
				C111.1,336.6,111.7,336,111.7,335.3z"/>
		</g>
		<g>
			<circle fill="#35343A" cx="82.5" cy="321.7" r="1.2"/>
			<circle fill="#35343A" cx="82.5" cy="330.5" r="1.2"/>
			<circle fill="#35343A" cx="82.5" cy="339.2" r="1.2"/>
		</g>
		<g>
			<circle fill="#35343A" cx="122.4" cy="321.7" r="1.2"/>
			<circle fill="#35343A" cx="122.4" cy="330.5" r="1.2"/>
			<circle fill="#35343A" cx="122.4" cy="339.2" r="1.2"/>
		</g>
	</g>
	<g>
		<path fill="#EEECDD" d="M124.8,397.5c0,0.8-0.7,1.5-1.5,1.5H81.5c-0.8,0-1.5-0.7-1.5-1.5v-19.4c0-0.8,0.7-1.5,1.5-1.5h41.8
			c0.8,0,1.5,0.7,1.5,1.5V397.5z"/>
		<path fill="#35343A" d="M119.9,396.7c0,0.8-0.5,1.4-1.2,1.4H86.1c-0.7,0-1.2-0.6-1.2-1.4V379c0-0.8,0.5-1.4,1.2-1.4h32.6
			c0.7,0,1.2,0.6,1.2,1.4V396.7z"/>
		<g>
			<path fill="#FFFDDA" d="M95,383.1c0-0.7-0.5-1.2-1.2-1.2c-0.7,0-1.2,0.5-1.2,1.2c0,0.7,0.5,1.2,1.2,1.2
				C94.4,384.3,95,383.7,95,383.1z"/>
			<path fill="#FFFDDA" d="M98.3,383.1c0-0.7-0.5-1.2-1.2-1.2c-0.7,0-1.2,0.5-1.2,1.2c0,0.7,0.5,1.2,1.2,1.2
				C97.8,384.3,98.3,383.7,98.3,383.1z"/>
			<path fill="#FFFDDA" d="M101.7,383.1c0-0.7-0.5-1.2-1.2-1.2s-1.2,0.5-1.2,1.2c0,0.7,0.5,1.2,1.2,1.2S101.7,383.7,101.7,383.1z"/>
			<path fill="#FFFDDA" d="M105,383.1c0-0.7-0.5-1.2-1.2-1.2c-0.7,0-1.2,0.5-1.2,1.2c0,0.7,0.5,1.2,1.2,1.2
				C104.5,384.3,105,383.7,105,383.1z"/>
			<path fill="#FFFDDA" d="M108.3,383.1c0-0.7-0.5-1.2-1.2-1.2c-0.7,0-1.2,0.5-1.2,1.2c0,0.7,0.5,1.2,1.2,1.2
				C107.8,384.3,108.3,383.7,108.3,383.1z"/>
			<path fill="#FFFDDA" d="M111.7,383.1c0-0.7-0.5-1.2-1.2-1.2c-0.7,0-1.2,0.5-1.2,1.2c0,0.7,0.5,1.2,1.2,1.2
				C111.1,384.3,111.7,383.7,111.7,383.1z"/>
		</g>
		<g>
			<path fill="#FFFDDA" d="M95,392.7c0-0.7-0.5-1.2-1.2-1.2c-0.7,0-1.2,0.5-1.2,1.2s0.5,1.2,1.2,1.2C94.4,393.9,95,393.4,95,392.7z"
				/>
			<path fill="#FFFDDA" d="M98.3,392.7c0-0.7-0.5-1.2-1.2-1.2c-0.7,0-1.2,0.5-1.2,1.2s0.5,1.2,1.2,1.2
				C97.8,393.9,98.3,393.4,98.3,392.7z"/>
			<path fill="#FFFDDA" d="M101.7,392.7c0-0.7-0.5-1.2-1.2-1.2s-1.2,0.5-1.2,1.2s0.5,1.2,1.2,1.2S101.7,393.4,101.7,392.7z"/>
			<path fill="#FFFDDA" d="M105,392.7c0-0.7-0.5-1.2-1.2-1.2c-0.7,0-1.2,0.5-1.2,1.2s0.5,1.2,1.2,1.2
				C104.5,393.9,105,393.4,105,392.7z"/>
			<path fill="#FFFDDA" d="M108.3,392.7c0-0.7-0.5-1.2-1.2-1.2c-0.7,0-1.2,0.5-1.2,1.2s0.5,1.2,1.2,1.2
				C107.8,393.9,108.3,393.4,108.3,392.7z"/>
			<path fill="#FFFDDA" d="M111.7,392.7c0-0.7-0.5-1.2-1.2-1.2c-0.7,0-1.2,0.5-1.2,1.2s0.5,1.2,1.2,1.2
				C111.1,393.9,111.7,393.4,111.7,392.7z"/>
		</g>
		<g>
			<circle fill="#FFFDDA" cx="93.8" cy="403.4" r="1.2"/>
			<path fill="#FFFDDA" d="M98.3,403.4c0-0.7-0.5-1.2-1.2-1.2c-0.7,0-1.2,0.5-1.2,1.2c0,0.7,0.5,1.2,1.2,1.2
				C97.8,404.6,98.3,404,98.3,403.4z"/>
			<path fill="#FFFDDA" d="M101.7,403.4c0-0.7-0.5-1.2-1.2-1.2s-1.2,0.5-1.2,1.2c0,0.7,0.5,1.2,1.2,1.2S101.7,404,101.7,403.4z"/>
			<path fill="#FFFDDA" d="M105,403.4c0-0.7-0.5-1.2-1.2-1.2c-0.7,0-1.2,0.5-1.2,1.2c0,0.7,0.5,1.2,1.2,1.2
				C104.5,404.6,105,404,105,403.4z"/>
			<path fill="#FFFDDA" d="M108.3,403.4c0-0.7-0.5-1.2-1.2-1.2c-0.7,0-1.2,0.5-1.2,1.2c0,0.7,0.5,1.2,1.2,1.2
				C107.8,404.6,108.3,404,108.3,403.4z"/>
			<circle fill="#FFFDDA" cx="110.5" cy="403.4" r="1.2"/>
		</g>
		<g>
			<circle fill="#35343A" cx="82.5" cy="379.1" r="1.2"/>
			<circle fill="#35343A" cx="82.5" cy="387.8" r="1.2"/>
			<circle fill="#35343A" cx="82.5" cy="396.6" r="1.2"/>
		</g>
		<g>
			<circle fill="#35343A" cx="122.4" cy="379.1" r="1.2"/>
			<circle fill="#35343A" cx="122.4" cy="387.8" r="1.2"/>
			<circle fill="#35343A" cx="122.4" cy="396.6" r="1.2"/>
		</g>
	</g>
	<rect x="92.9" y="90" fill="#5B5B5B" width="18" height="5.3"/>
	<polygon fill="#FFFFFF" points="94.8,70 94.1,422.1 93.1,422.1 93.9,68.8 	"/>
	<polygon fill="#FFFFFF" points="97,51.2 96.5,422.1 97.5,422.1 97.9,51.2 	"/>
	<polygon fill="#FFFFFF" points="100.1,33.3 99.9,422.1 100.7,422.1 100.8,33.3 	"/>
	<polygon fill="#FFFFFF" points="103.2,33.5 103.5,422.1 104.2,422.1 103.9,33.5 	"/>
	<path fill="#FFFFFF" d="M106.7,51.2c-0.1,0-0.2,0-0.3,0l0.5,370.9h0.6l-0.6-370.9C106.9,51.2,106.8,51.2,106.7,51.2z"/>
	<path fill="#FFFFFF" d="M109.6,70l0.9,352.1h0.4L110,70C109.8,70,109.7,70,109.6,70z"/>
	<g>
		<path fill="#FFFFFF" d="M111.9,72.2c-1.3,0-2.3-1-2.3-2.3c0-0.6,0.2-1.2,0.6-1.7c0.4-0.4,1-0.7,1.6-0.7l0,0c1.3,0,2.3,1,2.4,2.3
			c0,0.6-0.2,1.2-0.6,1.7C113.1,71.9,112.5,72.2,111.9,72.2L111.9,72.2z"/>
		<path fill="#CAC4CE" d="M113.8,69.8c0,1.1-0.8,2-1.9,2c-1.1,0-2-0.8-2-1.9c0-1.1,0.8-2,1.9-2C112.9,67.9,113.8,68.8,113.8,69.8z"
			/>
		<path fill="#FFFFFF" d="M105.9,36c-1.4,0-2.6-1.2-2.7-2.6c0-0.7,0.3-1.4,0.7-1.9c0.5-0.5,1.2-0.8,1.9-0.8c0,0,0,0,0,0
			c1.5,0,2.7,1.2,2.7,2.6c0,0.7-0.3,1.4-0.7,1.9C107.3,35.7,106.6,36,105.9,36L105.9,36z"/>
		<path fill="#CAC4CE" d="M107.8,33.3c0,1.1-0.8,2-1.9,2c-1.1,0-2-0.8-2-1.9c0-1.1,0.8-2,1.9-2C106.9,31.4,107.8,32.2,107.8,33.3z"
			/>
	</g>
	<g>
		<rect x="92.8" y="416.4" fill="#5C0000" width="1.6" height="3.2"/>
		<path fill="#801414" d="M92.2,418.7v3.1c0,0.8,0.6,1.4,1.4,1.4c0.8,0,1.4-0.6,1.4-1.4v-3.1H92.2z"/>
	</g>
	<g>
		<rect x="96.2" y="416.4" fill="#5C0000" width="1.6" height="3.2"/>
		<path fill="#801414" d="M95.6,418.7v3.1c0,0.8,0.6,1.4,1.4,1.4s1.4-0.6,1.4-1.4v-3.1H95.6z"/>
	</g>
	<g>
		<rect x="99.6" y="416.4" fill="#5C0000" width="1.6" height="3.2"/>
		<path fill="#801414" d="M99,418.7v3.1c0,0.8,0.6,1.4,1.4,1.4s1.4-0.6,1.4-1.4v-3.1H99z"/>
	</g>
	<g>
		<rect x="103" y="416.4" fill="#5C0000" width="1.6" height="3.2"/>
		<path fill="#801414" d="M102.4,418.7v3.1c0,0.8,0.6,1.4,1.4,1.4s1.4-0.6,1.4-1.4v-3.1H102.4z"/>
	</g>
	<g>
		<rect x="106.4" y="416.4" fill="#5C0000" width="1.6" height="3.2"/>
		<path fill="#801414" d="M105.8,418.7v3.1c0,0.8,0.6,1.4,1.4,1.4s1.4-0.6,1.4-1.4v-3.1H105.8z"/>
	</g>
	<g>
		<rect x="109.8" y="416.4" fill="#5C0000" width="1.6" height="3.2"/>
		<path fill="#801414" d="M109.2,418.7v3.1c0,0.8,0.6,1.4,1.4,1.4c0.8,0,1.4-0.6,1.4-1.4v-3.1H109.2z"/>
	</g>
	<path fill="#AD3131" d="M92.8,418.7v2.7c0,0.7,0.3,1.2,0.6,1.2c0.3,0,0.6-0.5,0.6-1.2v-2.7H92.8z"/>
	<path fill="#AD3131" d="M96.1,418.7v2.7c0,0.7,0.3,1.2,0.6,1.2c0.3,0,0.6-0.5,0.6-1.2v-2.7H96.1z"/>
	<path fill="#AD3131" d="M99.5,418.7v2.7c0,0.7,0.3,1.2,0.6,1.2c0.3,0,0.6-0.5,0.6-1.2v-2.7H99.5z"/>
	<path fill="#AD3131" d="M102.9,418.7v2.7c0,0.7,0.3,1.2,0.6,1.2c0.3,0,0.6-0.5,0.6-1.2v-2.7H102.9z"/>
	<path fill="#AD3131" d="M106.3,418.7v2.7c0,0.7,0.3,1.2,0.6,1.2s0.6-0.5,0.6-1.2v-2.7H106.3z"/>
	<path fill="#AD3131" d="M109.7,418.7v2.7c0,0.7,0.3,1.2,0.6,1.2c0.3,0,0.6-0.5,0.6-1.2v-2.7H109.7z"/>
	<g>
		<path fill="#CAC4CE" d="M164.2,409.1c0,3.3-2.7,6.1-6.1,6.1c-3.3,0-6.1-2.7-6.1-6.1c0-3.3,2.7-6.1,6.1-6.1
			C161.5,403,164.2,405.7,164.2,409.1z"/>
		<path fill="#5C0000" d="M161.4,409.1c0,1.8-1.4,3.2-3.2,3.2c-1.8,0-3.2-1.4-3.2-3.2c0-1.8,1.4-3.2,3.2-3.2
			C159.9,405.9,161.4,407.3,161.4,409.1z"/>
		<g>
			<path fill="#FFFFFF" d="M158.1,403.6c-2.9,0-5.2,2.3-5.2,5.2s2.3,5.2,5.2,5.2c2.9,0,5.2-2.3,5.2-5.2S160.9,403.6,158.1,403.6z
				 M158.2,413.7c-2.4,0-4.4-2-4.4-4.4c0-2.4,2-4.4,4.4-4.4c2.4,0,4.4,2,4.4,4.4C162.6,411.7,160.7,413.7,158.2,413.7z"/>
		</g>
	</g>
	<path fill="#FFFFFF" d="M111.4,51.3c0,1.4-1.1,2.5-2.5,2.6c-1.4,0-2.5-1.1-2.6-2.5c0-1.4,1.1-2.5,2.5-2.6
		C110.3,48.8,111.4,49.9,111.4,51.3z"/>
	<g>
		<path fill="#CAC4CE" d="M164.2,440.2c0,3.3-2.7,6.1-6.1,6.1c-3.3,0-6.1-2.7-6.1-6.1c0-3.3,2.7-6.1,6.1-6.1
			C161.5,434.1,164.2,436.8,164.2,440.2z"/>
		<path fill="#5C0000" d="M161.4,440.2c0,1.8-1.4,3.2-3.2,3.2c-1.8,0-3.2-1.4-3.2-3.2c0-1.8,1.4-3.2,3.2-3.2
			C159.9,437,161.4,438.4,161.4,440.2z"/>
		<g>
			<path fill="#FFFFFF" d="M158.1,434.7c-2.9,0-5.2,2.3-5.2,5.2s2.3,5.2,5.2,5.2c2.9,0,5.2-2.3,5.2-5.2S160.9,434.7,158.1,434.7z
				 M158.2,444.8c-2.4,0-4.4-2-4.4-4.4c0-2.4,2-4.4,4.4-4.4c2.4,0,4.4,2,4.4,4.4C162.6,442.8,160.7,444.8,158.2,444.8z"/>
		</g>
	</g>
	<g>
		<path fill="#FFFDDA" d="M63.6,317.3c-6,0-10.8-4.8-10.8-10.8c0-6,4.8-10.8,10.8-10.8s10.8,4.8,10.8,10.8
			C74.4,312.5,69.5,317.3,63.6,317.3z"/>
		<path fill="#CAC4CE" d="M69.6,306.5c0,3.3-2.7,6.1-6.1,6.1c-3.3,0-6.1-2.7-6.1-6.1c0-3.3,2.7-6.1,6.1-6.1
			C66.9,300.5,69.6,303.2,69.6,306.5z"/>
		<path fill="#5C0000" d="M66.7,306.5c0,1.8-1.4,3.2-3.2,3.2c-1.8,0-3.2-1.4-3.2-3.2c0-1.8,1.4-3.2,3.2-3.2
			C65.3,303.4,66.7,304.8,66.7,306.5z"/>
		<g>
			<path fill="#FFFFFF" d="M63.4,301.1c-2.9,0-5.2,2.3-5.2,5.2s2.3,5.2,5.2,5.2c2.9,0,5.2-2.3,5.2-5.2S66.3,301.1,63.4,301.1z
				 M63.6,311.2c-2.4,0-4.4-2-4.4-4.4c0-2.4,2-4.4,4.4-4.4c2.4,0,4.4,2,4.4,4.4C68,309.2,66,311.2,63.6,311.2z"/>
		</g>
	</g>
	<g>
		<path fill="#CAC4CE" d="M145.7,427.6c0,3.3-2.7,6.1-6.1,6.1c-3.3,0-6.1-2.7-6.1-6.1c0-3.3,2.7-6.1,6.1-6.1
			C143,421.5,145.7,424.2,145.7,427.6z"/>
		<path fill="#5C0000" d="M142.9,427.6c0,1.8-1.4,3.2-3.2,3.2c-1.8,0-3.2-1.4-3.2-3.2c0-1.8,1.4-3.2,3.2-3.2
			C141.4,424.4,142.9,425.8,142.9,427.6z"/>
		<g>
			<path fill="#FFFFFF" d="M139.6,422.1c-2.9,0-5.2,2.3-5.2,5.2c0,2.9,2.3,5.2,5.2,5.2c2.9,0,5.2-2.3,5.2-5.2
				C144.7,424.4,142.4,422.1,139.6,422.1z M139.7,432.2c-2.4,0-4.4-2-4.4-4.4c0-2.4,2-4.4,4.4-4.4s4.4,2,4.4,4.4
				C144.1,430.2,142.2,432.2,139.7,432.2z"/>
		</g>
	</g>
	<g>
		<path fill="#CAC4CE" d="M145.7,458.7c0,3.3-2.7,6.1-6.1,6.1c-3.3,0-6.1-2.7-6.1-6.1c0-3.3,2.7-6.1,6.1-6.1
			C143,452.6,145.7,455.3,145.7,458.7z"/>
		<path fill="#5C0000" d="M142.9,458.7c0,1.8-1.4,3.2-3.2,3.2c-1.8,0-3.2-1.4-3.2-3.2c0-1.8,1.4-3.2,3.2-3.2
			C141.4,455.5,142.9,456.9,142.9,458.7z"/>
		<g>
			<path fill="#FFFFFF" d="M139.6,453.2c-2.9,0-5.2,2.3-5.2,5.2s2.3,5.2,5.2,5.2c2.9,0,5.2-2.3,5.2-5.2S142.4,453.2,139.6,453.2z
				 M139.7,463.3c-2.4,0-4.4-2-4.4-4.4c0-2.4,2-4.4,4.4-4.4s4.4,2,4.4,4.4C144.1,461.3,142.2,463.3,139.7,463.3z"/>
		</g>
	</g>
	<path fill="#CAC4CE" d="M124.5,423.8c0,0.2-0.1,0.3-0.3,0.3H80c-0.2,0-0.3-0.1-0.3-0.3l0,0c0-0.2,0.1-0.3,0.3-0.3h44.2
		C124.4,423.5,124.5,423.7,124.5,423.8L124.5,423.8z"/>
	<circle fill="#CAC4CE" cx="82.7" cy="403.3" r="1.2"/>
	<circle fill="#CAC4CE" cx="122.3" cy="403.3" r="1.2"/>
	<path fill="#FFFFFF" d="M94.9,69.8c0,1.6-1.2,2.9-2.8,2.9c-1.6,0-2.9-1.2-2.9-2.8c0-1.6,1.2-2.9,2.8-2.9
		C93.5,67,94.8,68.2,94.9,69.8z"/>
	<path fill="#CAC4CE" d="M110.9,51.3c0,1.1-0.8,2-1.9,2c-1.1,0-2-0.8-2-1.9c0-1.1,0.8-2,1.9-2C110,49.3,110.9,50.2,110.9,51.3z"/>
	<path fill="#CAC4CE" d="M94,69.8c0,1.1-0.8,2-1.9,2c-1.1,0-2-0.8-2-1.9c0-1.1,0.8-2,1.9-2C93.1,67.9,94,68.8,94,69.8z"/>
	<path fill="#FFFFFF" d="M98,51.3c0,1.6-1.3,2.9-2.9,3c-1.6,0-2.9-1.3-3-2.9c0-1.6,1.3-2.9,2.9-3C96.6,48.4,97.9,49.7,98,51.3z"/>
	<path fill="#CAC4CE" d="M97,51.3c0,1.1-0.8,2-1.9,2c-1.1,0-2-0.8-2-1.9c0-1.1,0.8-2,1.9-2C96.1,49.3,97,50.2,97,51.3z"/>
	<path fill="#FFFFFF" d="M100.8,33.3c0,1.5-1.2,2.7-2.6,2.8c-1.5,0-2.7-1.2-2.8-2.6c0-1.5,1.2-2.7,2.6-2.8
		C99.6,30.6,100.8,31.8,100.8,33.3z"/>
	<path fill="#CAC4CE" d="M100.1,33.3c0,1.1-0.8,2-1.9,2c-1.1,0-2-0.8-2-1.9c0-1.1,0.8-2,1.9-2C99.2,31.4,100.1,32.2,100.1,33.3z"/>
</g>
</svg>
