<?xml version="1.0" encoding="utf-8"?>
<!-- Generator: Adobe Illustrator 24.0.2, SVG Export Plug-In . SVG Version: 6.00 Build 0)  -->
<svg version="1.1" id="Layer_1" xmlns="http://www.w3.org/2000/svg" xmlns:xlink="http://www.w3.org/1999/xlink" x="0px" y="0px"
	 viewBox="0 0 210 511.3" enable-background="new 0 0 210 511.3" xml:space="preserve">
<g>
	<g>
		<path fill="#B41A36" d="M115.2,244.9c-27.8,77.6-102.1,260.6-97,262.3c5.1,1.7,111.6-89.2,116.4-89.4c6.8-0.2,54.8,59,57.4,54
			c2.5-5.1-53.9-186.6-61.6-211.4C123.2,237.2,115.2,244.9,115.2,244.9z"/>
		<path fill="#9B102E" d="M31.6,487.5c16.3-42.5,77.8-197.2,88.5-226.2c0.2,0.7,48.4,148.6,59.7,190.2c-12.5-13.6-39.6-44-45-43.7
			l-0.4,0C129.4,407.9,44.9,477.1,31.6,487.5z"/>
		<path fill="#B41A36" d="M51.3,460.3c24.3-72.6,59.1-177.7,69.6-207.8c0,0,33,135.3,41.8,168.9c0,0-24.7-22.2-27.2-22.1
			C132.4,399.3,62.4,451.3,51.3,460.3z"/>
		<path fill="#5C0000" d="M138.8,325.2c7.6,35.2,15.5,71.6,19.5,88.9c0,0-21.5-19.6-23.8-19.6c-2.9,0-42.8,30.8-76.9,57.4
			c7-23.9,15.7-53.8,24.4-83.6c-10.5,31.5-21.4,64.2-30.8,92.2c11.1-9.1,81.3-61.1,84.3-61.2c2.5,0,27.2,22.2,27.2,22.2
			C158.4,404.8,148.1,363,138.8,325.2z"/>
	</g>
	<g>
		<g>
			<g>
				
					<rect x="102.6" y="66.6" transform="matrix(0.5043 -0.8635 0.8635 0.5043 -7.8012 123.256)" fill="#AFA7B4" width="1.8" height="3.6"/>
				<path fill="#8D8791" d="M103.8,69.6c0,0,0.1-0.1,0.1-0.1c0.3-0.5,0.4-1.1,0.4-1.6l-2-1.1l-0.9,1.5L103.8,69.6z"/>
				<path fill="#CAC4CE" d="M104.3,67c0,1.7-1.3,3.1-3,3.2c-1.7,0-3.1-1.3-3.2-3c0-1.7,1.3-3.1,3-3.2
					C102.8,63.9,104.3,65.3,104.3,67z"/>
				<path fill="#DCD7E0" d="M103.5,65.9c0,1-1.1,1.3-2.4,1.4c-1.3,0-2.4-0.3-2.5-1.3c0-1,1.1-1.9,2.4-1.9
					C102.4,64.1,103.5,64.9,103.5,65.9z"/>
			</g>
			<g>
				
					<rect x="106.8" y="59.6" transform="matrix(0.5045 -0.8634 0.8634 0.5045 0.3504 123.3896)" fill="#AFA7B4" width="1.8" height="3.6"/>
				<path fill="#8D8791" d="M108,62.6c0,0,0.1-0.1,0.1-0.1c0.3-0.5,0.4-1.1,0.4-1.6l-2-1.1l-0.9,1.5L108,62.6z"/>
				<path fill="#CAC4CE" d="M108.5,60c0,1.7-1.3,3.1-3,3.2c-1.7,0-3.1-1.3-3.2-3c0-1.7,1.3-3.1,3-3.2
					C107.1,56.9,108.5,58.3,108.5,60z"/>
				<path fill="#DCD7E0" d="M107.7,58.9c0,1-1.1,1.3-2.4,1.4c-1.3,0-2.4-0.3-2.5-1.3c0-1,1.1-1.9,2.4-1.9
					C106.6,57.1,107.7,57.9,107.7,58.9z"/>
			</g>
			<g>
				
					<rect x="111" y="52.6" transform="matrix(0.5043 -0.8635 0.8635 0.5043 8.5173 123.5499)" fill="#AFA7B4" width="1.8" height="3.6"/>
				<path fill="#8D8791" d="M112.2,55.6c0,0,0.1-0.1,0.1-0.1c0.3-0.5,0.4-1.1,0.4-1.6l-2-1.1l-0.9,1.5L112.2,55.6z"/>
				<path fill="#CAC4CE" d="M112.7,52.9c0,1.7-1.3,3.1-3,3.2c-1.7,0-3.1-1.3-3.2-3c0-1.1,0.6-3.1,3-3.2
					C111.3,49.9,112.7,51.2,112.7,52.9z"/>
				<path fill="#DCD7E0" d="M112,51.8c0,1-1.1,1.3-2.4,1.4c-1.3,0-2.4-0.3-2.5-1.3c0-1,1.1-1.9,2.4-1.9
					C110.8,50,111.9,50.8,112,51.8z"/>
			</g>
			<g>
				
					<rect x="115.2" y="45.5" transform="matrix(0.5043 -0.8635 0.8635 0.5043 16.6765 123.697)" fill="#AFA7B4" width="1.8" height="3.6"/>
				<path fill="#8D8791" d="M116.4,48.5c0,0,0.1-0.1,0.1-0.1c0.3-0.5,0.4-1.1,0.4-1.6l-2-1.1l-0.9,1.5L116.4,48.5z"/>
				<path fill="#CAC4CE" d="M116.9,45.9c0,1.7-1.3,3.1-3,3.2c-1.7,0-3.1-1.3-3.2-3c0-1.7,1.3-3.1,3-3.2
					C115.5,42.8,116.9,44.2,116.9,45.9z"/>
				<path fill="#DCD7E0" d="M116.2,44.8c0,1-1.1,1.3-2.4,1.4c-1.3,0-2.4-0.3-2.5-1.3c0-1,1.1-1.9,2.4-1.9
					C115,43,116.1,43.8,116.2,44.8z"/>
			</g>
			<g>
				
					<rect x="119.4" y="38.5" transform="matrix(0.5043 -0.8635 0.8635 0.5043 24.8357 123.8441)" fill="#AFA7B4" width="1.8" height="3.6"/>
				<path fill="#8D8791" d="M120.6,41.5c0,0,0.1-0.1,0.1-0.1c0.3-0.5,0.4-1.1,0.4-1.6l-2-1.1l-0.9,1.5L120.6,41.5z"/>
				<path fill="#CAC4CE" d="M121.1,38.9c0,1.7-1.3,3.1-3,3.2c-1.7,0-3.1-1.3-3.2-3c0-1.7,1.3-3.1,3-3.2
					C119.7,35.8,121.1,37.2,121.1,38.9z"/>
				<path fill="#DCD7E0" d="M120.4,37.8c0,1-1.1,1.3-2.4,1.4c-1.3,0-2.4-0.3-2.5-1.3c0-1,1.1-1.9,2.4-1.9
					C119.2,36,120.3,36.8,120.4,37.8z"/>
			</g>
			<g>
				
					<rect x="123.6" y="31.5" transform="matrix(0.5044 -0.8635 0.8635 0.5044 32.9888 123.9849)" fill="#AFA7B4" width="1.8" height="3.6"/>
				<path fill="#8D8791" d="M124.8,34.5c0,0,0.1-0.1,0.1-0.1c0.3-0.5,0.4-1.1,0.4-1.6l-2-1.1l-0.9,1.5L124.8,34.5z"/>
				<path fill="#CAC4CE" d="M125.3,31.8c0,1.7-1.3,3.1-3,3.2c-1.7,0-3.1-1.3-3.2-3c0-1.7,1.3-3.1,3-3.2S125.3,30.1,125.3,31.8z"/>
				<path fill="#DCD7E0" d="M124.6,30.7c0,1-1.1,1.3-2.4,1.4c-1.3,0-2.4-0.3-2.5-1.3c0-1,1.1-1.9,2.4-1.9
					C123.4,28.9,124.6,29.7,124.6,30.7z"/>
			</g>
			<path fill="#B41A36" d="M110.6,91.2c0-4.8-15.4-6.4-13.3-10c19.1-33.2,29.8-50.1,39.9-66.7c3-4.9,3.6,7.3,0.5,25.4
				c-3.1,18-8.5,39.2-8.5,51.4C129.2,96,110.6,95.9,110.6,91.2z"/>
		</g>
	</g>
	<g>
		<polygon fill="#898989" points="110.5,93.2 108.8,307.4 130.9,307.4 129.1,93.2 		"/>
		<g>
			<path fill="#CAC4CE" d="M130.4,240.8l0,2.2h-21.1l0-2.2H130.4z M109.1,273.6l0,2.2h21.6l0-2.2H109.1z M109.2,261.3l0,2.2h21.4
				l0-2.2H109.2z M109.1,268.3l0,2.2h21.5l0-2.2H109.1z M109.2,255.3l0,2.2h21.3l0-2.2H109.2z M109,279.2l0,2.2h21.7l0-2.2H109z
				 M109.3,248l0,2.2h21.2l0-2.2H109.3z M108.9,297.6l0,2.2h22l0-2.2H108.9z M108.8,307.4h22.1l0-1.4h-22.1L108.8,307.4z
				 M108.9,293.3l0,2.2h21.9l0-2.2H108.9z M109,284.1l0,2.2h21.8l0-2.2H109z M108.9,288.9l0,2.2h21.8l0-2.2H108.9z M108.8,301.8
				l0,2.2h22.1l0-2.2H108.8z M110.2,140.5l0,2.2h19.4l0-2.2H110.2z M110.1,153.2l0,2.2h19.6l0-2.2H110.1z M110.3,126.7l0,2.2h19.2
				l0-2.2H110.3z M109.4,233.2l0,2.2h20.9l0-2.2H109.4z M110.4,112.6l0,2.2h19l0-2.2H110.4z M110,165.5l0,2.2h19.8l0-2.2H110z
				 M110.5,95.8l0,2.2h18.7l0-2.2H110.5z M109.9,177.3l0,2.2h20l0-2.2H109.9z M109.6,207.5l0,2.2h20.5l0-2.2H109.6z M109.5,225
				l0,2.2h20.8l0-2.2H109.5z M109.5,216.3l0,2.2h20.7l0-2.2H109.5z M109.8,187.8l0,2.2h20.2l0-2.2H109.8z M109.7,197.7l0,2.2H130
				l0-2.2H109.7z"/>
		</g>
	</g>
	<path fill="#801414" d="M141.9,370c0,1.5-1.3,2.8-2.8,2.8h-38.6c-1.5,0-2.8-1.3-2.8-2.8v-14.1c0-1.5,1.3-2.8,2.8-2.8h38.6
		c1.5,0,2.8,1.3,2.8,2.8V370z"/>
	<path fill="#801414" d="M131.8,333.4h-24c-1.5,0-2.8,1.3-2.8,2.8v9.6c0,1.5,1.3,2.8,2.8,2.8h24c1.5,0,2.8-1.3,2.8-2.8v-9.6
		C134.6,334.6,133.4,333.4,131.8,333.4z M132.1,345.8c0,0.2-0.1,0.3-0.3,0.3h-24c-0.2,0-0.3-0.1-0.3-0.3v-9.6c0-0.2,0.1-0.3,0.3-0.3
		h24c0.2,0,0.3,0.1,0.3,0.3V345.8z"/>
	<path fill="#9B102E" d="M100.6,370.3c-0.2,0-0.3-0.1-0.3-0.3v-14.1c0-0.2,0.1-0.3,0.3-0.3h38.6c0.1,0,0.3,0.1,0.3,0.3V370
		c0,0.2-0.1,0.3-0.3,0.3H100.6z"/>
	<path fill="#9B102E" d="M132,386.2c0,0.9-0.7,1.5-1.5,1.5h-21.2c-0.9,0-1.5-0.7-1.5-1.5v-10.7c0-0.9,0.7-1.5,1.5-1.5h21.2
		c0.9,0,1.5,0.7,1.5,1.5V386.2z"/>
	<rect x="107.1" y="376.5" fill="#801414" width="25.5" height="4.3"/>
	<rect x="110.2" y="90.1" fill="#5B5B5B" width="19.2" height="5.7"/>
	<polygon fill="#FFFFFF" points="112.3,71.2 111.5,384.4 110.4,384.4 111.3,71.3 	"/>
	<polygon fill="#FFFFFF" points="114.6,63.7 114.1,384.4 115.2,384.4 115.6,63.7 	"/>
	<polygon fill="#FFFFFF" points="117.9,57.2 117.8,384.4 118.6,384.4 118.7,57.2 	"/>
	<polygon fill="#FFFFFF" points="121.4,48.3 121.5,384.4 122.3,384.4 122,48.3 	"/>
	<polygon fill="#FFFFFF" points="124.7,44.1 125.2,384.4 125.9,384.4 125.3,44.1 	"/>
	<polygon fill="#FFFFFF" points="128.1,36.6 129,384.4 129.4,384.4 128.5,36.6 	"/>
	<path fill="#CAC4CE" d="M112.3,71.2c0,1.7-1.3,3.1-3,3.2c-1.7,0-3.1-1.3-3.2-3c0-1.7,1.3-3.1,3-3.2
		C110.9,68.1,112.3,69.5,112.3,71.2z"/>
	<path fill="#CAC4CE" d="M116.5,64.1c0,1.7-1.3,3.1-3,3.2c-1.7,0-3.1-1.3-3.2-3c0-1.7,1.3-3.1,3-3.2
		C115.1,61.1,116.5,62.4,116.5,64.1z"/>
	<path fill="#CAC4CE" d="M120.7,57.1c0,1.7-1.3,3.1-3,3.2c-1.7,0-3.1-1.3-3.2-3c0-1.7,1.3-3.1,3-3.2C119.3,54,120.7,55.4,120.7,57.1
		z"/>
	<path fill="#CAC4CE" d="M124.9,50.1c0,1.7-1.3,3.1-3,3.2c-1.7,0-3.1-1.3-3.2-3c0-1.7,1.3-3.1,3-3.2C123.5,47,124.9,48.4,124.9,50.1
		z"/>
	<path fill="#CAC4CE" d="M129.1,43c0,1.7-1.3,3.1-3,3.2c-1.7,0-3.1-1.3-3.2-3c0-1.7,1.3-3.1,3-3.2C127.7,40,129.1,41.3,129.1,43z"/>
	<path fill="#CAC4CE" d="M133.3,36c0,1.7-1.3,3.1-3,3.2c-1.7,0-3.1-1.3-3.2-3c0-1.7,1.3-3.1,3-3.2C131.9,32.9,133.3,34.3,133.3,36z"
		/>
	<g>
		<rect x="110.1" y="378.3" fill="#5C0000" width="1.7" height="3.4"/>
		<path fill="#801414" d="M109.5,380.8v3.3c0,0.8,0.7,1.5,1.5,1.5s1.5-0.7,1.5-1.5v-3.3H109.5z"/>
	</g>
	<g>
		<rect x="113.7" y="378.3" fill="#5C0000" width="1.7" height="3.4"/>
		<path fill="#801414" d="M113.2,380.8v3.3c0,0.8,0.7,1.5,1.5,1.5c0.8,0,1.5-0.7,1.5-1.5v-3.3H113.2z"/>
	</g>
	<g>
		<rect x="117.4" y="378.3" fill="#5C0000" width="1.7" height="3.4"/>
		<path fill="#801414" d="M116.8,380.8v3.3c0,0.8,0.7,1.5,1.5,1.5s1.5-0.7,1.5-1.5v-3.3H116.8z"/>
	</g>
	<g>
		<rect x="121" y="378.3" fill="#5C0000" width="1.7" height="3.4"/>
		<path fill="#801414" d="M120.5,380.8v3.3c0,0.8,0.7,1.5,1.5,1.5c0.8,0,1.5-0.7,1.5-1.5v-3.3H120.5z"/>
	</g>
	<g>
		<rect x="124.7" y="378.3" fill="#5C0000" width="1.7" height="3.4"/>
		<path fill="#801414" d="M124.1,380.8v3.3c0,0.8,0.7,1.5,1.5,1.5s1.5-0.7,1.5-1.5v-3.3H124.1z"/>
	</g>
	<g>
		<rect x="128.3" y="378.3" fill="#5C0000" width="1.7" height="3.4"/>
		<path fill="#801414" d="M127.7,380.8v3.3c0,0.8,0.7,1.5,1.5,1.5s1.5-0.7,1.5-1.5v-3.3H127.7z"/>
	</g>
	<path fill="#AD3131" d="M110.2,380.8v2.9c0,0.7,0.3,1.3,0.7,1.3c0.4,0,0.7-0.6,0.7-1.3v-2.9H110.2z"/>
	<path fill="#AD3131" d="M113.7,380.8v2.9c0,0.7,0.3,1.3,0.7,1.3s0.7-0.6,0.7-1.3v-2.9H113.7z"/>
	<path fill="#AD3131" d="M117.4,380.8v2.9c0,0.7,0.3,1.3,0.7,1.3s0.7-0.6,0.7-1.3v-2.9H117.4z"/>
	<path fill="#AD3131" d="M121,380.8v2.9c0,0.7,0.3,1.3,0.7,1.3c0.4,0,0.7-0.6,0.7-1.3v-2.9H121z"/>
	<path fill="#AD3131" d="M124.6,380.8v2.9c0,0.7,0.3,1.3,0.7,1.3s0.7-0.6,0.7-1.3v-2.9H124.6z"/>
	<path fill="#AD3131" d="M128.3,380.8v2.9c0,0.7,0.3,1.3,0.7,1.3c0.4,0,0.7-0.6,0.7-1.3v-2.9H128.3z"/>
	<g>
		<path fill="#CAC4CE" d="M147.3,379.3c0,1.8-1.4,3.2-3.2,3.2c-1.8,0-3.2-1.4-3.2-3.2c0-1.8,1.4-3.2,3.2-3.2
			C145.9,376,147.3,377.5,147.3,379.3z"/>
		<path fill="#5C0000" d="M145.8,379.3c0,0.9-0.8,1.7-1.7,1.7c-0.9,0-1.7-0.8-1.7-1.7c0-0.9,0.8-1.7,1.7-1.7
			C145,377.6,145.8,378.3,145.8,379.3z"/>
		<g>
			<path fill="#FFFFFF" d="M144,376.4c-1.5,0-2.7,1.2-2.7,2.7c0,1.5,1.2,2.7,2.7,2.7c1.5,0,2.7-1.2,2.7-2.7
				C146.8,377.6,145.5,376.4,144,376.4z M144.1,381.7c-1.3,0-2.3-1-2.3-2.3c0-1.3,1-2.3,2.3-2.3c1.3,0,2.3,1,2.3,2.3
				C146.5,380.7,145.4,381.7,144.1,381.7z"/>
		</g>
	</g>
	<g>
		<path fill="#CAC4CE" d="M137.2,362.6c0,1.8-1.4,3.2-3.2,3.2c-1.8,0-3.2-1.4-3.2-3.2c0-1.8,1.4-3.2,3.2-3.2
			C135.7,359.3,137.2,360.8,137.2,362.6z"/>
		<path fill="#5C0000" d="M135.7,362.6c0,0.9-0.8,1.7-1.7,1.7c-0.9,0-1.7-0.8-1.7-1.7c0-0.9,0.8-1.7,1.7-1.7
			C134.9,360.9,135.7,361.6,135.7,362.6z"/>
		<g>
			<path fill="#FFFFFF" d="M133.9,359.7c-1.5,0-2.7,1.2-2.7,2.7c0,1.5,1.2,2.7,2.7,2.7c1.5,0,2.7-1.2,2.7-2.7
				C136.6,360.9,135.4,359.7,133.9,359.7z M134,365c-1.3,0-2.3-1-2.3-2.3s1-2.3,2.3-2.3c1.3,0,2.3,1,2.3,2.3S135.3,365,134,365z"/>
		</g>
	</g>
	<g>
		<path fill="#CAC4CE" d="M150.8,387.7c0,1.8-1.4,3.2-3.2,3.2c-1.8,0-3.2-1.4-3.2-3.2c0-1.8,1.4-3.2,3.2-3.2
			C149.3,384.5,150.8,386,150.8,387.7z"/>
		<path fill="#5C0000" d="M149.2,387.7c0,0.9-0.8,1.7-1.7,1.7c-0.9,0-1.7-0.8-1.7-1.7c0-0.9,0.8-1.7,1.7-1.7
			C148.5,386.1,149.2,386.8,149.2,387.7z"/>
		<g>
			<path fill="#FFFFFF" d="M147.5,384.8c-1.5,0-2.7,1.2-2.7,2.7c0,1.5,1.2,2.7,2.7,2.7s2.7-1.2,2.7-2.7
				C150.2,386.1,149,384.8,147.5,384.8z M147.6,390.2c-1.3,0-2.3-1-2.3-2.3s1-2.3,2.3-2.3s2.3,1,2.3,2.3S148.9,390.2,147.6,390.2z"
				/>
		</g>
	</g>
	<g>
		<path fill="#CAC4CE" d="M133.9,363.8c-0.3,0-0.6-0.1-0.8-0.3c-0.5-0.4-0.6-1.2-0.2-1.8l11.3-14.3l4.2-29.6
			c0.1-0.7,0.7-1.2,1.4-1.1c0.7,0.1,1.2,0.7,1.1,1.4l-4.3,30.3l-11.7,14.8C134.7,363.7,134.3,363.8,133.9,363.8z"/>
	</g>
	<path fill="#FFFFFF" d="M144.7,347.2c0,0.3,0.2,0.6,0.5,0.6l0,0c0.3,0,0.6-0.2,0.6-0.5l4.2-29.6c0-0.3-0.2-0.6-0.5-0.6l0,0
		c-0.3,0-0.6,0.2-0.6,0.5L144.7,347.2z"/>
</g>
</svg>
