<?xml version="1.0" encoding="utf-8"?>
<!-- Generator: Adobe Illustrator 24.0.2, SVG Export Plug-In . SVG Version: 6.00 Build 0)  -->
<svg version="1.1" id="Layer_1" xmlns="http://www.w3.org/2000/svg" xmlns:xlink="http://www.w3.org/1999/xlink" x="0px" y="0px"
	 viewBox="0 0 210 500.4" enable-background="new 0 0 210 500.4" xml:space="preserve">
<g id="Les_Paul_Guitar">
	<g>
		<path fill="#323C50" d="M176.5,385.8c-10.2-17.2-19.4-20.7-22.6-28.8c-3.3-8.1-1.5-14.4,4-23.9c5.5-9.5,6.8-28.9-1.5-34.6
			c-7.2-5-12.3,12.8-22.8,11c-19.8-3.4-10.3-32.1-13.6-32.1c-4.3,0-9.2-0.2-14.8-0.2c-31.9,0-41,1.4-53.5,15.8
			c-12.5,14.4-4.8,30.6,0.7,40c5.5,9.5,7.3,15.8,4,23.9c-3.3,8.1-12.5,11.6-22.6,28.8C23.6,403,18,429.4,34.1,454s40.2,31.6,71,31.6
			s54.8-7,71-31.6C192.3,429.4,186.7,403,176.5,385.8z"/>
	</g>
	<g>
		<path fill="#0B0621" d="M105.1,281.9v-4.6c-31.9,0-41,1.4-53.5,15.8s-4.8,30.6,0.7,40c5.5,9.5,7.3,15.8,4,23.9
			c-3.3,8.1-12.5,11.6-22.6,28.8C23.6,403,18,429.4,34.1,454c16.2,24.6,40.2,31.6,71,31.6v-4.6c-33.4,0-53.5-8.8-67.1-29.5
			c-18.4-28-4.8-55.5-0.3-63.3c5.3-8.9,10.3-14,14.3-18c3.6-3.7,6.8-6.9,8.6-11.4c4.1-10.1,1.5-17.9-4.3-28
			c-5.8-10.1-11.2-23.1-1.2-34.7C66.4,283.1,74.1,281.9,105.1,281.9z"/>
	</g>
	<g>
		<path fill="#0B0621" d="M172.5,388.2c-5.3-8.9-10.3-14-14.3-18c-3.6-3.7-6.8-6.9-8.6-11.4c-4.1-10.1-1.5-17.9,4.3-28
			c4.7-8.1,5.5-24.4-0.2-28.5c-1,0.4-2.9,2.5-4.2,3.7c-3.6,3.7-8,8.3-14.5,8.3c-0.7,0-1.5-0.1-2.3-0.2c-18.1-3.1-17.2-22.6-16.8-31
			c0-0.4,0-0.7,0-1.1c-0.9,0-1.8,0-2.7,0c-2.6,0-5.3-0.1-8.2-0.1v199.1c33.4,0,53.5-8.8,67.1-29.5
			C190.7,423.4,177.1,395.9,172.5,388.2z"/>
	</g>
	<g>
		<path fill="#C26152" d="M118.6,315.9h-27c-0.7,0-1.3-0.6-1.3-1.3l4-219h21.6l4,219C119.9,315.3,119.3,315.9,118.6,315.9z"/>
	</g>
	<g>
		<path fill="#AEB7D4" d="M126.6,423.5h-43c-0.8,0-1.4-0.6-1.4-1.4v-7.9c0-0.8,0.6-1.4,1.4-1.4h43c0.8,0,1.4,0.6,1.4,1.4v7.9
			C128,422.8,127.4,423.5,126.6,423.5z"/>
	</g>
	<g>
		<path fill="#6F7C9F" d="M124.7,412.7h-19.6v10.7h19.6c1.8,0,3.3-1.5,3.3-3.3V416C128,414.2,126.6,412.7,124.7,412.7z"/>
	</g>
	<g>
		<path fill="#6F7C9F" d="M121.4,406.4H88.9c-1.8,0-3.3-1.5-3.3-3.3l0,0c0-1.8,1.5-3.3,3.3-3.3h32.5c1.8,0,3.3,1.5,3.3,3.3l0,0
			C124.7,404.9,123.2,406.4,121.4,406.4z"/>
	</g>
	<g>
		<path fill="#AEB7D4" d="M105.1,399.7H88.9c-1.8,0-3.3,1.5-3.3,3.3s1.5,3.3,3.3,3.3h16.2V399.7z"/>
	</g>
	<g>
		<path fill="#D6D7E9" d="M121.9,314.3V395c18.3,0,24.2,8.6,29.4,0c5.1-8.3-10.4-23.6-14.2-47.2
			C132.3,317.5,131.2,323.3,121.9,314.3z"/>
	</g>
	<g>
		<path fill="#AEB7D4" d="M124,391.7H86.2c-0.4,0-0.7-0.3-0.7-0.7v-20.5c0-0.4,0.3-0.7,0.7-0.7H124c0.4,0,0.7,0.3,0.7,0.7V391
			C124.7,391.4,124.4,391.7,124,391.7z"/>
	</g>
	<g>
		<path fill="#6F7C9F" d="M123.1,369.9h-18v21.9h18c0.9,0,1.6-0.7,1.6-1.6v-18.7C124.7,370.6,124,369.9,123.1,369.9z"/>
	</g>
	<g>
		<path fill="#323C50" d="M121.5,389.5H88.8c-0.2,0-0.4-0.2-0.4-0.4v-16.7c0-0.2,0.2-0.4,0.4-0.4h32.7c0.2,0,0.4,0.2,0.4,0.4v16.7
			C121.9,389.4,121.7,389.5,121.5,389.5z"/>
	</g>
	<g>
		<path fill="#AEB7D4" d="M124,344.5H86.2c-0.4,0-0.7-0.3-0.7-0.7v-20.5c0-0.4,0.3-0.7,0.7-0.7H124c0.4,0,0.7,0.3,0.7,0.7v20.5
			C124.7,344.2,124.4,344.5,124,344.5z"/>
	</g>
	<g>
		<path fill="#6F7C9F" d="M123.1,322.7h-18v21.9h18c0.9,0,1.6-0.7,1.6-1.6v-18.7C124.7,323.4,124,322.7,123.1,322.7z"/>
	</g>
	<g>
		<path fill="#323C50" d="M121.5,342.4H88.8c-0.2,0-0.4-0.2-0.4-0.4v-16.7c0-0.2,0.2-0.4,0.4-0.4h32.7c0.2,0,0.4,0.2,0.4,0.4V342
			C121.9,342.2,121.7,342.4,121.5,342.4z"/>
	</g>
	<g>
		<path fill="#FCEDE9" d="M119.1,269.4l0,1.6h-28l0-1.6H119.1z M91,276.5l0,1.6h28.2l0-1.6H91z M91.4,254.2l0,1.6h27.4l0-1.6H91.4z
			 M91.3,262l0,1.6H119l0-1.6H91.3z M91.6,245.5l0,1.6h27.1l0-1.6H91.6z M90.6,301.4l0,1.6h29.1l0-1.6H90.6z M90.9,283.3l0,1.6h28.5
			l0-1.6H90.9z M90.5,306.5l0,1.6h29.3l0-1.6H90.5z M119.8,310.8H90.4l0,1.6h29.5L119.8,310.8z M90.8,289.5l0,1.6h28.7l0-1.6H90.8z
			 M90.7,295.7l0,1.6h28.9l0-1.6H90.7z M92.5,195.3l0,1.6h25.3l0-1.6H92.5z M93.2,157.5l0,1.6h23.9l0-1.6H93.2z M91.8,236.4l0,1.6
			h26.8l0-1.6H91.8z M93.4,143.1l0,1.6h23.4l0-1.6H93.4z M94,112.8l0,1.6h22.3l0-1.6H94z M93.7,128.4l0,1.6h22.9l0-1.6H93.7z
			 M92.9,171l0,1.6h24.4l0-1.6H92.9z M92.7,183.5l0,1.6h24.9l0-1.6H92.7z M92.1,217.2l0,1.6h26.1l0-1.6H92.1z M91.9,227.1l0,1.6
			h26.4l0-1.6H91.9z M92.3,206.6l0,1.6H118l0-1.6H92.3z"/>
	</g>
	<g>
		<polygon fill="#FCEDE9" points="94.2,92.5 94.2,95.6 116,95.6 116,92.5 		"/>
	</g>
	<g>
		<circle fill="#6F7C9F" cx="68.1" cy="308" r="9.4"/>
	</g>
	<g>
		<path fill="#D6D7E9" d="M72.9,308c0,2.6-2.1,4.8-4.8,4.8c-2.6,0-4.8-2.1-4.8-4.8c0-2.6,2.1-4.8,4.8-4.8
			C70.8,303.3,72.9,305.4,72.9,308z"/>
	</g>
	<g>
		<circle fill="#6F7C9F" cx="157.9" cy="409.2" r="6.6"/>
	</g>
	<g>
		<circle fill="#D6D7E9" cx="157.9" cy="409.2" r="3.3"/>
	</g>
	<g>
		<circle fill="#6F7C9F" cx="157.9" cy="438.1" r="6.6"/>
	</g>
	<g>
		<circle fill="#D6D7E9" cx="157.9" cy="438.1" r="3.3"/>
	</g>
	<g>
		<path fill="#6F7C9F" d="M146.2,424.3c0,3.6-2.9,6.6-6.6,6.6c-3.6,0-6.6-2.9-6.6-6.6c0-3.6,2.9-6.6,6.6-6.6
			C143.3,417.8,146.2,420.7,146.2,424.3z"/>
	</g>
	<g>
		<circle fill="#D6D7E9" cx="139.7" cy="424.3" r="3.3"/>
	</g>
	<g>
		<circle fill="#6F7C9F" cx="139.7" cy="453.2" r="6.6"/>
	</g>
	<g>
		<circle fill="#D6D7E9" cx="139.7" cy="453.2" r="3.3"/>
	</g>
	<g>
		<g>
			
				<rect x="83.5" y="67" transform="matrix(1 8.519989e-03 -8.519989e-03 1 0.5866 -0.7333)" fill="#783128" width="5.6" height="3"/>
		</g>
		<g>
			<path fill="#D9B28D" d="M79.1,68.4c0,1.4,0.9,2.7,2.2,3.4c1.2,0.7,3-0.1,3-1.3l0-4.2c0-1.2-1.7-2-3-1.3
				C80,65.8,79.1,67,79.1,68.4z"/>
		</g>
	</g>
	<g>
		<g>
			
				<rect x="83.5" y="38.3" transform="matrix(1 8.519989e-03 -8.519989e-03 1 0.3424 -0.7344)" fill="#783128" width="5.6" height="3"/>
		</g>
		<g>
			<path fill="#D9B28D" d="M79.1,39.8c0,1.4,0.9,2.7,2.2,3.4c1.2,0.7,3-0.1,3-1.3l0-4.2c0-1.2-1.7-2-3-1.3
				C80,37.1,79.1,38.3,79.1,39.8z"/>
		</g>
	</g>
	<g>
		<g>
			
				<rect x="83.5" y="51.9" transform="matrix(1 8.519989e-03 -8.519989e-03 1 0.4577 -0.7339)" fill="#783128" width="5.6" height="3"/>
		</g>
		<g>
			<path fill="#D9B28D" d="M79.1,53.3c0,1.4,0.9,2.7,2.2,3.4c1.2,0.7,3-0.1,3-1.3l0-4.2c0-1.2-1.7-2-3-1.3
				C80,50.6,79.1,51.9,79.1,53.3z"/>
		</g>
	</g>
	<g>
		<g>
			
				<rect x="121.1" y="67" transform="matrix(-1 8.519612e-03 -8.519612e-03 -1 248.3372 135.8953)" fill="#783128" width="5.6" height="3"/>
		</g>
		<g>
			<path fill="#D9B28D" d="M131.1,68.4c0,1.4-0.9,2.7-2.2,3.4c-1.2,0.7-3-0.1-3-1.3l0-4.2c0-1.2,1.7-2,3-1.3
				C130.2,65.8,131.1,67,131.1,68.4z"/>
		</g>
	</g>
	<g>
		<g>
			
				<rect x="121.1" y="38.3" transform="matrix(-1 8.519612e-03 -8.519612e-03 -1 248.0931 78.5825)" fill="#783128" width="5.6" height="3"/>
		</g>
		<g>
			<path fill="#D9B28D" d="M131.1,39.8c0,1.4-0.9,2.7-2.2,3.4c-1.2,0.7-3-0.1-3-1.3l0-4.2c0-1.2,1.7-2,3-1.3
				C130.2,37.1,131.1,38.3,131.1,39.8z"/>
		</g>
	</g>
	<g>
		<g>
			
				<rect x="121.1" y="51.9" transform="matrix(-1 8.519612e-03 -8.519612e-03 -1 248.2084 105.6556)" fill="#783128" width="5.6" height="3"/>
		</g>
		<g>
			<path fill="#D9B28D" d="M131.1,53.3c0,1.4-0.9,2.7-2.2,3.4c-1.2,0.7-3-0.1-3-1.3l0-4.2c0-1.2,1.7-2,3-1.3
				C130.2,50.6,131.1,51.9,131.1,53.3z"/>
		</g>
	</g>
	<g>
		<path fill="#323C50" d="M126,30.4c0.9-3.8-1.8-7.5-5.7-7.8c-0.4,0-0.7-0.1-1.2-0.2c-3.5-1-10.4-7.8-14-1c-3.6-6.8-10.6,0-14,1
			c-0.4,0.1-0.8,0.2-1.2,0.2c-3.9,0.3-6.6,4-5.7,7.8c1.1,4.6,2.2,11.6,2.2,21.8c0,13.8-0.5,20.8-0.8,23.9c-0.1,1.3,0.6,2.6,1.7,3.2
			c4.4,2.4,6.9,7.1,6.9,13.2H116c0-6.1,2.5-10.8,6.9-13.2c1.2-0.6,1.9-1.9,1.7-3.2c-0.3-3.2-0.8-10.1-0.8-23.9
			C123.8,42,124.9,35,126,30.4z"/>
	</g>
	<g>
		<path fill="#0B0621" d="M120.3,22.6c-0.4,0-0.7-0.1-1.2-0.2c-3.5-1-10.4-7.8-14-1v71.2H116c0-6.1,2.5-10.8,6.9-13.2
			c1.2-0.6,1.9-1.9,1.7-3.2c-0.3-3.2-0.8-10.1-0.8-23.9c0-10.2,1.1-17.2,2.2-21.8C126.9,26.6,124.2,22.9,120.3,22.6z"/>
	</g>
	<g>
		<g>
			<path fill="#FCEDE9" d="M97.2,69c0.7,1.8-0.3,3.8-2.1,4.4c-1.8,0.7-3.8-0.3-4.4-2.1c-0.7-1.8,0.3-3.8,2.1-4.4
				C94.6,66.3,96.6,67.2,97.2,69z"/>
		</g>
		<g>
			<path fill="#783128" d="M95.3,69.6c0.3,0.7-0.1,1.5-0.8,1.8c-0.7,0.3-1.5-0.1-1.8-0.8c-0.3-0.7,0.1-1.5,0.8-1.8
				C94.2,68.5,95,68.9,95.3,69.6z"/>
		</g>
	</g>
	<g>
		<g>
			<path fill="#FCEDE9" d="M98.1,52.1c0.7,1.8-0.3,3.8-2.1,4.4c-1.8,0.7-3.8-0.3-4.4-2.1c-0.7-1.8,0.3-3.8,2.1-4.4
				C95.5,49.4,97.4,50.4,98.1,52.1z"/>
		</g>
		<g>
			<path fill="#783128" d="M96.2,52.8c0.3,0.7-0.1,1.5-0.8,1.8c-0.7,0.3-1.5-0.1-1.8-0.8c-0.3-0.7,0.1-1.5,0.8-1.8
				C95.1,51.7,95.9,52.1,96.2,52.8z"/>
		</g>
	</g>
	<g>
		<g>
			<path fill="#FCEDE9" d="M96.4,35.3c0.7,1.8-0.3,3.8-2.1,4.4c-1.8,0.7-3.8-0.3-4.4-2.1c-0.7-1.8,0.3-3.8,2.1-4.4
				C93.8,32.6,95.8,33.5,96.4,35.3z"/>
		</g>
		<g>
			<path fill="#783128" d="M94.5,36c0.3,0.7-0.1,1.5-0.8,1.8c-0.7,0.3-1.5-0.1-1.8-0.8c-0.3-0.7,0.1-1.5,0.8-1.8
				C93.4,34.9,94.2,35.3,94.5,36z"/>
		</g>
	</g>
	<g>
		<g>
			<path fill="#FCEDE9" d="M113,69c-0.7,1.8,0.3,3.8,2.1,4.4c1.8,0.7,3.8-0.3,4.4-2.1c0.7-1.8-0.3-3.8-2.1-4.4
				C115.6,66.3,113.7,67.2,113,69z"/>
		</g>
		<g>
			<path fill="#783128" d="M114.9,69.6c-0.3,0.7,0.1,1.5,0.8,1.8c0.7,0.3,1.5-0.1,1.8-0.8c0.3-0.7-0.1-1.5-0.8-1.8
				C116,68.5,115.2,68.9,114.9,69.6z"/>
		</g>
	</g>
	<g>
		<g>
			<path fill="#FCEDE9" d="M112.2,52.1c-0.7,1.8,0.3,3.8,2.1,4.4c1.8,0.7,3.8-0.3,4.4-2.1c0.7-1.8-0.3-3.8-2.1-4.4
				C114.8,49.4,112.8,50.4,112.2,52.1z"/>
		</g>
		<g>
			<path fill="#783128" d="M114.1,52.8c-0.3,0.7,0.1,1.5,0.8,1.8c0.7,0.3,1.5-0.1,1.8-0.8c0.3-0.7-0.1-1.5-0.8-1.8
				C115.2,51.7,114.3,52.1,114.1,52.8z"/>
		</g>
	</g>
	<g>
		<g>
			<path fill="#FCEDE9" d="M113.8,35.3c-0.7,1.8,0.3,3.8,2.1,4.4c1.8,0.7,3.8-0.3,4.4-2.1c0.7-1.8-0.3-3.8-2.1-4.4
				C116.4,32.6,114.5,33.5,113.8,35.3z"/>
		</g>
		<g>
			<path fill="#783128" d="M115.7,36c-0.3,0.7,0.1,1.5,0.8,1.8c0.7,0.3,1.5-0.1,1.8-0.8c0.3-0.7-0.1-1.5-0.8-1.8
				C116.8,34.9,116,35.3,115.7,36z"/>
		</g>
	</g>
	<g>
		<g>
			<path fill="#FCEDE9" d="M91.5,424.7c-0.2,0-0.3-0.1-0.3-0.3v-24.2l4.1-305.5l0.5-24.6c0-0.2,0.1-0.3,0.3-0.3c0,0,0,0,0,0
				c0.2,0,0.3,0.1,0.3,0.3l-0.5,24.6l-4.1,305.4v24.2C91.8,424.5,91.7,424.7,91.5,424.7z"/>
		</g>
		<g>
			<path fill="#FCEDE9" d="M96.9,424.7c-0.2,0-0.3-0.1-0.3-0.3v-24.2L99,94.7l-2-41.3c0-0.2,0.1-0.3,0.3-0.3c0.2,0,0.3,0.1,0.3,0.3
				l2,41.3l-2.4,305.5v24.2C97.2,424.5,97,424.7,96.9,424.7z"/>
		</g>
		<g>
			<path fill="#FCEDE9" d="M102.2,424.7c-0.2,0-0.3-0.1-0.3-0.3v-24.2l0.8-305.5l-7.4-58.1c0-0.2,0.1-0.3,0.3-0.3
				c0.1,0,0.3,0.1,0.3,0.3l7.4,58.2l-0.8,305.5v24.2C102.5,424.5,102.4,424.7,102.2,424.7z"/>
		</g>
		<g>
			<path fill="#FCEDE9" d="M118.3,424.7c-0.2,0-0.3-0.1-0.3-0.3v-24.2l-4.1-305.4l-0.3-24.5c0-0.2,0.1-0.3,0.3-0.3
				c0.2,0,0.3,0.1,0.3,0.3l0.3,24.5l4.1,305.5v24.2C118.6,424.5,118.5,424.7,118.3,424.7z"/>
		</g>
		<g>
			<path fill="#FCEDE9" d="M113,424.7c-0.2,0-0.3-0.1-0.3-0.3v-24.2l-2.4-305.5l2.4-41.2c0-0.2,0.1-0.3,0.3-0.3c0,0,0,0,0,0
				c0.2,0,0.3,0.1,0.3,0.3l-2.4,41.2l2.4,305.4v24.2C113.2,424.5,113.1,424.7,113,424.7z"/>
		</g>
		<g>
			<path fill="#FCEDE9" d="M107.6,424.7c-0.2,0-0.3-0.1-0.3-0.3v-24.2l-0.8-305.5l7.7-58.2c0-0.2,0.1-0.3,0.3-0.2
				c0.2,0,0.3,0.2,0.2,0.3l-7.7,58.2l0.8,305.4v24.2C107.9,424.5,107.8,424.7,107.6,424.7z"/>
		</g>
	</g>
</g>
</svg>
