<?xml version="1.0" encoding="utf-8"?>
<!-- Generator: Adobe Illustrator 24.0.2, SVG Export Plug-In . SVG Version: 6.00 Build 0)  -->
<svg version="1.1" id="Layer_1" xmlns="http://www.w3.org/2000/svg" xmlns:xlink="http://www.w3.org/1999/xlink" x="0px" y="0px"
	 viewBox="0 0 210 517.4" enable-background="new 0 0 210 517.4" xml:space="preserve">
<g id="Jackson_Guitar">
	<g>
		<path fill="#323C50" d="M168.5,404.9c-8.1-17.5-15.3-23.2-8.7-42.4c6.7-19.3,13.8-26.7,7.9-42.8c-6-16.1-14.4-12.8-14-5.1
			s-3.4,24.2-14.7,28.1c-17.7,6.1-19.4-8.4-19.5-27.9c0-1.5-1.1-2.7-2.6-2.8l-11-0.8L94,312c-1.1,0.1-2,0.8-2.4,1.8
			c-3.8,9-9.4,13.1-19.6,8.5c-10.9-4.9-14-34-13.7-41.7c0.3-7.7-8.1-8.8-14,7.4c-6,16.1,3.2,44.1,9.8,63.4
			c6.7,19.3-2.8,36.1-10.9,53.6c-8.1,17.5-20.7,55-4.6,73.5c16.1,18.6,22.8,19.3,67.2,19.3c44.5,0,51.1-0.7,67.2-19.3
			C189.2,459.8,176.6,422.4,168.5,404.9z"/>
	</g>
	<g>
		<path fill="#0B0621" d="M42,475.5c-12.7-14.7-5.1-46.2,5.2-68.7c0.7-1.6,1.5-3.2,2.2-4.7c7.6-16.2,15.4-32.9,8.8-52.1
			c-5-14.6-15.5-45-9.8-60.4c2-5.5,4.1-8.1,5.4-9.2c0,0,0,0.1,0,0.1c-0.2,5,1.6,39.3,16.3,45.9c3.4,1.6,6.5,2.3,9.5,2.3
			c9.7,0,14.1-8.4,15.8-12.3l10.6-0.8l0-4.5L94,312c-1.1,0.1-2,0.8-2.4,1.8c-3.8,9-9.4,13.1-19.6,8.5c-10.9-4.9-14-34-13.7-41.7
			c0.3-7.7-8.1-8.8-14,7.4c-6,16.1,3.2,44.1,9.8,63.4c6.7,19.3-2.8,36.1-10.9,53.6c-8.1,17.5-20.7,55-4.6,73.5
			c16.1,18.6,22.8,19.3,67.2,19.3l0-4.5C62.2,493.2,56.9,492.6,42,475.5z"/>
	</g>
	<g>
		<path fill="#0B0621" d="M164.5,406.7c-1.6-3.5-3.2-6.6-4.7-9.3c-5.9-11.2-10.1-19.3-4.2-36.4c1.7-4.8,3.4-8.9,4.8-12.5
			c4.5-10.8,6.9-16.8,3-27.3c-2.3-6.1-4.4-7.9-5.2-8.4c-0.1,0.3-0.2,0.8-0.2,1.5c0.4,8.1-3.6,27.6-17.6,32.5
			c-3.2,1.1-6.1,1.7-8.7,1.7c-15.9,0-16.6-18.9-16.7-32.2l-9.2-0.7v177.7c43.7,0,49-0.6,63.9-17.7
			C182.4,460.8,174.9,429.3,164.5,406.7z"/>
	</g>
	<g>
		<polygon fill="#C26152" points="121.2,349.8 90.5,349.8 95.2,106 116.5,106 		"/>
	</g>
	<g>
		<path fill="#FCEDE9" d="M120.3,303.8l0,1.5H91.4l0-1.5H120.3z M91.6,296.8l0,1.5h28.7l0-1.5H91.6z M91.9,281.2l0,1.5h28.1l0-1.5
			H91.9z M91.3,310.5l0,1.5h29.2l0-1.5H91.3z M92,273l0,1.5h27.8l0-1.5H92z M91.7,289.3l0,1.5H120l0-1.5H91.7z M90.8,338.8l0,1.5
			H121l0-1.5H90.8z M90.9,333.8l0,1.5h30.1l0-1.5H90.9z M121.1,343.8H90.7l0,1.5h30.5L121.1,343.8z M91.1,322.7l0,1.5h29.7l0-1.5
			H91.1z M91,328.4l0,1.5h29.9l0-1.5H91z M91.2,316.7l0,1.5h29.4l0-1.5H91.2z M92.2,264.1l0,1.5h27.4l0-1.5H92.2z M94.2,156.7l0,1.5
			h23.3l0-1.5H94.2z M94,171.6l0,1.5h23.9l0-1.5H94z M93.7,185.6l0,1.5h24.4l0-1.5H93.7z M92.4,254.7l0,1.5h27l0-1.5H92.4z
			 M94.5,141l0,1.5h22.7l0-1.5H94.5z M94.9,124.4l0,1.5h22.1l0-1.5H94.9z M92.6,244.7l0,1.5h26.7l0-1.5H92.6z M92.8,234.2l0,1.5H119
			l0-1.5H92.8z M93.4,198.8l0,1.5h24.9l0-1.5H93.4z M93,223l0,1.5h25.8l0-1.5H93z M93.2,211.3l0,1.5h25.4l0-1.5H93.2z"/>
	</g>
	<g>
		<g>
			<g>
				
					<rect x="86.5" y="78" transform="matrix(0.741 0.6715 -0.6715 0.741 76.4158 -39.3325)" fill="#783128" width="5.4" height="2.9"/>
			</g>
			<g>
				<path fill="#D9B28D" d="M84,74.7c0.9-1,2.3-1.3,3.8-1c1.3,0.3,2,2,1.3,2.9l-2.7,3c-0.8,0.9-2.5,0.3-3-1
					C83,77.2,83.1,75.7,84,74.7z"/>
			</g>
		</g>
		<g>
			<g>
				
					<rect x="95.3" y="67.9" transform="matrix(0.6715 -0.741 0.741 0.6715 -20.5599 94.8633)" fill="#783128" width="2.9" height="5.4"/>
			</g>
			<g>
				<path fill="#D9B28D" d="M91.5,65.9c0.9-1,2.3-1.3,3.8-1c1.3,0.3,2,2,1.3,2.9l-2.7,3c-0.8,0.9-2.5,0.3-3-1
					C90.5,68.4,90.6,66.9,91.5,65.9z"/>
			</g>
		</g>
		<g>
			<g>
				
					<rect x="102.8" y="59.1" transform="matrix(0.6715 -0.741 0.741 0.6715 -11.5822 97.5416)" fill="#783128" width="2.9" height="5.4"/>
			</g>
			<g>
				<path fill="#D9B28D" d="M99.1,57.2c0.9-1,2.3-1.3,3.8-1c1.3,0.3,2,2,1.3,2.9l-2.7,3c-0.8,0.9-2.5,0.3-3-1
					C98,59.6,98.1,58.2,99.1,57.2z"/>
			</g>
		</g>
		<g>
			<g>
				
					<rect x="110.3" y="50.3" transform="matrix(0.6715 -0.741 0.741 0.6715 -2.6065 100.2135)" fill="#783128" width="2.9" height="5.4"/>
			</g>
			<g>
				<path fill="#D9B28D" d="M106.6,48.4c0.9-1,2.3-1.3,3.8-1c1.3,0.3,2,2,1.3,2.9l-2.7,3c-0.8,0.9-2.5,0.3-3-1
					C105.5,50.8,105.6,49.4,106.6,48.4z"/>
			</g>
		</g>
		<g>
			<g>
				
					<rect x="117.8" y="41.6" transform="matrix(0.6715 -0.741 0.741 0.6715 6.3718 102.8917)" fill="#783128" width="2.9" height="5.4"/>
			</g>
			<g>
				<path fill="#D9B28D" d="M114.1,39.6c0.9-1,2.3-1.3,3.8-1c1.3,0.3,2,2,1.3,2.9l-2.7,3c-0.8,0.9-2.5,0.3-3-1
					C113,42.1,113.1,40.6,114.1,39.6z"/>
			</g>
		</g>
		<g>
			<g>
				
					<rect x="124" y="34" transform="matrix(0.741 0.6715 -0.6715 0.741 56.6383 -75.9078)" fill="#783128" width="5.4" height="2.9"/>
			</g>
			<g>
				<path fill="#D9B28D" d="M121.6,30.8c0.9-1,2.3-1.3,3.8-1c1.3,0.3,2,2,1.3,2.9l-2.7,3c-0.8,0.9-2.5,0.3-3-1
					C120.5,33.3,120.7,31.8,121.6,30.8z"/>
			</g>
		</g>
	</g>
	<g>
		<path fill="#323C50" d="M142.2,27.7c-3.8,1.2-9.6,3.1-11,3.7c-2.2,0.9-19.9,22.4-46.2,52.8c-0.9,1-0.7,2.6,0.5,3.4
			c4.3,2.7,9.8,6.8,9.8,18.5h21.3c0,0,0-0.9,0-5.7s3.5-21.4,28.2-68.4l0.3-1.7C145.4,28.6,143.8,27.2,142.2,27.7z"/>
	</g>
	<g>
		<path fill="#260B20" d="M95.2,106l21.3,0c0,0,0-0.9,0-5.7s3.5-21.4,28.2-68.4l0.3-1.7l-38,73.4l-11.9-0.1L95.2,106z"/>
	</g>
	<g>
		<g>
			<path fill="#AEB7D4" d="M127.5,412H84.1c-0.6,0-1-0.4-1-1v-20.1c0-0.6,0.4-1,1-1h43.4c0.6,0,1,0.4,1,1V411
				C128.5,411.6,128.1,412,127.5,412z"/>
		</g>
		<g>
			<path fill="#6F7C9F" d="M126.3,389.9h-20.5V412h20.5c1.2,0,2.2-1,2.2-2.2v-17.6C128.5,390.9,127.5,389.9,126.3,389.9z"/>
		</g>
		<g>
			<path fill="#323C50" d="M122.7,410.4H89c-0.6,0-1-0.4-1-1v-16.8c0-0.6,0.4-1,1-1h33.7c0.6,0,1,0.4,1,1v16.8
				C123.7,409.9,123.2,410.4,122.7,410.4z"/>
		</g>
		<g>
			<path fill="#AEB7D4" d="M127.5,371.9H84.1c-0.6,0-1-0.4-1-1v-20.1c0-0.6,0.4-1,1-1h43.4c0.6,0,1,0.4,1,1v20.1
				C128.5,371.5,128.1,371.9,127.5,371.9z"/>
		</g>
		<g>
			<path fill="#6F7C9F" d="M126.3,349.8h-20.5v22.1h20.5c1.2,0,2.2-1,2.2-2.2v-17.6C128.5,350.8,127.5,349.8,126.3,349.8z"/>
		</g>
		<g>
			<path fill="#323C50" d="M122.7,370.3H89c-0.6,0-1-0.4-1-1v-16.8c0-0.6,0.4-1,1-1h33.7c0.6,0,1,0.4,1,1v16.8
				C123.7,369.8,123.2,370.3,122.7,370.3z"/>
		</g>
		<g>
			<path fill="#6F7C9F" d="M126.3,416.4H85.4c-1.2,0-2.2,1-2.2,2.2v16.3c0,1.2,1,2.2,2.2,2.2H88v17.5c0,1.2,1,2.2,2.2,2.2h31.2
				c1.2,0,2.2-1,2.2-2.2v-17.5h2.6c1.2,0,2.2-1,2.2-2.2v-16.3C128.5,417.4,127.5,416.4,126.3,416.4z"/>
		</g>
		<g>
			<path fill="#323C50" d="M126.3,416.4h-20.5v40.5h15.6c1.2,0,2.2-1,2.2-2.2v-17.5h2.6c1.2,0,2.2-1,2.2-2.2v-16.3
				C128.5,417.4,127.5,416.4,126.3,416.4z"/>
		</g>
		<g>
			<g>
				<rect x="89.1" y="421.4" fill="#AEB7D4" width="4.4" height="11"/>
			</g>
			<g>
				<rect x="94.9" y="421.4" fill="#AEB7D4" width="4.4" height="11"/>
			</g>
			<g>
				<rect x="100.7" y="421.4" fill="#AEB7D4" width="4.4" height="11"/>
			</g>
			<g>
				<rect x="106.5" y="421.4" fill="#6F7C9F" width="4.4" height="11"/>
			</g>
			<g>
				<rect x="112.3" y="421.4" fill="#6F7C9F" width="4.4" height="11"/>
			</g>
			<g>
				<rect x="118.1" y="421.4" fill="#6F7C9F" width="4.4" height="11"/>
			</g>
		</g>
		<g>
			<g>
				<path fill="#AEB7D4" d="M91.4,448.6h-0.1c-1.2,0-2.1,1-2.1,2.1l0,0c0,1.2,1,2.1,2.1,2.1h0.1c1.2,0,2.1-1,2.1-2.1l0,0
					C93.5,449.5,92.6,448.6,91.4,448.6z"/>
			</g>
			<g>
				<path fill="#AEB7D4" d="M97.2,448.6h-0.1c-1.2,0-2.1,1-2.1,2.1l0,0c0,1.2,1,2.1,2.1,2.1h0.1c1.2,0,2.1-1,2.1-2.1l0,0
					C99.3,449.5,98.4,448.6,97.2,448.6z"/>
			</g>
			<g>
				<path fill="#AEB7D4" d="M103,448.6h-0.1c-1.2,0-2.1,1-2.1,2.1l0,0c0,1.2,1,2.1,2.1,2.1h0.1c1.2,0,2.1-1,2.1-2.1l0,0
					C105.1,449.5,104.2,448.6,103,448.6z"/>
			</g>
			<g>
				<path fill="#6F7C9F" d="M108.8,448.6h-0.1c-1.2,0-2.1,1-2.1,2.1l0,0c0,1.2,1,2.1,2.1,2.1h0.1c1.2,0,2.1-1,2.1-2.1l0,0
					C110.9,449.5,110,448.6,108.8,448.6z"/>
			</g>
			<g>
				<path fill="#6F7C9F" d="M114.6,448.6h-0.1c-1.2,0-2.1,1-2.1,2.1l0,0c0,1.2,1,2.1,2.1,2.1h0.1c1.2,0,2.1-1,2.1-2.1l0,0
					C116.7,449.5,115.8,448.6,114.6,448.6z"/>
			</g>
			<g>
				<path fill="#6F7C9F" d="M120.4,448.6h-0.1c-1.2,0-2.1,1-2.1,2.1l0,0c0,1.2,1,2.1,2.1,2.1h0.1c1.2,0,2.1-1,2.1-2.1l0,0
					C122.5,449.5,121.6,448.6,120.4,448.6z"/>
			</g>
		</g>
		<g>
			<g>
				<path fill="#6F7C9F" d="M126.5,430.2c-0.3,0-0.6-0.1-0.8-0.3c-0.4-0.4-0.5-1.1,0-1.6c1-1,1.1-1.5,2.8-7c0.6-2.1,1.5-4.8,2.6-8.6
					l0.6-2c3.6-11.6,4.2-13.1,4.3-14.5c0.1-1.5,0.3-33.9,0.3-35.7c0-0.6,0.5-1.1,1.1-1.1c0.6,0,1.1,0.5,1.1,1.1
					c0,1.6-0.1,34.2-0.3,35.9c-0.1,1.6-0.6,3-4.4,15l-0.6,2c-1.2,3.7-2,6.5-2.6,8.5c-1.7,5.7-2,6.5-3.3,7.9
					C127,430.1,126.7,430.2,126.5,430.2z"/>
			</g>
		</g>
		<g>
			<path fill="#AEB7D4" d="M149.9,412c0,3.4-2.8,6.2-6.2,6.2c-3.4,0-6.2-2.8-6.2-6.2s2.8-6.2,6.2-6.2
				C147.2,405.8,149.9,408.6,149.9,412z"/>
		</g>
		<g>
			<path fill="#AEB7D4" d="M164.1,445.9c0,3.4-2.8,6.2-6.2,6.2c-3.4,0-6.2-2.8-6.2-6.2s2.8-6.2,6.2-6.2
				C161.3,439.8,164.1,442.5,164.1,445.9z"/>
		</g>
		<g>
			
				<rect x="156.6" y="414.7" transform="matrix(0.9448 -0.3276 0.3276 0.9448 -130.4501 74.9399)" fill="#6F7C9F" width="1.3" height="20"/>
		</g>
		<g>
			<path fill="#AEB7D4" d="M160.2,424.7c0,1.7-1.4,3-3,3s-3-1.4-3-3c0-1.7,1.4-3,3-3S160.2,423,160.2,424.7z"/>
		</g>
	</g>
	<g>
		<g>
			<g>
				<path fill="#FCEDE9" d="M96.9,81.3c0.6,1.7-0.3,3.6-2,4.2s-3.6-0.3-4.2-2s0.3-3.6,2-4.2C94.4,78.7,96.3,79.5,96.9,81.3z"/>
			</g>
			<g>
				<path fill="#783128" d="M95.1,81.9c0.3,0.7-0.1,1.5-0.8,1.7c-0.7,0.3-1.5-0.1-1.7-0.8c-0.3-0.7,0.1-1.5,0.8-1.7
					C94,80.8,94.8,81.2,95.1,81.9z"/>
			</g>
		</g>
		<g>
			<g>
				<path fill="#FCEDE9" d="M104.3,72.5c0.6,1.7-0.3,3.6-2,4.2c-1.7,0.6-3.6-0.3-4.2-2s0.3-3.6,2-4.2
					C101.8,69.9,103.7,70.8,104.3,72.5z"/>
			</g>
			<g>
				<path fill="#783128" d="M102.5,73.2c0.3,0.7-0.1,1.5-0.8,1.7c-0.7,0.3-1.5-0.1-1.7-0.8c-0.3-0.7,0.1-1.5,0.8-1.7
					C101.4,72.1,102.2,72.5,102.5,73.2z"/>
			</g>
		</g>
		<g>
			<g>
				<path fill="#FCEDE9" d="M111.7,63.8c0.6,1.7-0.3,3.6-2,4.2c-1.7,0.6-3.6-0.3-4.2-2c-0.6-1.7,0.3-3.6,2-4.2
					C109.2,61.2,111.1,62.1,111.7,63.8z"/>
			</g>
			<g>
				<path fill="#783128" d="M109.9,64.5c0.3,0.7-0.1,1.5-0.8,1.7c-0.7,0.3-1.5-0.1-1.7-0.8c-0.3-0.7,0.1-1.5,0.8-1.7
					C108.8,63.4,109.6,63.8,109.9,64.5z"/>
			</g>
		</g>
		<g>
			<g>
				<path fill="#FCEDE9" d="M119.1,55.1c0.6,1.7-0.3,3.6-2,4.2s-3.6-0.3-4.2-2c-0.6-1.7,0.3-3.6,2-4.2
					C116.6,52.5,118.5,53.4,119.1,55.1z"/>
			</g>
			<g>
				<path fill="#783128" d="M117.3,55.7c0.3,0.7-0.1,1.5-0.8,1.7c-0.7,0.3-1.5-0.1-1.7-0.8c-0.3-0.7,0.1-1.5,0.8-1.7
					C116.2,54.7,117,55,117.3,55.7z"/>
			</g>
		</g>
		<g>
			<g>
				<path fill="#FCEDE9" d="M126.5,46.4c0.6,1.7-0.3,3.6-2,4.2c-1.7,0.6-3.6-0.3-4.2-2c-0.6-1.7,0.3-3.6,2-4.2
					S125.9,44.7,126.5,46.4z"/>
			</g>
			<g>
				<path fill="#783128" d="M124.7,47c0.3,0.7-0.1,1.5-0.8,1.7c-0.7,0.3-1.5-0.1-1.7-0.8c-0.3-0.7,0.1-1.5,0.8-1.7
					C123.6,46,124.4,46.3,124.7,47z"/>
			</g>
		</g>
		<g>
			<g>
				<path fill="#FCEDE9" d="M133.9,37.7c0.6,1.7-0.3,3.6-2,4.2c-1.7,0.6-3.6-0.3-4.2-2s0.3-3.6,2-4.2
					C131.4,35.1,133.3,36,133.9,37.7z"/>
			</g>
			<g>
				<path fill="#783128" d="M132,38.3c0.3,0.7-0.1,1.5-0.8,1.7c-0.7,0.3-1.5-0.1-1.7-0.8s0.1-1.5,0.8-1.7S131.8,37.6,132,38.3z"/>
			</g>
		</g>
	</g>
	<g>
		<g>
			<path fill="#FCEDE9" d="M91.3,432.5c-0.2,0-0.3-0.1-0.3-0.3v-10.4l5.5-318.1l-1.7-19.5c0-0.2,0.1-0.3,0.3-0.3
				c0.2,0,0.3,0.1,0.3,0.3l1.7,19.5l-5.5,318.1v10.4C91.6,432.3,91.5,432.5,91.3,432.5z"/>
		</g>
		<g>
			<path fill="#FCEDE9" d="M97.3,432.5c-0.2,0-0.3-0.1-0.3-0.3v-10.1l3.2-318.5l-0.6-27.9c0-0.2,0.1-0.3,0.3-0.3c0,0,0,0,0,0
				c0.2,0,0.3,0.1,0.3,0.3l0.6,27.9l-3.2,318.5v10.1C97.6,432.3,97.4,432.5,97.3,432.5z"/>
		</g>
		<g>
			<path fill="#FCEDE9" d="M102.8,432.5c-0.2,0-0.3-0.1-0.3-0.3v-10l1.3-318.6l3.6-36.9c0-0.2,0.1-0.3,0.3-0.3
				c0.2,0,0.3,0.2,0.3,0.3l-3.6,36.9L103,422.2v9.9C103,432.3,102.9,432.5,102.8,432.5z"/>
		</g>
		<g>
			<path fill="#FCEDE9" d="M120.3,432.5c-0.2,0-0.3-0.1-0.3-0.3v-10.4l-5.5-318.1l13.7-64c0-0.1,0.2-0.2,0.3-0.2
				c0.1,0,0.2,0.2,0.2,0.3l-13.7,63.9l5.5,318.1v10.4C120.6,432.3,120.5,432.5,120.3,432.5z"/>
		</g>
		<g>
			<path fill="#FCEDE9" d="M114.5,432.5c-0.2,0-0.3-0.1-0.3-0.3v-10.4l-3.3-318.1l10.2-56.2c0-0.2,0.2-0.3,0.3-0.2
				c0.2,0,0.3,0.2,0.2,0.3l-10.2,56.1l3.3,318.1v10.4C114.8,432.3,114.7,432.5,114.5,432.5z"/>
		</g>
		<g>
			<path fill="#FCEDE9" d="M108.7,432.5c-0.2,0-0.3-0.1-0.3-0.3v-10.4l-1.1-318.1l6.4-47.4c0-0.2,0.2-0.2,0.3-0.2
				c0.2,0,0.3,0.2,0.2,0.3l-6.4,47.4l1.1,318.1v10.4C109,432.3,108.9,432.5,108.7,432.5z"/>
		</g>
	</g>
</g>
</svg>
