<?xml version="1.0" encoding="utf-8"?>
<!-- Generator: Adobe Illustrator 24.0.2, SVG Export Plug-In . SVG Version: 6.00 Build 0)  -->
<svg version="1.1" id="Layer_1" xmlns="http://www.w3.org/2000/svg" xmlns:xlink="http://www.w3.org/1999/xlink" x="0px" y="0px"
	 viewBox="0 0 210 512.6" enable-background="new 0 0 210 512.6" xml:space="preserve">
<g id="Stratocaster_Guitar">
	<g>
		<path fill="#E83F4F" d="M177.9,425.1c-10.3-32.6-14.2-37.5-16.8-47.5c-2.6-10-1.3-16,5.8-31.6c6.7-14.6,4.8-27.6-2-37.9
			c-6.5-9.9-16.6-2-16.9,9.7c-0.2,5.5-5,14-16.7,15.8c-13.1,2-9-23.5-10.3-28.4c-1.3-4.8-7-4.8-17-4.8c-10,0-15.7,0-17,4.8
			c-1.3,4.8-5.2,9.7-14.5,7.1c-9.4-2.6-13.6-22.9-13.9-28.4c-0.3-5.5-10.3-16.8-19.7,0c-9.4,16.8-1,43.9,3.9,60.4
			c4.8,16.5,6.8,23.3,4.2,33.3c-2.6,10-6.5,14.9-16.8,47.5s0.6,52,13.2,61.7C56,496.5,67.5,501,104,501c36.5,0,48-4.5,60.6-14.2
			C177.3,477.1,188.3,457.7,177.9,425.1z"/>
	</g>
	<g>
		<path fill="#BD1C23" d="M34.7,426.5c5.9-18.7,9.6-28,12.4-34.8c1.9-4.9,3.4-8.4,4.5-12.9c2.9-11.4,0.7-19.1-4.2-35.8l-0.4-1.4
			c-4.5-15.3-12-40.8-3.9-55.4c2.2-4,4.7-6.4,6.5-6.4c2.1,0,4.2,3.1,4.3,4.3c0,0.3,2.8,28.8,17.4,32.8c2.1,0.6,4.2,0.9,6.1,0.9
			c7.1,0,12.4-4.3,14.4-11.4c0-0.2,0.1-0.2,0.1-0.2c0.9-1,7.5-1,12.3-1l0-4.8c-10,0-15.7,0-17,4.8c-1.3,4.8-5.2,9.7-14.5,7.1
			c-9.4-2.6-13.6-22.9-13.9-28.4c-0.3-5.5-10.3-16.8-19.7,0c-9.4,16.8-1,43.9,3.9,60.4c4.8,16.5,6.8,23.3,4.2,33.3
			c-2.6,10-6.5,14.9-16.8,47.5c-10.3,32.6,0.6,52,13.2,61.7C56,496.5,67.5,501,104,501l0-4.8c-34.9,0-45.6-3.9-57.7-13.2
			C37.5,476.2,24.2,459.8,34.7,426.5z"/>
	</g>
	<g>
		<path fill="#BD1C23" d="M173.3,426.5c-5.9-18.7-9.6-28-12.4-34.8c-1.9-4.9-3.4-8.4-4.5-12.9c-3-11.8-1.1-19,6.1-34.8
			c5.4-11.9,4.9-23.4-1.6-33.3c-1-1.5-2-2.3-2.8-2.3c-2,0-5.1,3.8-5.3,9.6c-0.2,7-5.9,18.2-20.8,20.4c-0.7,0.1-1.4,0.2-2.1,0.2
			c-13.4,0-13.4-17.5-13.4-26.9c0-1.9,0-4.4-0.2-5.1c0-0.2-0.1-0.2-0.1-0.2c-0.9-1-7.5-1-12.3-1v191.1c34.9,0,45.6-3.9,57.7-13.2
			C170.6,476.2,183.9,459.8,173.3,426.5z"/>
	</g>
	<g>
		<g>
			<path fill="#D6D7E9" d="M95.9,329.8c-10.6-4.4-13.9-7.8-18-7.3c-4.1,0.4-4.9,4.3-3.9,7.6c0.9,3.2,2.8,10,3.5,23.3
				c0.7,13.3-3.7,20.3-8.8,36c-5.1,15.7-5.1,25.6,1.4,35.5c6.5,9.9,20.7,5.1,45.8,4.5c25-0.7,26.3,1.1,40.9,13
				c14.6,11.9,15-3.4,11.9-15c-5-18.9-9.6-27.9-12.3-34.7c-2-5-3.4-8.6-4.6-13.2c-3.2-12.4-1.1-20.3,6.3-36.4
				c5.1-11.2,4.7-21.6-1.5-30.9c-0.4-0.6-1.7-0.4-2.1,0.2c-0.8,1.2-1.6,3.2-1.6,5.8c-0.3,9.6-8,22.6-22.8,22.7
				C118,340.8,107.5,334.5,95.9,329.8z"/>
		</g>
	</g>
	<g>
		<path fill="#AEB7D4" d="M168.7,427.2c-5-18.9-9.6-27.9-12.3-34.7c-2-5-3.4-8.6-4.6-13.2c-3.2-12.4-1.1-20.3,6.3-36.4
			c5.1-11.2,4.7-21.6-1.5-30.9c-0.4-0.6-1.7-0.4-2.1,0.2c-0.8,1.2-1.6,3.2-1.6,5.8c-0.3,9.6-8,22.6-22.8,22.7
			c-9.2,0.1-17.5-3.5-26-7.3v96.5c3.6-0.3,7.5-0.5,11.8-0.6c25-0.7,26.3,1.1,40.9,13C171.4,454.2,171.8,438.9,168.7,427.2z"/>
	</g>
	<g>
		<path fill="#AEB7D4" d="M130.3,432.2H127c-1.3,0-2.4-1.1-2.4-2.4v-3.6c0-2-1.6-3.6-3.6-3.6H87.1c-2,0-3.6,1.6-3.6,3.6v15
			c0,2,1.6,3.6,3.6,3.6h9.3H121h9.3c2,0,3.6-1.6,3.6-3.6v-5.4C133.9,433.8,132.3,432.2,130.3,432.2z"/>
	</g>
	<g>
		<path fill="#6F7C9F" d="M130.3,432.2H127c-1.3,0-2.4-1.1-2.4-2.4v-3.6c0-2-1.6-3.6-3.6-3.6h-17v22.2h17h9.3c2,0,3.6-1.6,3.6-3.6
			v-5.4C133.9,433.8,132.3,432.2,130.3,432.2z"/>
	</g>
	<g>
		<g>
			<rect x="86.1" y="432.9" fill="#A14C40" width="4.7" height="11.8"/>
		</g>
		<g>
			<rect x="92.3" y="432.9" fill="#A14C40" width="4.7" height="11.8"/>
		</g>
		<g>
			<rect x="98.6" y="432.9" fill="#A14C40" width="4.7" height="11.8"/>
		</g>
		<g>
			<rect x="104.8" y="432.9" fill="#783128" width="4.7" height="11.8"/>
		</g>
		<g>
			<rect x="111" y="432.9" fill="#783128" width="4.7" height="11.8"/>
		</g>
		<g>
			<rect x="117.3" y="432.9" fill="#783128" width="4.7" height="11.8"/>
		</g>
	</g>
	<g>
		<g>
			<path fill="#A14C40" d="M88.5,425h-0.1c-1.3,0-2.3,1-2.3,2.3l0,0c0,1.3,1,2.3,2.3,2.3h0.1c1.3,0,2.3-1,2.3-2.3l0,0
				C90.8,426,89.8,425,88.5,425z"/>
		</g>
		<g>
			<path fill="#A14C40" d="M94.8,425h-0.1c-1.3,0-2.3,1-2.3,2.3l0,0c0,1.3,1,2.3,2.3,2.3h0.1c1.3,0,2.3-1,2.3-2.3l0,0
				C97,426,96,425,94.8,425z"/>
		</g>
		<g>
			<path fill="#A14C40" d="M101,425h-0.1c-1.3,0-2.3,1-2.3,2.3l0,0c0,1.3,1,2.3,2.3,2.3h0.1c1.3,0,2.3-1,2.3-2.3l0,0
				C103.3,426,102.3,425,101,425z"/>
		</g>
		<g>
			<path fill="#783128" d="M107.2,425h-0.1c-1.3,0-2.3,1-2.3,2.3l0,0c0,1.3,1,2.3,2.3,2.3h0.1c1.3,0,2.3-1,2.3-2.3l0,0
				C109.5,426,108.5,425,107.2,425z"/>
		</g>
		<g>
			<path fill="#783128" d="M113.5,425h-0.1c-1.3,0-2.3,1-2.3,2.3l0,0c0,1.3,1,2.3,2.3,2.3h0.1c1.3,0,2.3-1,2.3-2.3l0,0
				C115.8,426,114.7,425,113.5,425z"/>
		</g>
		<g>
			<path fill="#783128" d="M119.7,425h-0.1c-1.3,0-2.3,1-2.3,2.3l0,0c0,1.3,1,2.3,2.3,2.3h0.1c1.3,0,2.3-1,2.3-2.3l0,0
				C122,426,121,425,119.7,425z"/>
		</g>
	</g>
	<g>
		<g>
			<path fill="#0B0621" d="M119,404.9l-27.9-6.2c-2.6-0.6-5.2,1.1-5.7,3.6l0,0c-0.6,2.6,1.1,5.2,3.6,5.7l27.9,6.2
				c2.6,0.6,5.2-1.1,5.7-3.6l0,0C123.3,408,121.6,405.5,119,404.9z"/>
		</g>
		<g>
			<g>
				<path fill="#FCEDE9" d="M92.3,404c-0.2,1-1.2,1.6-2.1,1.4c-1-0.2-1.6-1.2-1.4-2.1c0.2-1,1.2-1.6,2.1-1.4
					C91.9,402.1,92.5,403,92.3,404z"/>
			</g>
			<g>
				<path fill="#FCEDE9" d="M97.7,405.1c-0.2,1-1.2,1.6-2.1,1.4c-1-0.2-1.6-1.2-1.4-2.1c0.2-1,1.2-1.6,2.1-1.4
					C97.3,403.2,97.9,404.2,97.7,405.1z"/>
			</g>
			<g>
				<path fill="#FCEDE9" d="M103.1,406.3c-0.2,1-1.2,1.6-2.1,1.4c-1-0.2-1.6-1.2-1.4-2.1s1.2-1.6,2.1-1.4
					C102.7,404.4,103.3,405.3,103.1,406.3z"/>
			</g>
			<g>
				<path fill="#FCEDE9" d="M108.5,407.4c-0.2,1-1.2,1.6-2.1,1.4c-1-0.2-1.6-1.2-1.4-2.1c0.2-1,1.2-1.6,2.1-1.4
					C108.1,405.5,108.7,406.4,108.5,407.4z"/>
			</g>
			<g>
				<path fill="#FCEDE9" d="M113.9,408.5c-0.2,1-1.2,1.6-2.1,1.4c-1-0.2-1.6-1.2-1.4-2.1c0.2-1,1.2-1.6,2.1-1.4
					C113.5,406.6,114.1,407.6,113.9,408.5z"/>
			</g>
			<g>
				<path fill="#FCEDE9" d="M119.3,409.7c-0.2,1-1.2,1.6-2.1,1.4c-1-0.2-1.6-1.2-1.4-2.1c0.2-1,1.2-1.6,2.1-1.4
					C118.9,407.8,119.5,408.7,119.3,409.7z"/>
			</g>
		</g>
	</g>
	<g>
		<g>
			<path fill="#0B0621" d="M118.4,374.1l-28.6-0.3c-2.7,0-4.8,2.1-4.9,4.8l0,0c0,2.7,2.1,4.8,4.8,4.9l28.6,0.3
				c2.7,0,4.8-2.1,4.9-4.8l0,0C123.2,376.3,121,374.2,118.4,374.1z"/>
		</g>
		<g>
			<g>
				<path fill="#FCEDE9" d="M92.1,378.8c0,1-0.8,1.8-1.8,1.8c-1,0-1.8-0.8-1.8-1.8c0-1,0.8-1.8,1.8-1.8
					C91.3,377,92.1,377.8,92.1,378.8z"/>
			</g>
			<g>
				<path fill="#FCEDE9" d="M97.6,378.8c0,1-0.8,1.8-1.8,1.8c-1,0-1.8-0.8-1.8-1.8c0-1,0.8-1.8,1.8-1.8
					C96.8,377,97.6,377.8,97.6,378.8z"/>
			</g>
			<g>
				<path fill="#FCEDE9" d="M103.1,378.8c0,1-0.8,1.8-1.8,1.8c-1,0-1.8-0.8-1.8-1.8c0-1,0.8-1.8,1.8-1.8
					C102.3,377,103.1,377.8,103.1,378.8z"/>
			</g>
			<g>
				<path fill="#FCEDE9" d="M108.6,378.8c0,1-0.8,1.8-1.8,1.8c-1,0-1.8-0.8-1.8-1.8c0-1,0.8-1.8,1.8-1.8
					C107.8,377,108.6,377.8,108.6,378.8z"/>
			</g>
			<g>
				<path fill="#FCEDE9" d="M114.1,378.8c0,1-0.8,1.8-1.8,1.8c-1,0-1.8-0.8-1.8-1.8c0-1,0.8-1.8,1.8-1.8
					C113.3,377,114.1,377.8,114.1,378.8z"/>
			</g>
			<g>
				<path fill="#FCEDE9" d="M119.6,378.8c0,1-0.8,1.8-1.8,1.8c-1,0-1.8-0.8-1.8-1.8c0-1,0.8-1.8,1.8-1.8
					C118.8,377,119.6,377.8,119.6,378.8z"/>
			</g>
		</g>
	</g>
	<g>
		<g>
			<path fill="#0B0621" d="M118.4,347.3L89.8,347c-2.7,0-4.8,2.1-4.9,4.8v0c0,2.7,2.1,4.8,4.8,4.9l28.6,0.3c2.7,0,4.8-2.1,4.9-4.8
				l0,0C123.2,349.5,121,347.3,118.4,347.3z"/>
		</g>
		<g>
			<g>
				<path fill="#FCEDE9" d="M92.1,351.9c0,1-0.8,1.8-1.8,1.8c-1,0-1.8-0.8-1.8-1.8c0-1,0.8-1.8,1.8-1.8
					C91.3,350.1,92.1,350.9,92.1,351.9z"/>
			</g>
			<g>
				<path fill="#FCEDE9" d="M97.6,351.9c0,1-0.8,1.8-1.8,1.8c-1,0-1.8-0.8-1.8-1.8c0-1,0.8-1.8,1.8-1.8
					C96.8,350.1,97.6,350.9,97.6,351.9z"/>
			</g>
			<g>
				<path fill="#FCEDE9" d="M103.1,351.9c0,1-0.8,1.8-1.8,1.8c-1,0-1.8-0.8-1.8-1.8c0-1,0.8-1.8,1.8-1.8
					C102.3,350.1,103.1,350.9,103.1,351.9z"/>
			</g>
			<g>
				<path fill="#FCEDE9" d="M108.6,351.9c0,1-0.8,1.8-1.8,1.8c-1,0-1.8-0.8-1.8-1.8c0-1,0.8-1.8,1.8-1.8
					C107.8,350.1,108.6,350.9,108.6,351.9z"/>
			</g>
			<g>
				<path fill="#FCEDE9" d="M114.1,351.9c0,1-0.8,1.8-1.8,1.8c-1,0-1.8-0.8-1.8-1.8c0-1,0.8-1.8,1.8-1.8
					C113.3,350.1,114.1,350.9,114.1,351.9z"/>
			</g>
			<g>
				<path fill="#FCEDE9" d="M119.6,351.9c0,1-0.8,1.8-1.8,1.8c-1,0-1.8-0.8-1.8-1.8c0-1,0.8-1.8,1.8-1.8
					C118.8,350.1,119.6,350.9,119.6,351.9z"/>
			</g>
		</g>
	</g>
	<g>
		<path fill="#783128" d="M149.7,416.9c-0.5,2.6-3,4.3-5.6,3.8c-2.6-0.5-4.3-3-3.8-5.6c0.5-2.6,3-4.3,5.6-3.8
			C148.5,411.8,150.2,414.3,149.7,416.9z"/>
	</g>
	<g>
		<path fill="#783128" d="M163,430.2c-0.5,2.6-3,4.3-5.6,3.8c-2.6-0.5-4.3-3-3.8-5.6c0.5-2.6,3-4.3,5.6-3.8
			C161.7,425.1,163.4,427.6,163,430.2z"/>
	</g>
	<g>
		<path fill="#AEB7D4" d="M148.7,402.6L148.7,402.6c-0.5,0.2-1.1,0-1.3-0.5l-6.5-15.8c-0.2-0.5,0-1.1,0.5-1.3l0,0
			c0.5-0.2,1.1,0,1.3,0.5l6.5,15.8C149.4,401.8,149.2,402.4,148.7,402.6z"/>
	</g>
	<g>
		<path fill="#783128" d="M148.3,394.9c-0.6,1.8-2.5,2.8-4.3,2.2c-1.8-0.6-2.8-2.5-2.2-4.3c0.6-1.8,2.5-2.8,4.3-2.2
			C147.9,391.1,148.9,393.1,148.3,394.9z"/>
	</g>
	<g>
		<path fill="#C26152" d="M115.6,341.2H92.5c-2,0-3.6-1.6-3.6-3.7L93,107.7h22l4.2,229.8C119.3,339.5,117.6,341.2,115.6,341.2z"/>
	</g>
	<g>
		<path fill="#FCEDE9" d="M118.6,302.9l0,1.6H89.5l0-1.6H118.6z M89.6,295.2l0,1.6h28.9l0-1.6H89.6z M89.9,279l0,1.6h28.3l0-1.6
			H89.9z M89.8,287.5l0,1.6h28.6l0-1.6H89.8z M90.1,270.4l0,1.6h28l0-1.6H90.1z M119.2,334H88.9l0,1.6h30.3L119.2,334z M89.4,309.6
			l0,1.6h29.4l0-1.6H89.4z M89,328.2l0,1.6h30.1l0-1.6H89z M89.3,316.2l0,1.6h29.6l0-1.6H89.3z M89.1,322.4l0,1.6H119l0-1.6H89.1z
			 M90.8,229.4l0,1.6h26.5l0-1.6H90.8z M91.5,191.9l0,1.6h25.1l0-1.6H91.5z M92,163.1l0,1.6h24.1l0-1.6H92z M90.3,261l0,1.6h27.6
			l0-1.6H90.3z M92.6,130.2l0,1.6h22.9l0-1.6H92.6z M92.3,147l0,1.6h23.5l0-1.6H92.3z M91.8,178l0,1.6h24.6l0-1.6H91.8z M91.3,204.9
			l0,1.6h25.6l0-1.6H91.3z M90.6,240.3l0,1.6h26.9l0-1.6H90.6z M90.4,250.9l0,1.6h27.3l0-1.6H90.4z M91,217.6l0,1.6h26.1l0-1.6H91z"
			/>
	</g>
	<g>
		<polygon fill="#FCEDE9" points="92.9,113.6 115.2,113.6 115.1,110.4 93,110.4 		"/>
	</g>
	<g>
		<g>
			<g>
				
					<rect x="84.2" y="85.9" transform="matrix(0.9628 0.2702 -0.2702 0.9628 26.8717 -20.2754)" fill="#783128" width="5.8" height="3.1"/>
			</g>
			<g>
				<path fill="#D9B28D" d="M79.9,85.4c-0.4,1.4,0.1,2.9,1.3,4c1.1,1,3,0.7,3.3-0.5l1.2-4.2c0.3-1.2-1.1-2.5-2.6-2.1
					C81.5,83,80.2,84,79.9,85.4z"/>
			</g>
		</g>
		<g>
			<g>
				
					<rect x="88" y="72.6" transform="matrix(0.2702 -0.9628 0.9628 0.2702 -7.3533 141.3321)" fill="#783128" width="3.1" height="5.8"/>
			</g>
			<g>
				<path fill="#D9B28D" d="M82.3,73.5c-0.4,1.4,0.1,2.9,1.3,4c1.1,1,3,0.7,3.3-0.5l1.2-4.2c0.3-1.2-1.1-2.5-2.6-2.1
					C84,71.1,82.7,72.1,82.3,73.5z"/>
			</g>
		</g>
		<g>
			<g>
				
					<rect x="90.5" y="60.7" transform="matrix(0.2702 -0.9628 0.9628 0.2702 5.9503 135.0273)" fill="#783128" width="3.1" height="5.8"/>
			</g>
			<g>
				<path fill="#D9B28D" d="M84.8,61.6c-0.4,1.4,0.1,2.9,1.3,4c1.1,1,3,0.7,3.3-0.5l1.2-4.2c0.3-1.2-1.1-2.5-2.6-2.1
					C86.5,59.2,85.2,60.2,84.8,61.6z"/>
			</g>
		</g>
		<g>
			<g>
				
					<rect x="93" y="48.8" transform="matrix(0.2702 -0.9628 0.9628 0.2702 19.253 128.7212)" fill="#783128" width="3.1" height="5.8"/>
			</g>
			<g>
				<path fill="#D9B28D" d="M87.3,49.6c-0.4,1.4,0.1,2.9,1.3,4c1.1,1,3,0.7,3.3-0.5l1.2-4.2c0.3-1.2-1.1-2.5-2.6-2.1
					C89,47.2,87.7,48.2,87.3,49.6z"/>
			</g>
		</g>
		<g>
			<g>
				
					<rect x="95.5" y="36.8" transform="matrix(0.2702 -0.9628 0.9628 0.2702 32.5561 122.415)" fill="#783128" width="3.1" height="5.8"/>
			</g>
			<g>
				<path fill="#D9B28D" d="M89.8,37.7c-0.4,1.4,0.1,2.9,1.3,4c1.1,1,3,0.7,3.3-0.5l1.2-4.2c0.3-1.2-1.1-2.5-2.6-2.1
					C91.4,35.3,90.2,36.3,89.8,37.7z"/>
			</g>
		</g>
		<g>
			<g>
				
					<rect x="96.6" y="26.3" transform="matrix(0.9628 0.2702 -0.2702 0.9628 11.2164 -25.8603)" fill="#783128" width="5.8" height="3.1"/>
			</g>
			<g>
				<path fill="#D9B28D" d="M92.3,25.8c-0.4,1.4,0.1,2.9,1.3,4c1.1,1,3,0.7,3.3-0.5l1.2-4.2c0.3-1.2-1.1-2.5-2.6-2.1
					C93.9,23.4,92.7,24.4,92.3,25.8z"/>
			</g>
		</g>
	</g>
	<g>
		<path fill="#FAB74F" d="M112.2,44.9c2.7-4.5,9.6-0.9,12.8-10.2c3.2-9.3-1.8-13.6-7.9-15.4c-6.1-1.8-13.8-0.6-17,11.3
			C96.9,42.5,88.9,81.3,87.4,89c-1.6,7.8-0.8,8.7,1.7,10.1c2.4,1.3,4,4.8,4,8.6h22c0-14.4,3.6-17.9,5.5-19.7
			c1.9-1.8,4.1-1.6,3.9-3.5c-0.2-2-1.3-7.5-6.2-19.7C113.3,52.6,109.5,49.5,112.2,44.9z"/>
	</g>
	<g>
		<path fill="#DB8F30" d="M118.2,64.8c-3.7-9.1-6.7-13.2-6.9-16.5l-7.3,59.5h11c0-14.4,3.6-17.9,5.5-19.7c1.9-1.8,4.1-1.6,3.9-3.5
			C124.2,82.5,123.1,76.9,118.2,64.8z"/>
	</g>
	<g>
		<g>
			<g>
				<path fill="#FCEDE9" d="M96.8,90.6c0.2,2-1.3,3.7-3.3,3.9s-3.7-1.3-3.9-3.3c-0.2-2,1.3-3.7,3.3-3.9
					C94.9,87.2,96.6,88.6,96.8,90.6z"/>
			</g>
			<g>
				<path fill="#783128" d="M94.7,90.7c0.1,0.8-0.5,1.5-1.3,1.6c-0.8,0.1-1.5-0.5-1.6-1.3c-0.1-0.8,0.5-1.5,1.3-1.6
					C93.9,89.3,94.6,89.9,94.7,90.7z"/>
			</g>
		</g>
		<g>
			<g>
				<path fill="#FCEDE9" d="M99.5,78.7c0.2,2-1.3,3.7-3.3,3.9c-2,0.2-3.7-1.3-3.9-3.3c-0.2-2,1.3-3.7,3.3-3.9S99.3,76.7,99.5,78.7z"
					/>
			</g>
			<g>
				<path fill="#783128" d="M97.4,78.8c0.1,0.8-0.5,1.5-1.3,1.6c-0.8,0.1-1.5-0.5-1.6-1.3c-0.1-0.8,0.5-1.5,1.3-1.6
					C96.6,77.4,97.3,78,97.4,78.8z"/>
			</g>
		</g>
		<g>
			<g>
				<path fill="#FCEDE9" d="M102.2,66.7c0.2,2-1.3,3.7-3.3,3.9c-2,0.2-3.7-1.3-3.9-3.3c-0.2-2,1.3-3.7,3.3-3.9
					C100.3,63.3,102,64.8,102.2,66.7z"/>
			</g>
			<g>
				<path fill="#783128" d="M100.1,66.9c0.1,0.8-0.5,1.5-1.3,1.6c-0.8,0.1-1.5-0.5-1.6-1.3c-0.1-0.8,0.5-1.5,1.3-1.6
					C99.3,65.5,100,66.1,100.1,66.9z"/>
			</g>
		</g>
		<g>
			<g>
				<path fill="#FCEDE9" d="M104.8,54.8c0.2,2-1.3,3.7-3.3,3.9c-2,0.2-3.7-1.3-3.9-3.3c-0.2-2,1.3-3.7,3.3-3.9
					C103,51.4,104.7,52.8,104.8,54.8z"/>
			</g>
			<g>
				<path fill="#783128" d="M102.7,54.9c0.1,0.8-0.5,1.5-1.3,1.6c-0.8,0.1-1.5-0.5-1.6-1.3c-0.1-0.8,0.5-1.5,1.3-1.6
					C102,53.5,102.7,54.1,102.7,54.9z"/>
			</g>
		</g>
		<g>
			<g>
				<path fill="#FCEDE9" d="M107.5,42.8c0.2,2-1.3,3.7-3.3,3.9c-2,0.2-3.7-1.3-3.9-3.3c-0.2-2,1.3-3.7,3.3-3.9
					C105.6,39.4,107.4,40.9,107.5,42.8z"/>
			</g>
			<g>
				<path fill="#783128" d="M105.4,43c0.1,0.8-0.5,1.5-1.3,1.6c-0.8,0.1-1.5-0.5-1.6-1.3c-0.1-0.8,0.5-1.5,1.3-1.6
					C104.7,41.6,105.4,42.2,105.4,43z"/>
			</g>
		</g>
		<g>
			<g>
				<path fill="#FCEDE9" d="M110.2,30.9c0.2,2-1.3,3.7-3.3,3.9c-2,0.2-3.7-1.3-3.9-3.3c-0.2-2,1.3-3.7,3.3-3.9
					C108.3,27.5,110,28.9,110.2,30.9z"/>
			</g>
			<g>
				<path fill="#783128" d="M108.1,31c0.1,0.8-0.5,1.5-1.3,1.6c-0.8,0.1-1.5-0.5-1.6-1.3c-0.1-0.8,0.5-1.5,1.3-1.6
					C107.3,29.6,108,30.2,108.1,31z"/>
			</g>
		</g>
	</g>
	<g>
		<g>
			<path fill="#594F56" d="M128.1,440.6c-0.3,0.1-0.6,0-0.9-0.2c-0.5-0.4-0.6-1.1-0.2-1.7c0.9-1.2,1-1.7,2.1-7.9
				c0.4-2.3,0.9-5.3,1.7-9.5l0.4-2.2c2.4-12.9,2.7-14.5,2.7-16c0-1.6-0.5-12.1-0.6-14c0-0.7,0.5-1.2,1.1-1.3c0.7,0,1.2,0.5,1.3,1.1
				c0.1,1.7,0.6,12.4,0.6,14.2c0,1.7-0.3,3.1-2.8,16.4l-0.4,2.2c-0.8,4.1-1.3,7.2-1.7,9.4c-1.1,6.4-1.3,7.2-2.6,8.9
				C128.7,440.4,128.4,440.6,128.1,440.6z"/>
		</g>
	</g>
	<g>
		<path fill="#FCEDE9" d="M134.4,372.5c-0.9,0-2.4,5.1-2.2,11.6c0.2,6.5,1.1,6.7,2.6,6.7c1.5,0,2.4-0.3,2.3-6.8
			C137,377.5,135.2,372.5,134.4,372.5z"/>
	</g>
	<g>
		<g>
			<path fill="#FCEDE9" d="M88.5,439.1c-0.2,0-0.3-0.1-0.3-0.3v-5.9L94.1,112l1.3-21.1c0-0.2,0.2-0.3,0.3-0.3c0.2,0,0.3,0.2,0.3,0.3
				l-1.3,21.1l-5.9,320.9v5.9C88.8,439,88.6,439.1,88.5,439.1z"/>
		</g>
		<g>
			<path fill="#FCEDE9" d="M94.7,439.1c-0.2,0-0.3-0.1-0.3-0.3v-5.9L98,112V79c0-0.2,0.1-0.3,0.3-0.3c0.2,0,0.3,0.1,0.3,0.3V112
				L95,432.9v5.9C95,439,94.9,439.1,94.7,439.1z"/>
		</g>
		<g>
			<path fill="#FCEDE9" d="M100.9,439.1c-0.2,0-0.3-0.1-0.3-0.3v-5.9l1.2-320.9l-1.2-45c0-0.2,0.1-0.3,0.3-0.3c0,0,0,0,0,0
				c0.2,0,0.3,0.1,0.3,0.3l1.2,45l-1.2,320.9v5.9C101.2,439,101.1,439.1,100.9,439.1z"/>
		</g>
		<g>
			<path fill="#FCEDE9" d="M119.6,439.1c-0.2,0-0.3-0.1-0.3-0.3v-5.9L113.4,112l-4.8-80.9c0-0.2,0.1-0.3,0.3-0.3c0,0,0,0,0,0
				c0.2,0,0.3,0.1,0.3,0.3L114,112l5.9,320.9v5.9C119.9,439,119.8,439.1,119.6,439.1z"/>
		</g>
		<g>
			<path fill="#FCEDE9" d="M113.4,439.1c-0.2,0-0.3-0.1-0.3-0.3v-5.9L109.5,112L106,43.1c0-0.2,0.1-0.3,0.3-0.3
				c0.1,0,0.3,0.1,0.3,0.3l3.5,68.9l3.6,320.9v5.9C113.7,439,113.6,439.1,113.4,439.1z"/>
		</g>
		<g>
			<path fill="#FCEDE9" d="M107.2,439.1c-0.2,0-0.3-0.1-0.3-0.3v-5.9L105.7,112l-2.5-57c0-0.2,0.1-0.3,0.3-0.3
				c0.2,0,0.3,0.1,0.3,0.3l2.5,57l1.2,320.9v5.9C107.5,439,107.3,439.1,107.2,439.1z"/>
		</g>
	</g>
</g>
</svg>
