<?xml version="1.0" encoding="utf-8"?>
<!-- Generator: Adobe Illustrator 24.0.2, SVG Export Plug-In . SVG Version: 6.00 Build 0)  -->
<svg version="1.1" id="Layer_1" xmlns="http://www.w3.org/2000/svg" xmlns:xlink="http://www.w3.org/1999/xlink" x="0px" y="0px"
	 viewBox="0 0 210 518.7" enable-background="new 0 0 210 518.7" xml:space="preserve">
<g id="Telecaster_Guitar">
	<g>
		<path fill="#F5D287" d="M169.4,415.2c-8.8-19.4-17.1-30.6-10-47.7c7.1-17.1,18.7-43.8,2.4-58.3c-11.9-10.6-13.6,22.4-24.2,28.3
			c-22,12.2-20.5-6.6-31.6-37.8H95.7c-11.1,14.5-11.7,13.6-17.6,11.8c-5.9-1.8-21.2-15.9-38.3-2.4c-17.1,13.5-4.7,41.2,2.4,58.3
			c7.1,17.1-1.2,28.3-10,47.7c-8.8,19.4-19.4,44.2-5.9,66.5c13.5,22.4,30,25.9,74.5,25.9c44.5,0,61-3.5,74.5-25.9
			C188.8,459.4,178.2,434.7,169.4,415.2z"/>
	</g>
	<g>
		<path fill="#FAB74F" d="M100.8,502.7c-43.4,0-57.9-3.1-70.3-23.5c-11.6-19.2-3.7-40.2,6.2-62c1.4-3,2.7-5.8,4-8.5
			c7.2-14.9,12.9-26.7,6.1-43.1l-0.8-1.9c-6.6-15.9-16.6-39.9-3-50.6c4-3.2,8.1-4.7,12.4-4.7c6,0,11.7,3.1,15.8,5.3
			c2.2,1.2,3.9,2.1,5.6,2.6l0.6,0.2c1.6,0.5,3.2,1,5,1c0,0,0,0,0,0c5.1,0,8.4-3.4,15.8-12.8l-2.4-4.9
			c-11.1,14.5-11.7,13.6-17.6,11.8c-5.9-1.8-21.2-15.9-38.3-2.4c-17.1,13.5-4.7,41.2,2.4,58.3c7.1,17.1-1.2,28.3-10,47.7
			c-8.8,19.4-19.4,44.2-5.9,66.5c13.5,22.4,30,25.9,74.5,25.9L100.8,502.7z"/>
	</g>
	<g>
		<path fill="#FAB74F" d="M164.9,417.3c-1.4-3-2.7-5.8-4-8.5c-7.2-14.9-12.9-26.7-6.1-43.1l0.5-1.2c6.1-14.8,15.2-36.6,5.5-49.1
			c-2.8-3.6-5.1-0.8-5.7,0.5c-1.1,2.3-2.2,5.1-3.1,7.1c-3.1,7.6-6.2,15.5-12.1,18.8c-5.4,3-9.7,4.4-13.5,4.4
			c-11.6,0-14.9-11.3-19.5-26.9c-1.3-4.4-2.8-9.4-4.6-14.7h-4.4l2.7,198.1c43.4,0,57.9-3.1,70.3-23.5
			C182.7,460,174.8,439,164.9,417.3z"/>
	</g>
	<g>
		<path fill="#783128" d="M152.6,364.7l0.5-1.2c5.5-13.3,13.5-32.6,7.3-44.4c-0.9-1.7-3.4-1.5-4.1,0.2c-0.7,1.6-1.3,3.2-1.9,4.5
			c-3.2,8-6.5,16.3-13.2,20c-5.8,3.2-10.4,4.7-14.7,4.7c-13.4,0-17.3-13.3-21.8-28.6c-8.4,0-17.9-1.6-23.4,3.5
			c-20.3,18.8-26.4,61.2-18.3,81c0.6,1.4,1.9,2.3,3.4,2.3h85.2c2.6,0,4.5-2.7,3.4-5.1C149.7,390.1,146.7,378.9,152.6,364.7z"/>
	</g>
	<g>
		<path fill="#59060C" d="M152.6,364.7l0.5-1.2c5.5-13.3,13.5-32.6,7.3-44.4c-0.9-1.7-3.4-1.5-4.1,0.2c-0.7,1.6-1.3,3.2-1.9,4.5
			c-3.2,8-6.5,16.3-13.2,20c-5.8,3.2-10.4,4.7-14.7,4.7c-13.4,0-17.3-13.3-21.8-28.6c-1.3,0-2.6,0-3.9-0.1v86.9h50.7
			c2.6,0,4.5-2.7,3.4-5.1C149.7,390.1,146.7,378.9,152.6,364.7z"/>
	</g>
	<g>
		<path fill="#D6D7E9" d="M118.9,445.8H82.7c-0.8,0-1.5-0.7-1.5-1.5v-41.4c0-0.8,0.7-1.5,1.5-1.5h36.2c0.8,0,1.5,0.7,1.5,1.5v41.4
			C120.4,445.1,119.7,445.8,118.9,445.8z"/>
	</g>
	<g>
		<path fill="#AEB7D4" d="M116.7,401.4h-15.9v44.4h15.9c2,0,3.7-1.6,3.7-3.7v-37C120.4,403,118.7,401.4,116.7,401.4z"/>
	</g>
	<g>
		<path fill="#AEB7D4" d="M142.5,480.2L142.5,480.2c-4.1,0-7.4-3.3-7.4-7.4v-64.2c0-4.1,3.3-7.4,7.4-7.4l0,0c4.1,0,7.4,3.3,7.4,7.4
			v64.2C149.9,476.9,146.6,480.2,142.5,480.2z"/>
	</g>
	<g>
		<path fill="#C26152" d="M120,377.2H81.4c-2,0-3.7-1.6-3.7-3.7v-17.2c0-2,1.6-3.7,3.7-3.7H120c2,0,3.7,1.6,3.7,3.9v17.2
			C123.7,375.5,122.1,377.2,120,377.2z"/>
	</g>
	<g>
		<path fill="#783128" d="M120,352.6h-19.2v24.6H120c2,0,3.7-1.6,3.7-3.4v-17.2C123.7,354.3,122.1,352.6,120,352.6z"/>
	</g>
	<g>
		<path fill="#D6D7E9" d="M117.7,374.3h-34c-0.8,0-1.5-0.7-1.5-1.5V357c0-0.8,0.7-1.5,1.5-1.5h34c0.8,0,1.5,0.7,1.5,1.5v15.8
			C119.2,373.6,118.5,374.3,117.7,374.3z"/>
	</g>
	<g>
		<path fill="#AEB7D4" d="M115.5,355.5h-14.8v18.8h14.8c2,0,3.7-1.6,3.7-3.7v-11.5C119.2,357.1,117.5,355.5,115.5,355.5z"/>
	</g>
	<g>
		<path fill="#C26152" d="M112.9,344.7H88.5c-1.4,0-2.5-1.1-2.5-2.5l3.2-236.6h22.8l3.2,236.6C115.4,343.6,114.2,344.7,112.9,344.7z
			"/>
	</g>
	<g>
		<g>
			<path fill="#0B0621" d="M116.2,412.4L87.6,406c-2.7-0.6-5.3,1.1-5.9,3.7l0,0c-0.6,2.7,1.1,5.3,3.7,5.9L114,422
				c2.7,0.6,5.3-1.1,5.9-3.7l0,0C120.5,415.6,118.8,413,116.2,412.4z"/>
		</g>
		<g>
			<g>
				<path fill="#FCEDE9" d="M88.8,411.5c-0.2,1-1.2,1.6-2.2,1.4c-1-0.2-1.6-1.2-1.4-2.2c0.2-1,1.2-1.6,2.2-1.4
					C88.4,409.5,89,410.5,88.8,411.5z"/>
			</g>
			<g>
				<path fill="#FCEDE9" d="M94.3,412.6c-0.2,1-1.2,1.6-2.2,1.4c-1-0.2-1.6-1.2-1.4-2.2c0.2-1,1.2-1.6,2.2-1.4
					C93.9,410.7,94.5,411.6,94.3,412.6z"/>
			</g>
			<g>
				<path fill="#FCEDE9" d="M99.8,413.8c-0.2,1-1.2,1.6-2.2,1.4c-1-0.2-1.6-1.2-1.4-2.2c0.2-1,1.2-1.6,2.2-1.4
					C99.4,411.8,100,412.8,99.8,413.8z"/>
			</g>
			<g>
				<path fill="#FCEDE9" d="M105.4,415c-0.2,1-1.2,1.6-2.2,1.4c-1-0.2-1.6-1.2-1.4-2.2c0.2-1,1.2-1.6,2.2-1.4
					C104.9,413,105.6,414,105.4,415z"/>
			</g>
			<g>
				<path fill="#FCEDE9" d="M110.9,416.1c-0.2,1-1.2,1.6-2.2,1.4c-1-0.2-1.6-1.2-1.4-2.2c0.2-1,1.2-1.6,2.2-1.4
					C110.5,414.1,111.1,415.1,110.9,416.1z"/>
			</g>
			<g>
				<path fill="#FCEDE9" d="M116.4,417.3c-0.2,1-1.2,1.6-2.2,1.4c-1-0.2-1.6-1.2-1.4-2.2c0.2-1,1.2-1.6,2.2-1.4
					C116,415.3,116.6,416.3,116.4,417.3z"/>
			</g>
		</g>
	</g>
	<g>
		<circle fill="#783128" cx="142.5" cy="439" r="4.3"/>
	</g>
	<g>
		<circle fill="#783128" cx="142.5" cy="467.7" r="4.3"/>
	</g>
	<g>
		<path fill="#807A83" d="M142.5,424.9L142.5,424.9c-0.3,0-0.6-0.2-0.6-0.6v-13.1c0-0.3,0.2-0.6,0.6-0.6l0,0c0.3,0,0.6,0.2,0.6,0.6
			v13.1C143.1,424.6,142.8,424.9,142.5,424.9z"/>
	</g>
	<g>
		<path fill="#783128" d="M144.9,421.2h-4.8c-0.6,0-1.1-0.5-1.1-1.1v-4.8c0-0.6,0.5-1.1,1.1-1.1h4.8c0.6,0,1.1,0.5,1.1,1.1v4.8
			C146,420.7,145.5,421.2,144.9,421.2z"/>
	</g>
	<g>
		<path fill="#783128" d="M91,430.8v16.3c0,0.3-0.2,0.5-0.5,0.5h-1.8c-0.3,0-0.5-0.2-0.5-0.5v-16.3c0-0.3,0.2-0.5,0.5-0.5h1.8
			C90.8,430.3,91,430.6,91,430.8z"/>
	</g>
	<g>
		<path fill="#783128" d="M102.1,430.8v16.3c0,0.3-0.2,0.5-0.5,0.5h-1.8c-0.3,0-0.5-0.2-0.5-0.5v-16.3c0-0.3,0.2-0.5,0.5-0.5h1.8
			C101.9,430.3,102.1,430.6,102.1,430.8z"/>
	</g>
	<g>
		<path fill="#783128" d="M113.3,430.8v16.3c0,0.3-0.2,0.5-0.5,0.5H111c-0.3,0-0.5-0.2-0.5-0.5v-16.3c0-0.3,0.2-0.5,0.5-0.5h1.8
			C113.1,430.3,113.3,430.6,113.3,430.8z"/>
	</g>
	<g>
		<path fill="#807A83" d="M116.7,437h-9.6c-0.3,0-0.5-0.2-0.5-0.5v-1.8c0-0.3,0.2-0.5,0.5-0.5h9.6c0.3,0,0.5,0.2,0.5,0.5v1.8
			C117.2,436.8,117,437,116.7,437z"/>
	</g>
	<g>
		<path fill="#807A83" d="M105.6,437H96c-0.3,0-0.5-0.2-0.5-0.5v-1.8c0-0.3,0.2-0.5,0.5-0.5h9.6c0.3,0,0.5,0.2,0.5,0.5v1.8
			C106,436.7,105.8,437,105.6,437z"/>
	</g>
	<g>
		<path fill="#807A83" d="M94.4,437h-9.6c-0.3,0-0.5-0.2-0.5-0.5v-1.8c0-0.3,0.2-0.5,0.5-0.5h9.6c0.3,0,0.5,0.2,0.5,0.5v1.8
			C94.9,436.7,94.7,437,94.4,437z"/>
	</g>
	<g>
		<path fill="#FCEDE9" d="M114.2,260.4l0,1.6H87.2l0-1.6H114.2z M86.7,296.1l0,1.6h28.1l0-1.6H86.7z M86.6,303.9l0,1.6h28.3l0-1.6
			H86.6z M86.9,279.3l0,1.6h27.6l0-1.6H86.9z M87,270l0,1.6h27.3l0-1.6H87z M86.8,287.9l0,1.6h27.8l0-1.6H86.8z M86.2,331.1l0,1.6
			h29l0-1.6H86.2z M115.3,336.9H86.1l0,1.6h29.2L115.3,336.9z M86.4,318l0,1.6H115l0-1.6H86.4z M86.5,311.4l0,1.6h28.5l0-1.6H86.5z
			 M86.3,325l0,1.6h28.8l0-1.6H86.3z M88.6,157.3l0,1.6h24.3l0-1.6H88.6z M88.4,172.9l0,1.6H113l0-1.6H88.4z M88.2,187.6l0,1.6h25.1
			l0-1.6H88.2z M89,123.2l0,1.6h23.4l0-1.6H89z M88.8,140.5l0,1.6h23.8l0-1.6H88.8z M88,201.7l0,1.6h25.5l0-1.6H88z M87.5,238.9
			l0,1.6h26.5l0-1.6H87.5z M87.6,227.2l0,1.6h26.2l0-1.6H87.6z M87.8,214.6l0,1.6h25.8l0-1.6H87.8z M87.3,249.6l0,1.6h26.8l0-1.6
			H87.3z"/>
	</g>
	<g>
		<polygon fill="#FCEDE9" points="112.2,102.4 89.2,102.4 89.2,105.6 112.2,105.6 		"/>
	</g>
	<g>
		<polygon fill="#C26152" points="112.2,99.1 89.2,99.1 89.2,102.4 112.2,102.4 		"/>
	</g>
	<g>
		<g>
			<g>
				
					<rect x="82.4" y="79.7" transform="matrix(0.9367 0.3502 -0.3502 0.9367 33.8638 -24.7509)" fill="#783128" width="6" height="3.2"/>
			</g>
			<g>
				<path fill="#D9B28D" d="M78.2,78.6c-0.5,1.4-0.1,3,1,4.2c1,1.1,3,1,3.4-0.2l1.6-4.2c0.4-1.2-1-2.6-2.5-2.4
					C80,76.3,78.7,77.2,78.2,78.6z"/>
			</g>
		</g>
		<g>
			<g>
				
					<rect x="87.4" y="66.3" transform="matrix(0.3502 -0.9367 0.9367 0.3502 -7.1103 128.3297)" fill="#783128" width="3.2" height="6"/>
			</g>
			<g>
				<path fill="#D9B28D" d="M81.8,66.6c-0.5,1.4-0.1,3,1,4.2c1,1.1,3,1,3.4-0.2l1.6-4.2c0.4-1.2-1-2.6-2.5-2.4
					C83.6,64.3,82.3,65.2,81.8,66.6z"/>
			</g>
		</g>
		<g>
			<g>
				
					<rect x="90.9" y="54.3" transform="matrix(0.3502 -0.9367 0.9367 0.3502 6.4209 123.899)" fill="#783128" width="3.2" height="6"/>
			</g>
			<g>
				<path fill="#D9B28D" d="M85.3,54.6c-0.5,1.4-0.1,3,1,4.2c1,1.1,3,1,3.4-0.2l1.6-4.2c0.4-1.2-1-2.6-2.5-2.4
					C87.2,52.3,85.8,53.2,85.3,54.6z"/>
			</g>
		</g>
		<g>
			<g>
				
					<rect x="94.5" y="42.4" transform="matrix(0.3502 -0.9367 0.9367 0.3502 19.9531 119.4693)" fill="#783128" width="3.2" height="6"/>
			</g>
			<g>
				<path fill="#D9B28D" d="M88.9,42.7c-0.5,1.4-0.1,3,1,4.2c1,1.1,3,1,3.4-0.2l1.6-4.2c0.4-1.2-1-2.6-2.5-2.4
					C90.8,40.4,89.4,41.3,88.9,42.7z"/>
			</g>
		</g>
		<g>
			<g>
				
					<rect x="98.1" y="30.4" transform="matrix(0.3502 -0.9367 0.9367 0.3502 33.4845 115.0385)" fill="#783128" width="3.2" height="6"/>
			</g>
			<g>
				<path fill="#D9B28D" d="M92.5,30.7c-0.5,1.4-0.1,3,1,4.2c1,1.1,3,1,3.4-0.2l1.6-4.2c0.4-1.2-1-2.6-2.5-2.4
					C94.3,28.4,93,29.3,92.5,30.7z"/>
			</g>
		</g>
		<g>
			<g>
				
					<rect x="100.2" y="19.8" transform="matrix(0.9367 0.3502 -0.3502 0.9367 14.0388 -34.7968)" fill="#783128" width="6" height="3.2"/>
			</g>
			<g>
				<path fill="#D9B28D" d="M96,18.7c-0.5,1.4-0.1,3,1,4.2c1,1.1,3,1,3.4-0.2l1.6-4.2c0.4-1.2-1-2.6-2.5-2.4
					C97.9,16.4,96.6,17.3,96,18.7z"/>
			</g>
		</g>
	</g>
	<g>
		<path fill="#FAB74F" d="M122.7,25.5c0.8-3.6-0.7-7.4-5.9-9.9c-10.8-5.1-12.8,7.8-16.7,21c-3.9,13.2-14.2,46.6-15.9,52.2
			s-0.5,5.8,0.9,7.1c1.4,1.2,4.2,1.7,4.2,3.2h22.9c0-17.3,3-24,6.2-29.9c2.7-5.1,3.4-10,2.9-14.3C118.8,35.7,121.2,32.2,122.7,25.5z
			"/>
	</g>
	<g>
		<path fill="#DB8F30" d="M101.2,99.1h11c0-17.3,3-24,6.2-29.9c2.7-5.1,3.4-10,2.9-14.3c-2.5-19.1-0.1-22.6,1.4-29.3
			C123.5,21.9,101.2,99.1,101.2,99.1z"/>
	</g>
	<g>
		<g>
			<g>
				<path fill="#FCEDE9" d="M95.1,85.3c0,2-1.6,3.7-3.7,3.7s-3.7-1.6-3.7-3.7s1.6-3.7,3.7-3.7S95.1,83.3,95.1,85.3z"/>
			</g>
			<g>
				<path fill="#783128" d="M92.9,85.3c0,0.8-0.7,1.5-1.5,1.5s-1.5-0.7-1.5-1.5s0.7-1.5,1.5-1.5S92.9,84.5,92.9,85.3z"/>
			</g>
		</g>
		<g>
			<g>
				<path fill="#FCEDE9" d="M98.8,73.4c0,2-1.6,3.7-3.7,3.7c-2,0-3.7-1.6-3.7-3.7s1.6-3.7,3.7-3.7C97.2,69.7,98.8,71.3,98.8,73.4z"
					/>
			</g>
			<g>
				<path fill="#783128" d="M96.7,73.3c0,0.8-0.7,1.5-1.5,1.5c-0.8,0-1.5-0.7-1.5-1.5s0.7-1.5,1.5-1.5C96,71.8,96.7,72.5,96.7,73.3z
					"/>
			</g>
		</g>
		<g>
			<g>
				<circle fill="#FCEDE9" cx="98.9" cy="61.4" r="3.7"/>
			</g>
			<g>
				<circle fill="#783128" cx="98.9" cy="61.4" r="1.5"/>
			</g>
		</g>
		<g>
			<g>
				<path fill="#FCEDE9" d="M106.3,49.4c0,2-1.6,3.7-3.7,3.7S99,51.4,99,49.4c0-2,1.6-3.7,3.7-3.7S106.3,47.4,106.3,49.4z"/>
			</g>
			<g>
				<path fill="#783128" d="M104.2,49.4c0,0.8-0.7,1.5-1.5,1.5s-1.5-0.7-1.5-1.5s0.7-1.5,1.5-1.5S104.2,48.6,104.2,49.4z"/>
			</g>
		</g>
		<g>
			<g>
				<path fill="#FCEDE9" d="M110.1,37.5c0,2-1.6,3.7-3.7,3.7c-2,0-3.7-1.6-3.7-3.7c0-2,1.6-3.7,3.7-3.7
					C108.5,33.8,110.1,35.4,110.1,37.5z"/>
			</g>
			<g>
				<path fill="#783128" d="M108,37.4c0,0.8-0.7,1.5-1.5,1.5c-0.8,0-1.5-0.7-1.5-1.5s0.7-1.5,1.5-1.5C107.3,35.9,108,36.6,108,37.4z
					"/>
			</g>
		</g>
		<g>
			<g>
				<circle fill="#FCEDE9" cx="110.2" cy="25.5" r="3.7"/>
			</g>
			<g>
				<circle fill="#783128" cx="110.2" cy="25.4" r="1.5"/>
			</g>
		</g>
	</g>
	<g>
		<g>
			<path fill="#FCEDE9" d="M86.1,446.6c-0.2,0-0.3-0.1-0.3-0.3v-10.5l5.6-333.4l2-16.7c0-0.2,0.2-0.3,0.3-0.3c0.2,0,0.3,0.2,0.3,0.3
				l-2,16.6l-5.6,333.4v10.5C86.4,446.5,86.3,446.6,86.1,446.6z"/>
		</g>
		<g>
			<path fill="#FCEDE9" d="M92,446.6c-0.2,0-0.3-0.1-0.3-0.3v-10.5L95,102.4l2.2-29c0-0.2,0.1-0.3,0.3-0.3c0,0,0,0,0,0
				c0.2,0,0.3,0.2,0.3,0.3l-2.2,29l-3.3,333.4v10.5C92.3,446.5,92.2,446.6,92,446.6z"/>
		</g>
		<g>
			<path fill="#FCEDE9" d="M97.9,446.6c-0.2,0-0.3-0.1-0.3-0.3v-10.5l1-333.4l2.3-40.6c0-0.2,0.2-0.3,0.3-0.3c0.2,0,0.3,0.2,0.3,0.3
				l-2.3,40.6l-1,333.4v10.5C98.2,446.5,98,446.6,97.9,446.6z"/>
		</g>
		<g>
			<path fill="#FCEDE9" d="M115.3,446.6c-0.2,0-0.3-0.1-0.3-0.3v-10.5l-5.6-333.4l2.8-76.9c0-0.2,0.1-0.3,0.3-0.3
				c0.2,0,0.3,0.1,0.3,0.3l-2.8,76.9l5.6,333.4v10.5C115.6,446.5,115.5,446.6,115.3,446.6z"/>
		</g>
		<g>
			<path fill="#FCEDE9" d="M109.4,446.6c-0.2,0-0.3-0.1-0.3-0.3v-10.5l-3.3-333.4l2.6-64.9c0-0.2,0.1-0.3,0.3-0.3
				c0.2,0,0.3,0.1,0.3,0.3l-2.6,64.9l3.3,333.4v10.5C109.7,446.5,109.6,446.6,109.4,446.6z"/>
		</g>
		<g>
			<path fill="#FCEDE9" d="M103.6,446.6c-0.2,0-0.3-0.1-0.3-0.3v-10.5l-1-333.4c0,0,0.6-13.1,1.2-26.2c0.3-6.5,0.6-13.1,0.8-18
				c0.2-5.3,0.3-7.3,0.4-8c0,0,0-0.1,0-0.1l0.1,0c0.1-0.3,0.1-0.3,0.2-0.3l0.3,0l0,0.3c0,0,0,0.1,0,0.1c-0.1,1.2-1.6,34.6-2.4,52.3
				l1,333.4v10.5C103.9,446.5,103.7,446.6,103.6,446.6z"/>
		</g>
	</g>
</g>
</svg>
