<?xml version="1.0" encoding="utf-8"?>
<!-- Generator: Adobe Illustrator 24.0.2, SVG Export Plug-In . SVG Version: 6.00 Build 0)  -->
<svg version="1.1" id="Layer_1" xmlns="http://www.w3.org/2000/svg" xmlns:xlink="http://www.w3.org/1999/xlink" x="0px" y="0px"
	 viewBox="0 0 208.6 483.3" enable-background="new 0 0 208.6 483.3" xml:space="preserve">
<g id="Acoustic_Bass_Guitar">
	<g>
		<path fill="#F5D287" d="M173,352.3c-10.3-12.1-14-17.9-7.6-30.6c6.5-12.7,14.6-31.1-1.1-48.5s-40-16.4-56.7-16.4
			s-41.1-1.1-56.7,16.4c-15.7,17.4-7.6,35.9-1.1,48.5c6.5,12.7,2.7,18.5-7.6,30.6s-23.8,28-22.1,62.8s34.6,57.5,87.5,57.5
			s85.9-22.7,87.5-57.5S183.2,364.4,173,352.3z"/>
	</g>
	<g>
		<path fill="#FAB74F" d="M24.9,414.8c-1.5-32.8,10.9-47.5,20.9-59.3c10.4-12.3,16.3-20.5,8.3-36c-6.7-13.2-12.8-28.5,0.4-43.1
			c12.3-13.6,30.9-14.8,47.5-14.8h5.7v-4.8c-16.7,0-41.1-1.1-56.7,16.4c-15.7,17.4-7.6,35.9-1.1,48.5c6.5,12.7,2.7,18.5-7.6,30.6
			s-23.8,28-22.1,62.8c1.6,34.8,34.6,57.5,87.5,57.5v-4.8C58.1,467.7,26.4,447.5,24.9,414.8z"/>
	</g>
	<g>
		<path fill="#FAB74F" d="M169.3,355.4c-10.3-12.1-16.1-20.3-8.2-35.9c6.7-13.2,12.8-28.5-0.4-43.1c-12.3-13.6-30.9-14.8-47.5-14.8
			h-5.7v206.1c49.5,0,81.2-20.3,82.7-52.9C191.8,382,179.4,367.3,169.3,355.4z"/>
	</g>
	<g>
		<g>
			<path fill="#A14C40" d="M78.3,392.5V403c0,0.7,0.5,1.2,1.2,1.2c13.4,0.3,8.7,5.9,19.9,5.9h16.3c11.3,0,6.6-5.6,19.9-5.9
				c0.7,0,1.2-0.5,1.2-1.2v-10.5c0-0.7-0.5-1.2-1.2-1.2H79.5C78.9,391.3,78.3,391.8,78.3,392.5z"/>
		</g>
		<g>
			<circle fill="#FCEDE9" cx="96.5" cy="403.4" r="2"/>
		</g>
		<g>
			<path fill="#FCEDE9" d="M103.9,401.3c-1.1,0-2,0.9-2,2s0.9,2,2,2s2-0.9,2-2C106,402.2,105.1,401.3,103.9,401.3z"/>
		</g>
		<g>
			<path fill="#FCEDE9" d="M111.4,401.3c-1.1,0-2,0.9-2,2s0.9,2,2,2s2-0.9,2-2C113.4,402.2,112.5,401.3,111.4,401.3z"/>
		</g>
		<g>
			<circle fill="#FCEDE9" cx="118.8" cy="403.4" r="2"/>
		</g>
		<g>
			<rect x="90.1" y="393.7" fill="#FCEDE9" width="35.1" height="3.2"/>
		</g>
	</g>
	<g>
		<circle fill="#59060C" cx="107.6" cy="321.4" r="22.8"/>
	</g>
	<g>
		<path fill="#A14C40" d="M107.6,346.6c-13.9,0-25.2-11.3-25.2-25.2c0-13.9,11.3-25.2,25.2-25.2s25.2,11.3,25.2,25.2
			C132.8,335.3,121.5,346.6,107.6,346.6z M107.6,297.4c-13.2,0-24,10.8-24,24s10.8,24,24,24s24-10.8,24-24
			C131.6,308.2,120.8,297.4,107.6,297.4z M107.6,356.6c-19.4,0-35.2-15.8-35.2-35.2s15.8-35.2,35.2-35.2s35.2,15.8,35.2,35.2
			S127.1,356.6,107.6,356.6z M107.6,287.3c-18.8,0-34,15.3-34,34c0,18.8,15.3,34,34,34c18.8,0,34-15.3,34-34
			C141.7,302.6,126.4,287.3,107.6,287.3z M107.6,353.4c-17.7,0-32-14.4-32-32c0-17.7,14.4-32,32-32c17.7,0,32,14.4,32,32
			S125.3,353.4,107.6,353.4z M107.6,294.2c-15,0-27.2,12.2-27.2,27.2s12.2,27.2,27.2,27.2s27.2-12.2,27.2-27.2
			S122.6,294.2,107.6,294.2z"/>
	</g>
	<g>
		<polygon fill="#C26152" points="98.9,63.5 94.3,306.2 120.9,306.2 116.4,63.5 		"/>
	</g>
	<g>
		<path fill="#FCEDE9" d="M118.4,174.8H96.8v-1.4h21.6V174.8z M118.6,185.7h-22v1.4h22.1L118.6,185.7z M118.8,196.5H96.4v1.4h22.5
			L118.8,196.5z M119.1,207.6H96.2v1.4h22.9V207.6z M118.2,159.6H97.1v1.4h21.1V159.6z M98.5,82.8v1.4h18.3v-1.4H98.5z M117,99.1
			H98.2v1.4h18.9L117,99.1z M119.3,218.2H96v1.4h23.3V218.2z M117.9,145.9H97.3v1.4h20.6V145.9z M117.3,115.7H97.9v1.4h19.5
			L117.3,115.7z M117.6,131.4h-20v1.4h20.1L117.6,131.4z M94.7,289.9v1.4h26v-1.4H94.7z M94.9,275.8v1.4h25.5v-1.4H94.9z
			 M94.5,295.6v1.4h26.2v-1.4H94.5z M94.8,283v1.4h25.7V283H94.8z M95,269.4v1.4h25.2v-1.4H95z M95.2,262.4v1.4h25v-1.4H95.2z
			 M119.8,246H95.5v1.4h24.4L119.8,246z M119.4,228.1H95.8v1.4h23.7L119.4,228.1z M119.6,237.8h-24v1.4h24V237.8z M120.8,301.2H94.4
			v1.4h26.4V301.2z M119.9,254.4H95.3v1.4H120L119.9,254.4z"/>
	</g>
	<g>
		<polygon fill="#FCEDE9" points="116.4,60.5 98.8,60.5 98.8,63.5 116.4,63.5 		"/>
	</g>
	<g>
		<g>
			<rect x="121.5" y="21.1" fill="#59060C" width="5.9" height="2.8"/>
		</g>
		<g>
			<path fill="#D9B28D" d="M133.1,22.5c0,2.8-1.4,5.3-3.4,6.6c-1.3,0.8-3.2-0.1-3.2-1.6v-9.9c0-1.4,1.9-2.4,3.2-1.6
				C131.8,17.2,133.1,19.7,133.1,22.5z"/>
		</g>
	</g>
	<g>
		<g>
			<rect x="120.3" y="39.6" fill="#59060C" width="5.9" height="2.8"/>
		</g>
		<g>
			<path fill="#D9B28D" d="M131.9,41c0,2.8-1.4,5.3-3.4,6.6c-1.3,0.8-3.2-0.1-3.2-1.6V36c0-1.4,1.9-2.4,3.2-1.6
				C130.6,35.7,131.9,38.1,131.9,41z"/>
		</g>
	</g>
	<g>
		<g>
			<rect x="88.1" y="21.1" fill="#59060C" width="5.9" height="2.8"/>
		</g>
		<g>
			<path fill="#D9B28D" d="M82.3,22.5c0,2.8,1.4,5.3,3.4,6.6c1.3,0.8,3.2-0.1,3.2-1.6v-9.9c0-1.4-1.9-2.4-3.2-1.6
				C83.7,17.2,82.3,19.7,82.3,22.5z"/>
		</g>
	</g>
	<g>
		<g>
			<rect x="89.3" y="39.6" fill="#59060C" width="5.9" height="2.8"/>
		</g>
		<g>
			<path fill="#D9B28D" d="M83.5,41c0,2.8,1.4,5.3,3.4,6.6c1.3,0.8,3.2-0.1,3.2-1.6V36c0-1.4-1.9-2.4-3.2-1.6
				C84.9,35.7,83.5,38.1,83.5,41z"/>
		</g>
	</g>
	<g>
		<path fill="#A14C40" d="M95.1,8.8c-1.8,0-3.3,1.3-3.3,3c0,9,1,30,1.4,36.6c0.1,1.2,0.6,2.2,1.5,3.1c1.6,1.4,4.1,4.3,4.1,9h17.6
			c0-4.6,2.5-7.6,4.2-9c0.9-0.8,1.4-1.9,1.5-3.1c0.3-6.6,1.4-27.6,1.4-36.7c0-1.6-1.5-3-3.3-3L95.1,8.8L95.1,8.8z"/>
	</g>
	<g>
		<path fill="#783128" d="M120.1,8.8h-12.5v51.7h8.8c0-4.6,2.5-7.6,4.2-9c0.9-0.8,1.4-1.9,1.5-3.1c0.3-6.6,1.4-27.6,1.4-36.7
			C123.5,10.2,122,8.8,120.1,8.8z"/>
	</g>
	<g>
		<g>
			<path fill="#FCEDE9" d="M120.5,23.9c0,1.8-1.6,3.2-3.6,3.2s-3.6-1.4-3.6-3.2c0-1.8,1.6-3.2,3.6-3.2S120.5,22.1,120.5,23.9z"/>
		</g>
		<g>
			<path fill="#783128" d="M118.4,23.9c0,0.7-0.7,1.3-1.5,1.3s-1.5-0.6-1.5-1.3c0-0.7,0.7-1.3,1.5-1.3
				C117.7,22.6,118.4,23.2,118.4,23.9z"/>
		</g>
	</g>
	<g>
		<g>
			<path fill="#FCEDE9" d="M119.3,42.4c0,1.8-1.6,3.2-3.6,3.2s-3.6-1.4-3.6-3.2c0-1.8,1.6-3.2,3.6-3.2S119.3,40.6,119.3,42.4z"/>
		</g>
		<g>
			<path fill="#783128" d="M117.2,42.4c0,0.7-0.7,1.3-1.5,1.3s-1.5-0.6-1.5-1.3c0-0.7,0.7-1.3,1.5-1.3S117.2,41.6,117.2,42.4z"/>
		</g>
	</g>
	<g>
		<g>
			<path fill="#FCEDE9" d="M94.7,23.9c0,1.8,1.6,3.2,3.6,3.2s3.6-1.4,3.6-3.2c0-1.8-1.6-3.2-3.6-3.2S94.7,22.1,94.7,23.9z"/>
		</g>
		<g>
			<ellipse fill="#783128" cx="98.3" cy="23.9" rx="1.5" ry="1.3"/>
		</g>
	</g>
	<g>
		<g>
			<path fill="#FCEDE9" d="M95.9,42.4c0,1.8,1.6,3.2,3.6,3.2s3.6-1.4,3.6-3.2c0-1.8-1.6-3.2-3.6-3.2S95.9,40.6,95.9,42.4z"/>
		</g>
		<g>
			<path fill="#783128" d="M98.1,42.4c0,0.7,0.7,1.3,1.5,1.3s1.5-0.6,1.5-1.3c0-0.7-0.7-1.3-1.5-1.3C98.7,41.1,98.1,41.6,98.1,42.4z
				"/>
		</g>
	</g>
	<g>
		<g>
			<polygon fill="#FCEDE9" points="97.4,403.4 95.6,403.4 95.6,394.7 100.6,60.5 100.1,44.1 101.9,44 102.4,60.5 97.4,394.7 			"/>
		</g>
		<g>
			<polygon fill="#FCEDE9" points="104.9,403.4 103,403.4 103,394.7 104.6,60.6 100.1,24.5 101.9,24.3 106.4,60.5 104.9,394.7 			
				"/>
		</g>
		<g>
			<polygon fill="#FCEDE9" points="119.7,403.4 117.9,403.4 117.9,394.7 112.9,60.6 113.3,44.4 115.2,44.5 114.7,60.6 119.7,394.7 
							"/>
		</g>
		<g>
			<polygon fill="#FCEDE9" points="112.2,403.4 110.4,403.4 110.4,394.7 108.8,60.6 113.3,23.3 115.1,23.5 110.6,60.7 112.2,394.7 
							"/>
		</g>
	</g>
</g>
</svg>
