<?xml version="1.0" encoding="utf-8"?>
<!-- Generator: Adobe Illustrator 24.0.2, SVG Export Plug-In . SVG Version: 6.00 Build 0)  -->
<svg version="1.1" id="Layer_1" xmlns="http://www.w3.org/2000/svg" xmlns:xlink="http://www.w3.org/1999/xlink" x="0px" y="0px"
	 viewBox="0 0 208.6 558.3" enable-background="new 0 0 208.6 558.3" xml:space="preserve">
<g id="Acoustic_Bass_Guitar">
	<g>
		<path fill="#F5D287" d="M173,409.3c-10.3-12.1-14-17.9-7.6-30.6c6.5-12.7,14.6-31.1-1.1-48.5c-15.7-17.4-40-16.4-56.7-16.4
			c-16.7,0-41.1-1.1-56.7,16.4c-15.7,17.4-7.6,35.9-1.1,48.5c6.5,12.7,2.7,18.5-7.6,30.6c-10.3,12.1-23.8,28-22.1,62.8
			s34.6,57.5,87.5,57.5c52.9,0,85.9-22.7,87.5-57.5S183.2,421.4,173,409.3z"/>
	</g>
	<g>
		<path fill="#FAB74F" d="M24.9,471.8c-1.5-32.8,10.9-47.5,20.9-59.3c10.4-12.3,16.3-20.5,8.3-36c-6.7-13.2-12.8-28.5,0.4-43.1
			c12.3-13.6,30.9-14.8,47.5-14.8l5.7,0l0-4.8c-16.7,0-41.1-1.1-56.7,16.4c-15.7,17.4-7.6,35.9-1.1,48.5c6.5,12.7,2.7,18.5-7.6,30.6
			c-10.3,12.1-23.8,28-22.1,62.8c1.6,34.8,34.6,57.5,87.5,57.5l0-4.8C58.1,524.7,26.4,504.5,24.9,471.8z"/>
	</g>
	<g>
		<path fill="#FAB74F" d="M169.3,412.4c-10.3-12.1-16.1-20.3-8.2-35.9c6.7-13.2,12.8-28.5-0.4-43.1c-12.3-13.6-30.9-14.8-47.5-14.8
			l-5.7,0v206.1c49.5,0,81.2-20.3,82.7-52.9C191.8,439,179.4,424.3,169.3,412.4z"/>
	</g>
	<g>
		<g>
			<path fill="#A14C40" d="M78.3,449.5V460c0,0.7,0.5,1.2,1.2,1.2c13.4,0.3,8.7,5.9,19.9,5.9h16.3c11.3,0,6.6-5.6,19.9-5.9
				c0.7,0,1.2-0.5,1.2-1.2v-10.5c0-0.7-0.5-1.2-1.2-1.2H79.5C78.9,448.3,78.3,448.8,78.3,449.5z"/>
		</g>
		<g>
			<circle fill="#FCEDE9" cx="96.5" cy="460.4" r="2"/>
		</g>
		<g>
			<path fill="#FCEDE9" d="M103.9,458.3c-1.1,0-2,0.9-2,2c0,1.1,0.9,2,2,2c1.1,0,2-0.9,2-2C106,459.2,105.1,458.3,103.9,458.3z"/>
		</g>
		<g>
			<path fill="#FCEDE9" d="M111.4,458.3c-1.1,0-2,0.9-2,2c0,1.1,0.9,2,2,2c1.1,0,2-0.9,2-2C113.4,459.2,112.5,458.3,111.4,458.3z"/>
		</g>
		<g>
			<circle fill="#FCEDE9" cx="118.8" cy="460.4" r="2"/>
		</g>
		<g>
			<rect x="90.1" y="450.7" fill="#FCEDE9" width="35.1" height="3.2"/>
		</g>
	</g>
	<g>
		<circle fill="#59060C" cx="107.6" cy="378.4" r="22.8"/>
	</g>
	<g>
		<path fill="#A14C40" d="M107.6,403.6c-13.9,0-25.2-11.3-25.2-25.2c0-13.9,11.3-25.2,25.2-25.2c13.9,0,25.2,11.3,25.2,25.2
			C132.8,392.3,121.5,403.6,107.6,403.6z M107.6,354.4c-13.2,0-24,10.8-24,24c0,13.2,10.8,24,24,24c13.2,0,24-10.8,24-24
			C131.6,365.2,120.8,354.4,107.6,354.4z M107.6,413.6c-19.4,0-35.2-15.8-35.2-35.2s15.8-35.2,35.2-35.2c19.4,0,35.2,15.8,35.2,35.2
			S127.1,413.6,107.6,413.6z M107.6,344.3c-18.8,0-34,15.3-34,34c0,18.8,15.3,34,34,34c18.8,0,34-15.3,34-34
			C141.7,359.6,126.4,344.3,107.6,344.3z M107.6,410.4c-17.7,0-32-14.4-32-32c0-17.7,14.4-32,32-32c17.7,0,32,14.4,32,32
			C139.6,396,125.3,410.4,107.6,410.4z M107.6,351.2c-15,0-27.2,12.2-27.2,27.2s12.2,27.2,27.2,27.2c15,0,27.2-12.2,27.2-27.2
			S122.6,351.2,107.6,351.2z"/>
	</g>
	<g>
		<polygon fill="#C26152" points="98.9,82.5 94.3,352.4 120.9,352.4 116.4,82.5 		"/>
	</g>
	<g>
		<path fill="#FCEDE9" d="M118.4,206.2H96.8l0-1.6h21.6L118.4,206.2z M118.6,218.4H96.6l0,1.6h22.1L118.6,218.4z M118.8,230.4H96.4
			l0,1.6h22.5L118.8,230.4z M119.1,242.7H96.2l0,1.6h22.9L119.1,242.7z M118.2,189.3H97.1l0,1.6h21.1L118.2,189.3z M98.5,104l0,1.6
			h18.3l0-1.6H98.5z M117,122.1H98.2l0,1.6h18.9L117,122.1z M119.3,254.5H96l0,1.6h23.3L119.3,254.5z M117.9,174.1H97.3l0,1.6h20.6
			L117.9,174.1z M117.3,140.5H97.9l0,1.6h19.5L117.3,140.5z M117.6,158h-20l0,1.6h20.1L117.6,158z M94.7,334.2l0,1.6h26l0-1.6H94.7z
			 M94.9,318.6l0,1.6h25.5l0-1.6H94.9z M94.5,340.6l0,1.6h26.2l0-1.6H94.5z M94.8,326.6l0,1.6h25.7l0-1.6H94.8z M95,311.4l0,1.6
			h25.2l0-1.6H95z M95.2,303.7l0,1.6h25l0-1.6H95.2z M119.8,285.4H95.5l0,1.6h24.4L119.8,285.4z M119.4,265.5H95.8l0,1.6h23.7
			L119.4,265.5z M119.6,276.3h-24l0,1.6h24L119.6,276.3z M120.8,346.8H94.4l0,1.6h26.4L120.8,346.8z M119.9,294.8H95.3l0,1.6H120
			L119.9,294.8z"/>
	</g>
	<g>
		<polygon fill="#FCEDE9" points="116.4,79.2 98.8,79.2 98.8,82.5 116.4,82.5 		"/>
	</g>
	<g>
		<g>
			
				<rect x="121.5" y="35.4" transform="matrix(-1 -1.224647e-16 1.224647e-16 -1 248.9214 73.8309)" fill="#59060C" width="5.9" height="3.1"/>
		</g>
		<g>
			<path fill="#D9B28D" d="M133.1,36.9c0,3.1-1.4,5.9-3.4,7.3c-1.3,0.9-3.2-0.1-3.2-1.8V31.4c0-1.6,1.9-2.7,3.2-1.8
				C131.8,31,133.1,33.8,133.1,36.9z"/>
		</g>
	</g>
	<g>
		<g>
			
				<rect x="120.3" y="55.9" transform="matrix(-1 -1.224647e-16 1.224647e-16 -1 246.5263 114.9208)" fill="#59060C" width="5.9" height="3.1"/>
		</g>
		<g>
			<path fill="#D9B28D" d="M131.9,57.5c0,3.1-1.4,5.9-3.4,7.3c-1.3,0.9-3.2-0.1-3.2-1.8V51.9c0-1.6,1.9-2.7,3.2-1.8
				C130.6,51.6,131.9,54.3,131.9,57.5z"/>
		</g>
	</g>
	<g>
		<g>
			<rect x="88.1" y="35.4" fill="#59060C" width="5.9" height="3.1"/>
		</g>
		<g>
			<path fill="#D9B28D" d="M82.3,36.9c0,3.1,1.4,5.9,3.4,7.3c1.3,0.9,3.2-0.1,3.2-1.8V31.4c0-1.6-1.9-2.7-3.2-1.8
				C83.7,31,82.3,33.8,82.3,36.9z"/>
		</g>
	</g>
	<g>
		<g>
			<rect x="89.3" y="55.9" fill="#59060C" width="5.9" height="3.1"/>
		</g>
		<g>
			<path fill="#D9B28D" d="M83.5,57.5c0,3.1,1.4,5.9,3.4,7.3c1.3,0.9,3.2-0.1,3.2-1.8V51.9c0-1.6-1.9-2.7-3.2-1.8
				C84.9,51.6,83.5,54.3,83.5,57.5z"/>
		</g>
	</g>
	<g>
		<path fill="#A14C40" d="M95.1,21.7c-1.8,0-3.3,1.5-3.3,3.3c0,10,1,33.4,1.4,40.7c0.1,1.3,0.6,2.5,1.5,3.4c1.6,1.6,4.1,4.8,4.1,10
			h17.6c0-5.1,2.5-8.4,4.2-10c0.9-0.9,1.4-2.1,1.5-3.4c0.3-7.3,1.4-30.7,1.4-40.8c0-1.8-1.5-3.3-3.3-3.3H95.1z"/>
	</g>
	<g>
		<path fill="#783128" d="M120.1,21.7h-12.5v57.5h8.8c0-5.1,2.5-8.4,4.2-10c0.9-0.9,1.4-2.1,1.5-3.4c0.3-7.3,1.4-30.7,1.4-40.8
			C123.5,23.2,122,21.7,120.1,21.7z"/>
	</g>
	<g>
		<g>
			<path fill="#FCEDE9" d="M120.5,38.5c0,2-1.6,3.6-3.6,3.6c-2,0-3.6-1.6-3.6-3.6c0-2,1.6-3.6,3.6-3.6
				C118.9,34.9,120.5,36.5,120.5,38.5z"/>
		</g>
		<g>
			<path fill="#783128" d="M118.4,38.5c0,0.8-0.7,1.5-1.5,1.5c-0.8,0-1.5-0.7-1.5-1.5c0-0.8,0.7-1.5,1.5-1.5
				C117.7,37,118.4,37.7,118.4,38.5z"/>
		</g>
	</g>
	<g>
		<g>
			<path fill="#FCEDE9" d="M119.3,59c0,2-1.6,3.6-3.6,3.6s-3.6-1.6-3.6-3.6s1.6-3.6,3.6-3.6S119.3,57,119.3,59z"/>
		</g>
		<g>
			<path fill="#783128" d="M117.2,59c0,0.8-0.7,1.5-1.5,1.5s-1.5-0.7-1.5-1.5s0.7-1.5,1.5-1.5S117.2,58.2,117.2,59z"/>
		</g>
	</g>
	<g>
		<g>
			<path fill="#FCEDE9" d="M94.7,38.5c0,2,1.6,3.6,3.6,3.6s3.6-1.6,3.6-3.6c0-2-1.6-3.6-3.6-3.6S94.7,36.5,94.7,38.5z"/>
		</g>
		<g>
			<circle fill="#783128" cx="98.3" cy="38.5" r="1.5"/>
		</g>
	</g>
	<g>
		<g>
			<path fill="#FCEDE9" d="M95.9,59c0,2,1.6,3.6,3.6,3.6c2,0,3.6-1.6,3.6-3.6s-1.6-3.6-3.6-3.6C97.5,55.4,95.9,57,95.9,59z"/>
		</g>
		<g>
			<path fill="#783128" d="M98.1,59c0,0.8,0.7,1.5,1.5,1.5c0.8,0,1.5-0.7,1.5-1.5s-0.7-1.5-1.5-1.5C98.7,57.6,98.1,58.2,98.1,59z"/>
		</g>
	</g>
	<g>
		<g>
			<polygon fill="#FCEDE9" points="97.4,460.4 95.6,460.4 95.6,450.7 100.6,79.2 100.1,60.9 101.9,60.8 102.4,79.2 97.4,450.7 			
				"/>
		</g>
		<g>
			<polygon fill="#FCEDE9" points="104.9,460.4 103,460.4 103,450.7 104.6,79.3 100.1,39.1 101.9,38.9 106.4,79.2 104.9,450.7 			
				"/>
		</g>
		<g>
			<polygon fill="#FCEDE9" points="119.7,460.4 117.9,460.4 117.9,450.7 112.9,79.3 113.3,61.3 115.2,61.4 114.7,79.3 119.7,450.7 
							"/>
		</g>
		<g>
			<polygon fill="#FCEDE9" points="112.2,460.4 110.4,460.4 110.4,450.7 108.8,79.3 113.3,37.8 115.1,38 110.6,79.4 112.2,450.7 			
				"/>
		</g>
	</g>
</g>
</svg>
