<?xml version="1.0" encoding="utf-8"?>
<!-- Generator: Adobe Illustrator 24.0.2, SVG Export Plug-In . SVG Version: 6.00 Build 0)  -->
<svg version="1.1" id="Layer_1" xmlns="http://www.w3.org/2000/svg" xmlns:xlink="http://www.w3.org/1999/xlink" x="0px" y="0px"
	 viewBox="0 0 334 640" enable-background="new 0 0 334 640" xml:space="preserve">
<g>
	<g>
		<path fill="#DA8C10" stroke="#231F20" stroke-miterlimit="10" d="M159.7,280c0,0-53-3.8-67.4,17.5c-14.5,21.3-1.6,60-6.4,83.5
			c-4.8,23.5-13.7,31.9-32.9,75.9c-19.3,44-18.4,83.5,4.4,109.3c22.9,25.8,65.4,36.4,117.2,36.4c51.8,0,104-16.7,119.2-47.8
			c15.2-31.1,4.8-72.1-7.7-93.4c-12.4-21.3-35.4-61.5-27.5-86.6c7.9-25.1,12.7-43.3-6.6-47.1c-19.3-3.8-49,11.4-57-26.6L159.7,280z"
			/>
		<path fill="#790011" stroke="#231F20" stroke-miterlimit="10" d="M207,349.3c0,0-5.9-3.9-2.3-7.8c3.5-3.9,17.2,2.3,25.3,7.8
			c8.2,5.5,18.3,16,18.7,44.5c0.4,28.5,12.9,42.1,12.1,47.6c-0.8,5.5-13.6,1.6-19.5,2c-5.8,0.4-22.6,7.4-32,13.3
			c-9.4,5.8-14-0.4-14-12.9s0.4-21.8,7.8-25.3c7.4-3.5,19.1-17.5,17.9-37.8C219.8,360.3,210.2,353.2,207,349.3z"/>
	</g>
	<g>
		<path fill="#790011" stroke="#231F20" stroke-miterlimit="10" d="M218.2,502.7h-95.8v15h19.8c1.5,4.1,13.2,7.3,27.5,7.3
			c14.3,0,26.1-3.2,27.5-7.3h20.9V502.7z"/>
		<g>
			<g>
				<g>
					<path fill="#9B610E" stroke="#231F20" stroke-miterlimit="10" d="M213.3,382.3c0,23.2-18.8,42-42,42c-23.2,0-42-18.8-42-42
						c0-23.2,18.8-42,42-42C194.5,340.3,213.3,359.1,213.3,382.3z"/>
					<path fill="#4B0216" d="M199.6,382.3c0,15.6-12.6,28.2-28.2,28.2s-28.2-12.6-28.2-28.2c0-15.6,12.6-28.2,28.2-28.2
						S199.6,366.7,199.6,382.3z"/>
				</g>
				<g>
					<g>
						<polygon fill="#7A0517" stroke="#231F20" stroke-miterlimit="10" points="148.7,346.9 154.3,155.8 186.3,155.8 194,346.9 
													"/>
						<g>
							<g>
								<g>
									<polygon fill="#CCCCCC" stroke="#231F20" stroke-miterlimit="10" points="155.2,503 153.4,502.9 158.4,150.3 160.3,150.3 
																			"/>
								</g>
								<g>
									
										<rect x="-12.1" y="325.7" transform="matrix(6.910977e-03 -1 1 6.910977e-03 -163.5637 488.56)" fill="#CCCCCC" stroke="#231F20" stroke-miterlimit="10" width="352.7" height="1.8"/>
								</g>
								<g>
									
										<rect x="169.9" y="150.3" transform="matrix(1 -3.054150e-03 3.054150e-03 1 -0.9968 0.5232)" fill="#CCCCCC" stroke="#231F20" stroke-miterlimit="10" width="1.8" height="352.7"/>
								</g>
								<g>
									<polygon fill="#CCCCCC" stroke="#231F20" stroke-miterlimit="10" points="180.6,503 175,150.3 176.9,150.3 182.4,502.9 
																			"/>
								</g>
								<g>
									<polygon fill="#CCCCCC" stroke="#231F20" stroke-miterlimit="10" points="190.7,503 181.2,150.3 183,150.3 192.6,502.9 
																			"/>
								</g>
							</g>
						</g>
					</g>
					<g>
						<g>
							<path fill="#DCD1CB" stroke="#231F20" stroke-miterlimit="10" d="M196.4,93.3c-0.8,0.6-1.3,1.4-1.6,2.3l-3.5-0.2l-0.2,3.4
								l3.5,0.2c0.2,0.7,0.5,1.4,1,2c1.9,2.3,5.4,2.7,7.7,0.8c2.3-1.9,2.7-5.3,0.8-7.7C202.2,91.7,198.8,91.4,196.4,93.3z"/>
							<path fill="#DCD1CB" stroke="#231F20" stroke-miterlimit="10" d="M196.4,111.6c-0.8,0.6-1.3,1.4-1.6,2.3l-3.5-0.2l-0.2,3.4
								l3.5,0.2c0.2,0.7,0.5,1.4,1,2c1.9,2.3,5.4,2.7,7.7,0.8c2.3-1.9,2.7-5.3,0.8-7.7C202.2,110,198.8,109.6,196.4,111.6z"/>
							<path fill="#DCD1CB" stroke="#231F20" stroke-miterlimit="10" d="M196.4,129.8c-0.8,0.6-1.3,1.4-1.6,2.3l-3.5-0.2l-0.2,3.4
								l3.5,0.2c0.2,0.7,0.5,1.4,1,2c1.9,2.3,5.4,2.7,7.7,0.8c2.3-1.9,2.7-5.3,0.8-7.7C202.2,128.3,198.8,127.9,196.4,129.8z"/>
						</g>
						<g>
							<path fill="#DCD1CB" stroke="#231F20" stroke-miterlimit="10" d="M143.4,93.3c0.8,0.6,1.3,1.4,1.6,2.3l3.5-0.2l0.2,3.4
								l-3.5,0.2c-0.2,0.7-0.5,1.4-1,2c-1.9,2.3-5.4,2.7-7.7,0.8c-2.3-1.9-2.7-5.3-0.8-7.7C137.6,91.7,141,91.4,143.4,93.3z"/>
							<path fill="#DCD1CB" stroke="#231F20" stroke-miterlimit="10" d="M143.4,111.6c0.8,0.6,1.3,1.4,1.6,2.3l3.5-0.2l0.2,3.4
								l-3.5,0.2c-0.2,0.7-0.5,1.4-1,2c-1.9,2.3-5.4,2.7-7.7,0.8c-2.3-1.9-2.7-5.3-0.8-7.7C137.6,110,141,109.6,143.4,111.6z"/>
							<path fill="#DCD1CB" stroke="#231F20" stroke-miterlimit="10" d="M144.3,129.8c0.8,0.6,1.3,1.4,1.6,2.3l3.5-0.2l0.2,3.4
								l-3.5,0.2c-0.2,0.7-0.5,1.4-1,2c-1.9,2.3-5.4,2.7-7.7,0.8c-2.3-1.9-2.7-5.3-0.8-7.7C138.5,128.3,142,127.9,144.3,129.8z"/>
						</g>
						<path fill="#670420" stroke="#231F20" stroke-miterlimit="10" d="M190.4,63.6c0,0-12.6-12.9-20.1-1.4
							c-7.5-11.5-20.1,1.4-20.1,1.4c-17.1,12.5-6.9,16.1-3.7,29.5c3.2,13.4,2.3,36,2.8,52.1c0.5,16.1,21.1,14.8,21.1,14.8
							s20.6,1.4,21.1-14.8c0.5-16.2-0.5-38.8,2.8-52.1C197.3,79.7,207.5,76,190.4,63.6z M165.3,137.5c0,1.7-1.3,3-3,3
							c-1.7,0-3-1.3-3-3V84.1c0-1.7,1.3-3,3-3c1.7,0,3,1.3,3,3V137.5z M181.7,137.5c0,1.7-1.3,3-3,3s-3-1.3-3-3V84.1
							c0-1.7,1.3-3,3-3s3,1.3,3,3V137.5z"/>
					</g>
				</g>
			</g>
		</g>
	</g>
</g>
</svg>
