<?xml version="1.0" encoding="utf-8"?>
<!-- Generator: Adobe Illustrator 24.0.2, SVG Export Plug-In . SVG Version: 6.00 Build 0)  -->
<svg version="1.1" id="Layer_1" xmlns="http://www.w3.org/2000/svg" xmlns:xlink="http://www.w3.org/1999/xlink" x="0px" y="0px"
	 viewBox="0 0 360.9 691.6" style="enable-background:new 0 0 360.9 691.6;" xml:space="preserve">
<style type="text/css">
	.st0{fill:#DA8C10;stroke:#231F20;stroke-miterlimit:10;}
	.st1{fill:#790011;stroke:#231F20;stroke-miterlimit:10;}
	.st2{fill:#9B610E;stroke:#231F20;stroke-miterlimit:10;}
	.st3{fill:#4B0216;}
	.st4{fill:#7A0517;stroke:#231F20;stroke-miterlimit:10;}
	.st5{fill:#CCCCCC;stroke:#231F20;stroke-miterlimit:10;}
	.st6{fill:#CCCCCC;stroke:#231F20;stroke-width:1;stroke-miterlimit:10.0002;}
	.st7{fill:#CCCCCC;stroke:#231F20;stroke-width:1;stroke-miterlimit:10;}
	.st8{fill:#DCD1CB;stroke:#231F20;stroke-miterlimit:10;}
	.st9{fill:#670420;stroke:#231F20;stroke-miterlimit:10;}
</style>
<g>
	<g>
		<path class="st0" d="M167.7,328.9c0,0-56.6-4.1-71.9,18.7c-15.5,22.7-1.7,64-6.8,89.1c-5.1,25.1-14.6,34-35.1,81
			c-20.6,47-19.6,89.1,4.7,116.7c24.4,27.5,69.8,38.9,125.1,38.9s111-17.8,127.2-51c16.2-33.2,5.1-77-8.2-99.7
			c-13.2-22.7-37.8-65.6-29.4-92.4c8.4-26.8,13.6-46.2-7-50.3c-20.6-4.1-52.3,12.2-60.8-28.4L167.7,328.9z"/>
		<path class="st1" d="M218.2,402.9c0,0-6.3-4.2-2.5-8.3c3.7-4.2,18.4,2.5,27,8.3c8.8,5.9,19.5,17.1,20,47.5
			c0.4,30.4,13.8,44.9,12.9,50.8c-0.9,5.9-14.5,1.7-20.8,2.1c-6.2,0.4-24.1,7.9-34.2,14.2c-10,6.2-14.9-0.4-14.9-13.8
			s0.4-23.3,8.3-27c7.9-3.7,20.4-18.7,19.1-40.3C231.8,414.6,221.6,407.1,218.2,402.9z"/>
	</g>
	<g>
		<path class="st1" d="M230.1,563.8H127.9v17.9H149c1.6,4.9,14.1,8.7,29.4,8.7s27.9-3.8,29.4-8.7H230v-17.9H230.1z"/>
		<g>
			<g>
				<g>
					<path class="st2" d="M224.9,420.1c0,27.7-20.1,50.1-44.8,50.1s-44.8-22.4-44.8-50.1c0-27.7,20.1-50.1,44.8-50.1
						S224.9,392.4,224.9,420.1z"/>
					<path class="st3" d="M210.3,420.1c0,18.6-13.4,33.7-30.1,33.7s-30.1-15-30.1-33.7c0-18.6,13.4-33.7,30.1-33.7
						S210.3,401.4,210.3,420.1z"/>
				</g>
				<g>
					<g>
						<polygon class="st4" points="155.9,377.8 161.9,149.6 196.1,149.6 204.3,377.8 						"/>
						<g>
							<g>
								<g>
									<polygon class="st5" points="162.9,564.2 160.9,564 166.3,143.1 168.3,143.1 									"/>
								</g>
								<g>
									<polygon class="st6" points="170.2,564.1 172.8,142.9 174.7,143 172.1,564.1 									"/>
								</g>
								<g>
									
										<rect x="178.6" y="143.1" transform="matrix(1 -3.416283e-03 3.416283e-03 1 -1.207 0.6154)" class="st7" width="1.9" height="421.1"/>
								</g>
								<g>
									<polygon class="st5" points="190,564.2 184,143.1 186,143.1 191.9,564 									"/>
								</g>
								<g>
									<polygon class="st5" points="200.8,564.2 190.6,143.1 192.5,143.1 202.8,564 									"/>
								</g>
							</g>
						</g>
					</g>
					<g>
						<g>
							<path class="st8" d="M206.8,75c-0.9,0.7-1.4,1.7-1.7,2.7l-3.7-0.2l-0.2,4.1l3.7,0.2c0.2,0.8,0.5,1.7,1.1,2.4
								c2,2.7,5.8,3.2,8.2,1c2.5-2.3,2.9-6.3,0.9-9.2C213,73.1,209.4,72.7,206.8,75z"/>
							<path class="st8" d="M206.8,96.8c-0.9,0.7-1.4,1.7-1.7,2.7l-3.7-0.2l-0.2,4.1l3.7,0.2c0.2,0.8,0.5,1.7,1.1,2.4
								c2,2.7,5.8,3.2,8.2,1c2.5-2.3,2.9-6.3,0.9-9.2C213,94.9,209.4,94.5,206.8,96.8z"/>
							<path class="st8" d="M206.8,118.6c-0.9,0.7-1.4,1.7-1.7,2.7l-3.7-0.2l-0.2,4.1l3.7,0.2c0.2,0.8,0.5,1.7,1.1,2.4
								c2,2.7,5.8,3.2,8.2,1c2.5-2.3,2.9-6.3,0.9-9.2C213,116.8,209.4,116.3,206.8,118.6z"/>
						</g>
						<g>
							<path class="st8" d="M150.3,75c0.9,0.7,1.4,1.7,1.7,2.7l3.7-0.2l0.2,4.1l-3.7,0.2c-0.2,0.8-0.5,1.7-1.1,2.4
								c-2,2.7-5.8,3.2-8.2,1c-2.5-2.3-2.9-6.3-0.9-9.2C144.1,73.1,147.7,72.7,150.3,75z"/>
							<path class="st8" d="M150.3,96.8c0.9,0.7,1.4,1.7,1.7,2.7l3.7-0.2l0.2,4.1l-3.7,0.2c-0.2,0.8-0.5,1.7-1.1,2.4
								c-2,2.7-5.8,3.2-8.2,1c-2.5-2.3-2.9-6.3-0.9-9.2C144.1,94.9,147.7,94.5,150.3,96.8z"/>
							<path class="st8" d="M151.2,118.6c0.9,0.7,1.4,1.7,1.7,2.7l3.7-0.2l0.2,4.1l-3.7,0.2c-0.2,0.8-0.5,1.7-1.1,2.4
								c-2,2.7-5.8,3.2-8.2,1c-2.5-2.3-2.9-6.3-0.9-9.2C145,116.8,148.8,116.3,151.2,118.6z"/>
						</g>
						<path class="st9" d="M200.4,39.5c0,0-13.4-15.4-21.5-1.7c-8-13.7-21.5,1.7-21.5,1.7c-18.3,14.9-7.4,19.2-3.9,35.2
							s2.5,43,3,62.2s22.5,17.7,22.5,17.7s22,1.7,22.5-17.7s-0.5-46.3,3-62.2C207.8,58.8,218.7,54.3,200.4,39.5z M173.7,127.8
							c0,2-1.4,3.6-3.2,3.6c-1.8,0-3.2-1.6-3.2-3.6V64c0-2,1.4-3.6,3.2-3.6c1.8,0,3.2,1.6,3.2,3.6V127.8z M191.2,127.8
							c0,2-1.4,3.6-3.2,3.6s-3.2-1.6-3.2-3.6V64c0-2,1.4-3.6,3.2-3.6s3.2,1.6,3.2,3.6V127.8z"/>
					</g>
				</g>
			</g>
		</g>
	</g>
</g>
</svg>
