<?xml version="1.0" encoding="utf-8"?>
<!-- Generator: Adobe Illustrator 24.0.2, SVG Export Plug-In . SVG Version: 6.00 Build 0)  -->
<svg version="1.1" id="Layer_1" xmlns="http://www.w3.org/2000/svg" xmlns:xlink="http://www.w3.org/1999/xlink" x="0px" y="0px"
	 viewBox="0 0 336 825.7" enable-background="new 0 0 336 825.7" xml:space="preserve">
<g>
	<g>
		<path fill="#DA8C10" stroke="#231F20" stroke-miterlimit="10" d="M158.8,421c0,0-62.2-4.6-79,21.1c-17,25.6-1.9,72.2-7.5,100.5
			c-5.6,28.3-16,38.3-38.5,91.3c-22.6,53-21.5,100.5,5.2,131.6c26.8,31,76.7,43.9,137.4,43.9s121.9-20.1,139.7-57.5
			c17.8-37.4,5.6-86.8-9-112.4c-14.5-25.6-41.5-74-32.3-104.2c9.2-30.2,14.9-52.1-7.7-56.7c-22.6-4.6-57.4,13.8-66.8-32L158.8,421z"
			/>
		<path fill="#793311" stroke="#231F20" stroke-miterlimit="10" d="M192.6,476.1c0,0-6.9-4.7-2.7-9.4c4.1-4.7,20.2,2.8,29.7,9.4
			c9.7,6.7,21.4,19.3,22,53.6c0.4,34.3,15.2,50.6,14.2,57.3c-1,6.7-15.9,1.9-22.8,2.4c-6.8,0.5-26.5,8.9-37.6,16
			c-11,7-16.4-0.5-16.4-15.6s0.4-26.3,9.1-30.4s22.4-21.1,21-45.4C207.5,489.3,196.3,480.9,192.6,476.1z"/>
	</g>
	<g>
		<path fill="#793311" stroke="#231F20" stroke-miterlimit="10" d="M227.3,685.9H115.1v20.2h23.2c1.8,5.5,15.5,9.8,32.3,9.8
			s30.6-4.3,32.3-9.8h24.4v-20.2H227.3z"/>
		<g>
			<g>
				<polygon fill="#793311" stroke="#231F20" stroke-miterlimit="10" points="145.8,481.4 152.4,169.5 190,169.5 199,481.4 				"/>
				<g>
					<path fill="#9B610E" stroke="#231F20" stroke-miterlimit="10" d="M221.6,523.9c0,31.2-22.1,56.5-49.2,56.5
						s-49.2-25.3-49.2-56.5c0-31.2,22.1-56.5,49.2-56.5S221.6,492.6,221.6,523.9z"/>
					<path fill="#4B0216" d="M205.6,523.9c0,21-14.7,38-33.1,38s-33.1-16.9-33.1-38c0-21,14.7-38,33.1-38S205.6,502.8,205.6,523.9z"
						/>
				</g>
				<g>
					<g>
						<g>
							<g>
								<g>
									<polygon fill="#CCCCCC" stroke="#231F20" stroke-miterlimit="10" points="153.5,686.4 151.3,686.1 157.2,161.4 
										159.4,161.4 									"/>
								</g>
								<g>
									<polygon fill="#CCCCCC" stroke="#231F20" stroke-miterlimit="10.0002" points="161.5,686.2 164.4,161.1 166.5,161.2 
										163.6,686.2 									"/>
								</g>
								<g>
									
										<rect x="170.7" y="161.4" transform="matrix(1 -3.878069e-03 3.878069e-03 1 -1.6425 0.6694)" fill="#CCCCCC" stroke="#231F20" stroke-width="1" stroke-miterlimit="10.0001" width="2.1" height="525"/>
								</g>
								<g>
									<polygon fill="#CCCCCC" stroke="#231F20" stroke-miterlimit="10" points="183.3,686.4 176.7,161.4 178.9,161.4 
										185.3,686.1 									"/>
								</g>
								<g>
									<polygon fill="#CCCCCC" stroke="#231F20" stroke-miterlimit="10" points="195.1,686.4 183.9,161.4 186,161.4 197.3,686.1 
																			"/>
								</g>
							</g>
						</g>
					</g>
					<g>
						<g>
							<path fill="#DCD1CB" stroke="#231F20" stroke-miterlimit="10" d="M201.7,76.5c-1,0.9-1.5,2.1-1.9,3.4l-4.1-0.2l-0.2,5.1
								l4.1,0.2c0.2,1,0.5,2.1,1.2,3c2.2,3.4,6.4,4,9,1.2c2.7-2.9,3.2-7.9,1-11.5C208.5,74.1,204.6,73.6,201.7,76.5z"/>
							<path fill="#DCD1CB" stroke="#231F20" stroke-miterlimit="10" d="M201.7,103.6c-1,0.9-1.5,2.1-1.9,3.4l-4.1-0.2l-0.2,5.1
								l4.1,0.2c0.2,1,0.5,2.1,1.2,3c2.2,3.4,6.4,4,9,1.2c2.7-2.9,3.2-7.9,1-11.5C208.5,101.3,204.6,100.8,201.7,103.6z"/>
							<path fill="#DCD1CB" stroke="#231F20" stroke-miterlimit="10" d="M201.7,130.8c-1,0.9-1.5,2.1-1.9,3.4l-4.1-0.2l-0.2,5.1
								l4.1,0.2c0.2,1,0.5,2.1,1.2,3c2.2,3.4,6.4,4,9,1.2c2.7-2.9,3.2-7.9,1-11.5C208.5,128.6,204.6,127.9,201.7,130.8z"/>
						</g>
						<g>
							<path fill="#DCD1CB" stroke="#231F20" stroke-miterlimit="10" d="M139.7,76.5c1,0.9,1.5,2.1,1.9,3.4l4.1-0.2l0.2,5.1
								l-4.1,0.2c-0.2,1-0.5,2.1-1.2,3c-2.2,3.4-6.4,4-9,1.2c-2.7-2.9-3.2-7.9-1-11.5C132.8,74.1,136.8,73.6,139.7,76.5z"/>
							<path fill="#DCD1CB" stroke="#231F20" stroke-miterlimit="10" d="M139.7,103.6c1,0.9,1.5,2.1,1.9,3.4l4.1-0.2l0.2,5.1
								l-4.1,0.2c-0.2,1-0.5,2.1-1.2,3c-2.2,3.4-6.4,4-9,1.2c-2.7-2.9-3.2-7.9-1-11.5C132.8,101.3,136.8,100.8,139.7,103.6z"/>
							<path fill="#DCD1CB" stroke="#231F20" stroke-miterlimit="10" d="M140.6,130.8c1,0.9,1.5,2.1,1.9,3.4l4.1-0.2l0.2,5.1
								l-4.1,0.2c-0.2,1-0.5,2.1-1.2,3c-2.2,3.4-6.4,4-9,1.2c-2.7-2.9-3.2-7.9-1-11.5C133.8,128.6,138,127.9,140.6,130.8z"/>
						</g>
						<path fill="#793311" stroke="#231F20" stroke-miterlimit="10" d="M194.7,32.2c0,0-14.7-19.2-23.6-2.1
							c-8.8-17.1-23.6,2.1-23.6,2.1c-20.1,18.6-8.1,23.9-4.3,43.9c3.8,19.9,2.7,53.6,3.3,77.5s24.7,22.1,24.7,22.1
							s24.2,2.1,24.7-22.1c0.5-24.2-0.5-57.7,3.3-77.5C202.8,56.3,214.8,50.6,194.7,32.2z M165.4,142.3c0,2.5-1.5,4.5-3.5,4.5
							c-2,0-3.5-2-3.5-4.5V62.7c0-2.5,1.5-4.5,3.5-4.5c2,0,3.5,2,3.5,4.5V142.3z M184.6,142.3c0,2.5-1.5,4.5-3.5,4.5
							c-2,0-3.5-2-3.5-4.5V62.7c0-2.5,1.5-4.5,3.5-4.5c2,0,3.5,2,3.5,4.5V142.3z"/>
					</g>
				</g>
			</g>
		</g>
	</g>
</g>
</svg>
