<?xml version="1.0" encoding="utf-8"?>
<!-- Generator: Adobe Illustrator 24.0.2, SVG Export Plug-In . SVG Version: 6.00 Build 0)  -->
<svg version="1.1" id="Layer_1" xmlns="http://www.w3.org/2000/svg" xmlns:xlink="http://www.w3.org/1999/xlink" x="0px" y="0px"
	 viewBox="0 0 210 488.4" enable-background="new 0 0 210 488.4" xml:space="preserve">
<g id="Cutaway__x28_Western_x29__Guitar">
	<g>
		<path fill="#E83F4F" d="M191.2,361.4c-8.6-20.6-15.6-35.2-14.6-43.8c0.7-5.6,4.8-20.3,5.5-34.5c0.4-7.3-6.8-12.8-13.7-10.4
			c-0.1,0.1-0.3,0.1-0.4,0.2c-18.3,6.4-38.1-6.5-39.2-25.8c-0.1-0.8-0.1-1.6-0.1-2.4c0-3.1-2.4-5.6-5.5-5.8
			c-4.4-0.2-9.2-0.2-14.5-0.2c-51.6,0-62.9,7.8-70.5,23.6c-7.8,16.3,1.5,46.8,2.5,55.4c1,8.6-6,23.2-14.6,43.8
			c-8.6,20.6-14.1,35.7-6,61.4c8.1,25.7,35.2,45.9,88.6,45.9c53.4,0,80.5-20.3,88.6-45.9C205.3,397.1,199.8,382,191.2,361.4z"/>
	</g>
	<g>
		<path fill="#BD1C23" d="M24.7,421.3c-7.5-23.8-2.6-37.6,5.9-58.1c1.4-3.3,2.7-6.4,3.9-9.4c7.2-17.1,12-28.4,11-36.8
			c-0.2-2-0.8-4.8-1.6-8.3c-2.4-11.5-6.9-33-1.4-44.4c6-12.6,13.9-20.9,66.1-20.9l0-4.8c-51.6,0-62.9,7.8-70.5,23.6
			c-7.8,16.3,1.5,46.8,2.5,55.4c1,8.6-6,23.2-14.6,43.8c-8.6,20.6-14.1,35.7-6,61.4c8.1,25.7,35.2,45.9,88.6,45.9l0-4.8
			C63.1,463.9,33.3,448.8,24.7,421.3z"/>
	</g>
	<g>
		<path fill="#BD1C23" d="M186.8,363.2c-1.4-3.3-2.7-6.4-3.9-9.4c-7.2-17.1-12-28.4-11-36.8c0.2-2,0.8-4.8,1.5-8.3
			c1.5-7,3.5-16.6,3.9-25.9c0.1-1.6-0.5-3-1.5-4.2c-1.1-1.1-2.5-1.8-4-1.8c-0.6,0-1.2,0.1-1.8,0.3l-0.5,0.2
			c-3.6,1.3-7.4,1.9-11.3,1.9c-18.2,0-33.3-14-34.4-31.9c-0.1-0.9-0.1-1.8-0.1-2.7c0-0.5-0.3-1-0.8-1c-4.4-0.2-9.2-0.2-14.3-0.2
			v220.5c45.6,0,75.4-15.1,84-42.6C200.1,397.5,195.3,383.7,186.8,363.2z"/>
	</g>
	<g>
		<path fill="#AEB7D4" d="M107.9,336.1c-13.8,0-25-11.2-25-25c0-13.8,11.2-25,25-25c13.8,0,25,11.2,25,25
			C133,324.9,121.7,336.1,107.9,336.1z M107.9,277.9c-18.3,0-33.2,14.9-33.2,33.2c0,18.3,14.9,33.2,33.2,33.2
			c18.3,0,33.2-14.9,33.2-33.2C141.1,292.8,126.2,277.9,107.9,277.9z M107.9,343c-17.6,0-32-14.3-32-32s14.3-32,32-32s32,14.3,32,32
			S125.6,343,107.9,343z M107.9,280.7c-16.7,0-30.4,13.6-30.4,30.4s13.6,30.4,30.4,30.4c16.7,0,30.4-13.6,30.4-30.4
			S124.7,280.7,107.9,280.7z"/>
	</g>
	<g>
		<path fill="#D6D7E9" d="M156.4,324.6c-4.7-22.2-14-40.6-29.2-36.9c6.8,5.6,11.1,14,11.1,23.4c0,11.7-6.6,21.8-16.3,26.9
			c-1.4,12.5-1.7,24.6,10.3,27c13.9,2.8,20.8,0,23.4-4C159.7,354.9,161.2,347.4,156.4,324.6z"/>
	</g>
	<g>
		<path fill="#A14C40" d="M71.5,376.3v10.5c0,0.7,0.5,1.2,1.2,1.2c13.4,0.3,11,5.9,22.3,5.9h25.9c11.3,0,8.9-5.6,22.3-5.9
			c0.7,0,1.2-0.5,1.2-1.2v-10.5c0-0.7-0.5-1.2-1.2-1.2H72.7C72,375.1,71.5,375.6,71.5,376.3z"/>
	</g>
	<g>
		<path fill="#783128" d="M143.2,375.1h-35.2v18.7h12.9c11.3,0,8.9-5.6,22.3-5.9c0.7,0,1.2-0.5,1.2-1.2v-10.5
			C144.4,375.6,143.8,375.1,143.2,375.1z"/>
	</g>
	<g>
		<polygon fill="#C26152" points="93.1,287.4 122.8,287.4 118.7,78.5 97.2,78.5 		"/>
	</g>
	<g>
		<path fill="#FCEDE9" d="M94,383.5c-1.1,0-2,0.9-2,2c0,1.1,0.9,2,2,2c1.1,0,2-0.9,2-2C96,384.4,95.1,383.5,94,383.5z"/>
	</g>
	<g>
		<path fill="#FCEDE9" d="M110.7,383.5c-1.1,0-2,0.9-2,2c0,1.1,0.9,2,2,2c1.1,0,2-0.9,2-2C112.8,384.4,111.8,383.5,110.7,383.5z"/>
	</g>
	<g>
		<path fill="#FCEDE9" d="M105.1,383.5c-1.1,0-2,0.9-2,2c0,1.1,0.9,2,2,2s2-0.9,2-2C107.2,384.4,106.3,383.5,105.1,383.5z"/>
	</g>
	<g>
		<rect x="90.4" y="377.5" fill="#FCEDE9" width="35.1" height="3.2"/>
	</g>
	<g>
		<path fill="#FCEDE9" d="M99.6,383.5c-1.1,0-2,0.9-2,2c0,1.1,0.9,2,2,2c1.1,0,2-0.9,2-2C101.6,384.4,100.7,383.5,99.6,383.5z"/>
	</g>
	<g>
		<path fill="#FCEDE9" d="M121.9,383.6c-1.1,0-2,0.9-2,2c0,1.1,0.9,2,2,2c1.1,0,2-0.9,2-2C123.8,384.4,122.9,383.6,121.9,383.6z"/>
	</g>
	<g>
		<path fill="#FCEDE9" d="M116.3,383.5c-1.1,0-2,0.9-2,2c0,1.1,0.9,2,2,2s2-0.9,2-2C118.3,384.4,117.4,383.5,116.3,383.5z"/>
	</g>
	<g>
		<path fill="#FCEDE9" d="M95.7,153.1l0-1.6h24.4l0,1.6H95.7z M120.4,165.5l0-1.6H95.5l0,1.6H120.4z M120.6,177.3l0-1.6H95.3l0,1.6
			H120.6z M120.8,188.5l0-1.6H95l0,1.6H120.8z M121,198.9l0-1.6H94.8l0,1.6H121z M119.9,140l0-1.6H96l0,1.6H119.9z M121.2,209l0-1.6
			H94.6l0,1.6H121.2z M119.3,111.3l0-1.6H96.6l0,1.6H119.3z M96.9,94.5l0,1.6H119l0-1.6H96.9z M119.6,126.1l0-1.6H96.3l0,1.6H119.6z
			 M122.4,265.4l0-1.6H93.5l0,1.6H122.4z M122.6,277.8l0-1.6H93.3l0,1.6H122.6z M122.5,271.8l0-1.6h-29l0,1.6H122.5z M122.7,283.5
			l0-1.6H93.2l0,1.6H122.7z M122.2,258.5l0-1.6H93.7l0,1.6H122.2z M121.8,235.9l0-1.6H94.1l0,1.6H121.8z M121.4,218.3l0-1.6H94.5
			l0,1.6H121.4z M121.6,227.3l0-1.6H94.3l0,1.6H121.6z M121.9,244l0-1.6H94l0,1.6H121.9z M122.1,251.4l0-1.6H93.8l0,1.6H122.1z"/>
	</g>
	<g>
		<g>
			<g>
				<rect x="86.8" y="31" fill="#783128" width="5.8" height="3.1"/>
			</g>
			<g>
				<path fill="#D9B28D" d="M82.3,32.6c0,2.2,1.3,4,3.1,4.9c1.1,0.5,2.3-0.4,2.3-1.6v-6.7c0-1.2-1.3-2.1-2.3-1.6
					C83.5,28.6,82.3,30.4,82.3,32.6z"/>
			</g>
		</g>
		<g>
			<g>
				<rect x="88" y="45.4" fill="#783128" width="5.8" height="3.1"/>
			</g>
			<g>
				<path fill="#D9B28D" d="M83.4,47c0,2.2,1.3,4,3.1,4.9c1.1,0.5,2.3-0.4,2.3-1.6v-6.7c0-1.2-1.3-2.1-2.3-1.6
					C84.7,43,83.4,44.8,83.4,47z"/>
			</g>
		</g>
		<g>
			<g>
				<rect x="89.9" y="59.6" fill="#783128" width="5.8" height="3.1"/>
			</g>
			<g>
				<path fill="#D9B28D" d="M85.3,61.2c0,2.2,1.3,4,3.1,4.9c1.1,0.5,2.3-0.4,2.3-1.6v-6.7c0-1.2-1.3-2.1-2.3-1.6
					C86.5,57.2,85.3,59,85.3,61.2z"/>
			</g>
		</g>
		<g>
			<g>
				
					<rect x="123.2" y="31" transform="matrix(-1 -1.224647e-16 1.224647e-16 -1 252.1766 65.1848)" fill="#59060C" width="5.8" height="3.1"/>
			</g>
			<g>
				<path fill="#D9B28D" d="M133.6,32.6c0,2.2-1.3,4-3.1,4.9c-1.1,0.5-2.3-0.4-2.3-1.6v-6.7c0-1.2,1.3-2.1,2.3-1.6
					C132.3,28.6,133.6,30.4,133.6,32.6z"/>
			</g>
		</g>
		<g>
			<g>
				
					<rect x="122" y="45.4" transform="matrix(-1 -1.224647e-16 1.224647e-16 -1 249.8207 93.9348)" fill="#59060C" width="5.8" height="3.1"/>
			</g>
			<g>
				<path fill="#D9B28D" d="M132.4,47c0,2.2-1.3,4-3.1,4.9c-1.1,0.5-2.3-0.4-2.3-1.6v-6.7c0-1.2,1.3-2.1,2.3-1.6
					C131.2,43,132.4,44.8,132.4,47z"/>
			</g>
		</g>
		<g>
			<g>
				
					<rect x="120.2" y="59.6" transform="matrix(-1 -1.224647e-16 1.224647e-16 -1 246.1403 122.3569)" fill="#59060C" width="5.8" height="3.1"/>
			</g>
			<g>
				<path fill="#D9B28D" d="M130.6,61.2c0,2.2-1.3,4-3.1,4.9c-1.1,0.5-2.3-0.4-2.3-1.6v-6.7c0-1.2,1.3-2.1,2.3-1.6
					C129.3,57.2,130.6,59,130.6,61.2z"/>
			</g>
		</g>
		<g>
			<path fill="#A14C40" d="M114.6,15.6c-2.9,0-5.3,1.6-6.7,3.9c-1.4-2.3-3.8-3.9-6.7-3.9c-4.1,0-12.4,7.2-12.4,7.2l3.5,45.8
				c2.4,0,4.8,4.3,4.8,6.8h21.5c0-2.5,2.4-6.8,4.8-6.8l3.5-45.8C127,22.8,118.7,15.6,114.6,15.6z"/>
		</g>
		<g>
			<path fill="#783128" d="M114.6,15.6c-2.9,0-5.3,1.6-6.7,3.9v55.9h10.7c0-2.5,2.4-6.8,4.8-6.8l3.5-45.8
				C127,22.8,118.7,15.6,114.6,15.6z"/>
		</g>
		<g>
			<g>
				<path fill="#FCEDE9" d="M101.7,61c0,2-1.6,3.6-3.6,3.6c-2,0-3.6-1.6-3.6-3.6c0-2,1.6-3.6,3.6-3.6C100.1,57.4,101.7,59,101.7,61z
					"/>
			</g>
			<g>
				<circle fill="#FCEDE9" cx="97.5" cy="45.5" r="3.6"/>
			</g>
			<g>
				<circle fill="#FCEDE9" cx="96.9" cy="30" r="3.6"/>
			</g>
			<g>
				<path fill="#A14C40" d="M99.5,61c0,0.8-0.6,1.4-1.4,1.4c-0.8,0-1.4-0.6-1.4-1.4c0-0.8,0.6-1.4,1.4-1.4
					C98.9,59.5,99.5,60.2,99.5,61z"/>
			</g>
			<g>
				<circle fill="#A14C40" cx="97.5" cy="45.5" r="1.4"/>
			</g>
			<g>
				<circle fill="#A14C40" cx="96.9" cy="30" r="1.4"/>
			</g>
			<g>
				<path fill="#FCEDE9" d="M121.3,61c0,2-1.6,3.6-3.6,3.6c-2,0-3.6-1.6-3.6-3.6c0-2,1.6-3.6,3.6-3.6C119.7,57.4,121.3,59,121.3,61z
					"/>
			</g>
			<g>
				<path fill="#FCEDE9" d="M121.9,45.5c0,2-1.6,3.6-3.6,3.6c-2,0-3.6-1.6-3.6-3.6s1.6-3.6,3.6-3.6
					C120.3,41.9,121.9,43.5,121.9,45.5z"/>
			</g>
			<g>
				<path fill="#FCEDE9" d="M122.5,30c0,2-1.6,3.6-3.6,3.6c-2,0-3.6-1.6-3.6-3.6s1.6-3.6,3.6-3.6C120.9,26.4,122.5,28,122.5,30z"/>
			</g>
			<g>
				<circle fill="#783128" cx="117.8" cy="61" r="1.5"/>
			</g>
			<g>
				<circle fill="#783128" cx="118.4" cy="45.5" r="1.5"/>
			</g>
			<g>
				<circle fill="#783128" cx="119" cy="30" r="1.5"/>
			</g>
		</g>
		<g>
			<polygon fill="#FCEDE9" points="118.7,75.3 97.2,75.3 97.2,78.5 118.7,78.5 			"/>
		</g>
	</g>
	<g>
		<circle fill="#59060C" cx="107.9" cy="311.1" r="22.7"/>
	</g>
	<g>
		<g>
			<path fill="#FCEDE9" d="M94,385.8c-0.2,0-0.3-0.1-0.3-0.3v-8l5.4-302.2L99,62.9c0-0.2,0.1-0.3,0.3-0.3c0,0,0,0,0,0
				c0.2,0,0.3,0.1,0.3,0.3l0.1,12.5l-5.4,302.2v8C94.3,385.7,94.2,385.8,94,385.8z"/>
		</g>
		<g>
			<path fill="#FCEDE9" d="M99.6,385.8c-0.2,0-0.3-0.1-0.3-0.3v-8l3.3-302.2l-3.3-28.7c0-0.2,0.1-0.3,0.3-0.3c0.2,0,0.3,0.1,0.3,0.3
				l3.3,28.7l-3.3,302.2v8C99.9,385.7,99.7,385.8,99.6,385.8z"/>
		</g>
		<g>
			<path fill="#FCEDE9" d="M105.2,385.8c-0.2,0-0.3-0.1-0.3-0.3v-8l1-302.2L99,30c0-0.2,0.1-0.3,0.3-0.3c0.2,0,0.3,0.1,0.3,0.3
				l6.9,45.4l-1,302.2v8C105.5,385.7,105.3,385.8,105.2,385.8z"/>
		</g>
		<g>
			<path fill="#FCEDE9" d="M121.9,385.8c-0.2,0-0.3-0.1-0.3-0.3v-8l-5.4-302.2l0.1-12.5c0-0.2,0.1-0.3,0.3-0.3c0,0,0,0,0,0
				c0.2,0,0.3,0.1,0.3,0.3l-0.1,12.5l5.4,302.2v8C122.2,385.7,122,385.8,121.9,385.8z"/>
		</g>
		<g>
			<path fill="#FCEDE9" d="M116.3,385.8c-0.2,0-0.3-0.1-0.3-0.3v-8l-3.3-302.2l3.3-28.7c0-0.2,0.1-0.3,0.3-0.3
				c0.2,0,0.3,0.2,0.3,0.3l-3.3,28.7l3.3,302.1v8C116.6,385.7,116.5,385.8,116.3,385.8z"/>
		</g>
		<g>
			<path fill="#FCEDE9" d="M110.7,385.8c-0.2,0-0.3-0.1-0.3-0.3v-8l-1.1-302.2l6.9-45.4c0-0.2,0.2-0.3,0.3-0.3
				c0.2,0,0.3,0.2,0.3,0.3L110,75.4l1.1,302.1v8C111,385.7,110.9,385.8,110.7,385.8z"/>
		</g>
	</g>
</g>
</svg>
