<?xml version="1.0" encoding="utf-8"?>
<!-- Generator: Adobe Illustrator 24.0.2, SVG Export Plug-In . SVG Version: 6.00 Build 0)  -->
<svg version="1.1" id="Layer_1" xmlns="http://www.w3.org/2000/svg" xmlns:xlink="http://www.w3.org/1999/xlink" x="0px" y="0px"
	 viewBox="0 0 210 506.1" enable-background="new 0 0 210 506.1" xml:space="preserve">
<g id="Dreadnought_Guitar">
	<g>
		<path fill="#F5D287" d="M188.9,376.4c-11.8-25.8-17.8-37.2-17.8-52.5c0-15.2,9.3-38.5,2.1-55.4c-7.2-16.9-17.3-23.3-68.1-23.3
			s-60.9,6.4-68.1,23.3c-7.2,16.9,2.1,40.2,2.1,55.4c0,15.2-5.9,26.7-17.8,52.5c-11.8,25.8-16.5,49.9-3.4,75.3
			c13.1,25.4,39.8,32.7,87.2,32.7s74-7.3,87.2-32.7C205.4,426.3,200.7,402.2,188.9,376.4z"/>
	</g>
	<g>
		<path fill="#FAB74F" d="M22.2,449.5c-10.8-20.9-9.8-42.2,3.5-71.1l2.9-6.3c10.2-22.1,15.3-33.2,15.3-48.2c0-5.6-1.1-11.9-2.3-18.5
			c-2.1-11.8-4.4-25.1-0.2-35c6-14.2,13.9-20.4,63.7-20.4v-4.8c-50.8,0-60.9,6.4-68.1,23.3c-7.2,16.9,2.1,40.2,2.1,55.4
			c0,15.2-5.9,26.7-17.8,52.5c-11.8,25.8-16.5,49.9-3.4,75.3c13.1,25.4,39.8,32.7,87.2,32.7v-4.8C56,479.5,33.6,471.4,22.2,449.5z"
			/>
	</g>
	<g>
		<path fill="#FAB74F" d="M184.5,378.4l-2.9-6.3c-10.2-22.1-15.3-33.2-15.3-48.2c0-5.6,1.1-11.9,2.3-18.5c2.1-11.8,4.4-25.1,0.2-35
			c-6-14.2-13.9-20.4-63.7-20.4v229.6c49.1,0,71.6-8.1,82.9-30.1C198.8,428.6,197.8,407.3,184.5,378.4z"/>
	</g>
	<g>
		<path fill="#A14C40" d="M105.1,286c-14.5,0-26.2,11.8-26.2,26.2s11.8,26.2,26.2,26.2c14.5,0,26.2-11.8,26.2-26.2
			S119.6,286,105.1,286z M105.1,337.3c-13.8,0-25-11.2-25-25c0-13.8,11.2-25,25-25s25,11.2,25,25C130.2,326,118.9,337.3,105.1,337.3
			z M105.1,279.1c-18.3,0-33.2,14.9-33.2,33.2c0,18.3,14.9,33.2,33.2,33.2c18.3,0,33.2-14.9,33.2-33.2
			C138.3,293.9,123.4,279.1,105.1,279.1z M105.1,344.2c-17.6,0-32-14.3-32-32c0-17.6,14.3-32,32-32c17.6,0,32,14.3,32,32
			C137.1,329.9,122.7,344.2,105.1,344.2z M105.1,281.9c-16.7,0-30.3,13.6-30.3,30.3s13.6,30.3,30.3,30.3c16.7,0,30.3-13.6,30.3-30.3
			S121.8,281.9,105.1,281.9z M105.1,340.2c-15.4,0-27.9-12.5-27.9-27.9c0-15.4,12.5-27.9,27.9-27.9c15.4,0,27.9,12.5,27.9,27.9
			C133.1,327.6,120.5,340.2,105.1,340.2z"/>
	</g>
	<g>
		<path fill="#783128" d="M160.7,325.7c-4.7-22.2-21.2-40.5-36.4-36.9c6.8,5.6,11.1,14,11.1,23.4c0,11.7-6.6,21.8-16.3,26.9
			c-1.4,12.5-3.4,27,7.9,31.8c11.7,5,28,1.4,33-4C165.1,361.6,165.6,348.5,160.7,325.7z"/>
	</g>
	<g>
		<path fill="#A14C40" d="M68.7,379.9v10.5c0,0.7,0.5,1.2,1.2,1.2c13.4,0.3,11,5.9,22.3,5.9H118c11.3,0,8.9-5.6,22.3-5.9
			c0.7,0,1.2-0.5,1.2-1.2v-10.5c0-0.7-0.5-1.2-1.2-1.2H69.9C69.2,378.7,68.7,379.2,68.7,379.9z"/>
	</g>
	<g>
		<path fill="#783128" d="M140.3,378.7h-35.2v18.7H118c11.3,0,8.9-5.6,22.3-5.9c0.7,0,1.2-0.5,1.2-1.2v-10.5
			C141.5,379.2,141,378.7,140.3,378.7z"/>
	</g>
	<g>
		<polygon fill="#C26152" points="90.3,288.6 120,288.6 115.9,79.8 94.4,79.8 		"/>
	</g>
	<g>
		<path fill="#FCEDE9" d="M91.2,387c-1.1,0-2,0.9-2,2c0,1.1,0.9,2,2,2c1.1,0,2-0.9,2-2C93.2,388,92.3,387,91.2,387z"/>
	</g>
	<g>
		<circle fill="#FCEDE9" cx="107.9" cy="389.1" r="2"/>
	</g>
	<g>
		<path fill="#FCEDE9" d="M102.3,387c-1.1,0-2,0.9-2,2c0,1.1,0.9,2,2,2c1.1,0,2-0.9,2-2C104.4,388,103.5,387,102.3,387z"/>
	</g>
	<g>
		<rect x="87.6" y="381.1" fill="#FCEDE9" width="35.1" height="3.2"/>
	</g>
	<g>
		<circle fill="#FCEDE9" cx="96.8" cy="389.1" r="2"/>
	</g>
	<g>
		<circle fill="#FCEDE9" cx="119" cy="389.1" r="2"/>
	</g>
	<g>
		<path fill="#FCEDE9" d="M113.5,387c-1.1,0-2,0.9-2,2c0,1.1,0.9,2,2,2c1.1,0,2-0.9,2-2C115.5,388,114.6,387,113.5,387z"/>
	</g>
	<g>
		<path fill="#FCEDE9" d="M92.9,154.3l0-1.6h24.4l0,1.6H92.9z M117.6,166.7l0-1.6H92.7l0,1.6H117.6z M117.8,178.5l0-1.6H92.5l0,1.6
			H117.8z M118,189.7l0-1.6H92.2l0,1.6H118z M118.2,200.1l0-1.6H92l0,1.6H118.2z M117.1,141.2l0-1.6H93.2l0,1.6H117.1z M118.4,210.2
			l0-1.6H91.8l0,1.6H118.4z M116.5,112.5l0-1.6H93.8l0,1.6H116.5z M94.1,95.7l0,1.6h22.2l0-1.6H94.1z M116.8,127.3l0-1.6H93.5l0,1.6
			H116.8z M119.5,266.6l0-1.6H90.7l0,1.6H119.5z M119.8,279l0-1.6H90.5l0,1.6H119.8z M119.7,272.9l0-1.6h-29l0,1.6H119.7z
			 M119.9,284.6l0-1.6H90.4l0,1.6H119.9z M119.4,259.7l0-1.6H90.9l0,1.6H119.4z M119,237.1l0-1.6H91.3l0,1.6H119z M118.6,219.5
			l0-1.6H91.7l0,1.6H118.6z M118.8,228.5l0-1.6H91.5l0,1.6H118.8z M119.1,245.1l0-1.6H91.1l0,1.6H119.1z M119.3,252.6l0-1.6H91
			l0,1.6H119.3z"/>
	</g>
	<g>
		<polygon fill="#FCEDE9" points="115.8,76.6 94.4,76.6 94.4,79.8 115.9,79.8 		"/>
	</g>
	<g>
		<g>
			<rect x="86.4" y="34.7" fill="#783128" width="5.8" height="3.1"/>
		</g>
		<g>
			<path fill="#D9B28D" d="M81.9,36.3c0,2.2,1.3,4,3.1,4.9c1.1,0.5,2.3-0.4,2.3-1.6v-6.7c0-1.2-1.2-2.1-2.3-1.6
				C83.1,32.3,81.9,34.1,81.9,36.3z"/>
		</g>
	</g>
	<g>
		<g>
			<rect x="87.6" y="49.1" fill="#783128" width="5.8" height="3.1"/>
		</g>
		<g>
			<path fill="#D9B28D" d="M83,50.6c0,2.2,1.3,4,3.1,4.9c1.1,0.5,2.3-0.4,2.3-1.6v-6.7c0-1.2-1.2-2.1-2.3-1.6
				C84.3,46.6,83,48.5,83,50.6z"/>
		</g>
	</g>
	<g>
		<g>
			<rect x="89.5" y="63.3" fill="#783128" width="5.8" height="3.1"/>
		</g>
		<g>
			<path fill="#D9B28D" d="M84.9,64.8c0,2.2,1.3,4,3.1,4.9c1.1,0.5,2.3-0.4,2.3-1.6v-6.7c0-1.2-1.2-2.1-2.3-1.6
				C86.1,60.8,84.9,62.7,84.9,64.8z"/>
		</g>
	</g>
	<g>
		<g>
			
				<rect x="117.9" y="34.7" transform="matrix(-1 -1.224647e-16 1.224647e-16 -1 241.734 72.5194)" fill="#59060C" width="5.8" height="3.1"/>
		</g>
		<g>
			<path fill="#D9B28D" d="M128.4,36.3c0,2.2-1.3,4-3.1,4.9c-1.1,0.5-2.3-0.4-2.3-1.6v-6.7c0-1.2,1.2-2.1,2.3-1.6
				C127.1,32.3,128.4,34.1,128.4,36.3z"/>
		</g>
	</g>
	<g>
		<g>
			
				<rect x="116.8" y="49.1" transform="matrix(-1 -1.224647e-16 1.224647e-16 -1 239.3789 101.2592)" fill="#59060C" width="5.8" height="3.1"/>
		</g>
		<g>
			<path fill="#D9B28D" d="M127.2,50.6c0,2.2-1.3,4-3.1,4.9c-1.1,0.5-2.3-0.4-2.3-1.6v-6.7c0-1.2,1.2-2.1,2.3-1.6
				C125.9,46.6,127.2,48.5,127.2,50.6z"/>
		</g>
	</g>
	<g>
		<g>
			
				<rect x="114.9" y="63.3" transform="matrix(-1 -1.224647e-16 1.224647e-16 -1 235.6999 129.6715)" fill="#59060C" width="5.8" height="3.1"/>
		</g>
		<g>
			<path fill="#D9B28D" d="M125.4,64.8c0,2.2-1.3,4-3.1,4.9c-1.1,0.5-2.3-0.4-2.3-1.6v-6.7c0-1.2,1.2-2.1,2.3-1.6
				C124.1,60.8,125.4,62.7,125.4,64.8z"/>
		</g>
	</g>
	<g>
		<path fill="#A14C40" d="M121.6,21.8c0.1-1.4-1-2.6-2.4-2.6H91c-1.4,0-2.5,1.2-2.4,2.6l3.1,44.6c0.1,1.4,0.5,2.9,1.5,3.9
			c1.2,1.2,1.2,4.3,1.2,6.2h21.5c0-2,0-5,1.2-6.2c1-1,1.4-2.5,1.5-3.9L121.6,21.8z"/>
	</g>
	<g>
		<path fill="#783128" d="M119.2,19.3h-14.1v57.3h10.8c0-2,0-5,1.2-6.2c1-1,1.4-2.5,1.5-3.9l3.1-44.7
			C121.7,20.4,120.6,19.3,119.2,19.3z"/>
	</g>
	<g>
		<g>
			<path fill="#FCEDE9" d="M101.3,62.2c0,2-1.6,3.6-3.6,3.6c-2,0-3.6-1.6-3.6-3.6c0-2,1.6-3.6,3.6-3.6
				C99.7,58.6,101.3,60.2,101.3,62.2z"/>
		</g>
		<g>
			<circle fill="#FCEDE9" cx="97.1" cy="46.7" r="3.6"/>
		</g>
		<g>
			<circle fill="#FCEDE9" cx="96.5" cy="31.2" r="3.6"/>
		</g>
		<g>
			<path fill="#A14C40" d="M99.1,62.2c0,0.8-0.6,1.4-1.4,1.4c-0.8,0-1.4-0.6-1.4-1.4c0-0.8,0.6-1.4,1.4-1.4
				C98.5,60.8,99.1,61.4,99.1,62.2z"/>
		</g>
		<g>
			<path fill="#A14C40" d="M98.5,46.7c0,0.8-0.6,1.4-1.4,1.4c-0.8,0-1.4-0.6-1.4-1.4c0-0.8,0.6-1.4,1.4-1.4
				C97.9,45.3,98.5,45.9,98.5,46.7z"/>
		</g>
		<g>
			<path fill="#A14C40" d="M97.9,31.2c0,0.8-0.6,1.4-1.4,1.4c-0.8,0-1.4-0.6-1.4-1.4c0-0.8,0.6-1.4,1.4-1.4
				C97.3,29.8,97.9,30.4,97.9,31.2z"/>
		</g>
		<g>
			<path fill="#FCEDE9" d="M116.1,62.2c0,2-1.6,3.6-3.6,3.6c-2,0-3.6-1.6-3.6-3.6s1.6-3.6,3.6-3.6C114.5,58.6,116.1,60.2,116.1,62.2
				z"/>
		</g>
		<g>
			<path fill="#FCEDE9" d="M116.7,46.7c0,2-1.6,3.6-3.6,3.6c-2,0-3.6-1.6-3.6-3.6c0-2,1.6-3.6,3.6-3.6
				C115.1,43.1,116.7,44.7,116.7,46.7z"/>
		</g>
		<g>
			<path fill="#FCEDE9" d="M117.3,31.2c0,2-1.6,3.6-3.6,3.6c-2,0-3.6-1.6-3.6-3.6s1.6-3.6,3.6-3.6C115.7,27.7,117.3,29.3,117.3,31.2
				z"/>
		</g>
		<g>
			<circle fill="#783128" cx="112.5" cy="62.2" r="1.5"/>
		</g>
		<g>
			<circle fill="#783128" cx="113.1" cy="46.7" r="1.5"/>
		</g>
		<g>
			<path fill="#783128" d="M115.2,31.2c0,0.8-0.7,1.5-1.5,1.5c-0.8,0-1.5-0.7-1.5-1.5c0-0.8,0.7-1.5,1.5-1.5
				C114.5,29.7,115.2,30.4,115.2,31.2z"/>
		</g>
	</g>
	<g>
		<circle fill="#59060C" cx="105.1" cy="312.2" r="22.7"/>
	</g>
	<g>
		<g>
			<path fill="#FCEDE9" d="M91.2,389.4c-0.2,0-0.3-0.1-0.3-0.3v-8l5.4-304.5l2.3-12.5c0-0.2,0.2-0.3,0.4-0.2c0.2,0,0.3,0.2,0.2,0.3
				l-2.3,12.5l-5.4,304.4v8C91.5,389.2,91.4,389.4,91.2,389.4z"/>
		</g>
		<g>
			<path fill="#FCEDE9" d="M96.8,389.4c-0.2,0-0.3-0.1-0.3-0.3v-8l3.3-304.5l-0.9-28.7c0-0.2,0.1-0.3,0.3-0.3c0,0,0,0,0,0
				c0.2,0,0.3,0.1,0.3,0.3l0.9,28.7l-3.3,304.5v8C97.1,389.2,96.9,389.4,96.8,389.4z"/>
		</g>
		<g>
			<path fill="#FCEDE9" d="M102.3,389.4c-0.2,0-0.3-0.1-0.3-0.3v-8l1-304.5l-4.5-45.3c0-0.2,0.1-0.3,0.3-0.3c0.2,0,0.3,0.1,0.3,0.3
				l4.5,45.3l-1,304.5v8C102.6,389.2,102.5,389.4,102.3,389.4z"/>
		</g>
		<g>
			<path fill="#FCEDE9" d="M119,389.4c-0.2,0-0.3-0.1-0.3-0.3v-8l-5.4-304.5L111,64.2c0-0.2,0.1-0.3,0.2-0.3c0.1,0,0.3,0.1,0.3,0.2
				l2.3,12.5l5.4,304.5v8C119.3,389.2,119.2,389.4,119,389.4z"/>
		</g>
		<g>
			<path fill="#FCEDE9" d="M113.5,389.4c-0.2,0-0.3-0.1-0.3-0.3v-8l-3.3-304.5l0.9-28.7c0-0.2,0.1-0.3,0.3-0.3c0,0,0,0,0,0
				c0.2,0,0.3,0.1,0.3,0.3l-0.9,28.7l3.3,304.4v8C113.8,389.2,113.6,389.4,113.5,389.4z"/>
		</g>
		<g>
			<path fill="#FCEDE9" d="M107.9,389.4c-0.2,0-0.3-0.1-0.3-0.3v-8l-1.1-304.5l4.5-45.4c0-0.2,0.1-0.3,0.3-0.3c0,0,0,0,0,0
				c0.2,0,0.3,0.2,0.3,0.3l-4.5,45.3l1.1,304.5v8C108.2,389.2,108.1,389.4,107.9,389.4z"/>
		</g>
	</g>
</g>
</svg>
