<?xml version="1.0" encoding="utf-8"?>
<!-- Generator: Adobe Illustrator 24.0.2, SVG Export Plug-In . SVG Version: 6.00 Build 0)  -->
<svg version="1.1" id="Layer_1" xmlns="http://www.w3.org/2000/svg" xmlns:xlink="http://www.w3.org/1999/xlink" x="0px" y="0px"
	 viewBox="0 0 210 521.8" enable-background="new 0 0 210 521.8" xml:space="preserve">
<g id="Twelve-string_Guitar">
	<g>
		<path fill="#E37E3D" d="M178.7,380.9c-10.8-23.3-12.1-34.1-9.9-45.8c2.2-11.7,10.8-35.9,2.2-49.2c-8.6-13.4-15.3-21.2-64.5-21.2
			c-49.2,0-55.9,7.8-64.5,21.2c-8.6,13.4,0,37.6,2.2,49.2c2.2,11.7,0.9,22.5-9.9,45.8C23.3,404.2,5.6,436.7,19,468.7
			s31.7,34,87.4,34c55.7,0,74-2.1,87.4-34C207.2,436.7,189.5,404.2,178.7,380.9z"/>
	</g>
	<g>
		<path fill="#C95E0D" d="M23.5,466.8c-11.5-27.5,1.8-55.6,12.4-78.3c0.9-1.9,1.8-3.8,2.6-5.6c11.6-25.1,12.6-36.4,10.3-48.7
			c-0.4-2.4-1.1-5.2-1.8-8.1c-2.7-11.4-6.9-28.5-1-37.6c7.4-11.4,12.2-18.9,60.4-18.9l0-4.9c-49.2,0-55.9,7.8-64.5,21.2
			c-8.6,13.4,0,37.6,2.2,49.2c2.2,11.7,0.9,22.5-9.9,45.8C23.3,404.2,5.6,436.7,19,468.7s31.7,34,87.4,34l0-4.9
			C49.7,497.9,35.3,495,23.5,466.8z"/>
	</g>
	<g>
		<path fill="#C95E0D" d="M177,388.6c-0.9-1.9-1.8-3.8-2.6-5.6c-11.6-25.1-12.6-36.5-10.3-48.7c0.4-2.4,1.1-5.2,1.8-8.1
			c2.7-11.4,6.9-28.5,1-37.6c-7.4-11.4-12.2-18.9-60.4-18.9v228.3c56.7,0,71.1-2.9,82.9-31C200.9,439.3,187.6,411.2,177,388.6z"/>
	</g>
	<g>
		<path fill="#A14C40" d="M69.6,400.3v13c0,0.7,0.5,1.2,1.2,1.2c13.5,0.3,11.1,10.8,22.5,10.8h26.1c11.4,0,9-10.5,22.5-10.8
			c0.7,0,1.2-0.5,1.2-1.2v-13c0-0.7-0.5-1.2-1.2-1.2H70.9C70.2,399.1,69.6,399.6,69.6,400.3z"/>
	</g>
	<g>
		<path fill="#783128" d="M142,399.1h-36.2v26.2h13.7c11.4,0,9-10.5,22.5-10.8c0.7,0,1.2-0.5,1.2-1.2v-13
			C143.2,399.6,142.7,399.1,142,399.1z"/>
	</g>
	<g>
		<rect x="88.7" y="401.5" fill="#FCEDE9" width="35.4" height="3.3"/>
	</g>
	<g>
		<g>
			<circle fill="#FCEDE9" cx="92.4" cy="410.8" r="2.1"/>
		</g>
		<g>
			<circle fill="#FCEDE9" cx="109.3" cy="410.8" r="2.1"/>
		</g>
		<g>
			<circle fill="#FCEDE9" cx="103.7" cy="410.8" r="2.1"/>
		</g>
		<g>
			<path fill="#FCEDE9" d="M98.1,408.7c-1.1,0-2.1,0.9-2.1,2.1c0,1.1,0.9,2.1,2.1,2.1c1.1,0,2.1-0.9,2.1-2.1
				C100.1,409.7,99.2,408.7,98.1,408.7z"/>
		</g>
		<g>
			<path fill="#FCEDE9" d="M120.6,408.8c-1.1,0-2,0.9-2,2c0,1.1,0.9,2,2,2c1.1,0,2-0.9,2-2C122.6,409.7,121.7,408.8,120.6,408.8z"/>
		</g>
		<g>
			<circle fill="#FCEDE9" cx="115" cy="410.8" r="2.1"/>
		</g>
	</g>
	<g>
		<g>
			<circle fill="#FCEDE9" cx="94.4" cy="418.1" r="2.1"/>
		</g>
		<g>
			<path fill="#FCEDE9" d="M111.3,416c-1.1,0-2.1,0.9-2.1,2.1c0,1.1,0.9,2.1,2.1,2.1c1.1,0,2.1-0.9,2.1-2.1
				C113.4,416.9,112.5,416,111.3,416z"/>
		</g>
		<g>
			<circle fill="#FCEDE9" cx="105.7" cy="418.1" r="2.1"/>
		</g>
		<g>
			<path fill="#FCEDE9" d="M100.1,416c-1.1,0-2.1,0.9-2.1,2.1c0,1.1,0.9,2.1,2.1,2.1c1.1,0,2.1-0.9,2.1-2.1
				C102.1,416.9,101.2,416,100.1,416z"/>
		</g>
		<g>
			<path fill="#FCEDE9" d="M122.6,416.1c-1.1,0-2,0.9-2,2c0,1.1,0.9,2,2,2c1.1,0,2-0.9,2-2C124.6,417,123.7,416.1,122.6,416.1z"/>
		</g>
		<g>
			<circle fill="#FCEDE9" cx="117" cy="418.1" r="2.1"/>
		</g>
	</g>
	<g>
		<path fill="#A14C40" d="M106.4,360.8c-14.3,0-26-11.7-26-26c0-14.3,11.7-26,26-26c14.3,0,26,11.7,26,26
			C132.4,349.1,120.8,360.8,106.4,360.8z M106.4,310c-13.7,0-24.8,11.1-24.8,24.8s11.1,24.8,24.8,24.8s24.8-11.1,24.8-24.8
			S120.1,310,106.4,310z M106.4,368.4c-18.5,0-33.6-15.1-33.6-33.6c0-18.5,15.1-33.6,33.6-33.6s33.6,15.1,33.6,33.6
			C140,353.3,125,368.4,106.4,368.4z M106.4,302.4c-17.9,0-32.4,14.5-32.4,32.4c0,17.9,14.5,32.4,32.4,32.4s32.4-14.5,32.4-32.4
			C138.8,316.9,124.3,302.4,106.4,302.4z M106.4,365.8c-17.1,0-31-13.9-31-31c0-17.1,13.9-31,31-31c17.1,0,31,13.9,31,31
			C137.4,351.9,123.5,365.8,106.4,365.8z M106.4,307.5c-15.1,0-27.3,12.3-27.3,27.3c0,15.1,12.3,27.3,27.3,27.3
			c15.1,0,27.3-12.3,27.3-27.3C133.8,319.7,121.5,307.5,106.4,307.5z"/>
	</g>
	<g>
		<circle fill="#59060C" cx="106.4" cy="334.8" r="23"/>
	</g>
	<g>
		<path fill="#59060C" d="M159.6,383.4c-0.8-4.7-4.4-7.1-5.1-19.2c-0.2-2.9-0.3-25.8-0.3-36.7s-6.7-22-19.5-24.5
			c-12.9-2.5-16.1-1.8-16.1-1.8l0,5.2c11,4.7,18.8,15.7,18.8,28.4c0,12.6-7.6,23.4-18.4,28.3v17.4c0,5.7,2.7,9.5,19.8,10.6
			C156,392.2,160.4,388.1,159.6,383.4z"/>
	</g>
	<g>
		<polygon fill="#C26152" points="95.5,103.2 91.6,313.5 121.2,313.5 117.3,103.2 		"/>
	</g>
	<g>
		<path fill="#FCEDE9" d="M120.7,285.7l0,1.6H92.1l0-1.6H120.7z M92.5,264.7l0,1.6h27.8l0-1.6H92.5z M92.4,271.8l0,1.6h28.1l0-1.6
			H92.4z M92.3,279.1l0,1.6h28.4l0-1.6H92.3z M92,292.2l0,1.6h28.9l0-1.6H92z M94,189h25l0-1.6H94L94,189z M91.9,298.1l0,1.6H121
			l0-1.6H91.9z M93.2,231.8h26.6l0-1.6H93.2L93.2,231.8z M121,303.9H91.8l0,1.6h29.3L121,303.9z M119.9,239.6H93l0,1.6h26.9
			L119.9,239.6z M93.8,198.9l0,1.6h25.4l0-1.6H93.8z M95.3,118.4l0,1.6h22.4l0-1.6H95.3z M117.9,133.7H95l0,1.6h23L117.9,133.7z
			 M94.5,162l0,1.6h24l0-1.6H94.5z M94.7,148.4l0,1.6h23.5l0-1.6H94.7z M93.4,220.5l0,1.6h26.2l0-1.6H93.4z M92.7,256.7l0,1.6h27.5
			l0-1.6H92.7z M92.8,248.5l0,1.6H120l0-1.6H92.8z M93.6,210.3l0,1.6h25.8l0-1.6H93.6z M94.2,175.1l0,1.6h24.5l0-1.6H94.2z"/>
	</g>
	<g>
		<rect x="95.6" y="100" fill="#FCEDE9" width="21.7" height="3.3"/>
	</g>
	<g>
		<g>
			<g>
				
					<rect x="120" y="82.9" transform="matrix(-1 -1.224647e-16 1.224647e-16 -1 245.9729 168.9918)" fill="#59060C" width="5.9" height="3.1"/>
			</g>
			<g>
				<path fill="#D9B28D" d="M130.6,84.5c0,1.5-0.9,2.8-2.4,3.6c-1.3,0.7-3.1-0.1-3.1-1.4v-4.4c0-1.3,1.8-2.1,3.1-1.4
					C129.6,81.7,130.6,83,130.6,84.5z"/>
			</g>
		</g>
		<g>
			<g>
				<rect x="119.2" y="73.1" fill="#59060C" width="5.9" height="3.1"/>
			</g>
			<g>
				<path fill="#D9B28D" d="M129.8,74.6c0,1.5-0.9,2.8-2.4,3.6c-1.3,0.7-3.1-0.1-3.1-1.4v-4.4c0-1.3,1.8-2.1,3.1-1.4
					C128.8,71.9,129.8,73.2,129.8,74.6z"/>
			</g>
		</g>
		<g>
			<g>
				<rect x="118.5" y="63.2" fill="#59060C" width="5.9" height="3.1"/>
			</g>
			<g>
				<path fill="#D9B28D" d="M129,64.8c0,1.5-0.9,2.8-2.4,3.6c-1.3,0.7-3.1-0.1-3.1-1.4v-4.4c0-1.3,1.8-2.1,3.1-1.4
					C128.1,62,129,63.3,129,64.8z"/>
			</g>
		</g>
		<g>
			<g>
				<rect x="117.9" y="53.3" fill="#59060C" width="5.9" height="3.1"/>
			</g>
			<g>
				<path fill="#D9B28D" d="M128.4,54.9c0,1.5-0.9,2.8-2.4,3.6c-1.3,0.7-3.1-0.1-3.1-1.4v-4.4c0-1.3,1.8-2.1,3.1-1.4
					C127.5,52.1,128.4,53.4,128.4,54.9z"/>
			</g>
		</g>
		<g>
			<g>
				<rect x="117.4" y="43.4" fill="#59060C" width="5.9" height="3.1"/>
			</g>
			<g>
				<path fill="#D9B28D" d="M127.9,45c0,1.5-0.9,2.8-2.4,3.6c-1.3,0.7-3.1-0.1-3.1-1.4v-4.4c0-1.3,1.8-2.1,3.1-1.4
					C127,42.2,127.9,43.5,127.9,45z"/>
			</g>
		</g>
		<g>
			<g>
				
					<rect x="117" y="33.5" transform="matrix(-1 -1.224647e-16 1.224647e-16 -1 239.8134 70.2343)" fill="#59060C" width="5.9" height="3.1"/>
			</g>
			<g>
				<path fill="#D9B28D" d="M127.5,35.1c0,1.5-0.9,2.8-2.4,3.6c-1.3,0.7-3.1-0.1-3.1-1.4v-4.4c0-1.3,1.8-2.1,3.1-1.4
					C126.6,32.3,127.5,33.6,127.5,35.1z"/>
			</g>
		</g>
		<g>
			<g>
				<rect x="86.9" y="82.9" fill="#783128" width="5.9" height="3.1"/>
			</g>
			<g>
				<path fill="#D9B28D" d="M82.3,84.5c0,1.5,0.9,2.8,2.4,3.6c1.3,0.7,3.1-0.1,3.1-1.4v-4.4c0-1.3-1.8-2.1-3.1-1.4
					C83.2,81.7,82.3,83,82.3,84.5z"/>
			</g>
		</g>
		<g>
			<g>
				<rect x="87.7" y="73.1" fill="#783128" width="5.9" height="3.1"/>
			</g>
			<g>
				<path fill="#D9B28D" d="M83.1,74.6c0,1.5,0.9,2.8,2.4,3.6c1.3,0.7,3.1-0.1,3.1-1.4v-4.4c0-1.3-1.8-2.1-3.1-1.4
					C84,71.9,83.1,73.2,83.1,74.6z"/>
			</g>
		</g>
		<g>
			<g>
				<rect x="88.4" y="63.2" fill="#783128" width="5.9" height="3.1"/>
			</g>
			<g>
				<path fill="#D9B28D" d="M83.8,64.8c0,1.5,0.9,2.8,2.4,3.6c1.3,0.7,3.1-0.1,3.1-1.4v-4.4c0-1.3-1.8-2.1-3.1-1.4
					C84.7,62,83.8,63.3,83.8,64.8z"/>
			</g>
		</g>
		<g>
			<g>
				<rect x="89.1" y="53.3" fill="#783128" width="5.9" height="3.1"/>
			</g>
			<g>
				<path fill="#D9B28D" d="M84.4,54.9c0,1.5,0.9,2.8,2.4,3.6c1.3,0.7,3.1-0.1,3.1-1.4v-4.4c0-1.3-1.8-2.1-3.1-1.4
					C85.4,52.1,84.4,53.4,84.4,54.9z"/>
			</g>
		</g>
		<g>
			<g>
				<rect x="89.6" y="43.4" fill="#783128" width="5.9" height="3.1"/>
			</g>
			<g>
				<path fill="#D9B28D" d="M85,45c0,1.5,0.9,2.8,2.4,3.6c1.3,0.7,3.1-0.1,3.1-1.4v-4.4c0-1.3-1.8-2.1-3.1-1.4
					C85.9,42.2,85,43.5,85,45z"/>
			</g>
		</g>
		<g>
			<g>
				<rect x="90" y="33.5" fill="#783128" width="5.9" height="3.1"/>
			</g>
			<g>
				<path fill="#D9B28D" d="M85.4,35.1c0,1.5,0.9,2.8,2.4,3.6c1.3,0.7,3.1-0.1,3.1-1.4v-4.4c0-1.3-1.8-2.1-3.1-1.4
					C86.3,32.3,85.4,33.6,85.4,35.1z"/>
			</g>
		</g>
	</g>
	<g>
		<path fill="#A14C40" d="M120,25c0-6.5-0.7-6.7-4.4-5.2c-3.6,1.5-7.6,3.2-9.2,3.2c-1.7,0-5.6-1.7-9.2-3.2c-3.6-1.5-4.4-1.4-4.4,5.2
			c0,26.9-2.7,64.2-2.7,64.2c3.7,1.7,5.5,5.8,5.5,10.8h21.7c0-5.1,1.8-9.2,5.5-10.8C122.8,89.2,120,51.9,120,25z"/>
	</g>
	<g>
		<path fill="#783128" d="M120,25c0-6.5-0.7-6.7-4.4-5.2c-3.6,1.5-7.6,3.2-9.2,3.2v77h10.9c0-5.1,1.8-9.2,5.5-10.8
			C122.8,89.2,120,51.9,120,25z"/>
	</g>
	<g>
		<g>
			<path fill="#FCEDE9" d="M120.5,83.5c0,2-1.6,3.6-3.6,3.6c-2,0-3.6-1.6-3.6-3.6c0-2,1.6-3.6,3.6-3.6
				C118.8,79.9,120.5,81.5,120.5,83.5z"/>
		</g>
		<g>
			<path fill="#783128" d="M118.3,83.5c0,0.8-0.7,1.5-1.5,1.5c-0.8,0-1.5-0.7-1.5-1.5c0-0.8,0.7-1.5,1.5-1.5
				C117.7,82,118.3,82.7,118.3,83.5z"/>
		</g>
		<g>
			<path fill="#FCEDE9" d="M120,73.7c0,2-1.6,3.6-3.6,3.6c-2,0-3.6-1.6-3.6-3.6c0-2,1.6-3.6,3.6-3.6C118.4,70.1,120,71.7,120,73.7z"
				/>
		</g>
		<g>
			<path fill="#783128" d="M117.8,73.7c0,0.8-0.7,1.5-1.5,1.5c-0.8,0-1.5-0.7-1.5-1.5c0-0.8,0.7-1.5,1.5-1.5
				C117.2,72.2,117.8,72.9,117.8,73.7z"/>
		</g>
		<g>
			<path fill="#FCEDE9" d="M119.5,63.8c0,2-1.6,3.6-3.6,3.6c-2,0-3.6-1.6-3.6-3.6s1.6-3.6,3.6-3.6C117.9,60.2,119.5,61.8,119.5,63.8
				z"/>
		</g>
		<g>
			<path fill="#783128" d="M117.4,63.8c0,0.8-0.7,1.5-1.5,1.5c-0.8,0-1.5-0.7-1.5-1.5c0-0.8,0.7-1.5,1.5-1.5
				C116.7,62.3,117.4,63,117.4,63.8z"/>
		</g>
		<g>
			<path fill="#FCEDE9" d="M119,54c0,2-1.6,3.6-3.6,3.6c-2,0-3.6-1.6-3.6-3.6c0-2,1.6-3.6,3.6-3.6C117.4,50.4,119,52,119,54z"/>
		</g>
		<g>
			<path fill="#783128" d="M116.9,54c0,0.8-0.7,1.5-1.5,1.5c-0.8,0-1.5-0.7-1.5-1.5c0-0.8,0.7-1.5,1.5-1.5
				C116.2,52.5,116.9,53.2,116.9,54z"/>
		</g>
		<g>
			<path fill="#FCEDE9" d="M118.5,44.1c0,2-1.6,3.6-3.6,3.6c-2,0-3.6-1.6-3.6-3.6c0-2,1.6-3.6,3.6-3.6
				C116.9,40.5,118.5,42.1,118.5,44.1z"/>
		</g>
		<g>
			<path fill="#783128" d="M116.4,44.1c0,0.8-0.7,1.5-1.5,1.5c-0.8,0-1.5-0.7-1.5-1.5c0-0.8,0.7-1.5,1.5-1.5
				C115.7,42.7,116.4,43.3,116.4,44.1z"/>
		</g>
		<g>
			<path fill="#FCEDE9" d="M118,34.3c0,2-1.6,3.6-3.6,3.6c-2,0-3.6-1.6-3.6-3.6s1.6-3.6,3.6-3.6C116.4,30.7,118,32.3,118,34.3z"/>
		</g>
		<g>
			<path fill="#783128" d="M115.9,34.3c0,0.8-0.7,1.5-1.5,1.5c-0.8,0-1.5-0.7-1.5-1.5s0.7-1.5,1.5-1.5
				C115.2,32.8,115.9,33.5,115.9,34.3z"/>
		</g>
	</g>
	<g>
		<g>
			<path fill="#FCEDE9" d="M92.4,83.5c0,2,1.6,3.6,3.6,3.6c2,0,3.6-1.6,3.6-3.6c0-2-1.6-3.6-3.6-3.6C94,79.9,92.4,81.5,92.4,83.5z"
				/>
		</g>
		<g>
			<circle fill="#A14C40" cx="96" cy="83.5" r="1.5"/>
		</g>
		<g>
			<path fill="#FCEDE9" d="M92.9,73.7c0,2,1.6,3.6,3.6,3.6c2,0,3.6-1.6,3.6-3.6c0-2-1.6-3.6-3.6-3.6C94.5,70.1,92.9,71.7,92.9,73.7z
				"/>
		</g>
		<g>
			<circle fill="#A14C40" cx="96.5" cy="73.7" r="1.5"/>
		</g>
		<g>
			<path fill="#FCEDE9" d="M93.4,63.8c0,2,1.6,3.6,3.6,3.6c2,0,3.6-1.6,3.6-3.6S99,60.2,97,60.2C95,60.2,93.4,61.8,93.4,63.8z"/>
		</g>
		<g>
			<circle fill="#A14C40" cx="97" cy="63.8" r="1.5"/>
		</g>
		<g>
			<path fill="#FCEDE9" d="M93.9,54c0,2,1.6,3.6,3.6,3.6c2,0,3.6-1.6,3.6-3.6c0-2-1.6-3.6-3.6-3.6C95.5,50.4,93.9,52,93.9,54z"/>
		</g>
		<g>
			<circle fill="#A14C40" cx="97.5" cy="54" r="1.5"/>
		</g>
		<g>
			<path fill="#FCEDE9" d="M94.3,44.1c0,2,1.6,3.6,3.6,3.6c2,0,3.6-1.6,3.6-3.6c0-2-1.6-3.6-3.6-3.6C96,40.5,94.3,42.1,94.3,44.1z"
				/>
		</g>
		<g>
			<circle fill="#A14C40" cx="98" cy="44.1" r="1.5"/>
		</g>
		<g>
			<path fill="#FCEDE9" d="M94.8,34.3c0,2,1.6,3.6,3.6,3.6c2,0,3.6-1.6,3.6-3.6s-1.6-3.6-3.6-3.6C96.5,30.7,94.8,32.3,94.8,34.3z"/>
		</g>
		<g>
			<circle fill="#A14C40" cx="98.4" cy="34.3" r="1.5"/>
		</g>
	</g>
	<g>
		<g>
			<g>
				<path fill="#FCEDE9" d="M92.4,409.9c-0.2,0-0.3-0.1-0.3-0.3v-8.1l4.5-301.8L97.2,85c0-0.2,0.1-0.3,0.3-0.3c0,0,0,0,0,0
					c0.2,0,0.3,0.1,0.3,0.3l-0.5,14.7l-4.5,301.8v8.1C92.8,409.8,92.6,409.9,92.4,409.9z"/>
			</g>
			<g>
				<path fill="#FCEDE9" d="M98.1,409.9c-0.2,0-0.3-0.1-0.3-0.3v-8.1l2.5-301.8l-1.6-36.4c0-0.2,0.1-0.3,0.3-0.3
					c0.2,0,0.3,0.1,0.3,0.3l1.6,36.4l-2.5,301.8v8.1C98.4,409.8,98.2,409.9,98.1,409.9z"/>
			</g>
			<g>
				<path fill="#FCEDE9" d="M103.7,409.9c-0.2,0-0.3-0.1-0.3-0.3v-8.1l0.4-301.8l-4-55.5c0-0.2,0.1-0.3,0.3-0.3
					c0.2,0,0.3,0.1,0.3,0.3l4,55.6L104,409.6C104,409.8,103.9,409.9,103.7,409.9z"/>
			</g>
			<g>
				<path fill="#FCEDE9" d="M120.6,409.9c-0.2,0-0.3-0.1-0.3-0.3v-8.1l-5.8-301.8l-0.9-26c0-0.2,0.1-0.3,0.3-0.3
					c0.2,0,0.3,0.1,0.3,0.3l0.9,26.1l5.8,301.8v8.1C120.9,409.8,120.7,409.9,120.6,409.9z"/>
			</g>
			<g>
				<path fill="#FCEDE9" d="M115,409.9c-0.2,0-0.3-0.1-0.3-0.3v-8.1l-3.8-301.8l1.7-46.4c0-0.2,0.1-0.3,0.3-0.3c0,0,0,0,0,0
					c0.2,0,0.3,0.1,0.3,0.3l-1.7,46.4l3.8,301.8v8.1C115.3,409.8,115.1,409.9,115,409.9z"/>
			</g>
			<g>
				<path fill="#FCEDE9" d="M109.3,409.9c-0.2,0-0.3-0.1-0.3-0.3v-8.1l-1.6-301.8l4.6-66.2c0-0.2,0.2-0.3,0.3-0.3
					c0.2,0,0.3,0.2,0.3,0.3L108,99.7l1.6,301.8v8.1C109.6,409.8,109.5,409.9,109.3,409.9z"/>
			</g>
		</g>
		<g>
			<g>
				<path fill="#FCEDE9" d="M94.4,418.4c-0.2,0-0.3-0.1-0.3-0.3V410l3.6-310.3l0-25.1c0-0.2,0.1-0.3,0.3-0.3s0.3,0.1,0.3,0.3l0,25.1
					L94.8,410v8.1C94.8,418.3,94.6,418.4,94.4,418.4z"/>
			</g>
			<g>
				<path fill="#FCEDE9" d="M100.1,418.4c-0.2,0-0.3-0.1-0.3-0.3V410l1.6-310.3L99.5,54c0-0.2,0.1-0.3,0.3-0.3c0,0,0,0,0,0
					c0.2,0,0.3,0.1,0.3,0.3l1.9,45.7L100.4,410v8.1C100.4,418.3,100.2,418.4,100.1,418.4z"/>
			</g>
			<g>
				<path fill="#FCEDE9" d="M105.7,418.4c-0.2,0-0.3-0.1-0.3-0.3V410l-0.5-310.3l-4.6-65.4c0-0.2,0.1-0.3,0.3-0.3
					c0.2,0,0.3,0.1,0.3,0.3l4.6,65.4l0.5,318.4C106,418.3,105.9,418.4,105.7,418.4z"/>
			</g>
			<g>
				<path fill="#FCEDE9" d="M122.6,418.4c-0.2,0-0.3-0.1-0.3-0.3V410l-6.7-310.2L114.8,85c0-0.2,0.1-0.3,0.3-0.3
					c0.2,0,0.3,0.1,0.3,0.3l0.7,14.7l6.7,310.3v8.1C122.9,418.3,122.7,418.4,122.6,418.4z"/>
			</g>
			<g>
				<path fill="#FCEDE9" d="M117,418.4c-0.2,0-0.3-0.1-0.3-0.3V410L112,99.7l1.2-35.9c0-0.2,0.1-0.3,0.3-0.3c0,0,0,0,0,0
					c0.2,0,0.3,0.1,0.3,0.3l-1.2,35.9l4.7,310.2v8.1C117.3,418.3,117.1,418.4,117,418.4z"/>
			</g>
			<g>
				<path fill="#FCEDE9" d="M111.3,418.4c-0.2,0-0.3-0.1-0.3-0.3V410l-2.5-310.3l3.8-55.6c0-0.2,0.2-0.3,0.3-0.3
					c0.2,0,0.3,0.2,0.3,0.3l-3.8,55.6l2.5,310.3v8.1C111.6,418.3,111.5,418.4,111.3,418.4z"/>
			</g>
		</g>
	</g>
</g>
</svg>
