<?xml version="1.0" encoding="utf-8"?>
<!-- Generator: Adobe Illustrator 24.0.2, SVG Export Plug-In . SVG Version: 6.00 Build 0)  -->
<svg version="1.1" id="Layer_1" xmlns="http://www.w3.org/2000/svg" xmlns:xlink="http://www.w3.org/1999/xlink" x="0px" y="0px"
	 viewBox="0 0 210 550" enable-background="new 0 0 210 550" xml:space="preserve">
<g id="Classical_Guitar">
	<g>
		<path fill="#F5D287" d="M165,395.1c-5-8.5-5.5-14-0.1-26.1c5.4-12,15.7-32-0.3-55.3c-15.7-22.9-48.1-21.5-59.8-21.6
			c-11.7-0.1-44.1-1.8-60,21c-16.2,23.2-6.1,43.3-0.8,55.3c5.3,12.2,4.8,17.6-0.4,26.1c-11.5,18.9-26.1,38-25.4,62.1
			c1.4,49,47.4,60.8,85.6,61c38.2,0.2,84.3-11.2,86.2-60.2C190.8,433.3,176.3,414.1,165,395.1z"/>
	</g>
	<g>
		<path fill="#FAB74F" d="M23.5,456.5c-0.6-19,9.6-35.2,19.5-50.8c1.8-2.8,3.5-5.6,5.2-8.3c6.3-10.3,6.4-17.9,0.7-31l-0.7-1.7
			c-5.4-12.1-12.7-28.7,1.1-48.4c11.7-16.8,33.9-18.8,49.5-18.8c1.4,0,2.7,0,3.9,0l3,0l-0.8-5.4c-11.7-0.1-44.1-1.8-60,21
			c-16.2,23.2-6.1,43.3-0.8,55.3c5.3,12.2,4.8,17.6-0.4,26.1c-11.5,18.9-26.1,38-25.4,62.1c1.4,49,47.4,60.8,85.6,61l0-5.4
			C74.4,512.1,25,504.7,23.5,456.5z"/>
	</g>
	<g>
		<path fill="#FAB74F" d="M165.5,406.2c-1.7-2.8-3.5-5.6-5.1-8.4c-6.2-10.4-6.3-18-0.4-31.1l0.8-1.7c5.5-12.1,13-28.6-0.6-48.4
			c-13.2-19.2-41.1-19.2-51.7-19.2l-2.9,0l-1.8,0v214.8c0,0,0,0,0,0c0,0,0.8,0,0.8,0c35.5,0,78.2-9.6,79.9-55
			C185.3,438.2,175.2,422,165.5,406.2z"/>
	</g>
	<g>
		<path fill="#A14C40" d="M104.3,338.1c-14.5,0-26.2,11.7-26.2,26.2c0,14.5,11.7,26.2,26.2,26.2c14.5,0,26.2-11.7,26.2-26.2
			C130.5,349.8,118.7,338.1,104.3,338.1z M104.3,387.8c-13,0-23.5-10.5-23.5-23.5c0-13,10.5-23.5,23.5-23.5s23.5,10.5,23.5,23.5
			C127.8,377.2,117.2,387.8,104.3,387.8z M104.3,331.2c-18.3,0-33.1,14.8-33.1,33.1s14.8,33.1,33.1,33.1s33.1-14.8,33.1-33.1
			S122.5,331.2,104.3,331.2z M104.3,394.7c-16.8,0-30.4-13.6-30.4-30.4c0-16.8,13.6-30.4,30.4-30.4s30.4,13.6,30.4,30.4
			C134.7,381.1,121.1,394.7,104.3,394.7z"/>
	</g>
	<g>
		<polygon fill="#C26152" points="117.3,124.3 91.3,124.3 88.6,348.6 120,348.6 		"/>
	</g>
	<g>
		<rect x="57.5" y="444.8" fill="#A14C40" width="93.5" height="12.7"/>
	</g>
	<g>
		<rect x="104.1" y="444.8" fill="#783128" width="46.9" height="12.7"/>
	</g>
	<g>
		<rect x="84.4" y="444.8" fill="#C26152" width="39.7" height="15.4"/>
	</g>
	<g>
		<rect x="104.3" y="444.8" fill="#A14C40" width="19.8" height="15.4"/>
	</g>
	<g>
		<path fill="#FCEDE9" d="M119.5,310.1l0,1.8H89l0-1.8H119.5z M89.1,302l0,1.8h30.3l0-1.8H89.1z M89.2,292.9l0,1.8h30.1l0-1.8H89.2z
			 M88.9,318.2l0,1.8h30.7l0-1.8H88.9z M88.8,333l0,1.8h31.1l0-1.8H88.8z M120,346.8l0-1.8H88.6l0,1.8H120z M88.8,325.7l0,1.8h30.9
			l0-1.8H88.8z M88.7,339l0,1.8h31.2l0-1.8H88.7z M89.3,283.6l0,1.8h29.9l0-1.8H89.3z M91,144l0,1.8h26.5l0-1.8H91z M90.6,180l0,1.8
			H118l0-1.8H90.6z M90.4,195.7l0,1.8h27.8l0-1.8H90.4z M90.8,162.6l0,1.8h27l0-1.8H90.8z M90.2,211l0,1.8h28.1l0-1.8H90.2z
			 M89.5,273.2l0,1.8h29.6l0-1.8H89.5z M89.6,262.2l0,1.8H119l0-1.8H89.6z M89.7,250.9l0,1.8h29.1l0-1.8H89.7z M89.9,238.2l0,1.8
			h28.8l0-1.8H89.9z M90,225.1l0,1.8h28.5l0-1.8H90z"/>
	</g>
	<g>
		<rect x="90.9" y="120.8" fill="#FCEDE9" width="26.7" height="3.6"/>
	</g>
	<g>
		<rect x="87.4" y="447.4" fill="#FCEDE9" width="33.8" height="3.6"/>
	</g>
	<g>
		<rect x="86.5" y="88.1" fill="#D9B28D" width="35.6" height="6.3"/>
	</g>
	<g>
		<rect x="86.5" y="71.8" fill="#D9B28D" width="35.6" height="6.3"/>
	</g>
	<g>
		<rect x="86.5" y="55.6" fill="#D9B28D" width="35.6" height="6.3"/>
	</g>
	<g>
		
			<ellipse transform="matrix(0.9239 -0.3827 0.3827 0.9239 -131.4636 67.6313)" fill="#59060C" cx="104.3" cy="364.3" rx="20.8" ry="20.8"/>
	</g>
	<g>
		<path fill="#A14C40" d="M124.9,36.6h-1c-2.1,0-3.8-1.1-5.2-2.7c-0.8-0.9-1.9-1.5-3.2-1.5h0c-2.6,0-6.3-1.5-8.2-3.4
			c-1.6-1.6-4.3-1.6-5.9,0c-1.9,1.9-5.6,3.4-8.2,3.4h0c-1.3,0-2.4,0.6-3.2,1.5c-1.3,1.6-3.1,2.7-5.2,2.7h-1c-0.8,0-1.4,0.6-1.3,1.4
			l2.6,69.9c0,0.3,0.2,0.7,0.4,0.9c3.5,3.4,6,8.3,6,11.9h25.9c0-4.5,2.5-8.8,5.9-11.9c0.3-0.2,0.4-0.6,0.4-0.9l2.6-69.9
			C126.2,37.3,125.6,36.6,124.9,36.6z M95,101.2c-2.6,0-4.7-2-4.9-4.6l-2-44.2c-0.1-2.8,2.1-5.1,4.9-5.1c2.6,0,4.7,2,4.9,4.6l2,44.2
			C99.9,98.9,97.7,101.2,95,101.2z M118.5,96.5c-0.1,2.6-2.3,4.6-4.9,4.6c-2.8,0-5-2.3-4.9-5.1l2-44.2c0.1-2.6,2.3-4.6,4.9-4.6
			c2.8,0,5,2.3,4.9,5.1L118.5,96.5z"/>
	</g>
	<g>
		<path fill="#783128" d="M124.9,36.6h-1c-2.1,0-3.8-1.1-5.2-2.7c-0.8-0.9-1.9-1.5-3.2-1.5h0c-2.6,0-6.3-1.5-8.2-3.4
			c-0.8-0.8-1.9-1.2-3-1.2v92.9h12.9c0-4.5,2.5-8.8,5.9-11.9c0.3-0.2,0.4-0.6,0.4-0.9l2.6-69.9C126.2,37.3,125.6,36.6,124.9,36.6z
			 M118.5,96.5c-0.1,2.6-2.3,4.6-4.9,4.6c-2.8,0-5-2.3-4.9-5.1l2-44.2c0.1-2.6,2.3-4.6,4.9-4.6c2.8,0,5,2.3,4.9,5.1L118.5,96.5z"/>
	</g>
	<g>
		<g>
			<path fill="#FCEDE9" d="M90.3,460.5c-0.2,0-0.3-0.1-0.3-0.3v-13.6l3.2-324l-1.6-34.5c0-0.2,0.1-0.3,0.3-0.4
				c0.2,0,0.3,0.1,0.4,0.3l1.6,34.5l-3.2,324v13.6C90.6,460.4,90.5,460.5,90.3,460.5z"/>
		</g>
		<g>
			<path fill="#FCEDE9" d="M95.8,460.5c-0.2,0-0.3-0.1-0.3-0.3v-13.6l1.8-324l-4.1-51c0-0.2,0.1-0.3,0.3-0.4c0.2,0,0.3,0.1,0.4,0.3
				l4.1,51l-1.8,324v13.6C96.2,460.4,96,460.5,95.8,460.5z"/>
		</g>
		<g>
			<path fill="#FCEDE9" d="M101.5,460.5c-0.2,0-0.3-0.1-0.3-0.3v-13.6l0.6-324l-8.1-66.5c0-0.2,0.1-0.4,0.3-0.4
				c0.2,0,0.4,0.1,0.4,0.3l8.1,66.5l-0.6,324.1v13.6C101.8,460.4,101.6,460.5,101.5,460.5z"/>
		</g>
		<g>
			<path fill="#FCEDE9" d="M118.2,460.5c-0.2,0-0.3-0.1-0.3-0.3v-13.6l-3.2-324l1.7-34.5c0-0.2,0.2-0.3,0.3-0.3c0,0,0,0,0,0
				c0.2,0,0.3,0.2,0.3,0.4l-1.7,34.5l3.2,324v13.6C118.6,460.4,118.4,460.5,118.2,460.5z"/>
		</g>
		<g>
			<path fill="#FCEDE9" d="M112.7,460.5c-0.2,0-0.3-0.1-0.3-0.3v-13.6l-1.8-324l4.1-51.1c0-0.2,0.2-0.3,0.4-0.3
				c0.2,0,0.3,0.2,0.3,0.4l-4.1,51l1.8,324v13.6C113.1,460.4,112.9,460.5,112.7,460.5z"/>
		</g>
		<g>
			<path fill="#FCEDE9" d="M107.1,460.5c-0.2,0-0.3-0.1-0.3-0.3v-13.6l-0.6-324l8.1-66.7c0-0.2,0.2-0.3,0.4-0.3
				c0.2,0,0.3,0.2,0.3,0.4l-8.1,66.6l0.6,324v13.6C107.4,460.4,107.3,460.5,107.1,460.5z"/>
		</g>
	</g>
	<g>
		<path fill="#A14C40" d="M79.9,92l-5.1-3.4c-0.8-0.5-1-1.7-0.5-2.5l0,0c0.5-0.8,1.7-1,2.5-0.5l5.1,3.4c0.8,0.5,1,1.7,0.5,2.5l0,0
			C81.8,92.3,80.7,92.5,79.9,92z"/>
	</g>
	<g>
		<path fill="#D9B28D" d="M84,82.4h-3.3c-1.7,0-3,1.4-2.9,3.1l0.4,6.8c0.1,1.6,1.4,2.8,2.9,2.8h3.4L84,82.4z"/>
	</g>
	<g>
		<path fill="#C26152" d="M83.4,86.3c0,1.3-1,2.3-2.3,2.3c-1.3,0-2.3-1-2.3-2.3s1-2.3,2.3-2.3C82.3,83.9,83.4,85,83.4,86.3z"/>
	</g>
	<g>
		<path fill="#A14C40" d="M79.3,75.4L74.2,72c-0.8-0.5-1-1.7-0.5-2.5l0,0c0.5-0.8,1.7-1,2.5-0.5l5.1,3.4c0.8,0.5,1,1.7,0.5,2.5l0,0
			C81.2,75.7,80.1,75.9,79.3,75.4z"/>
	</g>
	<g>
		<path fill="#D9B28D" d="M83.4,65.8h-3.3c-1.7,0-3,1.4-2.9,3.1l0.4,6.8c0.1,1.6,1.4,2.8,2.9,2.8h3.4L83.4,65.8z"/>
	</g>
	<g>
		<circle fill="#C26152" cx="80.4" cy="69.6" r="2.3"/>
	</g>
	<g>
		<path fill="#A14C40" d="M78.7,59.2l-5.1-3.4c-0.8-0.5-1-1.7-0.5-2.5l0,0c0.5-0.8,1.7-1,2.5-0.5l5.1,3.4c0.8,0.5,1,1.7,0.5,2.5l0,0
			C80.6,59.6,79.5,59.8,78.7,59.2z"/>
	</g>
	<g>
		<path fill="#D9B28D" d="M82.8,49.7h-3.3c-1.7,0-3,1.4-2.9,3.1l0.4,6.8c0.1,1.6,1.4,2.8,2.9,2.8h3.4L82.8,49.7z"/>
	</g>
	<g>
		<path fill="#C26152" d="M82.2,53.5c0,1.3-1,2.3-2.3,2.3c-1.3,0-2.3-1-2.3-2.3c0-1.3,1-2.3,2.3-2.3C81.1,51.2,82.2,52.2,82.2,53.5z
			"/>
	</g>
	<g>
		<path fill="#783128" d="M128.7,92l5.1-3.4c0.8-0.5,1-1.7,0.5-2.5l0,0c-0.5-0.8-1.7-1-2.5-0.5l-5.1,3.4c-0.8,0.5-1,1.7-0.5,2.5l0,0
			C126.8,92.3,127.9,92.5,128.7,92z"/>
	</g>
	<g>
		<path fill="#D9B28D" d="M124.5,82.4h3.3c1.7,0,3,1.4,2.9,3.1l-0.4,6.8c-0.1,1.6-1.4,2.8-2.9,2.8h-3.4L124.5,82.4z"/>
	</g>
	<g>
		<circle fill="#A14C40" cx="127.5" cy="86.3" r="2.3"/>
	</g>
	<g>
		<path fill="#783128" d="M129.3,75.4l5.1-3.4c0.8-0.5,1-1.7,0.5-2.5l0,0c-0.5-0.8-1.7-1-2.5-0.5l-5.1,3.4c-0.8,0.5-1,1.7-0.5,2.5
			l0,0C127.4,75.7,128.5,75.9,129.3,75.4z"/>
	</g>
	<g>
		<path fill="#D9B28D" d="M125.2,65.8h3.3c1.7,0,3,1.4,2.9,3.1l-0.4,6.8c-0.1,1.6-1.4,2.8-2.9,2.8h-3.4L125.2,65.8z"/>
	</g>
	<g>
		<circle fill="#A14C40" cx="128.2" cy="69.6" r="2.3"/>
	</g>
	<g>
		<path fill="#783128" d="M129.9,59.2l5.1-3.4c0.8-0.5,1-1.7,0.5-2.5l0,0c-0.5-0.8-1.7-1-2.5-0.5l-5.1,3.4c-0.8,0.5-1,1.7-0.5,2.5
			l0,0C128,59.6,129.1,59.8,129.9,59.2z"/>
	</g>
	<g>
		<path fill="#D9B28D" d="M125.8,49.7h3.3c1.7,0,3,1.4,2.9,3.1l-0.4,6.8c-0.1,1.6-1.4,2.8-2.9,2.8h-3.4L125.8,49.7z"/>
	</g>
	<g>
		<path fill="#A14C40" d="M126.4,53.5c0,1.3,1,2.3,2.3,2.3s2.3-1,2.3-2.3c0-1.3-1-2.3-2.3-2.3S126.4,52.2,126.4,53.5z"/>
	</g>
</g>
</svg>
