<?xml version="1.0" encoding="utf-8"?>
<!-- Generator: Adobe Illustrator 24.0.2, SVG Export Plug-In . SVG Version: 6.00 Build 0)  -->
<svg version="1.1" id="Layer_1" xmlns="http://www.w3.org/2000/svg" xmlns:xlink="http://www.w3.org/1999/xlink" x="0px" y="0px"
	 viewBox="0 0 42.6 32.7" enable-background="new 0 0 42.6 32.7" xml:space="preserve">
<g id="Layer_1_1_">
	<g opacity="0.2">
		<path fill="#231F20" d="M41.4,27.8c0,2.2-1.8,4-4,4h-32c-2.2,0-4-1.8-4-4v-20c0-2.2,1.8-4,4-4h32c2.2,0,4,1.8,4,4V27.8z"/>
	</g>
	<g>
		<path fill="#FFFFFF" stroke="#000000" stroke-width="0.5" stroke-miterlimit="10" d="M41.4,25.8c0,2.2-1.8,4-4,4h-32
			c-2.2,0-4-1.8-4-4v-20c0-2.2,1.8-4,4-4h32c2.2,0,4,1.8,4,4V25.8z"/>
	</g>
	<g>
		<rect x="1.6" y="7.8" fill="#4F5D73" width="39.5" height="6"/>
	</g>
	<g>
		<circle fill="#E0995E" cx="27.4" cy="23.8" r="2"/>
	</g>
	<g>
		<circle fill="#E0995E" cx="35.4" cy="23.8" r="2"/>
	</g>
	<g>
		<circle fill="#E0995E" cx="19.4" cy="23.8" r="2"/>
	</g>
</g>
<g id="Layer_2_1_">
</g>
</svg>
