<?xml version="1.0" encoding="utf-8"?>
<!-- Generator: Adobe Illustrator 24.0.2, SVG Export Plug-In . SVG Version: 6.00 Build 0)  -->
<svg version="1.1" id="Layer_1" xmlns="http://www.w3.org/2000/svg" xmlns:xlink="http://www.w3.org/1999/xlink" x="0px" y="0px"
	 viewBox="0 0 122.9 103.6" style="enable-background:new 0 0 122.9 103.6;" xml:space="preserve">
<style type="text/css">
	.st0{fill:#FFFFFF;}
</style>
<g>
	<path class="st0" d="M10.5,24.2h99.3c2.6,0,4.7-2.1,4.7-4.7s-2.1-4.7-4.7-4.7H10.5c-2.6,0-4.7,2.1-4.7,4.7
		C5.7,22.1,7.9,24.2,10.5,24.2z"/>
	<g>
		<path class="st0" d="M10.5,54.6h99.3c2.6,0,4.7-2.1,4.7-4.7c0-2.6-2.1-4.7-4.7-4.7H10.5c-2.6,0-4.7,2.1-4.7,4.7
			C5.7,52.4,7.9,54.6,10.5,54.6z"/>
	</g>
	<g>
		<path class="st0" d="M10.5,84.7h99.3c2.6,0,4.7-2.1,4.7-4.7s-2.1-4.7-4.7-4.7H10.5c-2.6,0-4.7,2.1-4.7,4.7
			C5.7,82.6,7.9,84.7,10.5,84.7z"/>
	</g>
</g>
</svg>
