<?xml version="1.0" encoding="utf-8"?>
<!-- Generator: Adobe Illustrator 24.0.2, SVG Export Plug-In . SVG Version: 6.00 Build 0)  -->
<svg version="1.1" id="Layer_1" xmlns="http://www.w3.org/2000/svg" xmlns:xlink="http://www.w3.org/1999/xlink" x="0px" y="0px"
	 viewBox="0 0 122.9 103.6" style="enable-background:new 0 0 122.9 103.6;" xml:space="preserve">
<style type="text/css">
	.st0{fill:#FFFFFF;}
</style>
<g>
	<path class="st0" d="M10.5,26.6h99.3c2.6,0,4.7-2.3,4.7-5.1s-2.1-5.1-4.7-5.1H10.5c-2.6,0-4.7,2.3-4.7,5.1
		C5.7,24.3,7.9,26.6,10.5,26.6z"/>
	<path class="st0" d="M10.5,57.7h99.3c2.6,0,4.7-2.3,4.7-5.1s-2.1-5.1-4.7-5.1H10.5c-2.6,0-4.7,2.3-4.7,5.1
		C5.7,55.4,7.9,57.7,10.5,57.7z"/>
	<path class="st0" d="M10.5,87.8h99.3c2.6,0,4.7-2.3,4.7-5.1c0-2.8-2.1-5.1-4.7-5.1H10.5c-2.6,0-4.7,2.3-4.7,5.1
		C5.7,85.6,7.9,87.8,10.5,87.8z"/>
</g>
</svg>
