<?xml version="1.0" encoding="utf-8"?>
<!-- Generator: Adobe Illustrator 24.0.2, SVG Export Plug-In . SVG Version: 6.00 Build 0)  -->
<svg version="1.1" id="Layer_1" xmlns="http://www.w3.org/2000/svg" xmlns:xlink="http://www.w3.org/1999/xlink" x="0px" y="0px"
	 viewBox="0 0 26.4 30.7" enable-background="new 0 0 26.4 30.7" xml:space="preserve">
<path fill="#253B80" d="M7.7,29.4l0.5-3.3l-1.2,0H1.5L5.3,1.6c0-0.1,0.1-0.1,0.1-0.2c0.1,0,0.1-0.1,0.2-0.1H15
	c3.1,0,5.3,0.6,6.4,1.9c0.5,0.6,0.9,1.2,1,1.9c0.2,0.7,0.2,1.6,0,2.6l0,0.1v0.7L23,8.8c0.4,0.2,0.8,0.5,1.1,0.8
	c0.5,0.5,0.7,1.2,0.9,1.9c0.1,0.8,0.1,1.7-0.1,2.8c-0.2,1.2-0.6,2.3-1.2,3.2c-0.5,0.8-1.1,1.5-1.8,2c-0.7,0.5-1.5,0.9-2.5,1.1
	c-0.9,0.2-1.9,0.4-3.1,0.4h-0.7c-0.5,0-1,0.2-1.4,0.5c-0.4,0.3-0.7,0.8-0.7,1.3l-0.1,0.3L12.4,29l0,0.2c0,0.1,0,0.1-0.1,0.1
	c0,0-0.1,0-0.1,0C12.2,29.4,7.7,29.4,7.7,29.4z"/>
<path fill="#179BD7" d="M23.5,7.9L23.5,7.9L23.5,7.9c0,0.2-0.1,0.4-0.1,0.6c-1.2,6.4-5.5,8.5-10.9,8.5H9.7c-0.7,0-1.2,0.5-1.3,1.1
	l0,0l0,0L7,27.1l-0.4,2.5c-0.1,0.4,0.3,0.8,0.7,0.8h4.9c0.6,0,1.1-0.4,1.2-1l0-0.2l0.9-5.8l0.1-0.3c0.1-0.6,0.6-1,1.2-1h0.7
	c4.7,0,8.4-1.9,9.5-7.5c0.5-2.3,0.2-4.3-1-5.6C24.4,8.5,24,8.2,23.5,7.9z"/>
<path fill="#222D65" d="M22.2,7.4c-0.2-0.1-0.4-0.1-0.6-0.2c-0.2,0-0.4-0.1-0.6-0.1C20.2,7,19.4,7,18.5,7h-7.4c-0.2,0-0.4,0-0.5,0.1
	C10.3,7.2,10.1,7.6,10,8l-1.6,9.9l0,0.3C8.5,17.5,9.1,17,9.7,17h2.8c5.4,0,9.6-2.2,10.9-8.5c0-0.2,0.1-0.4,0.1-0.6
	c-0.3-0.2-0.7-0.3-1-0.4C22.4,7.5,22.3,7.4,22.2,7.4z"/>
<path fill="#253B80" d="M10,8c0.1-0.4,0.3-0.7,0.7-0.9C10.8,7,11,7,11.2,7h7.4C19.4,7,20.2,7,21,7.1c0.2,0,0.4,0.1,0.6,0.1
	c0.2,0,0.4,0.1,0.6,0.2c0.1,0,0.2,0.1,0.3,0.1c0.4,0.1,0.7,0.3,1,0.4c0.4-2.3,0-3.9-1.3-5.4c-1.4-1.6-3.9-2.3-7.2-2.3H5.7
	C5,0.3,4.4,0.7,4.3,1.4L0.4,26.2c-0.1,0.5,0.3,0.9,0.8,0.9H7l1.5-9.2L10,8z"/>
</svg>
