<svg width="38" height="38" viewBox="0 0 38 38" fill="none" xmlns="http://www.w3.org/2000/svg">
<circle cx="19" cy="19" r="18.4" stroke="white" stroke-width="1.2"/>
<path d="M18.5551 25.19C18.2151 25.19 17.9351 25.08 17.7151 24.86C17.4951 24.64 17.3851 24.35 17.3851 23.99C17.3851 23.19 17.5751 22.33 17.9551 21.41C18.3551 20.49 18.9051 19.7 19.6051 19.04C20.2251 18.46 20.8151 17.9 21.3751 17.36C21.9351 16.82 22.3851 16.22 22.7251 15.56C23.0851 14.9 23.2651 14.07 23.2651 13.07C23.2651 12.29 23.0751 11.58 22.6951 10.94C22.3151 10.28 21.7751 9.76 21.0751 9.38C20.3951 9 19.5951 8.81 18.6751 8.81C17.6751 8.81 16.8151 9.02 16.0951 9.44C15.3751 9.84 14.8151 10.4 14.4151 11.12C14.0351 11.84 13.8451 12.67 13.8451 13.61C13.8451 13.95 13.7351 14.23 13.5151 14.45C13.3151 14.65 13.0451 14.75 12.7051 14.75C12.3651 14.75 12.0851 14.65 11.8651 14.45C11.6451 14.23 11.5351 13.95 11.5351 13.61C11.5351 12.23 11.8351 11.02 12.4351 9.98C13.0351 8.92 13.8651 8.09 14.9251 7.49C16.0051 6.89 17.2551 6.59 18.6751 6.59C19.9951 6.59 21.1751 6.88 22.2151 7.46C23.2551 8.02 24.0751 8.8 24.6751 9.8C25.2751 10.78 25.5751 11.91 25.5751 13.19C25.5751 14.31 25.3751 15.26 24.9751 16.04C24.5751 16.82 24.0451 17.54 23.3851 18.2C22.7451 18.84 22.0351 19.52 21.2551 20.24C20.6351 20.8 20.2251 21.43 20.0251 22.13C19.8251 22.83 19.7251 23.45 19.7251 23.99C19.7251 24.35 19.6151 24.64 19.3951 24.86C19.1751 25.08 18.8951 25.19 18.5551 25.19ZM18.5551 30.5C18.0551 30.5 17.6351 30.33 17.2951 29.99C16.9751 29.65 16.8151 29.24 16.8151 28.76C16.8151 28.26 16.9851 27.84 17.3251 27.5C17.6651 27.16 18.0751 26.99 18.5551 26.99C19.0351 26.99 19.4451 27.16 19.7851 27.5C20.1451 27.84 20.3251 28.26 20.3251 28.76C20.3251 29.24 20.1451 29.65 19.7851 29.99C19.4451 30.33 19.0351 30.5 18.5551 30.5Z" fill="white"/>
</svg>
