<svg width="38" height="36" viewBox="0 0 38 36" fill="none" xmlns="http://www.w3.org/2000/svg">
<path d="M1 1.85986C2.33883 1.85986 5.01649 1.85986 5.68591 2.19455C6.27696 2.49006 7.0892 4.38888 8.02886 6.88048M12.7148 20.9382L31.4584 19.5993C32.1278 19.4878 33.6005 18.9969 34.136 17.9258C34.6716 16.8547 36.1443 10.7854 36.8137 7.88457V7.21515L8.02886 6.88048M12.7148 20.9382C11.4453 17.4119 9.64341 11.1616 8.02886 6.88048M12.7148 20.9382C12.2685 21.6076 11.7278 23.3326 12.0453 24.2852C12.3801 25.2894 13.5181 26.6282 14.0536 26.6282C14.5891 26.6282 26.1031 26.6282 31.7931 26.6282" stroke="white" stroke-width="2" stroke-linecap="round"/>
<circle cx="14.723" cy="32.3181" r="2.68178" stroke="white" stroke-width="2"/>
<circle cx="30.1195" cy="32.3181" r="2.68178" stroke="white" stroke-width="2"/>
</svg>
