<?xml version="1.0" encoding="utf-8"?>
<!-- Generator: Adobe Illustrator 24.0.2, SVG Export Plug-In . SVG Version: 6.00 Build 0)  -->
<svg version="1.1" id="Layer_1" xmlns="http://www.w3.org/2000/svg" xmlns:xlink="http://www.w3.org/1999/xlink" x="0px" y="0px"
	 viewBox="0 0 39 44.7" style="enable-background:new 0 0 39 44.7;" xml:space="preserve">
<style type="text/css">
	.st0{fill:#00A606;stroke:#00A606;stroke-width:2;stroke-linecap:round;}
	.st1{fill:#00A606;stroke:#00A606;stroke-width:2;}
	.st2{fill:none;stroke:#00A606;stroke-width:2;stroke-linecap:round;stroke-linejoin:round;}
	.st3{fill:none;stroke:#00A606;stroke-width:2;stroke-linecap:round;}
</style>
<path class="st0" d="M8,15.5 M12.7,29.6l18.7-1.3c0.7-0.1,2.1-0.6,2.7-1.7c0.5-1.1,2-7.1,2.7-10v-0.7L8,15.5 M12.7,29.6
	c-1.3-3.5-3.1-9.8-4.7-14.1 M12.7,29.6"/>
<circle class="st1" cx="14.7" cy="41" r="2.7"/>
<circle class="st1" cx="30.1" cy="41" r="2.7"/>
<polyline class="st2" points="15.4,8.2 19.6,12.4 29.5,2.5 "/>
<path class="st3" d="M12.8,29.6c-0.4,0.7-1,2.4-0.7,3.3c0.3,1,1.5,2.3,2,2.3s12,0,17.7,0"/>
<path class="st3" d="M1,10.5c1.3,0,4,0,4.7,0.3C6.3,11.1,7.1,13,8,15.5"/>
</svg>
