<?xml version="1.0" encoding="utf-8"?>
<!-- Generator: Adobe Illustrator 24.0.2, SVG Export Plug-In . SVG Version: 6.00 Build 0)  -->
<svg version="1.1" id="Layer_1" xmlns="http://www.w3.org/2000/svg" xmlns:xlink="http://www.w3.org/1999/xlink" x="0px" y="0px"
	 viewBox="0 0 445.3 512" enable-background="new 0 0 445.3 512" xml:space="preserve">
<g>
	<path fill="#FFFFFF" d="M232.1,392.5V187.7c0-4.4-3.6-8.1-8.1-8.1c-4.4,0-8.1,3.6-8.1,8.1v204.8c0,4.4,3.6,8.1,8.1,8.1
		C228.5,400.6,232.1,397,232.1,392.5z"/>
	<path fill="#FFFFFF" d="M87.5,503h273.1c4.2,0,7.7-3.3,8-7.4l32-384.2h-16.2l-31.3,375.5H94.9L63.6,111.4H47.4l32,384.2
		C79.8,499.7,83.3,503,87.5,503z"/>
	<path fill="#FFFFFF" d="M300.3,393.2l17.1-204.8c0.4-4.4-2.9-8.3-7.4-8.7c-0.2,0-0.5,0-0.7,0c-1.9,0-3.7,0.7-5.2,1.9
		c-1.6,1.4-2.6,3.3-2.8,5.5v0l-17.1,204.8c-0.4,4.4,2.9,8.3,7.4,8.7C296.1,400.9,300,397.6,300.3,393.2z"/>
	<path fill="#FFFFFF" d="M149.5,77.3H53.4c-2.3,0-24.8,0-24.8,0s-5,5.1-4.8,7.4l4.1,8.8h34.3l0,0l93.7,0"/>
	<path fill="#FFFFFF" d="M156.4,400.6c4.4-0.4,7.7-4.3,7.4-8.7l-17.1-204.8c-0.4-4.4-4.3-7.7-8.7-7.4c-2.1,0.2-4.1,1.2-5.5,2.8
		c-1.4,1.6-2.1,3.7-1.9,5.9l17.1,204.8C148.1,397.6,152,400.9,156.4,400.6z"/>
	<path fill="#FFFFFF" d="M420.2,93.4h8.7c4.5,0,8.1-3.6,8.1-8.1c0-4.4-3.6-8.1-8.1-8.1h-9.4c1.1,3.3,1.5,6.7,1.2,10.2L420.2,93.4z"
		/>
	<path fill="#FFFFFF" d="M292.7,93.4h129.9l5-8.1c0.2-2.2-5.5-8.1-5.5-8.1s-25.2,0-27.4,0H298"/>
	<path fill="#FFFFFF" d="M19.2,77.3c-4.5,0-8.1,3.6-8.1,8.1c0,4.5,3.6,8.1,8.1,8.1h8.6l-0.5-5.9c-0.3-3.5,0.1-7,1.2-10.2H19.2z"/>
	<path fill="#FFFFFF" d="M153.8,93.2c0.5,0.1,1,0.2,1.6,0.2h0.8c3.5-0.2,6.6-2.6,7.5-6.1l2.5-10h-16.6l-1.5,6.1
		c-0.5,2.1-0.2,4.3,0.9,6.1C149.9,91.3,151.7,92.6,153.8,93.2z"/>
	<path fill="#FFFFFF" d="M275.2,9H172.8c-3.7,0-6.9,2.5-7.8,6.1l-15.5,62.2h16.6l13-52.1h89.8l13.8,55.3l16.2-1.8L283,15.1
		C282.2,11.5,278.9,9,275.2,9z"/>
	<path fill="#FFFFFF" d="M155,93.4l138,0c-0.2-0.6-1.9-4.1-2-4.7l-7.7-11.4h-120"/>
	<path fill="#FFFFFF" d="M294.3,93.2c4.3-1.1,6.9-5.5,5.9-9.8l-1.5-6.1H282l2.5,10C285.5,91.6,289.9,94.2,294.3,93.2z"/>
</g>
</svg>
