<?xml version="1.0" encoding="utf-8"?>
<!-- Generator: Adobe Illustrator 24.0.2, SVG Export Plug-In . SVG Version: 6.00 Build 0)  -->
<svg version="1.1" id="Layer_1" xmlns="http://www.w3.org/2000/svg" xmlns:xlink="http://www.w3.org/1999/xlink" x="0px" y="0px"
	 viewBox="0 0 350 350" enable-background="new 0 0 350 350" xml:space="preserve">
<g>
	<radialGradient id="SVGID_1_" cx="321.7682" cy="363.1463" r="248.5884" gradientUnits="userSpaceOnUse">
		<stop  offset="0" style="stop-color:#FFFFFF"/>
		<stop  offset="1" style="stop-color:#000000"/>
	</radialGradient>
	<path fill-rule="evenodd" clip-rule="evenodd" fill="url(#SVGID_1_)" d="M291.3,58.3c-50.2-52.7-186.2-49.2-240.5,0
		c-44,50.7,60,207.9,94.7,245.8c20.7,22.6,34.8,22.7,53.8,0C236.1,260.2,331.1,116.6,291.3,58.3z"/>
	<linearGradient id="SVGID_2_" gradientUnits="userSpaceOnUse" x1="162.7632" y1="237.0901" x2="162.7632" y2="-112.6465">
		<stop  offset="0" style="stop-color:#000000"/>
		<stop  offset="1" style="stop-color:#BBBDBF"/>
	</linearGradient>
	<path fill-rule="evenodd" clip-rule="evenodd" fill="url(#SVGID_2_)" d="M285.4,52.5C231.1,5.9,103.2,11,50.9,58.3
		C11.9,103.1,88.7,231.2,131,286.4c-2.6-12.6-4-25.6-4-38.9C127,154.7,194,76.5,285.4,52.5z"/>
	<path d="M289.5,59.7c-24.2-25.3-68.9-37.4-114.4-37.4c-1.5,0-3.1,0-4.6,0v-4.7c1.5,0,3.1,0,4.6,0c46.8,0,92.8,12.6,117.9,39
		l0.2,0.3c16.1,23.6,11,60.3-3.5,98.9c-22.1,59.1-66.3,122.9-88.7,149.7c-10,11.9-18.8,17.8-28.1,17.8c-0.8,0-1.7-0.1-2.5-0.1v-4.7
		c0.8,0.1,1.7,0.2,2.5,0.2c7.7,0,15.5-5.4,24.5-16.2c22.3-26.5,66-89.8,87.9-148.3C299.4,117,304.5,81.9,289.5,59.7z M170.5,22.4
		c-45.8,0.8-91.7,13.7-118,37.5c-16.4,19-11.1,53.9,3.5,91.8c23.3,60.4,70.1,127.7,91.2,150.7c8.8,9.7,16.3,15,23.3,16.1v4.7
		c-8.4-1-16.9-6.9-26.8-17.6c-21.3-23.3-68.6-91.2-92.1-152.2C36.5,113.9,31.2,77.2,49,56.7l0.2-0.2c27.2-24.6,74.4-38,121.3-38.8
		V22.4z"/>
	
		<path fill-rule="evenodd" clip-rule="evenodd" fill="none" stroke="#D1AA67" stroke-width="1.5" stroke-linecap="round" stroke-linejoin="round" stroke-miterlimit="2.6131" stroke-dasharray="1.4309,1.4309" d="
		M283.2,65.8c-46.8-49.2-173.6-45.9-224.3,0c-41.1,47.2,55.9,193.8,88.3,229.2c19.3,21.1,32.4,21.2,50.2,0
		C231.7,254.1,320.3,120.3,283.2,65.8z"/>
	
		<path fill-rule="evenodd" clip-rule="evenodd" fill="none" stroke="#D1AA67" stroke-linecap="round" stroke-linejoin="round" stroke-miterlimit="2.6131" stroke-dasharray="1.5449,1.5449" d="
		M277.8,70.8c-44.6-46.8-165.3-43.7-213.6,0c-39.1,45,53.2,184.6,84.1,218.2c18.4,20.1,30.9,20.2,47.8,0
		C228.8,250.1,313.1,122.6,277.8,70.8z"/>
</g>
</svg>
