<?xml version="1.0" encoding="utf-8"?>
<!-- Generator: Adobe Illustrator 24.0.2, SVG Export Plug-In . SVG Version: 6.00 Build 0)  -->
<svg version="1.1" id="Layer_1" xmlns="http://www.w3.org/2000/svg" xmlns:xlink="http://www.w3.org/1999/xlink" x="0px" y="0px"
	 viewBox="0 0 350 350" enable-background="new 0 0 350 350" xml:space="preserve">
<g>
	<radialGradient id="SVGID_1_" cx="315.5334" cy="354.9976" r="235.5584" gradientUnits="userSpaceOnUse">
		<stop  offset="0" style="stop-color:#FFFFFF"/>
		<stop  offset="1" style="stop-color:#000000"/>
	</radialGradient>
	<path fill-rule="evenodd" clip-rule="evenodd" fill="url(#SVGID_1_)" d="M286.7,66.1c-47.5-50-176.4-46.6-227.9,0
		c-41.7,48,56.8,197,89.7,232.9c19.6,21.4,32.9,21.5,51,0C234.4,257.4,324.4,121.4,286.7,66.1z"/>
	<linearGradient id="SVGID_2_" gradientUnits="userSpaceOnUse" x1="164.8624" y1="235.5488" x2="164.8624" y2="-95.8561">
		<stop  offset="0" style="stop-color:#000000"/>
		<stop  offset="1" style="stop-color:#BBBDBF"/>
	</linearGradient>
	<path fill-rule="evenodd" clip-rule="evenodd" fill="url(#SVGID_2_)" d="M281,60.7c-51.4-44.2-172.6-39.4-222.2,5.4
		c-36.9,42.5,35.9,163.8,76,216.2c-2.5-11.9-3.8-24.3-3.8-36.9C131,157.5,194.4,83.4,281,60.7z"/>
	<path d="M285,67.5c-22.9-24-65.2-35.4-108.4-35.4c-1.5,0-2.9,0-4.4,0v-4.4c1.5,0,2.9,0,4.4,0c44.3,0,87.9,11.9,111.7,36.9l0.2,0.3
		c15.3,22.4,10.4,57.1-3.3,93.7c-21,56-62.8,116.5-84.1,141.8c-9.5,11.3-17.9,16.9-26.6,16.9c-0.8,0-1.6,0-2.3-0.1v-4.4
		c0.8,0.1,1.6,0.2,2.3,0.2c7.3,0,14.6-5.1,23.2-15.3c21.1-25.1,62.6-85.1,83.3-140.5C294.3,121.8,299.2,88.5,285,67.5z M172.2,32.1
		c-43.4,0.8-86.9,13-111.8,35.5c-15.5,18-10.5,51.1,3.3,87c22.1,57.3,66.4,121,86.4,142.8c8.4,9.1,15.4,14.2,22.1,15.2v4.4
		c-8-0.9-16-6.5-25.4-16.7c-20.2-22-65-86.5-87.2-144.2c-14.4-37.4-19.4-72.1-2.5-91.6l0.2-0.2c25.8-23.3,70.5-36,114.9-36.8V32.1z"
		/>
	<linearGradient id="SVGID_3_" gradientUnits="userSpaceOnUse" x1="185.855" y1="299.7496" x2="168.0069" y2="44.5088">
		<stop  offset="0" style="stop-color:#D1AA67"/>
		<stop  offset="0.34" style="stop-color:#CE8630"/>
		<stop  offset="0.58" style="stop-color:#FDD776"/>
		<stop  offset="0.84" style="stop-color:#A86232"/>
		<stop  offset="1" style="stop-color:#D1AA67"/>
	</linearGradient>
	<path fill-rule="evenodd" clip-rule="evenodd" fill="url(#SVGID_3_)" d="M201.1,31.1v74.3h94.5c-1,17.6-6.5,37.5-14.5,57.8h-80V297
		c-0.6,0.7-1.1,1.3-1.6,2c-18.1,21.5-31.4,21.4-51,0c-1.6-1.7-3.3-3.7-5.2-5.9V163.2H64.8c-8.5-20.5-14.5-40.5-15.8-57.8h94.4V32.1
		C162.3,29.5,182.1,29.2,201.1,31.1z"/>
</g>
</svg>
