<?xml version="1.0" encoding="utf-8"?>
<!-- Generator: Adobe Illustrator 24.0.2, SVG Export Plug-In . SVG Version: 6.00 Build 0)  -->
<svg version="1.1" id="Layer_1" xmlns="http://www.w3.org/2000/svg" xmlns:xlink="http://www.w3.org/1999/xlink" x="0px" y="0px"
	 viewBox="0 0 350 350" enable-background="new 0 0 350 350" xml:space="preserve">
<g>
	<g>
		<radialGradient id="SVGID_1_" cx="325.2393" cy="366.8064" r="244.0565" gradientUnits="userSpaceOnUse">
			<stop  offset="0" style="stop-color:#FFFFFF"/>
			<stop  offset="1" style="stop-color:#000000"/>
		</radialGradient>
		<path fill-rule="evenodd" clip-rule="evenodd" fill="url(#SVGID_1_)" d="M295.4,67.5c-49.3-51.8-182.8-48.3-236.2,0
			c-43.2,49.7,58.9,204.1,92.9,241.3c20.3,22.2,34.1,22.3,52.9,0C241.1,265.7,334.4,124.8,295.4,67.5z"/>
		<linearGradient id="SVGID_2_" gradientUnits="userSpaceOnUse" x1="169.1327" y1="243.0479" x2="169.1327" y2="-100.3138">
			<stop  offset="0" style="stop-color:#000000"/>
			<stop  offset="1" style="stop-color:#BBBDBF"/>
		</linearGradient>
		<path fill-rule="evenodd" clip-rule="evenodd" fill="url(#SVGID_2_)" d="M289.5,61.9C236.2,16.1,110.6,21,59.3,67.5
			c-38.2,44,37.2,169.7,78.7,224c-2.6-12.4-3.9-25.1-3.9-38.2C134,162.2,199.8,85.4,289.5,61.9z"/>
		<g>
			<linearGradient id="SVGID_3_" gradientUnits="userSpaceOnUse" x1="319.0098" y1="183.5114" x2="154.2781" y2="-139.7928">
				<stop  offset="0" style="stop-color:#EC1C24"/>
				<stop  offset="1" style="stop-color:#000000"/>
			</linearGradient>
			<path fill="url(#SVGID_3_)" d="M301.5,82c-0.4,0.6-0.7,1.2-0.8,1.5c-0.1,0.2-0.1,0.3-0.1,0.3c-0.1,0.2-0.2,0.4-0.4,0.6
				c-0.2,0.1-0.3,0.3-0.5,0.4c-5.8,5.1-6.2,11.8-5.9,14.8c0.1,1,0.2,1.5,0.2,1.5c0.1,0.5-0.1,0.9-0.4,1.3c0,0-0.1,0.1-0.2,0.1
				c-0.5,0.3-1.1,0.3-1.7,0.1c-10.3-5.3-17.4-2.6-18.2-1.8l0,0c-0.4,0.5-1.2,0.7-1.9,0.4c-12.3-5.2-22.4-5.2-26.7-4.8
				c-1.4,0.1-2.1,0.2-2.1,0.2c-0.8,0.1-1.6-0.3-1.8-1c-1.6-5.4-6.2-11.4-8.1-13.7l-0.2-0.5c-0.8-2.7-2.4-5.5-3.7-7.5
				c-1.3-2-2.4-3.3-2.4-3.3c-0.2-0.2-0.3-0.6-0.3-0.8c0.2-10.4-5.6-19.1-8.3-21.5c0,0-0.1-0.1-0.1-0.1c-0.4-0.3-0.5-0.8-0.4-1.3
				c0.9-3.2,0.7-8.7,0.3-13.2c-0.1-0.8-0.2-1.6-0.2-2.3c1.1,0.2,2.1,0.3,3.1,0.5c0.5,4.6,0.8,10.6-0.1,14.9c3.4,3.5,8.6,12,8.7,22.6
				c1.1,1.3,4.5,6,6.2,11.1c2,2.4,6.1,7.7,8.1,13.3c3.8-0.4,14.8-0.9,28.4,4.6c2.8-1.7,9.5-3.1,18.6,0.7c-0.1-3.7,0.6-10.6,6.9-16.2
				c0.1-0.1,0.2-0.2,0.3-0.2c0.3-0.7,1.1-2.3,2.7-4.1C300.8,79.7,301.2,80.8,301.5,82z"/>
			<linearGradient id="SVGID_4_" gradientUnits="userSpaceOnUse" x1="271.1872" y1="208.589" x2="105.8778" y2="-115.849">
				<stop  offset="0" style="stop-color:#EC1C24"/>
				<stop  offset="1" style="stop-color:#000000"/>
			</linearGradient>
			<path fill="url(#SVGID_4_)" d="M290.2,162.3c-1.8,1.2-3.4,2.5-4.6,3.6c-2.5,2.2-3.8,3.8-3.8,3.8c-0.3,0.4-0.8,0.6-1.3,0.6
				c-0.5,0-1-0.2-1.2-0.6c-2.9-3.9-6.4-7.6-10.1-11c-7.2-6.6-15.3-12.2-22.8-16.7l-0.2-0.1c-5.7-4.5-11.4-8.3-15.7-10.9
				c-4.2-2.6-7-4.1-7-4.1l-0.3-0.2c-0.6-0.6-1.1-1.1-1.7-1.6c-9-8.3-18.3-14.2-27.7-17.6l-0.1,0c-6.7-3.1-12.8-5.3-17.3-6.7
				c-4.4-1.4-7.1-2.1-7.1-2.1c-0.5-0.1-0.9-0.5-1.1-0.9c-0.2-0.4-0.1-0.9,0.2-1.3c13.3-16.5,7.4-40.3,3.5-51.2
				c-1.3-3.6-2.3-5.7-2.3-5.7c-0.1-0.2-0.1-0.4-0.1-0.6c0.2-2.9,0.2-5.9,0-8.9h3.1c0.2,2.9,0.2,5.9,0,8.8
				c1.6,3.6,15.5,35.1-0.5,57.7c3.8,1.1,12.6,3.7,22.8,8.4c9.9,3.6,19.5,9.8,28.7,18.2c0.5,0.5,1.1,1,1.6,1.5
				c1.5,0.8,12.1,6.6,22.9,15.2c7.6,4.6,15.9,10.3,23.2,17c3.3,3.1,6.5,6.4,9.3,9.9c0.7-0.7,1.6-1.7,2.8-2.7c0,0,0.1-0.1,0.1-0.1
				c2-1.8,4.8-3.9,8.3-5.9C291.3,159.4,290.8,160.8,290.2,162.3z"/>
			<linearGradient id="SVGID_5_" gradientUnits="userSpaceOnUse" x1="157.5109" y1="268.0212" x2="-9.0175" y2="-58.8092">
				<stop  offset="0" style="stop-color:#EC1C24"/>
				<stop  offset="1" style="stop-color:#000000"/>
			</linearGradient>
			<path fill="url(#SVGID_5_)" d="M211.7,297.7c-24.2-6.4-46.6-10.6-61.4-13c-11.4-1.9-18.3-2.7-18.3-2.7c-0.6-0.1-1.1-0.5-1.3-1
				c-6.2-19.4-19-37.1-35.1-52.9c-1.7-2.9-3.4-5.8-5-8.7c0.7,0.6,1.4,1.3,2.1,1.9c18.4,16.9,33.5,36.4,40.7,58.1
				c6.2,0.8,41,5.4,80.2,15.9C212.9,296.2,212.3,296.9,211.7,297.7z"/>
			<linearGradient id="SVGID_6_" gradientUnits="userSpaceOnUse" x1="188.5018" y1="252.4702" x2="21.7794" y2="-74.741">
				<stop  offset="0" style="stop-color:#EC1C24"/>
				<stop  offset="1" style="stop-color:#000000"/>
			</linearGradient>
			<path fill="url(#SVGID_6_)" d="M253.8,235.7c-30.7-10.8-60.8-11.5-76.8-10.8c-7.4,0.3-11.8,0.9-11.8,0.9c-0.7,0.1-1.5-0.3-1.7-1
				c-5.6-16-15.7-29.5-27.9-40.8c-24-22.1-56.6-35.8-80.7-43.5c-0.3-1.1-0.7-2.2-1-3.2c24.5,7.7,58.6,21.6,83.8,44.8
				c12.3,11.3,22.4,24.8,28.3,40.8c7.6-0.8,47.8-4.3,89.2,10.4C254.7,234.1,254.3,234.9,253.8,235.7z"/>
			<linearGradient id="SVGID_7_" gradientUnits="userSpaceOnUse" x1="287.9042" y1="202.998" x2="120.2292" y2="-126.0827">
				<stop  offset="0" style="stop-color:#EC1C24"/>
				<stop  offset="1" style="stop-color:#000000"/>
			</linearGradient>
			<path fill="url(#SVGID_7_)" d="M297.6,140.1c-6.5,1.9-12.1,5.1-15.4,7.4c-2,1.3-3.1,2.2-3.1,2.2c-0.6,0.5-1.5,0.5-2.1,0
				c-19.9-17-37.3-26-44.6-29.4c-2.5-1.1-3.8-1.6-3.8-1.6c-0.3-0.1-0.5-0.3-0.7-0.5c-2.7-3.8-5.7-7.1-8.8-9.9
				c-11-10.2-23.7-15-29.3-16.8c-1.9-0.6-2.9-0.8-2.9-0.8c-0.8-0.2-1.3-0.9-1.1-1.6c0,0,0.4-1.9,0.9-5.2c0.4-3.2,0.9-7.7,0.9-12.6
				c0-9.9-1.8-21.7-8.6-29.4c-0.3-0.4-0.4-0.8-0.3-1.3c0,0,0.3-0.9,0.8-2.7c0.5-1.8,1-4.3,1.5-7.5c0-0.1,0-0.2,0-0.3h3.1
				c-0.8,5.4-1.8,9.2-2.3,10.6c12.6,15.3,8.2,41.6,7.1,47.6c4.5,1.3,19.3,6.1,32.2,18c3.2,2.9,6.2,6.2,8.9,10
				c3.2,1.3,23.6,10,47.9,30.5c2.8-2,10.7-7.4,20.3-9.9C298.2,138,297.9,139,297.6,140.1z"/>
			<linearGradient id="SVGID_8_" gradientUnits="userSpaceOnUse" x1="330.0536" y1="179.1573" x2="164.2924" y2="-146.1674">
				<stop  offset="0" style="stop-color:#EC1C24"/>
				<stop  offset="1" style="stop-color:#000000"/>
			</linearGradient>
			<path fill="url(#SVGID_8_)" d="M262.2,44.1c-0.2,0.1-0.4,0.2-0.7,0.2c-0.8,0.1-1.6-0.5-1.7-1.2C260.6,43.4,261.4,43.8,262.2,44.1
				z"/>
			<linearGradient id="SVGID_9_" gradientUnits="userSpaceOnUse" x1="306.8244" y1="191.3547" x2="140.7692" y2="-134.5469">
				<stop  offset="0" style="stop-color:#EC1C24"/>
				<stop  offset="1" style="stop-color:#000000"/>
			</linearGradient>
			<path fill="url(#SVGID_9_)" d="M280.7,185l-1.1-9.7c-0.3-2.2-0.6-4.3-0.8-6.5c-0.7-6.9-1.4-13.7-2.2-20.4
				c-0.2-1.9-0.4-3.8-0.7-5.8c-1.1-5.7-2.2-11.3-3.2-16.8l0-0.1c-0.6-8.5-1.1-16.9-1.7-25.1c-0.5-1.4-1-2.8-1.5-4.1l0-0.2
				c-2-9.5-3.9-18.9-5.8-28c-0.1-0.7,0.4-1.5,1.2-1.6c0.8-0.1,1.6,0.3,1.8,1.1c1.9,9.1,3.8,18.5,5.8,27.9c0.5,1.4,1,2.8,1.6,4.2
				l0.1,0.4c0.6,8.3,1.1,16.7,1.7,25.3c1.1,5.5,2.1,11.1,3.2,16.8l0,0.1c0.2,1.9,0.5,3.9,0.7,5.8c0.7,6.7,1.4,13.5,2.2,20.4
				c0.3,2.2,0.5,4.3,0.8,6.5l0.5,4.6C282.3,181.4,281.5,183.2,280.7,185z"/>
			<linearGradient id="SVGID_10_" gradientUnits="userSpaceOnUse" x1="330.6917" y1="178.2338" x2="165.4147" y2="-146.1405">
				<stop  offset="0" style="stop-color:#EC1C24"/>
				<stop  offset="1" style="stop-color:#000000"/>
			</linearGradient>
			<path fill="url(#SVGID_10_)" d="M302.5,117.6l-11.3-15.1c-1.4-1.9-2.7-3.9-4.1-5.9c-6-9.4-11.9-18.7-17.7-28
				c-0.4-0.7-0.2-1.5,0.6-1.9c0.7-0.4,1.7-0.1,2.1,0.5c5.9,9.2,11.8,18.6,17.7,27.9c1.4,1.9,2.7,3.9,4,5.8c3.1,4.1,6.2,8.3,9.3,12.4
				C302.9,114.7,302.7,116.1,302.5,117.6z"/>
			<linearGradient id="SVGID_11_" gradientUnits="userSpaceOnUse" x1="322.682" y1="181.8507" x2="157.7813" y2="-141.7852">
				<stop  offset="0" style="stop-color:#EC1C24"/>
				<stop  offset="1" style="stop-color:#000000"/>
			</linearGradient>
			<path fill="url(#SVGID_11_)" d="M250.6,39.5c-0.4,0-0.8-0.1-1.1-0.4L250.6,39.5z"/>
			<linearGradient id="SVGID_12_" gradientUnits="userSpaceOnUse" x1="337.6665" y1="174.4929" x2="172.5408" y2="-149.5846">
				<stop  offset="0" style="stop-color:#EC1C24"/>
				<stop  offset="1" style="stop-color:#000000"/>
			</linearGradient>
			<path fill="url(#SVGID_12_)" d="M302.6,87.1l-3.6-2.5c-1.6-1.1-3.3-2.2-4.9-3.4c-7.5-5.4-15.1-10.8-22.6-16.2
				c-0.7-0.5-0.8-1.3-0.2-1.9c0.5-0.6,1.5-0.7,2.2-0.2c7.5,5.4,15.1,10.8,22.6,16.2c1.6,1.1,3.3,2.2,4.9,3.4l0.9,0.6
				C302.1,84.4,302.4,85.8,302.6,87.1z"/>
			<linearGradient id="SVGID_13_" gradientUnits="userSpaceOnUse" x1="314.399" y1="186.3745" x2="149.2493" y2="-137.75">
				<stop  offset="0" style="stop-color:#EC1C24"/>
				<stop  offset="1" style="stop-color:#000000"/>
			</linearGradient>
			<path fill="url(#SVGID_13_)" d="M236,35.1c4.9,3.7,9.8,7.4,14.7,11.1c0.7,0.5,0.7,1.4,0.2,1.9c0,0-0.1,0.1-0.1,0.1
				c-0.6,0.5-1.5,0.5-2.1,0.1c-5.9-4.4-11.8-8.8-17.6-13.3l-2.5-1.7C231.1,33.9,233.5,34.5,236,35.1z"/>
			<linearGradient id="SVGID_14_" gradientUnits="userSpaceOnUse" x1="224.9765" y1="233.8631" x2="58.2737" y2="-93.3096">
				<stop  offset="0" style="stop-color:#EC1C24"/>
				<stop  offset="1" style="stop-color:#000000"/>
			</linearGradient>
			<path fill="url(#SVGID_14_)" d="M254.3,61.4c-5.9,2.5-11.9,5-18,7.5l-0.1,0c-2.3,0.7-4.5,1.5-6.8,2.2c-6.9,3.2-13.9,6.5-21.1,9.8
				c-4.4,1.9-8.9,3.8-13.5,5.8c-2.2,1.3-4.5,2.6-6.7,3.9l-0.2,0.1c-5.8,2.5-11.6,5-17.6,7.6l-0.2,0.1c-4.1,1.1-8.2,2.3-12.3,3.4
				l-0.1,0c-5,1-10.1,1.9-15.2,2.9l-0.2,0c-5.3,0.4-10.6,0.8-16,1.2c-4.4,1.5-8.9,3-13.5,4.6c-5,1.5-10.1,3.1-15.4,4.6
				c-4.4,1.1-8.9,2.2-13.5,3.3l-33,7.2c-0.2-0.9-0.4-1.8-0.6-2.7l32.8-7.2c4.5-1.1,9-2.2,13.3-3.3c5.2-1.6,10.3-3.1,15.2-4.6
				c4.6-1.6,9.2-3.1,13.7-4.6l0.4-0.1c5.4-0.4,10.8-0.8,16.1-1.2c5.1-1,10-1.9,15-2.9c4.1-1.2,8.2-2.3,12.2-3.4
				c5.9-2.5,11.7-5,17.4-7.5c2.3-1.3,4.5-2.6,6.7-3.9l0.2-0.1c4.6-2,9.1-3.9,13.5-5.8c7.2-3.4,14.2-6.6,21.1-9.8l0.2-0.1
				c2.3-0.7,4.6-1.5,6.8-2.2c6.1-2.5,12.1-5,17.9-7.5c0.8-0.3,1.7,0,2,0.7c0.3,0.5,0.1,1.2-0.3,1.6
				C254.6,61.2,254.5,61.3,254.3,61.4z"/>
			<linearGradient id="SVGID_15_" gradientUnits="userSpaceOnUse" x1="337.3048" y1="174.5526" x2="172.2798" y2="-149.3273">
				<stop  offset="0" style="stop-color:#EC1C24"/>
				<stop  offset="1" style="stop-color:#000000"/>
			</linearGradient>
			<path fill="url(#SVGID_15_)" d="M280.3,54.2l-6.7,1.3c-0.8,0.2-1.7-0.3-1.8-1c-0.2-0.8,0.3-1.5,1.2-1.7L277,52
				C278.1,52.7,279.2,53.4,280.3,54.2z"/>
			<linearGradient id="SVGID_16_" gradientUnits="userSpaceOnUse" x1="334.0593" y1="176.4286" x2="168.8524" y2="-147.8081">
				<stop  offset="0" style="stop-color:#EC1C24"/>
				<stop  offset="1" style="stop-color:#000000"/>
			</linearGradient>
			<path fill="url(#SVGID_16_)" d="M270.6,48.2l-0.6,0.8c-0.1,0.1-0.1,0.2-0.2,0.2c-0.5,0.4-1.3,0.5-1.9,0.2
				c-0.7-0.4-0.9-1.3-0.4-1.9l0.5-0.7C268.8,47.3,269.7,47.8,270.6,48.2z"/>
			<linearGradient id="SVGID_17_" gradientUnits="userSpaceOnUse" x1="225.0732" y1="231.0568" x2="60.5963" y2="-91.7473">
				<stop  offset="0" style="stop-color:#EC1C24"/>
				<stop  offset="1" style="stop-color:#000000"/>
			</linearGradient>
			<path fill="url(#SVGID_17_)" d="M130.5,281.4l0.6-1c4.1-7.6,8.2-15.1,12.2-22.5l0.1-0.1c5-7.3,9.9-14.4,14.8-21.4
				c1.9-4.2,3.8-8.3,5.7-12.4l0-0.1c2.9-5.2,5.8-10.4,8.6-15.5c4.1-6.5,8.1-12.8,12-19c3.7-6.4,7.4-12.8,11-19
				c1.9-2.9,3.7-5.7,5.5-8.4c0.8-1.3,1.5-2.6,2.3-4c2.4-4,4.7-8,7-11.9c1.8-3.2,3.6-6.4,5.4-9.6c2.4-3.8,4.8-7.6,7.1-11.3
				c1.6-2.9,3.1-5.8,4.6-8.6l0.1-0.1c1.4-2.1,2.8-4.2,4.2-6.3c1.6-2.7,3.2-5.4,4.8-8.1c1.6-2.5,3.1-5,4.6-7.4c1-1.7,1.9-3.4,2.9-5.1
				c1.2-2,2.4-4,3.6-5.9c3.4-6.6,6.8-13,10.1-19.3c0.4-0.7,1.3-1,2-0.7c0.8,0.3,1.1,1.2,0.7,1.8c-3.3,6.3-6.7,12.7-10.2,19.4
				c-1.2,2-2.4,4-3.6,6c-0.9,1.7-1.9,3.4-2.9,5.1c-1.5,2.4-3.1,4.9-4.6,7.4c-1.6,2.7-3.1,5.3-4.8,8.1c-1.4,2.1-2.8,4.2-4.2,6.3
				c-1.5,2.8-3,5.7-4.6,8.6l0,0.1c-2.4,3.7-4.7,7.5-7.1,11.3c-1.8,3.1-3.6,6.3-5.4,9.5c-2.3,3.9-4.6,7.9-7,11.9
				c-0.8,1.3-1.5,2.6-2.4,4c-1.8,2.8-3.7,5.6-5.5,8.4c-3.6,6.2-7.2,12.5-11,19c-3.9,6.2-7.9,12.6-12,19c-2.8,5.1-5.7,10.2-8.6,15.4
				c-1.9,4.1-3.8,8.3-5.7,12.5l-0.1,0.2c-4.8,7-9.8,14.1-14.8,21.4c-4,7.3-8,14.8-12.2,22.5l-1.4,2.3
				C131.8,283.2,131.2,282.3,130.5,281.4z"/>
			<linearGradient id="SVGID_18_" gradientUnits="userSpaceOnUse" x1="270.2385" y1="70.0578" x2="254.3387" y2="38.8526">
				<stop  offset="0" style="stop-color:#EC1C24"/>
				<stop  offset="1" style="stop-color:#000000"/>
			</linearGradient>
			<path fill="url(#SVGID_18_)" d="M271.8,69.4c-0.3,0.3-0.8,0.4-1.2,0.3c0,0-1.2-0.1-2.4-0.3c-1.1-0.1-2.4-0.3-2.7-0.3c0,0,0,0,0,0
				c-0.3,0-0.6,0-0.9-0.1l-2.1-1v-3.1l3.2,1.5c0,0,0,0,0,0l0,0c0.2,0,0.4,0,0.7,0c0.6,0,1.2,0.1,1.9,0.2c0.5,0.1,1.1,0.1,1.5,0.2
				c0.2-0.4,0.4-0.9,0.6-1.3c0.5-0.9,0.9-1.8,1-2v0c0-0.1,0.1-0.1,0.1-0.1c0-0.1,0.1-0.1,0.1-0.2c0.1-0.1,0.2-0.3,0.3-0.5
				c0.2-0.4,0.5-0.8,0.8-1.3c0.3-0.4,0.5-0.8,0.7-1.1c-1.2-2.1-1.4-4.5-1.4-5.7c-0.1-0.1-0.2-0.1-0.3-0.2c-1.8-1.7-3.4-4.2-4.1-5.2
				c-2-0.9-3.9-2.4-5.4-3.6v-1.4c2.9,1.3,5.7,2.7,8.4,4.2c0.7,1.1,2,3,3.3,4.1c0.2,0.2,0.4,0.3,0.5,0.4c0.4,0.3,0.6,0.7,0.6,1.1
				c0,0,0,0.8,0.1,2c0.2,1.2,0.6,2.6,1.3,3.5c0.3,0.4,0.3,1,0,1.5c0,0-2,2.9-2.3,3.4c0,0,0,0,0,0.1c0,0-0.5,0.9-0.9,1.9
				c-0.5,0.9-1,2-1,2.2C272.3,68.9,272.1,69.2,271.8,69.4C271.9,69.4,271.9,69.4,271.8,69.4z M262.4,68l-4.2-2l-0.4-0.2
				c0,0-4.7-4.2-5.1-4.6c0,0,0,0,0,0c-0.3-0.2-0.5-0.6-0.5-0.9c0,0,0-0.1-0.1-0.3c-0.1-0.3-0.2-0.6-0.4-1.2c-0.4-1-1.1-2.4-2.5-4.2
				c-0.3-0.3-0.4-0.7-0.2-1.1c0,0,0,0,0-0.3c0-0.2,0.1-0.6,0.1-1.1c0-1-0.2-2.5-0.8-4.6c-0.1-0.2-0.1-0.5,0-0.7c0,0,0.4-1.2,0.6-3.1
				c0.2-1.5,0.3-3.3,0.1-4.9c4.7,1.6,9.2,3.4,13.5,5.3v1.4c-0.4-0.3-0.7-0.6-1-0.9c-0.3-0.3-0.6-0.5-0.7-0.7
				c-2.4-0.3-4.9-1.6-7.2-2.8c-0.5-0.3-1-0.6-1.4-0.8c0.1,3.1-0.6,5.9-0.8,6.9c1,3.1,0.9,5.3,0.8,6.3c2.1,2.7,2.8,4.9,3,5.9
				c0.1,0.1,0.3,0.3,0.5,0.4c0.5,0.4,1.2,1,1.8,1.6c1,0.9,2,1.8,2.4,2.2c0.9,0.4,1.7,0.8,2.6,1.2V68z"/>
			<linearGradient id="SVGID_19_" gradientUnits="userSpaceOnUse" x1="293.5471" y1="196.4134" x2="128.8732" y2="-126.7772">
				<stop  offset="0" style="stop-color:#EC1C24"/>
				<stop  offset="1" style="stop-color:#000000"/>
			</linearGradient>
			<path fill="url(#SVGID_19_)" d="M300.7,127.5c-6.1,1.2-10.9,4.3-14.6,7.5c-2.5,2.2-4.4,4.4-5.6,6.1c-1.2,1.7-1.8,2.8-1.8,2.8
				c-0.2,0.4-0.6,0.7-1.1,0.7c-0.5,0.1-1,0-1.3-0.4c-12.8-11.1-23.8-19.2-31.6-24.4c-7.8-5.2-12.4-7.7-12.4-7.7l-0.3-0.2
				c-7.9-7.1-17.5-13.4-25.1-17.9c-7.6-4.5-13.2-7.1-13.2-7.1c-0.7-0.4-1-1.2-0.7-1.8c4.8-8.6,4.4-24.6,1.2-41.2v-0.4
				c0-0.2,0-0.3,0.1-0.5c0.4-4,0.3-8.5-0.1-12.9h3.1c0.4,4.4,0.6,9,0.1,13.2c0,0.1,0,0.2,0,0.4c3,16.2,3.7,31.7-1,41.5
				c5,2.5,23.7,12.2,37.7,24.8c1.9,1,19.3,10.7,43,31.2c1.2-1.8,3.6-4.9,7.1-8c0,0,0,0,0,0c4.1-3.6,9.9-7.2,17.2-8.4
				C301.1,125.5,300.9,126.5,300.7,127.5z"/>
			<linearGradient id="SVGID_20_" gradientUnits="userSpaceOnUse" x1="296.7008" y1="197.6802" x2="129.704" y2="-130.0695">
				<stop  offset="0" style="stop-color:#EC1C24"/>
				<stop  offset="1" style="stop-color:#000000"/>
			</linearGradient>
			<path fill="url(#SVGID_20_)" d="M244.3,91.4c-3.8-3.2-7.6-6.3-11.4-9.5c-0.6-0.5-0.7-1.4-0.1-2c0.6-0.6,1.5-0.6,2.2-0.1
				c3.8,3.1,7.6,6.3,11.4,9.5c0.6,0.5,0.7,1.4,0.1,1.9c0,0,0,0-0.1,0.1C245.8,91.9,244.9,91.9,244.3,91.4z"/>
			<linearGradient id="SVGID_21_" gradientUnits="userSpaceOnUse" x1="249.431" y1="219.654" x2="84.1412" y2="-104.7454">
				<stop  offset="0" style="stop-color:#EC1C24"/>
				<stop  offset="1" style="stop-color:#000000"/>
			</linearGradient>
			<path fill="url(#SVGID_21_)" d="M279.8,186.8c-23.7-15-54-22.7-67.9-25.7c-4.8-1-7.6-1.4-7.6-1.4c-0.4-0.1-0.7-0.3-1-0.6
				c-6.3-7.9-13.8-15.5-21.4-22.5c-10.1-9.3-20.3-17.3-27.9-23.1c-7.7-5.7-12.8-9.1-12.8-9.1c-0.4-0.3-0.6-0.7-0.6-1.1
				c0-33-9.5-57.4-15.1-68.9c1-0.2,2-0.4,3-0.7c5.7,11.9,15,36.2,15.1,68.9c3.6,2.4,22.2,15.2,40.5,32.1c7.5,6.9,15,14.5,21.3,22.4
				c5.4,0.9,45.2,8.2,75.5,27.1C280.7,185.1,280.3,186,279.8,186.8z"/>
			<linearGradient id="SVGID_22_" gradientUnits="userSpaceOnUse" x1="230.8162" y1="230.5287" x2="64.4018" y2="-96.078">
				<stop  offset="0" style="stop-color:#EC1C24"/>
				<stop  offset="1" style="stop-color:#000000"/>
			</linearGradient>
			<path fill="url(#SVGID_22_)" d="M272.5,201.9c-29-16.9-55.8-24.9-68.2-28c-4.7-1.2-7.4-1.7-7.4-1.7c-0.3-0.1-0.7-0.2-0.9-0.5
				c-4.7-5.2-9.6-10.2-14.6-14.8c-25.1-23.1-52.3-38.1-64.2-44.2c-4-2-6.3-3-6.3-3c-0.5-0.2-0.8-0.6-0.8-1.1
				c-2.1-16.5-13.6-40.6-24.6-60.6c0.9-0.4,1.8-0.9,2.7-1.3c10.9,19.8,22.4,43.7,24.8,60.8c5.4,2.5,39.5,18.7,70.6,47.4
				c4.9,4.5,9.8,9.4,14.4,14.5c4.7,0.9,38.3,8,75.8,29.7C273.4,200.2,272.9,201.1,272.5,201.9z"/>
			<linearGradient id="SVGID_23_" gradientUnits="userSpaceOnUse" x1="168.2885" y1="260.7671" x2="3.1853" y2="-63.2661">
				<stop  offset="0" style="stop-color:#EC1C24"/>
				<stop  offset="1" style="stop-color:#000000"/>
			</linearGradient>
			<path fill="url(#SVGID_23_)" d="M229.3,273.7c-25.2-9.8-49.5-11.8-85.1-14c-0.5,0-0.9-0.2-1.2-0.6c-8.5-11.5-18.6-22.2-29.4-32.2
				c-10.7-9.8-22.2-18.9-33.7-27.2c-0.9-1.8-1.9-3.6-2.8-5.5c13.2,9.2,26.4,19.4,38.7,30.7c10.8,9.9,20.8,20.6,29.3,32
				c35.4,2.1,60.1,4.3,85.8,14.4L229.3,273.7z"/>
			<linearGradient id="SVGID_24_" gradientUnits="userSpaceOnUse" x1="211.3511" y1="237.3136" x2="47.4742" y2="-84.3129">
				<stop  offset="0" style="stop-color:#EC1C24"/>
				<stop  offset="1" style="stop-color:#000000"/>
			</linearGradient>
			<path fill="url(#SVGID_24_)" d="M265.7,214.9c-42.9-24.8-71-24.5-77.9-24c-1.1,0.1-1.7,0.2-1.7,0.2c-0.6,0.1-1.2-0.1-1.5-0.6
				c-6.2-8.1-13.2-15.6-20.5-22.3c-27.3-25.1-59.4-40.8-73.7-47c-4.8-2.1-7.5-3.1-7.5-3.1c-0.6-0.2-1-0.7-1-1.3
				c-0.2-20.2-6.3-40.6-13.9-58.5c0.8-0.6,1.7-1.2,2.6-1.7c7.7,17.9,13.9,38.7,14.4,59.3c6.7,2.6,47.6,19.2,81.4,50.3
				c7.2,6.7,14.1,14,20.3,22c5.7-0.6,35.1-2,80.5,24.2C266.6,213.2,266.1,214.1,265.7,214.9z"/>
			<linearGradient id="SVGID_25_" gradientUnits="userSpaceOnUse" x1="219.0558" y1="234.1165" x2="54.5851" y2="-88.6754">
				<stop  offset="0" style="stop-color:#EC1C24"/>
				<stop  offset="1" style="stop-color:#000000"/>
			</linearGradient>
			<path fill="url(#SVGID_25_)" d="M104.5,40.4c3.9,18.9,6.4,47.8-5.4,73.2c4.8,5.6,40.4,47,75.6,93.6c7.4-3.9,45.5-21.5,93.9,2.2
				c-0.4,0.8-0.9,1.7-1.3,2.5c-45.3-22.3-80.9-7.4-90-2.9c-1.5,0.7-2.2,1.2-2.2,1.2c-0.7,0.4-1.7,0.3-2.1-0.4
				c-19-25.2-38.2-49-52.7-66.5c-14.5-17.5-24.1-28.6-24.2-28.6c-0.4-0.4-0.4-0.9-0.2-1.4c11.8-24.5,9.4-53,5.6-71.9
				C102.5,41.1,103.5,40.7,104.5,40.4z"/>
			<linearGradient id="SVGID_26_" gradientUnits="userSpaceOnUse" x1="262.544" y1="215.8159" x2="94.9519" y2="-113.1021">
				<stop  offset="0" style="stop-color:#EC1C24"/>
				<stop  offset="1" style="stop-color:#000000"/>
			</linearGradient>
			<path fill="url(#SVGID_26_)" d="M285.3,174.6c-1,0.7-1.9,1.5-2.9,2.2c-0.6,0.5-1.6,0.5-2.1,0c0,0,0,0-0.1-0.1
				c-1.6-1.5-26.2-23.5-68.7-28.6c-0.5,0-0.9-0.3-1.2-0.7c0,0-1.2-1.9-3.9-5.4c-2.7-3.5-7.1-8.3-13.3-14.1
				c-8.5-7.8-20.5-17.2-37-26.6c-0.5-0.3-0.8-0.8-0.7-1.3c0,0,0.3-1.8,0.4-5.2c0.2-3.4,0.2-8.3-0.1-14.4
				c-0.8-12.2-3.4-29.2-10.9-48.4c-0.1-0.3-0.1-0.5,0-0.8l0.1-0.3c1.1-0.1,2.2-0.3,3.3-0.4c-0.1,0.4-0.2,0.8-0.3,1
				c13.5,34.9,11.3,62.7,10.7,67.9c16.3,9.4,28.3,18.7,36.8,26.6c10.7,9.9,15.9,17.3,17.3,19.5c39.4,4.9,63.6,24,68.8,28.5
				c2-1.6,4-3,5.9-4.3C286.7,171.3,286,173,285.3,174.6z"/>
			<linearGradient id="SVGID_27_" gradientUnits="userSpaceOnUse" x1="215.7295" y1="234.9169" x2="51.9832" y2="-86.4532">
				<stop  offset="0" style="stop-color:#EC1C24"/>
				<stop  offset="1" style="stop-color:#000000"/>
			</linearGradient>
			<path fill="url(#SVGID_27_)" d="M119.3,36c6.6,15,14.4,40.3,8.2,67.6c5.9,3.5,39.7,23.5,63.8,45.7c4.4,4.1,8.5,8.2,12.1,12.4
				c0.5,0.6,0.4,1.3-0.1,1.8c0,0-0.1,0.1-0.1,0.1c-0.7,0.5-1.6,0.4-2.1-0.3c-3.5-4-7.5-8.1-11.8-12.1c-13-12-29.1-23.5-41.9-31.9
				c-12.8-8.4-22.3-13.8-22.3-13.9c-0.6-0.3-0.8-0.9-0.7-1.4c6.5-27-1.3-52.4-7.9-67.2C117.4,36.5,118.3,36.2,119.3,36z"/>
			<linearGradient id="SVGID_28_" gradientUnits="userSpaceOnUse" x1="178.3537" y1="254.7328" x2="13.9831" y2="-67.8627">
				<stop  offset="0" style="stop-color:#EC1C24"/>
				<stop  offset="1" style="stop-color:#000000"/>
			</linearGradient>
			<path fill="url(#SVGID_28_)" d="M57.4,148c21.7,12.8,50,31.2,72.9,52.4c12,11,22.5,22.8,29.9,34.9c6.2,0.6,46.3,4.3,83.8,16.3
				c-0.5,0.8-1,1.6-1.6,2.4c-25.2-8-51.6-12.3-67.8-14.4c-9.6-1.2-15.6-1.7-15.6-1.7c-0.5-0.1-1-0.3-1.2-0.7
				c-7.2-12-17.7-23.8-29.8-34.9c-21.6-19.9-48.1-37.5-69.2-50.1C58.3,150.8,57.9,149.4,57.4,148z"/>
			<linearGradient id="SVGID_29_" gradientUnits="userSpaceOnUse" x1="298.3387" y1="193.532" x2="134.0229" y2="-128.9559">
				<stop  offset="0" style="stop-color:#EC1C24"/>
				<stop  offset="1" style="stop-color:#000000"/>
			</linearGradient>
			<path fill="url(#SVGID_29_)" d="M206.9,30c0.1,4.2,0,9-0.6,14.1c0.6,2.5,5.9,23.4,2.9,34.9c3.4,1.7,14,7.1,22.7,15.2
				c2.5,2.3,4.9,4.8,6.9,7.6c3.2,0.7,18.1,4.6,30.7,16.2c2,1.8,3.9,3.8,5.6,6c2.9,0.1,13.3,0.7,25.1,5.7c-0.2,0.9-0.4,1.8-0.6,2.8
				c-8.7-3.7-16.6-5-21.2-5.5c-2.6-0.2-4-0.2-4-0.2c-0.5,0-1-0.2-1.3-0.6c-1.8-2.3-3.8-4.3-5.8-6.2c-10.1-9.3-21.9-13.5-27.1-14.9
				c-1.7-0.5-2.7-0.7-2.7-0.7c-0.4-0.1-0.7-0.3-1-0.6c-1.9-2.7-4.3-5.3-6.8-7.6c-5.1-4.7-10.8-8.5-15.3-11.1
				c-4.5-2.6-7.7-4.1-7.7-4.1c-0.7-0.3-1-1-0.8-1.6c1.7-5.1,1.1-14,0-21.4c-1.1-7.4-2.7-13.4-2.7-13.5l0-0.5c0.6-5,0.7-9.8,0.6-14
				H206.9z"/>
			<linearGradient id="SVGID_30_" gradientUnits="userSpaceOnUse" x1="264.7387" y1="210.1788" x2="100.8039" y2="-111.5612">
				<stop  offset="0" style="stop-color:#EC1C24"/>
				<stop  offset="1" style="stop-color:#000000"/>
			</linearGradient>
			<path fill="url(#SVGID_30_)" d="M246.1,141.7c-17.1-5.3-26.1-3.8-27.9-3.4c-0.3,0-0.3,0.1-0.3,0.1c-0.8,0.2-1.7-0.1-1.9-0.8
				c0,0-0.3-0.9-1.1-2.5c-0.8-1.6-2.1-3.9-3.9-6.8c-3.6-5.7-9.3-13.3-17.7-21.3c-0.6-0.6-0.6-1.4,0-1.9c0.6-0.5,1.6-0.5,2.2,0
				c14.6,13.7,21.2,26.5,22.9,30.4c3.4-0.6,12.8-1.3,28.7,3.6h0c0.8,0.2,1.2,1,0.9,1.8c-0.1,0.2-0.2,0.4-0.4,0.5
				C247.3,141.8,246.7,141.9,246.1,141.7z"/>
			<linearGradient id="SVGID_31_" gradientUnits="userSpaceOnUse" x1="238.2752" y1="223.4267" x2="74.529" y2="-97.9434">
				<stop  offset="0" style="stop-color:#EC1C24"/>
				<stop  offset="1" style="stop-color:#000000"/>
			</linearGradient>
			<path fill="url(#SVGID_31_)" d="M159.9,30c0.4,2.1,0.6,4,0.7,5.8c0.6,2.5,9,34.7-2.1,64.8c-0.1,0.2-0.2,0.4-0.4,0.5
				c-0.4,0.4-1,0.5-1.6,0.3c-0.8-0.2-1.2-1-1-1.8c8.4-22.7,5.3-47.1,3.3-57.8c-0.7-3.6-1.3-5.6-1.3-5.6l0-0.3
				c-0.1-1.8-0.3-3.8-0.7-6H159.9z"/>
			<linearGradient id="SVGID_32_" gradientUnits="userSpaceOnUse" x1="266.3187" y1="209.4056" x2="102.3578" y2="-112.3858">
				<stop  offset="0" style="stop-color:#EC1C24"/>
				<stop  offset="1" style="stop-color:#000000"/>
			</linearGradient>
			<path fill="url(#SVGID_32_)" d="M276.2,194.5c-15-6.4-30.5-9.4-37.9-10.6c-2.8-0.5-4.5-0.7-4.5-0.7c-0.8-0.1-1.4-0.8-1.3-1.5
				c0.1-0.8,0.9-1.3,1.7-1.2c0.1,0,21.9,2.5,43.2,11.5C277,192.8,276.6,193.7,276.2,194.5z"/>
			<linearGradient id="SVGID_33_" gradientUnits="userSpaceOnUse" x1="322.049" y1="181.0149" x2="158.0826" y2="-140.7874">
				<stop  offset="0" style="stop-color:#EC1C24"/>
				<stop  offset="1" style="stop-color:#000000"/>
			</linearGradient>
			<path fill="url(#SVGID_33_)" d="M299.3,75.3c-1.1,1.1-2,2.3-2.7,3.3c-0.7,1.2-1.1,1.9-1.1,1.9l-0.3,0.5c-1.8,1.6-3.3,5.4-4.1,8.8
				c-0.8,3.4-1.1,6.2-1.1,6.2c0,0.3-0.2,0.6-0.5,0.8c-0.1,0.1-0.2,0.2-0.4,0.2c-0.5,0.2-1,0.2-1.5,0c-4.4-2.3-11.4-1-14.6-0.1
				c-1.1,0.3-1.6,0.5-1.6,0.5c-0.5,0.2-1.2,0.1-1.6-0.3c-3.6-3-9.1-5.9-13.6-8c-4.5-2.1-8-3.5-8.1-3.5c-0.4-0.1-0.7-0.4-0.8-0.8
				c-2.4-5.4-7-10.3-10.3-13.3c-2.1-1.9-3.6-3-3.6-3c-0.4-0.3-0.6-0.8-0.5-1.2c0.5-2.8-0.8-7.2-2.3-10.8c-1.3-3.3-2.8-6-3-6.3
				c-0.1-0.1-0.2-0.3-0.2-0.5c-0.8-5.3-3.5-11.3-6-15.9c-0.4-0.7-0.7-1.3-1.1-2c1.3,0.2,2.5,0.5,3.8,0.7c1.8,3.3,3.7,7.3,5,11.5
				c0.3-1.5,0.4-3.1,0.4-4.5c0.1-3.1-0.3-5.6-0.3-5.6c0-0.1,0-0.2,0-0.3c1.6,0.4,3.2,0.7,4.8,1.1c-0.5,0.2-1.1,0.3-1.6,0.4
				c0.2,3,0.5,9.6-1.9,14.4c1.3,2.4,5.7,11.1,5.3,17.4c0.7,0.5,1.8,1.5,3.2,2.7c3.3,3.1,8,8,10.7,13.7c2.7,1.1,14.1,5.8,21.2,11.3
				c2.5-0.8,9.6-2.7,15.9-0.8c0.2-1.2,0.5-2.9,1-4.7c0.9-3.5,2.2-7.4,4.7-9.9c0.4-0.9,2-4,5.1-6.6l0.2-0.1
				C298.5,73.4,298.9,74.4,299.3,75.3z"/>
			<linearGradient id="SVGID_34_" gradientUnits="userSpaceOnUse" x1="340.899" y1="174.6237" x2="174.3371" y2="-152.2726">
				<stop  offset="0" style="stop-color:#EC1C24"/>
				<stop  offset="1" style="stop-color:#000000"/>
			</linearGradient>
			<path fill="url(#SVGID_34_)" d="M295.4,67.6l-20.5-5.9c-0.8-0.2-1.3-1-1-1.7c0.3-0.7,1.1-1.1,1.9-0.9l16.3,4.7
				c0.8,0.7,1.5,1.5,2.3,2.3C294.7,66.5,295,67.1,295.4,67.6z"/>
			<linearGradient id="SVGID_35_" gradientUnits="userSpaceOnUse" x1="278.8222" y1="204.869" x2="113.3781" y2="-119.8332">
				<stop  offset="0" style="stop-color:#EC1C24"/>
				<stop  offset="1" style="stop-color:#000000"/>
			</linearGradient>
			<path fill="url(#SVGID_35_)" d="M147.7,30.6c3.9,1.4,7.9,2.7,11.8,4.1c4,1,8,2,11.9,3c3.1,0.6,6.2,1.3,9.2,1.9
				c5.2,0.9,10.3,1.8,15.4,2.6c3,0.2,5.9,0.4,8.9,0.6l0.2,0c4.8,1,9.5,2,14.3,3c3.4,0.8,6.8,1.6,10.2,2.4c7.2,1.5,14.2,2.9,21.2,4.3
				v0c0.8,0.2,1.3,0.9,1.2,1.6c-0.1,0.3-0.2,0.5-0.4,0.7c-0.4,0.3-0.9,0.5-1.4,0.4c-7-1.4-14.1-2.9-21.3-4.4
				c-3.4-0.8-6.8-1.6-10.2-2.4c-4.7-1-9.4-2-14.1-3c-2.9-0.2-5.9-0.4-8.8-0.6l-0.2,0c-5.1-0.9-10.3-1.8-15.5-2.7
				c-3.1-0.6-6.2-1.3-9.3-1.9c-4-1-8-2-12-3l-0.1,0c-4.2-1.4-8.4-2.9-12.6-4.3l-5.6-1.2C142.8,31.2,145.3,30.9,147.7,30.6z"/>
		</g>
		<path d="M293.6,68.9C269.8,44.1,226,32.2,181.2,32.2c-1.5,0-3,0-4.5,0v-4.6c1.5,0,3,0,4.5,0c45.9,0,91.1,12.3,115.8,38.2l0.2,0.3
			c15.8,23.2,10.8,59.2-3.4,97.1c-21.7,58-65,120.7-87.1,147c-9.8,11.7-18.5,17.5-27.6,17.5c-0.8,0-1.6-0.1-2.4-0.1V323
			c0.8,0.1,1.6,0.2,2.4,0.2c7.6,0,15.2-5.3,24.1-15.9c21.9-26.1,64.8-88.2,86.3-145.6C303.3,125.2,308.3,90.7,293.6,68.9z
			 M176.7,32.3c-44.9,0.8-90,13.5-115.9,36.8c-16.1,18.6-10.9,53,3.5,90.2c22.8,59.3,68.8,125.4,89.5,148c8.7,9.5,16,14.7,22.9,15.8
			v4.6c-8.2-1-16.6-6.7-26.3-17.3c-20.9-22.8-67.3-89.6-90.4-149.4C45.2,122.1,40,86.1,57.5,66l0.2-0.2c26.7-24.2,73-37.3,119-38.1
			V32.3z"/>
	</g>
	<path fill="#D0D2D3" d="M131.3,57.3c2.3,1,2.9,3.5,3.6,5.6c1.8,5.6,4,11,5.7,16.6c2.7,2.5,4.1,5.9,6.4,8.8c1.7,3.1,3.7,6,5.8,8.8
		c2.3,3.1,4.2,6.6,6.9,9.4c4,3.1,7.9,6.3,11.9,9.4c3.9,3,6.8,7.5,11.5,9.3c-1-1.5-2.2-2.8-3.3-4.1c-0.5-1.8-1.2-3.5-2.1-5.2
		c0.3-1.6,0.2-5,2.6-4.6c-0.3,1.2-0.8,2.3-1.1,3.5c0.3,1.7,1.7,2.9,2.6,4.2c-0.2,0.4-0.5,1.3-0.7,1.7c0.4,0.2,1.3,0.5,1.7,0.6
		c-0.3-1.6-0.6-3.1-0.9-4.7c1.6-0.2,3.6-1.1,4.1,1.1c0.3-0.8,0.5-1.6,0.8-2.4c2,0.1,3.3,1.3,3.4,3.3c0.3-0.8,0.6-1.7,0.9-2.5
		c0.2-2.6-0.7-5.2-1.1-7.8c0.6,0.4,1.8,1.2,2.4,1.6c0.7,3,0.7,6,0.7,9c-0.4,1.1-0.8,2.3-1.1,3.5c1.7-1.8,3-3.9,4.4-5.9
		c4.8-5.8,10-11.3,15-17c0.3-1.5,0.7-3,1.1-4.4c0.4-1.7,0.8-3.5,1.1-5.3c1.5-7.4,2.6-14.8,4.4-22.1c-0.8-7.5-5.8-13.6-7.4-20.9
		c0.3-0.3,0.8-1,1.1-1.3c1.7,8.8,7.9,16.4,7.9,25.7c-0.9,4.9-2.2,9.8-3,14.7c-0.4,3.5-1,7-1.7,10.5c0,0.5,0.1,1.5,0.2,2
		c-2.3,4.2-4.4,8.6-8,11.9c-3.9,3.8-8.2,7.9-9.8,13.3c5.4-7.1,14.7-8.8,21.3-14.4c3.3-6.7,4.5-14.2,7-21.2c1-2.9,1.6-5.8,2.5-8.7
		c2.3-5.2,0.2-10.9,0.4-16.4c0.1-4.3-1.6-8.3-4-11.8c1.8,1.4,3.3,3.3,4.6,5.2c1.1,4.1,0.1,8.4,1,12.5c0.8,4.5,1.5,9.4-0.5,13.8
		c-0.5,2.1-1.1,4.2-1.7,6.3c-1.8,5.8-3.8,11.7-4.8,17.7c-2.7,8.3-11.1,12.7-18.4,16.4c-3.2,1.2-4.5,4.6-5.4,7.6
		c1.5-0.8,2.9-2.2,4.7-2.2c5.7-0.5,11.4,1.5,17.1,0.7c3.1-1,5.8-3.2,8-5.6c2.9-3.3,6.1-6.2,8.9-9.7c3.8-3.7,4.8-9.1,6.2-13.9
		c0.4-1.3,0.9-2.6,1.3-4c0.4-0.3,1.2-0.9,1.6-1.2c-0.1,0.5-0.4,1.6-0.5,2.1c-0.9,2.6-1.8,5.3-2.3,8c-0.6,1.7-1.1,3.5-1.4,5.4
		c-1.1,4.4-4.9,7.1-7.7,10.4c-3.1,3.2-6,6.7-9.4,9.6c-6.5,4.4-14.6,2.8-21.9,2.8c-1.1,0.4-2.3,0.8-3.5,1.2c-0.4,1.4-0.9,2.7-1.1,4.2
		c4.1,1.6,8.4,2.7,12.2,5.1c6.2,5,12.5,9.7,18.7,14.6c4.7,3.1,9.4,6,14,9.3c6.7,6.2,14.2,11.5,20.8,17.9c1.4,1,2.8,2,4.3,2.8
		l-1.5,0.3c-3.8-2.4-7-5.5-10.6-8.1c-4.4-3.5-8.4-7.6-13.5-10c-4.4-3.3-9-6.5-13.6-9.6c-4.9-2.7-9.2-6.5-14.3-8.8
		c-2.2-1.2-4-3-6.2-4.4c-3.3-2.1-7.1-3.4-10.8-4.6c-1.8-0.6-4-0.4-5.4,1c8.1,4.5,19.9,16.9,20.2,26.9c0.1,5.2-8.4,17.2-13.8,18.9
		c-3.7,1.1-17.4-8.2-19.4-11.5c-3.5-6,5.1-29.6,9.5-33.1c-0.2-1-0.4-1.9-0.6-2.9c-1.9,1.1-3.6,2.4-5.6,3.2
		c-4.4,2.9-7.3,7.5-8.9,12.4c-1.4,5.1-5.1,9.2-6.4,14.3c-0.6,2.4-4.2,14.1-4.6,27.4c-0.4,14.5,2.6,30.7,2.2,33.5
		c-0.6-0.1-3.9-28.8-4.4-28.9c0.2-1,1.3-19.1,1.6-20.1c1.2-5.3,2.3-10.5,3.5-15.8c0.5-1.2,1.2-2.4,1.8-3.6c1.3-4.3,3.1-8.4,4.3-12.7
		c2-2.8,4.2-5.4,6.3-8.1c1.3-0.8,2.5-1.8,3.5-2.9c-5.2-3.1-11.5-2.2-17-0.5c-8.1,2.4-16.6,1.3-24.7-0.2c-7.2-1.8-15.1-1.4-21.4-5.7
		c-5.4-2.6-10.6-5.8-16.5-6.8c2.6-0.5,5.4-0.3,7.8,1c4.5,2.3,9.2,4.2,13.6,6.7c0.5-0.1,1.5-0.3,2.1-0.4c7.7,1.9,15.7,2.9,23.6,3.7
		c2.5,0.6,4.8-0.9,7.2-1.1c5.6-0.6,10.8-2.8,16.5-2.8c2.1,0,4.2,1.3,6.1-0.3c-0.7-0.2-2.1-0.6-2.7-0.7c-0.3-0.4-0.9-1-1.2-1.4
		c-3.4-1.7-7.2-2.6-10.9-3.5c-6.7-1.9-13.1-4.5-19.3-7.6c-2-1-3-3.2-4.7-4.5c-5.6-4.8-11.1-9.8-16.7-14.6c-4-4.3-7.6-8.8-11.4-13.2
		c-3.5-3.9-6.9-8-9.3-12.8c0.3-0.1,0.9-0.2,1.2-0.3c1,2.7,2.6,5,4.7,7c3,3.2,5.8,6.6,8.7,9.9c1.5,1.8,2.8,3.8,4.8,5.1
		c4.1,2.8,7.2,6.6,11,9.7c4.3,3.5,8.5,7.2,12.8,10.8c1.7,1.6,4,1.9,6.1,2.7c7.4,2,14.9,3.5,21.9,6.7c1.5,0.8,3,1.5,4.6,2
		c-0.6-1-1.1-2-1.7-3c-0.8-0.7-1.5-1.4-2.2-2.2c-5.1-3.2-9.4-7.3-13.9-11.2c-1.9-2.6-4.6-4.5-6.5-7.1c-1.8-3.7-4.2-7-6.5-10.3
		c-2.7-4.3-5.6-8.3-8.4-12.5c-2.6-6.9-5.3-13.9-7.2-21C132.5,60.4,131.8,58.9,131.3,57.3z"/>
</g>
</svg>
