<svg id="Layer_1" data-name="Layer 1" xmlns="http://www.w3.org/2000/svg" viewBox="0 0 132.11 37.21"><defs><style>.cls-1{fill:#fff;}</style></defs><title>achorded_logo</title><path class="cls-1" d="M21.81,11.9c3.4,7.86,5.08,11.69,8.4,19.19.74,1.66,1.28,2.34,2.26,2.63l.07.52c-3.18.58-4.77.89-7.94,1.53l-.07-.53c.88-.72,1-1.65.45-3-.46-1.06-.69-1.6-1.16-2.67-2.91.53-4.36.8-7.26,1.37-.38,2.29-.72,3.93.33,4.93a3.55,3.55,0,0,0,1.33.7l.07.54c-2.68.59-4,.9-6.7,1.53l-.08-.56a8.7,8.7,0,0,0,2.3-5c1.33-8.4,2-12.52,3.41-20.61Zm1.13,15.63c-1.66-3.78-2.49-5.7-4.17-9.58-.74,4.22-1.11,6.35-1.83,10.66C19.34,28.16,20.54,28,22.94,27.53Z" transform="translate(-11.51 -1.41)"/><path class="cls-1" d="M45.8,27.92c-1.11,2.86-2.58,4.65-5.45,5.41a6.28,6.28,0,0,1-6-1.25c-2.45-2.11-2.87-6.63-2.48-9,.42-2.55,1.58-4.8,4.29-5.9,1.65-.67,4.63-.9,6.4.19a3.55,3.55,0,0,1,1.88,2.56,1.48,1.48,0,0,1-.8,1.4,2.72,2.72,0,0,1-1.94.16c-1.23-.41-1.62-2.18-2.28-2.83a2,2,0,0,0-2-.48,2.08,2.08,0,0,0-1.4,1.34c-.64,1.63.22,7.91,1.55,9.48a4.07,4.07,0,0,0,3.6,1.44c1.5-.17,2.62-.89,3.83-2.69Z" transform="translate(-11.51 -1.41)"/><path class="cls-1" d="M51.07,8.85c.43,3.61.65,5.42,1.08,9,.19-.16.29-.24.47-.41,2.11-1.79,4.42-3.56,6.74-2.78,1.93.65,2,2.76,2.15,4.19.35,3.12.53,4.68.89,7.81.18,1.6.09,1.9,1.33,2.5l0,.37c-2.59.31-3.88.47-6.46.81L57.26,30c.93-.7,1-1,.81-2.26-.3-2.61-.46-3.92-.76-6.53-.16-1.39-.25-2.93-1.38-3.36-1-.36-2.19.21-3.65,1.12.44,3.67.66,5.51,1.09,9.17.13,1.07.07,1.7,1.3,2.21l0,.37c-2.57.35-3.85.53-6.42.92l0-.38a1.78,1.78,0,0,0,.8-2c-.67-5.54-1-8.31-1.68-13.86-.14-1.15-.25-2.06-1.89-2.33l-.09-.71A12.64,12.64,0,0,0,50.45,8.9Z" transform="translate(-11.51 -1.41)"/><path class="cls-1" d="M76.87,14.76a8.72,8.72,0,0,1,3,8,6.8,6.8,0,0,1-4.45,5.74,8.43,8.43,0,0,1-6.64-.29,8.16,8.16,0,0,1-4.2-7,8.33,8.33,0,0,1,3.59-7,8.14,8.14,0,0,1,2-.81A8.26,8.26,0,0,1,76.87,14.76Zm-7.45,7.9c.16,1.42.45,4.34,2.25,5.07A3,3,0,0,0,74,27.49c1.83-1.12,1.53-3.91,1.36-5.5-.07-.65-.11-1-.18-1.63-.15-1.47-.61-4.74-2.07-5.64a2.69,2.69,0,0,0-2-.28c-2.51.61-2.11,4.47-2,5.78C69.26,21.2,69.32,21.68,69.42,22.66Z" transform="translate(-11.51 -1.41)"/><path class="cls-1" d="M86.41,12c.12,1.27.19,1.91.32,3.19,1.41-1.54,2.79-3.41,4.9-3.2a2.29,2.29,0,0,1,2,1.22,2.18,2.18,0,0,1-.21,2.26,2.46,2.46,0,0,1-2.2.82c-1.61-.13-2.42-.7-3.33-.08s-.64,2.66-.56,3.54c.2,1.93.29,2.89.49,4.82.09.94,0,1.71,1.26,2.24l0,.37c-2.58.19-3.87.29-6.45.51l0-.36c1.09-.78.91-1.27.78-2.49l-.65-6.37c-.15-1.41-.13-2.21-1.87-2.57l-.07-.68A12.62,12.62,0,0,0,85.89,12Z" transform="translate(-11.51 -1.41)"/><path class="cls-1" d="M107.47,4.14c.66,7.63,1,11.46,1.64,19.12.09,1,0,1.62,1.22,2.23l0,.38c-2.18.09-3.27.15-5.44.26l-.15-1.69c-1.86,1.57-3.47,2.8-5.83,2.31A5.41,5.41,0,0,1,95,23.2c-1.28-2.88-1.34-7.43,1.13-10.35a5.58,5.58,0,0,1,4.68-1.94A5.67,5.67,0,0,1,103.68,12l-.05-.57c-.19-2.06-.11-3-1.94-3.36l-.06-.69a12,12,0,0,0,5.19-3.18Zm-5.63,8.05a2.43,2.43,0,0,0-2.3.19c-1.87,1.28-1.18,6.42-.92,7.64s1,3.37,2.88,3.91c1.13.31,2,0,3.14-1.07-.18-2.14-.28-3.21-.47-5.35S103.87,13.05,101.84,12.19Z" transform="translate(-11.51 -1.41)"/><path class="cls-1" d="M115.62,17.31a6,6,0,0,0,3.82,5.32c2.07.72,3.92.16,6-1.53l.55.34c-1.79,3-3.75,4.49-6.77,4.55a7.19,7.19,0,0,1-6.07-2.92,9.7,9.7,0,0,1-1.26-9,7.75,7.75,0,0,1,5.25-4.34A6.74,6.74,0,0,1,123,11.41a9.19,9.19,0,0,1,2.29,5.42C121.44,17,119.5,17.11,115.62,17.31ZM121,15.56a4.14,4.14,0,0,0-.28-2.86,2.93,2.93,0,0,0-2-1.68,2.84,2.84,0,0,0-2.22.41c-1.45,1.09-1.13,3.76-1,4.84l3.69-.2C119.9,16,120.75,16.07,121,15.56Z" transform="translate(-11.51 -1.41)"/><path class="cls-1" d="M141.19,1.41c.5,8.26.75,12.41,1.24,20.75.06,1.07-.06,1.76,1.17,2.47l0,.41-5.44.05c-.05-.73-.07-1.09-.12-1.82-1.89,1.61-3.53,2.86-5.88,2.22a5.76,5.76,0,0,1-3.85-3.92c-1.22-3.09-1.18-7.87,1.35-10.92a5.52,5.52,0,0,1,4.72-2,5.46,5.46,0,0,1,2.82,1.21l0-.61c-.14-2.21,0-3.27-1.86-3.63l-.05-.73a12,12,0,0,0,5.26-3.42ZM135.39,10a2.33,2.33,0,0,0-2.31.17c-1.9,1.34-1.31,6.81-1.08,8.12s.89,3.62,2.81,4.28c1.12.37,2,0,3.16-1-.14-2.31-.22-3.46-.36-5.77C137.45,13.34,137.4,11,135.39,10Z" transform="translate(-11.51 -1.41)"/></svg>