<svg id="Layer_1" data-name="Layer 1" xmlns="http://www.w3.org/2000/svg" viewBox="0 0 244.7 68.93"><title>Achorded Logo</title><path d="M23.29,24Q31,41.8,38.85,59.55c1.36,3.07,2.37,4.34,4.19,4.87,0,.39.07.58.12,1-5.89,1.09-8.83,1.66-14.71,2.85l-.12-1c1.63-1.34,2-3,.84-5.57-.86-2-1.29-3-2.15-5-5.39,1-8.07,1.48-13.45,2.53-.7,4.24-1.33,7.28.61,9.13a6.31,6.31,0,0,0,2.46,1.3l.14,1c-5,1.09-7.46,1.65-12.42,2.82l-.14-1a16,16,0,0,0,4.25-9.31q3-19.1,6.33-38.16C18.19,24.6,19.89,24.4,23.29,24Zm2.09,29c-3.07-7-4.61-10.56-7.72-17.75C16.29,43,15.61,47,14.27,55,18.71,54.13,20.93,53.73,25.38,53Z" transform="translate(-4.22 -4.59)"/><path d="M67.73,53.68C65.67,59,63,62.3,57.64,63.69a11.6,11.6,0,0,1-11.13-2.31C42,57.47,41.2,49.1,41.92,44.73c.77-4.73,2.92-8.88,7.93-10.93,3.06-1.23,8.58-1.65,11.86.35,1.9,1.17,3.47,3.05,3.49,4.76a2.76,2.76,0,0,1-1.5,2.58,5,5,0,0,1-3.59.3c-2.27-.76-3-4-4.22-5.24a3.67,3.67,0,0,0-3.62-.89,3.88,3.88,0,0,0-2.6,2.49c-1.19,3,.42,14.65,2.88,17.55a7.56,7.56,0,0,0,6.66,2.67c2.78-.32,4.86-1.66,7.1-5Z" transform="translate(-4.22 -4.59)"/><path d="M77.49,18.35c.81,6.7,1.21,10,2,16.72l.87-.76c3.9-3.32,8.19-6.6,12.47-5.16,3.58,1.21,3.67,5.11,4,7.76.67,5.79,1,8.68,1.66,14.46.34,3,.16,3.53,2.45,4.65l.08.68c-4.79.57-7.18.87-12,1.49L89,57.5c1.71-1.3,1.77-1.85,1.5-4.19-.57-4.84-.85-7.26-1.42-12.1-.3-2.56-.45-5.41-2.54-6.21-1.77-.68-4.06.38-6.77,2.06.82,6.8,1.22,10.2,2,17,.23,2,.13,3.14,2.41,4.09l.08.69c-4.76.65-7.14,1-11.89,1.7l-.08-.71c1.64-1.34,1.68-2,1.46-3.79-1.23-10.25-1.86-15.38-3.11-25.68-.26-2.12-.46-3.81-3.49-4.31L67,24.72a23.47,23.47,0,0,0,9.38-6.26Z" transform="translate(-4.22 -4.59)"/><path d="M125.28,29.31a16.15,16.15,0,0,1,5.48,14.76,12.6,12.6,0,0,1-8.24,10.63,15.62,15.62,0,0,1-12.3-.53,15.11,15.11,0,0,1-7.77-12.92c-.08-3.78,1.65-9.85,6.64-12.92a14.94,14.94,0,0,1,3.7-1.51C116.32,25.92,121.77,26.44,125.28,29.31ZM111.49,43.93c.29,2.63.83,8,4.16,9.4a5.64,5.64,0,0,0,4.4-.45c3.37-2.08,2.82-7.25,2.51-10.18-.14-1.21-.2-1.82-.33-3-.29-2.72-1.13-8.78-3.85-10.44a4.82,4.82,0,0,0-3.74-.51C110,29.83,110.72,37,111,39.42Z" transform="translate(-4.22 -4.59)"/><path d="M142.94,24.1l.6,5.9c2.61-2.84,5.18-6.3,9.08-5.92a4.22,4.22,0,0,1,3.6,2.26,4,4,0,0,1-.38,4.19,4.6,4.6,0,0,1-4.07,1.52c-3-.25-4.48-1.29-6.17-.16s-1.19,4.94-1,6.56l.9,8.94c.17,1.72,0,3.15,2.33,4.14l.06.68c-4.78.36-7.17.55-11.94,1l-.08-.68c2-1.44,1.68-2.36,1.45-4.6-.48-4.72-.73-7.09-1.21-11.81-.27-2.61-.24-4.09-3.46-4.77l-.13-1.25A23.05,23.05,0,0,0,142,24.17Z" transform="translate(-4.22 -4.59)"/><path d="M182,9.64q1.55,17.7,3.05,35.41c.15,1.82,0,3,2.26,4.13l.06.7c-4,.18-6,.27-10.06.48-.11-1.25-.17-1.88-.28-3.13-3.45,2.9-6.44,5.2-10.8,4.28-3.84-.81-5.89-3.39-7.27-6.57-2.37-5.33-2.47-13.76,2.09-19.17a10.37,10.37,0,0,1,8.68-3.6,10.5,10.5,0,0,1,5.26,2l-.1-1.06c-.34-3.8-.2-5.62-3.59-6.22,0-.51-.06-.76-.11-1.27a22.18,22.18,0,0,0,9.61-5.9Zm-10.42,14.9a4.53,4.53,0,0,0-4.26.35c-3.47,2.37-2.19,11.9-1.71,14.16s1.78,6.23,5.35,7.25c2.09.56,3.65,0,5.82-2-.35-4-.53-5.94-.88-9.9C175.47,30.17,175.29,26.13,171.53,24.54Z" transform="translate(-4.22 -4.59)"/><path d="M197.05,34c.39,3.34,2,8.07,7.07,9.85,3.84,1.34,7.26.29,11.17-2.84l1,.63c-3.31,5.6-6.93,8.33-12.52,8.44a13.33,13.33,0,0,1-11.25-5.42c-3.54-4.4-4.31-11.82-2.34-16.58a14.38,14.38,0,0,1,9.73-8,12.49,12.49,0,0,1,10.87,3c2.67,2.63,3.95,6.9,4.24,10C207.83,33.47,204.24,33.65,197.05,34Zm10-3.25c.44-.79.39-3.27-.52-5.28a5.42,5.42,0,0,0-3.62-3.12,5.31,5.31,0,0,0-4.11.76c-2.68,2-2.1,7-1.94,9l6.84-.37C205,31.66,206.56,31.72,207.08,30.78Z" transform="translate(-4.22 -4.59)"/><path d="M244.42,4.59q1.17,19.2,2.29,38.42c.11,2-.11,3.25,2.17,4.57l.05.76c-4,0-6.05,0-10.07.1-.09-1.35-.13-2-.21-3.37-3.52,3-6.56,5.29-10.9,4.11-3.81-1-5.81-3.86-7.13-7.27-2.26-5.73-2.18-14.57,2.5-20.22a10.16,10.16,0,0,1,8.75-3.7,10,10,0,0,1,5.22,2.24c0-.45,0-.68-.07-1.14-.26-4.09-.09-6.05-3.46-6.71,0-.55-.06-.82-.09-1.36a22.05,22.05,0,0,0,9.74-6.33Zm-10.75,16a4.27,4.27,0,0,0-4.27.31c-3.52,2.47-2.43,12.62-2,15s1.65,6.7,5.19,7.92c2.08.69,3.65.1,5.86-1.9-.26-4.28-.4-6.42-.67-10.69C237.5,26.67,237.41,22.31,233.67,20.55Z" transform="translate(-4.22 -4.59)"/></svg>